<?xml version="1.0" encoding="utf-8"?>
<!-- Generator: Adobe Illustrator 19.0.0, SVG Export Plug-In . SVG Version: 6.00 Build 0)  -->
<svg version="1.1" id="Layer_1" xmlns="http://www.w3.org/2000/svg" xmlns:xlink="http://www.w3.org/1999/xlink" x="0px" y="0px"
	 viewBox="0 0 792 612" style="enable-background:new 0 0 792 612;" xml:space="preserve">
<style type="text/css">
	.st0{fill:#669740;}
	.st1{fill:#7BB542;}
	.st2{fill:#322F37;}
	.st3{fill:#FFFFFF;}
	.st4{fill:#ABE1FA;}
	.st5{fill:#5D5A64;}
	.st6{fill:#E9E8EC;}
	.st7{fill:#8BD7F8;}
	.st8{fill:none;stroke:#669740;stroke-width:2.8347;stroke-miterlimit:10;}
</style>
<g id="XMLID_1_">
	<rect id="XMLID_9327_" x="34.4" y="332" class="st0" width="14" height="32.6"/>
	<path id="XMLID_9326_" class="st1" d="M738.3,272.1L630.7,235l-70.4-102.5l-145.9,0.2v126H47.7v140.6h46.4c8-44.8,47.2-79,94.3-79
		c47.1,0,86.3,34.2,94.3,79h14.9H509h17.7c8-44.8,47.2-79,94.3-79c47.1,0,86.3,34.2,94.3,79h23.1V272.1z"/>
	<path id="XMLID_9325_" class="st2" d="M188.3,347.2c-32.2,0-59.3,22.2-66.8,52.1h2.1h131.5C247.6,369.4,220.5,347.2,188.3,347.2z"
		/>
	<path id="XMLID_9285_" class="st3" d="M520,269.8c0-3.4-3.1-6.2-7-6.2h-25.6c-3.9,0-7,2.8-7,6.2l0,0c0,3.4,3.1,6.2,7,6.2h25.6
		C516.8,276,520,273.2,520,269.8L520,269.8z"/>
	<polygon id="XMLID_9186_" class="st4" points="456,153.1 546.6,153 600.1,235 456,235 	"/>
	<path id="XMLID_9113_" class="st0" d="M119.6,411.9c2.1-36.1,32.1-64.8,68.7-64.8c36.6,0,66.6,28.7,68.7,64.8H284
		c-2.2-50.9-44.2-91.7-95.7-91.7c-51.4,0-93.5,40.8-95.7,91.7H119.6z"/>
	<circle id="XMLID_9112_" class="st2" cx="188.3" cy="416" r="64.4"/>
	<circle id="XMLID_9111_" class="st5" cx="188.3" cy="416" r="43.1"/>
	<circle id="XMLID_9110_" class="st6" cx="188.3" cy="416" r="37.9"/>
	<circle id="XMLID_9109_" class="st2" cx="188.3" cy="416" r="23.4"/>
	<g id="XMLID_9090_">
		<g id="XMLID_9106_">
			<circle id="XMLID_9108_" class="st5" cx="188.3" cy="386.7" r="3.3"/>
			<circle id="XMLID_9107_" class="st5" cx="188.3" cy="445.4" r="3.3"/>
		</g>
		<g id="XMLID_9103_">
			<circle id="XMLID_9105_" class="st5" cx="173.7" cy="390.6" r="3.3"/>
			<circle id="XMLID_9104_" class="st5" cx="203" cy="441.5" r="3.3"/>
		</g>
		<g id="XMLID_9100_">
			<circle id="XMLID_9102_" class="st5" cx="162.9" cy="401.4" r="3.3"/>
			<circle id="XMLID_9101_" class="st5" cx="213.7" cy="430.7" r="3.3"/>
		</g>
		<g id="XMLID_9097_">
			<circle id="XMLID_9099_" class="st5" cx="159" cy="416" r="3.3"/>
			<circle id="XMLID_9098_" class="st5" cx="217.7" cy="416" r="3.3"/>
		</g>
		<g id="XMLID_9094_">
			<circle id="XMLID_9096_" class="st5" cx="162.9" cy="430.7" r="3.3"/>
			<circle id="XMLID_9095_" class="st5" cx="213.7" cy="401.4" r="3.3"/>
		</g>
		<g id="XMLID_9091_">
			<circle id="XMLID_9093_" class="st5" cx="173.7" cy="441.5" r="3.3"/>
			<circle id="XMLID_9092_" class="st5" cx="203" cy="390.6" r="3.3"/>
		</g>
	</g>
	<path id="XMLID_9089_" class="st0" d="M552.2,411.9c2.1-36.1,32.1-64.8,68.7-64.8c36.6,0,66.6,28.7,68.7,64.8h26.9
		c-2.2-50.9-44.2-91.7-95.7-91.7c-51.4,0-93.5,40.8-95.7,91.7H552.2z"/>
	<path id="XMLID_9088_" class="st2" d="M620.9,347.2c-32.2,0-59.3,22.2-66.8,52.1H683h4.7C680.2,369.4,653.1,347.2,620.9,347.2z"/>
	<g id="XMLID_9061_">
		<circle id="XMLID_9087_" class="st2" cx="620.9" cy="416" r="64.4"/>
		<circle id="XMLID_9086_" class="st5" cx="620.9" cy="416" r="43.1"/>
		<circle id="XMLID_9085_" class="st6" cx="620.9" cy="416" r="37.9"/>
		<circle id="XMLID_9084_" class="st2" cx="620.9" cy="416" r="23.4"/>
		<g id="XMLID_9062_">
			<g id="XMLID_9081_">
				<circle id="XMLID_9083_" class="st5" cx="620.9" cy="386.7" r="3.3"/>
				<circle id="XMLID_9082_" class="st5" cx="620.9" cy="445.4" r="3.3"/>
			</g>
			<g id="XMLID_9077_">
				<circle id="XMLID_9080_" class="st5" cx="606.3" cy="390.6" r="3.3"/>
				<circle id="XMLID_9079_" class="st5" cx="635.6" cy="441.5" r="3.3"/>
			</g>
			<g id="XMLID_9074_">
				<circle id="XMLID_9076_" class="st5" cx="595.5" cy="401.4" r="3.3"/>
				<circle id="XMLID_9075_" class="st5" cx="646.3" cy="430.7" r="3.3"/>
			</g>
			<g id="XMLID_9070_">
				<circle id="XMLID_9073_" class="st5" cx="591.6" cy="416" r="3.3"/>
				<circle id="XMLID_9072_" class="st5" cx="650.3" cy="416" r="3.3"/>
			</g>
			<g id="XMLID_9066_">
				<circle id="XMLID_9069_" class="st5" cx="595.5" cy="430.7" r="3.3"/>
				<circle id="XMLID_9067_" class="st5" cx="646.3" cy="401.4" r="3.3"/>
			</g>
			<g id="XMLID_9063_">
				<circle id="XMLID_9065_" class="st5" cx="606.3" cy="441.5" r="3.3"/>
				<circle id="XMLID_9064_" class="st5" cx="635.6" cy="390.6" r="3.3"/>
			</g>
		</g>
	</g>
	<polygon id="XMLID_9033_" class="st7" points="456,153.1 456,235 546.6,153 	"/>
	<path id="XMLID_9032_" class="st0" d="M738.3,272.1c0,0,13.6,8.6,14.2,26.5c0.5,17.9,0,100.7,0,100.7h-14.2l-19-72.8L738.3,272.1z"
		/>
	<path id="XMLID_9031_" class="st0" d="M763.4,381.9c0-3.5-2.2-6.3-4.9-6.3h-53.5c-2.7,0-4.9,2.8-4.9,6.3v13.1
		c0,3.5,2.2,6.3,4.9,6.3h53.5c2.7,0,4.9-2.8,4.9-6.3V381.9z"/>
	<path id="XMLID_9030_" class="st0" d="M115.2,383.6c0-2.8-1.8-5-4.1-5H33.9c-2.2,0-4.1,2.2-4.1,5v14.2c0,2.8,1.8,5,4.1,5h77.2
		c2.2,0,4.1-2.2,4.1-5V383.6z"/>
	<path id="XMLID_9027_" class="st0" d="M549.9,383.6c0-2.8-1.8-5-4.1-5H273.2c-2.2,0-4.1,2.2-4.1,5v14.2c0,2.8,1.8,5,4.1,5h272.6
		c2.2,0,4.1-2.2,4.1-5V383.6z"/>
	<line id="XMLID_9026_" class="st8" x1="436.1" y1="133.6" x2="436.1" y2="387.7"/>
	<line id="XMLID_9025_" class="st8" x1="47.8" y1="285.4" x2="436.8" y2="285.4"/>
</g>
</svg>
