<?xml version="1.0" encoding="utf-8"?>
<!-- Generator: Adobe Illustrator 19.0.0, SVG Export Plug-In . SVG Version: 6.00 Build 0)  -->
<svg version="1.1" id="Layer_1" xmlns="http://www.w3.org/2000/svg" xmlns:xlink="http://www.w3.org/1999/xlink" x="0px" y="0px"
	 viewBox="0 0 792 612" style="enable-background:new 0 0 792 612;" xml:space="preserve">
<style type="text/css">
	.st0{fill:#1D1B21;}
	.st1{fill:#7BB542;}
	.st2{fill:#ABE1FA;}
	.st3{fill:#FFFFFF;}
	.st4{fill:#669740;}
	.st5{fill:#322F37;}
	.st6{fill:#5D5A64;}
	.st7{fill:#E9E8EC;}
	.st8{fill:none;stroke:#669740;stroke-width:2.8347;stroke-miterlimit:10;}
	.st9{fill:#8BD7F8;}
</style>
<g id="XMLID_7_">
	<rect id="XMLID_9324_" x="79.5" y="312.4" class="st0" width="259.1" height="118.9"/>
	<path id="XMLID_9323_" class="st1" d="M504,135.4H34.5v296h85.8c-0.1-1.5-0.2-3-0.2-4.6c0-39.7,32.2-71.8,71.8-71.8
		s71.8,32.2,71.8,71.8c0,1.5-0.1,3.1-0.2,4.6H504V135.4z"/>
	<rect id="XMLID_9322_" x="480" y="312.4" class="st0" width="259.1" height="118.9"/>
	<path id="XMLID_9321_" class="st1" d="M586.4,431.3c2.6-36.7,33.1-65.6,70.4-65.6c31.4,0,57.9,20.5,67.1,48.7h49v-94
		c-0.6-24.7-23.4-32.8-23.4-32.8l-56.2-12l-48-140.1H467.9v295.7H586.4z"/>
	<polygon id="XMLID_9320_" class="st2" points="657.2,260.2 624.5,164.6 532.8,164.6 532.8,260.2 	"/>
	<path id="XMLID_9286_" class="st3" d="M593.4,300c0-3.3-2.9-5.9-6.6-5.9h-24c-3.6,0-6.6,2.7-6.6,5.9l0,0c0,3.3,2.9,5.9,6.6,5.9h24
		C590.4,305.9,593.4,303.3,593.4,300L593.4,300z"/>
	<path id="XMLID_9235_" class="st4" d="M645.7,135.7H34.5v-22.2h580.2C614.7,113.5,636.3,117.7,645.7,135.7z"/>
	<circle id="XMLID_9234_" class="st5" cx="192" cy="436.1" r="62.2"/>
	<path id="XMLID_9233_" class="st4" d="M192,350c-47.6,0-86.2,38.6-86.2,86.2c0,1.5,0,3.1,0.1,4.6h14.4c-0.1-1.5-0.2-3-0.2-4.6
		c0-39.7,32.2-71.8,71.8-71.8c39.7,0,71.8,32.2,71.8,71.8c0,1.5-0.1,3.1-0.2,4.6H278c0.1-1.5,0.1-3,0.1-4.6
		C278.1,388.5,239.5,350,192,350z"/>
	<circle id="XMLID_9232_" class="st6" cx="192" cy="436.1" r="41.7"/>
	<circle id="XMLID_9231_" class="st7" cx="192" cy="436.1" r="36.6"/>
	<circle id="XMLID_9230_" class="st5" cx="192" cy="436.1" r="22.6"/>
	<g id="XMLID_9211_">
		<g id="XMLID_9227_">
			<circle id="XMLID_9229_" class="st6" cx="192" cy="407.8" r="3.2"/>
			<circle id="XMLID_9228_" class="st6" cx="192" cy="464.5" r="3.2"/>
		</g>
		<g id="XMLID_9224_">
			<circle id="XMLID_9226_" class="st6" cx="177.8" cy="411.6" r="3.2"/>
			<circle id="XMLID_9225_" class="st6" cx="206.1" cy="460.7" r="3.2"/>
		</g>
		<g id="XMLID_9221_">
			<circle id="XMLID_9223_" class="st6" cx="167.4" cy="421.9" r="3.2"/>
			<circle id="XMLID_9222_" class="st6" cx="216.5" cy="450.3" r="3.2"/>
		</g>
		<g id="XMLID_9218_">
			<circle id="XMLID_9220_" class="st6" cx="163.6" cy="436.1" r="3.2"/>
			<circle id="XMLID_9219_" class="st6" cx="220.3" cy="436.1" r="3.2"/>
		</g>
		<g id="XMLID_9215_">
			<circle id="XMLID_9217_" class="st6" cx="167.4" cy="450.3" r="3.2"/>
			<circle id="XMLID_9216_" class="st6" cx="216.5" cy="421.9" r="3.2"/>
		</g>
		<g id="XMLID_9212_">
			<circle id="XMLID_9214_" class="st6" cx="177.8" cy="460.7" r="3.2"/>
			<circle id="XMLID_9213_" class="st6" cx="206.1" cy="411.6" r="3.2"/>
		</g>
	</g>
	<circle id="XMLID_9210_" class="st5" cx="656.9" cy="436.1" r="62.2"/>
	<path id="XMLID_9209_" class="st4" d="M656.9,349.5c-47.9,0-86.7,38.8-86.7,86.7c0,1.5,0,3.1,0.1,4.6h16c-0.1-1.5-0.2-3-0.2-4.6
		c0-39,31.6-70.6,70.6-70.6c31.4,0,57.9,20.5,67.1,48.7h16.8C731.1,377,697.2,349.5,656.9,349.5z"/>
	<circle id="XMLID_9208_" class="st6" cx="656.9" cy="436.1" r="41.7"/>
	<circle id="XMLID_9207_" class="st7" cx="656.9" cy="436.1" r="36.6"/>
	<circle id="XMLID_9206_" class="st5" cx="656.9" cy="436.1" r="22.6"/>
	<g id="XMLID_9187_">
		<g id="XMLID_9203_">
			<circle id="XMLID_9205_" class="st6" cx="656.9" cy="407.8" r="3.2"/>
			<circle id="XMLID_9204_" class="st6" cx="656.9" cy="464.5" r="3.2"/>
		</g>
		<g id="XMLID_9200_">
			<circle id="XMLID_9202_" class="st6" cx="642.8" cy="411.6" r="3.2"/>
			<circle id="XMLID_9201_" class="st6" cx="671.1" cy="460.7" r="3.2"/>
		</g>
		<g id="XMLID_9197_">
			<circle id="XMLID_9199_" class="st6" cx="632.4" cy="421.9" r="3.2"/>
			<circle id="XMLID_9198_" class="st6" cx="681.5" cy="450.3" r="3.2"/>
		</g>
		<g id="XMLID_9194_">
			<circle id="XMLID_9196_" class="st6" cx="628.6" cy="436.1" r="3.2"/>
			<circle id="XMLID_9195_" class="st6" cx="685.3" cy="436.1" r="3.2"/>
		</g>
		<g id="XMLID_9191_">
			<circle id="XMLID_9193_" class="st6" cx="632.4" cy="450.3" r="3.2"/>
			<circle id="XMLID_9192_" class="st6" cx="681.5" cy="421.9" r="3.2"/>
		</g>
		<g id="XMLID_9188_">
			<circle id="XMLID_9190_" class="st6" cx="642.8" cy="460.7" r="3.2"/>
			<circle id="XMLID_9189_" class="st6" cx="671.1" cy="411.6" r="3.2"/>
		</g>
	</g>
	<line id="XMLID_9185_" class="st8" x1="492.9" y1="431.5" x2="492.9" y2="129.4"/>
	<line id="XMLID_9184_" class="st8" x1="34.5" y1="335.9" x2="493.8" y2="335.9"/>
	<polygon id="XMLID_9183_" class="st2" points="624.5,164.6 532.8,260.2 657.2,260.2 	"/>
	<polygon id="XMLID_9182_" class="st9" points="532.8,164.6 532.8,260.2 624.5,164.6 	"/>
	<path id="XMLID_9181_" class="st4" d="M115.7,415.9c0-2.2-1.9-4-4.3-4H29c-2.4,0-4.3,1.8-4.3,4v11.3c0,2.2,1.9,4,4.3,4h82.3
		c2.4,0,4.3-1.8,4.3-4V415.9z"/>
	<path id="XMLID_9180_" class="st4" d="M579.3,411.9H284.2c-8.1,0-14.7,1.8-14.7,4v11.3c0,2.2,6.6,4,14.7,4h295.1V411.9z"/>
	<rect id="XMLID_9179_" x="20" y="365.1" class="st4" width="15.4" height="35.9"/>
	<g id="XMLID_8_">
		<path id="XMLID_15_" class="st3" d="M291,191.6c0.2,0.2,0.4,0.5,0.5,0.7c2.5,3.3,4.9,6.8,7.2,10.2c0.7,1.1,1.4,2.2,2,3.3
			c-2.4,1.1-4.9,2.2-7.3,3.3c0,0-0.1,0-0.1,0c-0.4,0.2-0.7,0.4-1.1,0.6c2.4,1.3,5.1,2.3,7.5,3.3c4.2,1.7,8.4,3.2,12.5,5.1
			c3.8,1.7,7.8,3.1,11.7,4.4v0c0.2,0,0.5,0.1,0.7,0.1c0.1-0.4,0.2-0.8,0.4-1.2c0,0,0,0,0,0c0.8-2.6,1.7-5.1,2.5-7.7
			c1-3,2-5.9,3.1-8.9c0.2-1,0.5-1.9,1-2.8c0.6-1.8,1.2-3.5,1.8-5.3c0.4-1.3,0.9-2.6,1.4-3.9c0,0,0.1,0,0.1-0.1
			c0.1-0.4,0.3-0.7,0.4-1.1c0,0,0,0-0.1-0.1c-0.8,0.4-1.7,0.8-2.5,1c-2,0.9-4.1,1.7-6.2,2.5c-1.9-2.7-3.8-5.4-5.8-8.1
			c-2-2.8-3.9-5.5-6.3-8c-0.9-1-2.4-1.7-3.4-2.6c-0.7-0.6-2.2-0.9-2.5-0.9c-6.2-0.3-12.5,0.2-18.8,0.4c-5.1,0.1-10.2-0.3-15.4,0.2
			c-1.2-0.1-3.5-0.1-4.8,0.5c-0.7,0.3-1.3,0.8-1.9,1.4c0,0-0.1,0.1-0.1,0.1c-0.1,0-0.1,0.1-0.2,0.1c-4.8,4.3-8.5,9.8-12.6,14.7
			c-1.4,1.7-2.8,3.3-4.2,5c0.3,0.2,0.5,0.4,0.8,0.6c0,0,0,0,0.1-0.1c4,2.6,7.7,5.7,11.6,8.6c3.5,2.6,7,5.8,10.9,7.9c0,0,0,0,0,0
			c0.6,0.3,1.1,0.7,1.6,1.1c0.2-0.4,0.4-0.7,0.6-1.1c1.6-2.8,3.5-5.5,5.2-8.3c1.6-2.6,3.2-5.3,4.8-7.9
			C287.6,196.4,289.1,193.7,291,191.6z M275.7,178.8c-1.1-0.4-2.8-1.2-4-0.8c-0.8,0.3-0.4,0.2-1.2,0.1c-0.1,0-0.1-0.2,0-0.2
			c0.9-0.1,1.5-0.7,2.5-0.6c0.8,0.1,1.5,0.3,2.2,0.4c1.9,0.4,3.5,1.3,5.1,2.4c3.8,2.9,7.2,6.3,10.1,10.1c0.2,0.2-0.2,0.7-0.4,0.5
			c-1.4-1.4-2.6-3-4.1-4.4c-1.6-1.4-3.2-2.9-4.8-4.3C279.5,180.7,277.7,179.4,275.7,178.8z"/>
		<path id="XMLID_12_" class="st3" d="M353,243.2c0-0.1,0-0.1-0.1-0.2c0-0.1,0-0.1,0-0.2c-1.2-6.4-4-12.3-6.1-18.4
			c-0.7-2.1-1.4-4.1-2.1-6.2c-0.3,0.1-0.6,0.2-0.9,0.4c0,0,0,0.1,0,0.1c-4.3,2.1-8.9,3.6-13.3,5.4c-4.1,1.7-8.6,3-12.4,5.2
			c0,0,0,0,0,0c-0.6,0.3-1.2,0.6-1.8,0.8c0.2,0.4,0.4,0.8,0.6,1.1c1.6,2.9,2.9,5.9,4.4,8.8c1.4,2.7,2.9,5.4,4.2,8.2
			c1.3,2.5,2.8,5.3,3.7,8c-0.3,0-0.6,0.1-0.9,0.1c-4.2,0.4-8.3,0.6-12.5,0.8c-1.3,0.1-2.6,0-3.9,0c0.3-2.7,0.6-5.3,1-8
			c0,0,0.1,0,0.1-0.1c0-0.4,0.1-0.8,0.1-1.2c-2.4,1.4-4.6,3.2-6.7,4.7c-3.6,2.7-7.1,5.5-10.8,8.1c-3.4,2.4-6.7,5-9.9,7.7
			c0,0,0,0,0,0c-0.2,0.2-0.3,0.3-0.5,0.5c0.3,0.3,0.6,0.6,0.8,1c0,0,0,0,0,0c1.8,2,3.5,4.1,5.3,6.1c2,2.4,4,4.8,6,7.2
			c0.8,0.7,1.3,1.4,1.9,2.3c1.2,1.4,2.4,2.9,3.6,4.3c0.9,1.1,1.7,2.1,2.6,3.2c0,0,0,0.1,0,0.1c0.2,0.3,0.5,0.6,0.7,0.9
			c0,0,0.1,0,0.1,0c0.1-0.9,0.2-1.8,0.5-2.7c0.2-2.2,0.7-4.4,1.1-6.6c3.3-0.3,6.6-0.5,9.9-0.7c3.4-0.2,6.8-0.5,10.1-1.2
			c1.3-0.3,2.7-1.2,4.1-1.6c0.9-0.3,1.9-1.4,2-1.7c3.5-5.2,6.3-10.8,9.4-16.3c2.6-4.5,5.6-8.6,7.8-13.3c0.8-1,1.9-3,2.1-4.4
			C353.3,244.8,353.2,244,353,243.2z M351.5,247.2c-2.4,3.2-4.5,6-8.4,7.4c-3.7,1.4-7.5,1.9-11.4,1.7c-0.4,0-0.3-0.6,0.1-0.7
			c3.7-0.7,7.5-0.8,11-2.2c3.6-1.4,5.9-3.7,8.5-6.4C351.4,246.9,351.6,247.1,351.5,247.2z"/>
		<path id="XMLID_9_" class="st3" d="M283.1,257.9c-0.1-0.6-0.1-1.3,0-1.9c-0.4,0-0.9,0.1-1.3,0.1c-3.3,0.3-6.5,0.3-9.8,0.6
			c-3.1,0.2-6.1,0.4-9.2,0.6c-2.8,0.2-5.9,0.5-8.8,0.1c0.1-0.3,0.2-0.6,0.3-0.9c1.3-4,2.7-7.9,4.2-11.8c0.5-1.2,1-2.4,1.6-3.6
			c2.3,1.3,4.6,2.7,6.9,4.1c0,0,0,0.1,0,0.1c0.4,0.2,0.7,0.4,1.1,0.6c-0.3-2.7-1-5.5-1.6-8c-1-4.4-2.2-8.7-3.1-13.2
			c-0.8-4.1-1.9-8.1-3.1-12.1h0c-0.1-0.2-0.2-0.4-0.3-0.6c-0.4,0.1-0.8,0.3-1.2,0.4c0,0,0,0,0,0c-2.6,0.8-5.2,1.6-7.7,2.4
			c-3,0.9-6,1.8-9,2.6c-0.9,0.4-1.9,0.6-2.8,0.8c-1.8,0.5-3.6,1-5.3,1.6c-1.3,0.4-2.7,0.7-4,1.1c0,0-0.1,0-0.1,0
			c-0.4,0.1-0.7,0.2-1.1,0.3c0,0,0,0.1,0,0.1c0.8,0.4,1.6,0.9,2.3,1.5c1.9,1.1,3.8,2.4,5.6,3.6c-1.1,3.1-2.2,6.3-3.3,9.4
			c-1.1,3.2-2.3,6.4-2.9,9.7c-0.3,1.3,0,3-0.2,4.3c-0.1,1,0.6,2.3,0.7,2.5c3.4,5.3,7.4,10.1,11.1,15.1c3.1,4.1,5.6,8.5,9.1,12.5
			c0.6,1.1,2,2.9,3.2,3.7c0.7,0.4,1.4,0.6,2.2,0.7c0.1,0,0.1,0,0.2,0c0.1,0,0.1,0.1,0.2,0.1c6.3,1.4,12.9,1.3,19.3,1.8
			c2.2,0.2,4.3,0.4,6.5,0.5c0-0.3,0-0.7,0-1c0,0-0.1,0-0.1,0c-0.2-4.7,0.2-9.6,0.3-14.4C283,267,283.5,262.4,283.1,257.9
			C283.1,258,283.1,257.9,283.1,257.9z M252.8,257.1c-4.2,0.7-9.4,0-13.5-1.2c-3.3-1-7.8-2.1-8.7-5.9c0-0.1,0.1-0.2,0.1-0.1
			c1.6,3.4,6.4,4.5,9.9,5.3c4.1,0.9,8.1,0.8,12.3,1.1C253.3,256.4,253.2,257,252.8,257.1z"/>
	</g>
</g>
</svg>
