<?xml version="1.0" encoding="utf-8"?>
<!-- Generator: Adobe Illustrator 19.0.0, SVG Export Plug-In . SVG Version: 6.00 Build 0)  -->
<svg version="1.1" id="Layer_1" xmlns="http://www.w3.org/2000/svg" xmlns:xlink="http://www.w3.org/1999/xlink" x="0px" y="0px"
	 viewBox="0 0 792 612" style="enable-background:new 0 0 792 612;" xml:space="preserve">
<style type="text/css">
	.st0{fill:#5D5A64;}
	.st1{fill:#4D7034;}
	.st2{fill:#618F3E;}
	.st3{fill:#6C9E41;}
	.st4{fill:#AFD475;}
	.st5{fill:#7BB542;}
	.st6{opacity:1;fill:#66973F;}
	.st7{fill:#66973F;}
	.st8{fill:#8BC63F;}
	.st9{fill:#608C3D;}
	.st10{opacity:0.4;fill:#CFE4AA;}
	.st11{opacity:0.5;fill:#64943F;}
	.st12{fill:#669740;}
	.st13{fill:#424048;}
	.st14{fill:#ABE1FA;}
	.st15{fill:#322F37;}
	.st16{fill:#FFFFFF;}
	.st17{fill:#8BD7F8;}
	.st18{fill:none;stroke:#669740;stroke-miterlimit:10;}
	.st19{fill:#C9C8CC;}
	.st20{fill:#6B6A73;}
	.st21{fill:#86848D;}
</style>
<g id="XMLID_2_">
	<rect id="XMLID_9317_" x="44.6" y="335.1" class="st0" width="704" height="58.8"/>
	<g id="XMLID_1_">
		<g id="XMLID_293_">
			<polygon id="XMLID_323_" class="st1" points="581.2,220 599.5,225.3 599.5,311.6 581.2,311.6 			"/>
			<g id="XMLID_312_">
				<g id="XMLID_315_">
					<path id="XMLID_322_" class="st2" d="M583.7,229.7h-3.2c0,0-2.3,1.6,0.2,3.7h2.8L583.7,229.7z"/>
					<g id="XMLID_318_">
						<path id="XMLID_320_" d="M588.9,223c0.3,0,0.6,0,0.9,0.1v17c-0.3,0-0.6,0.1-0.9,0.1c-3.9,0-6-3.2-7-6.9v-3.3
							C581.9,226,585,223,588.9,223z"/>
						<path id="XMLID_319_" class="st3" d="M589.8,223c0,0,4.1,1.2,4.1,8.5c0,8-4.1,8.5-4.1,8.5V223z"/>
					</g>
				</g>
				<path id="XMLID_313_" class="st4" d="M590.5,224.3c0,0,2.9,2.8,2.6,9.4c0,0-0.5-4-2.6-5.3V224.3z"/>
			</g>
			<g id="XMLID_301_">
				<g id="XMLID_303_">
					<path id="XMLID_311_" class="st2" d="M601,131.4h-2.1c0,0-1.5,1,0.1,2.5h1.8L601,131.4z"/>
					<g id="XMLID_304_">
						<path id="XMLID_308_" d="M604.4,126.9c0.2,0,0.4,0,0.6,0v11.2c-0.2,0-0.4,0-0.6,0c-2.6,0-3.9-2.1-4.6-4.5v-2.2
							C599.7,129,601.8,126.9,604.4,126.9z"/>
						<path id="XMLID_306_" class="st3" d="M605,127c0,0,2.7,0.8,2.7,5.6c0,5.3-2.7,5.6-2.7,5.6V127z"/>
					</g>
				</g>
				<path id="XMLID_302_" class="st4" d="M605.5,127.8c0,0,1.9,1.8,1.7,6.2c0,0-0.3-2.6-1.7-3.5V127.8z"/>
			</g>
			<polygon id="XMLID_300_" class="st1" points="581.2,124.3 599.5,129.7 599.5,216 581.2,216 			"/>
			<polygon id="XMLID_297_" class="st1" points="581.4,124.3 599.8,129.7 599.8,216 581.4,216 			"/>
			<polygon id="XMLID_295_" class="st1" points="587.5,126.2 587.5,216 581.2,216 581.2,124.3 			"/>
			<polygon id="XMLID_294_" class="st1" points="587.5,221.8 587.5,311.6 581.2,311.6 581.2,220 			"/>
		</g>
		<polygon id="XMLID_290_" class="st5" points="38.5,97.2 536.2,97.2 536.2,60.4 612.3,60.4 603,74.1 582.4,74.1 582.4,334.8 
			103.4,334.8 33.9,293.7 		"/>
		<polygon id="XMLID_288_" class="st6" points="525.2,97.2 536.2,97.2 535.3,334.8 525.2,334.8 		"/>
		<polygon id="XMLID_287_" class="st7" points="506.3,123.4 508.8,123.4 508,308.7 506.3,308.7 		"/>
		<path id="XMLID_280_" class="st6" d="M160.5,272.8v35.9h17.7v-35.9h99.3v35.9h14.7v-35.9h101.5v35.9h14.7v-35.9h99.7l0.1-14h-99.7
			v-63.5h100l0.1-12.5H408.5v-55.3h100.3l0-4.1H408.5h-14.7H292.2h-14.7h-99.3h-17.7H70.1l-0.1,4.1h90.5v55.3H68.8l-0.3,12.5h91.9
			v63.5H67.1l-0.2,14H160.5z M277.5,127.5v55.3h-99.3v-55.3H277.5z M393.8,182.8H292.2v-55.3h101.5V182.8z M292.2,258.8v-63.5h101.5
			v63.5H292.2z M178.2,258.8v-63.5h99.3v63.5H178.2z"/>
		<polygon id="XMLID_279_" class="st5" points="68.7,192 69.2,168.4 508.6,168.4 508.5,192 		"/>
		<polygon id="XMLID_278_" class="st5" points="66.7,269.9 67.5,244.4 508.3,244.4 508.1,269.9 		"/>
		<g id="XMLID_273_">
			<rect id="XMLID_277_" x="396.9" y="123.4" class="st5" width="27.4" height="185.2"/>
			<rect id="XMLID_276_" x="280.1" y="123.4" class="st5" width="27.4" height="185.2"/>
			<rect id="XMLID_274_" x="163.4" y="123.4" class="st5" width="27.4" height="185.2"/>
		</g>
		<g id="XMLID_249_">
			<path id="XMLID_272_" class="st8" d="M559,64.7c1,0,1.8,1,1.8,2.2v14.2h21v4.3h-21v28.2h21v4.3h-21v28.2h21v4.3h-21v28.2h21v4.3
				h-21v28.2h21v4.3h-21v28.2h21v4.3h-21v28.2h21v4.3h-21v28.2h21v4.3h-21v12.1c0,1.2-0.8,2.2-1.8,2.2c-1,0-1.8-1-1.8-2.2V66.9
				C557.1,65.7,558,64.7,559,64.7z"/>
			<g id="XMLID_250_">
				<path id="XMLID_262_" class="st9" d="M558.1,66.9v258.2c0,1.2,0.8,2.2,1.8,2.2c1,0,1.8-1,1.8-2.2V313h24.9v12.1
					c0,1.2,0.8,2.2,1.8,2.2c1,0,1.8-1,1.8-2.2V66.9c0-1.2-0.8-2.2-1.8-2.2c-1,0-1.8,1-1.8,2.2v14.2h-24.9V66.9
					c0-1.2-0.8-2.2-1.8-2.2C558.9,64.7,558.1,65.7,558.1,66.9z M561.8,211.2V183h24.9v28.2H561.8z M586.7,215.5v28.2h-24.9v-28.2
					H586.7z M561.8,178.7v-28.2h24.9v28.2H561.8z M561.8,146.1V118h24.9v28.2H561.8z M586.7,276.2h-24.9V248h24.9V276.2z
					 M586.7,85.5v28.2h-24.9V85.5H586.7z M561.8,308.7v-28.2h24.9v28.2H561.8z"/>
				<path id="XMLID_261_" class="st10" d="M559.9,65.6c0,0,0.3-0.1,0.6,0.3c0.3,0.4,0.5,1.1,0.5,2.1c0,1.9,0,4.7,0,8.3
					c0,7.1-0.1,17.3-0.1,29.5c0,24.4-0.1,56.9-0.2,89.4c0.1,32.5,0.1,65,0.2,89.4c0.1,24.4,0.2,40.6,0.2,40.6s0.1-16.3,0.2-40.6
					c0-24.4,0.1-56.9,0.2-89.4c-0.1-32.5-0.1-65-0.2-89.4c-0.1-12.2-0.1-22.3-0.1-29.5c0-3.6,0-6.4-0.1-8.3
					c-0.1-0.9-0.2-1.7-0.6-2.1C560.3,65.5,559.9,65.6,559.9,65.6z"/>
				<path id="XMLID_260_" class="st10" d="M588.6,65.6c0,0,0.3-0.1,0.6,0.3c0.3,0.4,0.5,1.1,0.6,2.1c0,1.9,0,4.7,0,8.3
					c0,7.1-0.1,17.3-0.1,29.5c0,24.4-0.1,56.9-0.2,89.4c0.1,32.5,0.1,65,0.2,89.4c0.1,24.4,0.2,40.6,0.2,40.6s0.1-16.3,0.2-40.6
					c0-24.4,0.1-56.9,0.2-89.4c-0.1-32.5-0.1-65-0.2-89.4c-0.1-12.2-0.1-22.3-0.1-29.5c0-3.6,0-6.4-0.1-8.3c0-0.9-0.2-1.7-0.6-2.1
					C588.9,65.5,588.6,65.6,588.6,65.6z"/>
				<path id="XMLID_258_" class="st10" d="M585.4,82.1c0,0-1.4-0.2-3.5-0.3c-1,0-2.3-0.1-3.6-0.2c-1.3,0-2.7-0.1-4.1-0.1
					c-1.4,0-2.8,0-4.1,0.1c-1.3,0-2.5,0.1-3.6,0.2c-2.1,0.1-3.5,0.3-3.5,0.3s1.4,0.2,3.5,0.3c1,0.1,2.3,0.1,3.6,0.2
					c1.3,0,2.7,0.1,4.1,0.1c1.4,0,2.8,0,4.1-0.1c1.3,0,2.5-0.1,3.6-0.2C584.1,82.2,585.4,82.1,585.4,82.1z"/>
				<path id="XMLID_257_" class="st10" d="M585.4,114.8c0,0-1.4-0.2-3.5-0.3c-1,0-2.3-0.1-3.6-0.2c-1.3,0-2.7-0.1-4.1-0.1
					c-1.4,0-2.8,0-4.1,0.1c-1.3,0-2.5,0.1-3.6,0.2c-2.1,0.1-3.5,0.3-3.5,0.3s1.4,0.2,3.5,0.3c1,0.1,2.3,0.1,3.6,0.2
					c1.3,0,2.7,0.1,4.1,0.1c1.4,0,2.8,0,4.1-0.1c1.3,0,2.5-0.1,3.6-0.2C584.1,114.9,585.4,114.8,585.4,114.8z"/>
				<path id="XMLID_256_" class="st10" d="M585.4,147.5c0,0-1.4-0.2-3.5-0.3c-1,0-2.3-0.1-3.6-0.2c-1.3,0-2.7-0.1-4.1-0.1
					c-1.4,0-2.8,0-4.1,0.1c-1.3,0-2.5,0.1-3.6,0.2c-2.1,0.1-3.5,0.3-3.5,0.3s1.4,0.2,3.5,0.3c1,0,2.3,0.1,3.6,0.2
					c1.3,0,2.7,0.1,4.1,0.1c1.4,0,2.8,0,4.1-0.1c1.3,0,2.5-0.1,3.6-0.2C584.1,147.6,585.4,147.5,585.4,147.5z"/>
				<path id="XMLID_255_" class="st10" d="M585.4,180.2c0,0-1.4-0.2-3.5-0.3c-1,0-2.3-0.1-3.6-0.2c-1.3,0-2.7-0.1-4.1-0.1
					c-1.4,0-2.8,0-4.1,0.1c-1.3,0-2.5,0.1-3.6,0.2c-2.1,0.1-3.5,0.3-3.5,0.3s1.4,0.2,3.5,0.3c1,0,2.3,0.1,3.6,0.2
					c1.3,0,2.7,0.1,4.1,0.1c1.4,0,2.8,0,4.1-0.1c1.3,0,2.5-0.1,3.6-0.2C584.1,180.3,585.4,180.2,585.4,180.2z"/>
				<path id="XMLID_254_" class="st10" d="M585.4,212.5c0,0-1.4-0.2-3.5-0.3c-1-0.1-2.3-0.1-3.6-0.2c-1.3,0-2.7-0.1-4.1-0.1
					c-1.4,0-2.8,0-4.1,0.1c-1.3,0-2.5,0.1-3.6,0.2c-2.1,0.1-3.5,0.3-3.5,0.3s1.4,0.2,3.5,0.3c1,0,2.3,0.1,3.6,0.2
					c1.3,0,2.7,0.1,4.1,0.1c1.4,0,2.8,0,4.1-0.1c1.3,0,2.5-0.1,3.6-0.2C584.1,212.7,585.4,212.5,585.4,212.5z"/>
				<path id="XMLID_253_" class="st10" d="M585.4,245.1c0,0-1.4-0.2-3.5-0.3c-1-0.1-2.3-0.1-3.6-0.2c-1.3,0-2.7-0.1-4.1-0.1
					c-1.4,0-2.8,0-4.1,0.1c-1.3,0-2.5,0.1-3.6,0.2c-2.1,0.1-3.5,0.3-3.5,0.3s1.4,0.2,3.5,0.3c1,0,2.3,0.1,3.6,0.2
					c1.3,0.1,2.7,0.1,4.1,0.1c1.4,0,2.8,0,4.1-0.1c1.3,0,2.5-0.1,3.6-0.2C584.1,245.3,585.4,245.1,585.4,245.1z"/>
				<path id="XMLID_252_" class="st10" d="M585.4,277.9c0,0-1.4-0.2-3.5-0.3c-1,0-2.3-0.1-3.6-0.2c-1.3-0.1-2.7-0.1-4.1-0.1
					c-1.4,0-2.8,0-4.1,0.1c-1.3,0-2.5,0.1-3.6,0.2c-2.1,0.1-3.5,0.3-3.5,0.3s1.4,0.2,3.5,0.3c1,0.1,2.3,0.1,3.6,0.2
					c1.3,0.1,2.7,0.1,4.1,0.1c1.4,0,2.8,0,4.1-0.1c1.3,0,2.5-0.1,3.6-0.2C584.1,278.1,585.4,277.9,585.4,277.9z"/>
				<path id="XMLID_251_" class="st10" d="M585.4,309.9c0,0-1.4-0.2-3.5-0.3c-1-0.1-2.3-0.1-3.6-0.2c-1.3,0-2.7-0.1-4.1-0.1
					c-1.4,0-2.8,0-4.1,0.1c-1.3,0-2.5,0.1-3.6,0.2c-2.1,0.1-3.5,0.3-3.5,0.3s1.4,0.2,3.5,0.3c1,0,2.3,0.1,3.6,0.2
					c1.3,0,2.7,0.1,4.1,0.1c1.4,0,2.8,0,4.1-0.1c1.3,0,2.5-0.1,3.6-0.2C584.1,310.1,585.4,309.9,585.4,309.9z"/>
			</g>
		</g>
		<rect id="XMLID_246_" x="41.6" y="101.5" class="st11" width="480.5" height="9.4"/>
		<rect id="XMLID_245_" x="424.3" y="168.4" class="st11" width="84.3" height="1.8"/>
		<rect id="XMLID_244_" x="424.3" y="244.2" class="st11" width="84" height="1.8"/>
		<rect id="XMLID_243_" x="424.3" y="308.7" class="st11" width="83.7" height="1.8"/>
		<rect id="XMLID_242_" x="307.6" y="168.4" class="st11" width="89.6" height="1.8"/>
		<rect id="XMLID_241_" x="307.6" y="244.2" class="st11" width="89.3" height="1.8"/>
		<rect id="XMLID_240_" x="307.6" y="308.7" class="st11" width="89" height="1.8"/>
		<rect id="XMLID_239_" x="190.8" y="168.4" class="st11" width="89.3" height="1.8"/>
		<rect id="XMLID_238_" x="190.8" y="244.2" class="st11" width="89.3" height="1.8"/>
		<rect id="XMLID_237_" x="190.8" y="308.7" class="st11" width="89.3" height="1.8"/>
		<rect id="XMLID_236_" x="68.7" y="168.4" class="st11" width="94.7" height="1.8"/>
		<polygon id="XMLID_235_" class="st11" points="66.7,246 163.4,246 163.4,244.2 67.5,244.2 		"/>
		<polygon id="XMLID_234_" class="st11" points="101.8,308.7 66.1,281.5 66.7,280.4 104.4,308.7 163.4,308.7 163.4,310.4 104,310.4 
					"/>
		<polygon id="XMLID_233_" class="st11" points="601.8,72.4 609.6,61.9 538.7,61.9 601.8,63.5 		"/>
	</g>
	<path id="XMLID_9318_" class="st12" d="M750.3,272.9c0,0,8.1,3.2,8.7,9.8v71.2l-8.9,9.8l-16.2-20.5L750.3,272.9z"/>
	<rect id="XMLID_9316_" x="44.6" y="384.6" class="st13" width="704" height="9.4"/>
	<rect id="XMLID_9315_" x="44.6" y="352.6" class="st0" width="10" height="64.6"/>
	<path id="XMLID_9314_" class="st5" d="M721.5,195.3H597.4v143.4l56.6,0.1c37.1,0.6,48.7,27.4,48.7,27.4h47.7v-93.3L721.5,195.3z"/>
	<polygon id="XMLID_9313_" class="st14" points="652.3,254.2 735.6,254.2 716.4,202.6 652.3,202.6 	"/>
	<path id="XMLID_9312_" class="st12" d="M597.4,195.5h136.9c-5.3-19.6-26.1-23.3-26.1-23.3H597.4V195.5z"/>
	<circle id="XMLID_9311_" class="st15" cx="643.4" cy="404.6" r="54.1"/>
	<path id="XMLID_9308_" class="st16" d="M643.4,369.2c-19.5,0-35.4,15.8-35.4,35.4c0,19.5,15.8,35.4,35.4,35.4
		c19.5,0,35.4-15.8,35.4-35.4C678.7,385,662.9,369.2,643.4,369.2z M643.4,432.9c-15.7,0-28.3-12.7-28.3-28.3
		c0-15.7,12.7-28.3,28.3-28.3s28.3,12.7,28.3,28.3C671.7,420.2,659,432.9,643.4,432.9z"/>
	<circle id="XMLID_9307_" class="st0" cx="643.4" cy="404.6" r="28.3"/>
	<circle id="XMLID_9306_" class="st16" cx="643.4" cy="404.6" r="11.8"/>
	<circle id="XMLID_9305_" class="st15" cx="275.6" cy="404.6" r="54.1"/>
	<path id="XMLID_9302_" class="st16" d="M275.6,369.2c-19.5,0-35.4,15.8-35.4,35.4c0,19.5,15.8,35.4,35.4,35.4
		c19.5,0,35.4-15.8,35.4-35.4C311,385,295.1,369.2,275.6,369.2z M275.6,432.9c-15.7,0-28.3-12.7-28.3-28.3
		c0-15.7,12.7-28.3,28.3-28.3c15.7,0,28.3,12.7,28.3,28.3C304,420.2,291.3,432.9,275.6,432.9z"/>
	<circle id="XMLID_9301_" class="st0" cx="275.6" cy="404.6" r="28.3"/>
	<circle id="XMLID_9300_" class="st16" cx="275.6" cy="404.6" r="11.8"/>
	<circle id="XMLID_9299_" class="st15" cx="133.7" cy="404.6" r="54.1"/>
	<path id="XMLID_9296_" class="st16" d="M133.7,369.2c-19.5,0-35.4,15.8-35.4,35.4c0,19.5,15.8,35.4,35.4,35.4s35.4-15.8,35.4-35.4
		C169.1,385,153.2,369.2,133.7,369.2z M133.7,432.9c-15.7,0-28.3-12.7-28.3-28.3c0-15.7,12.7-28.3,28.3-28.3s28.3,12.7,28.3,28.3
		C162,420.2,149.4,432.9,133.7,432.9z"/>
	<circle id="XMLID_9295_" class="st0" cx="133.7" cy="404.6" r="28.3"/>
	<circle id="XMLID_9294_" class="st16" cx="133.7" cy="404.6" r="11.8"/>
	<path id="XMLID_9293_" class="st13" d="M643.4,339.6c-35.1,0-63.8,28-64.9,62.9h10.9c1.1-28.9,24.9-52,54-52s52.9,23.1,54,52h10.9
		C707.2,367.6,678.5,339.6,643.4,339.6z"/>
	<path id="XMLID_9292_" class="st13" d="M275.6,339.6c-35.1,0-63.8,28-64.9,62.9h10.9c1.1-28.9,24.9-52,54-52s52.9,23.1,54,52h10.9
		C339.4,367.6,310.7,339.6,275.6,339.6z"/>
	<path id="XMLID_9291_" class="st13" d="M133.7,339.6c-35.1,0-63.8,28-64.9,62.9h10.9c1.1-28.9,24.8-52,54-52
		c29.2,0,52.9,23.1,54,52h10.9C197.5,367.6,168.8,339.6,133.7,339.6z"/>
	<polygon id="XMLID_9290_" class="st17" points="652.3,202.6 652.3,254.2 716.4,202.6 	"/>
	<line id="XMLID_9289_" class="st18" x1="597.5" y1="310.4" x2="750.3" y2="310.4"/>
	<line id="XMLID_9288_" class="st18" x1="641.7" y1="192.6" x2="641.7" y2="338.5"/>
	<path id="XMLID_9287_" class="st16" d="M680.8,294.2c0-2.4-2.1-4.3-4.8-4.3h-17.5c-2.6,0-4.8,1.9-4.8,4.3l0,0
		c0,2.4,2.1,4.3,4.8,4.3H676C678.6,298.5,680.8,296.6,680.8,294.2L680.8,294.2z"/>
	<path id="XMLID_9284_" class="st12" d="M632,205.5c0-1.4-1.6-2.6-3.5-2.6h-16.2c-2,0-3.5,1.1-3.5,2.6v45.2c0,1.4,1.6,2.6,3.5,2.6
		h16.2c2,0,3.5-1.1,3.5-2.6V205.5z"/>
	<rect id="XMLID_9283_" x="32.9" y="374.3" class="st12" width="11.8" height="32.9"/>
	<rect id="XMLID_9282_" x="399.2" y="353.7" class="st19" width="133.6" height="52.6"/>
	<rect id="XMLID_9281_" x="399.2" y="387.7" class="st20" width="133.6" height="18.5"/>
	<rect id="XMLID_9280_" x="399.2" y="353.7" class="st21" width="133.6" height="16"/>
	<rect id="XMLID_9279_" x="474.5" y="353.7" class="st13" width="7.9" height="52.6"/>
	<rect id="XMLID_9278_" x="508.4" y="353.7" class="st13" width="7.9" height="52.6"/>
</g>
</svg>
