<?xml version="1.0" encoding="utf-8"?>
<!-- Generator: Adobe Illustrator 19.0.0, SVG Export Plug-In . SVG Version: 6.00 Build 0)  -->
<svg version="1.1" xmlns="http://www.w3.org/2000/svg" xmlns:xlink="http://www.w3.org/1999/xlink" x="0px" y="0px"
	 viewBox="0 0 792 612" style="enable-background:new 0 0 792 612;" xml:space="preserve">
<style type="text/css">
    <!-- base part -->
	<!-- .st0{fill:#5D5A64;} -->
	<!-- .st1{fill:#7BB542;} -->
	.st3{fill:#6B6A73;}
	.st2{fill:#C9C8CC;}
	.st4{fill:#86848D;}
	.st5{fill:#424048;}
	.st6{fill:#322F37;}
	.st7{fill:#E9E8EC;}
	<!-- ladder part -->
	.st8{fill:#669740;}
	.st9{opacity:0.2;fill:#3D3D3D;enable-background:new    ;}
	.st10{fill:#8BC63F;}
	.st11{fill:#608C3D;}
	.st12{opacity:0.4;fill:#CFE4AA;enable-background:new    ;}
</style>
<g id="Layer_4">
	<g>
		<path class="st0" d="M753.3,360.2V419h-41.2c-5.1-30.8-31.9-54.3-64-54.3c-32.2,0-58.9,23.5-64,54.3H344.3
			c-5.1-30.8-31.9-54.3-64-54.3c-32.2,0-58.9,23.5-64,54.3h-13.8c-5.1-30.8-31.9-54.3-64-54.3c-32.2,0-58.9,23.5-64,54.3H59.3v23.3
			h-10v-10H37.6v-32.9h11.7v-39.2H753.3z"/>
	</g>
</g>
<g id="Layer_2">
	<path class="st1" d="M533.8,78.7v36.8H36L31.4,312l69.5,41.1h479V92.4h20.6l9.3-13.7H533.8z M163.4,311.6H69.9v-42.7h93.4V311.6z
		 M163.4,251.1H69.9v-42.7h93.4V251.1z M163.4,190.5H69.9v-42.7h93.4V190.5z M278.4,311.4h-93.4v-42.7h93.4V311.4z M278.4,250.5
		h-93.4v-42.7h93.4V250.5z M278.4,190.5h-93.4v-42.7h93.4V190.5z M392.9,309.6h-93.4v-42.7h93.4V309.6z M392.9,249.1h-93.4v-42.7
		h93.4V249.1z M392.9,190.5h-93.4v-42.7h93.4V190.5z M506.9,309h-93.4v-42.7h93.4V309z M506.9,247.8h-93.4v-42.7h93.4V247.8z
		 M506.9,190.5h-93.4v-42.7h93.4V190.5z"/>
	<path class="st1" d="M723.8,219.1h-79.3v114.6h108.1v1H644.5v27.6h-1v-27.6h-43.7v-1h43.7V219.1h-43.8v143.4l56.6,0.1
		c37.1,0.6,48.7,27.4,48.7,27.4h47.7v-93.3L723.8,219.1z M678.3,322.3h-17.5c-2.7,0-4.8-1.9-4.8-4.3c0-2.4,2.2-4.3,4.8-4.3h17.5
		c2.7,0,4.8,1.9,4.8,4.3C683,320.4,680.8,322.3,678.3,322.3z M654.5,278v-51.6h64.1l19.2,51.6H654.5z M611,229.3
		c0-1.5,1.5-2.6,3.5-2.6h16.2c1.9,0,3.5,1.2,3.5,2.6v45.2c0,1.5-1.5,2.6-3.5,2.6h-16.2c-1.9,0-3.5-1.2-3.5-2.6V229.3z"/>
</g>
<g id="Layer_5">
	<g>
		<rect id="XMLID_25_" x="395.8" y="391" class="st2" width="133.6" height="52.6"/>
		<rect id="XMLID_24_" x="395.8" y="425" class="st3" width="133.6" height="18.5"/>
		<rect id="XMLID_23_" x="395.8" y="391" class="st4" width="133.6" height="16"/>
		<rect id="XMLID_22_" x="471.1" y="391" class="st5" width="7.9" height="52.6"/>
		<rect id="XMLID_21_" x="505" y="391" class="st5" width="7.9" height="52.6"/>
	</g>
	<g id="XMLID_2_">
		<circle id="XMLID_9234_" class="st6" cx="137.9" cy="429.6" r="54.7"/>
		<circle id="XMLID_9232_" class="st0" cx="137.9" cy="429.6" r="36.7"/>
		<circle id="XMLID_9231_" class="st7" cx="137.9" cy="429.6" r="32.2"/>
		<circle id="XMLID_9230_" class="st6" cx="137.9" cy="429.6" r="19.9"/>
		<g id="XMLID_9211_">
			<g id="XMLID_9227_">
				<circle id="XMLID_9229_" class="st0" cx="137.9" cy="404.7" r="2.8"/>
				<circle id="XMLID_9228_" class="st0" cx="137.9" cy="454.6" r="2.8"/>
			</g>
			<g id="XMLID_9224_">
				<circle id="XMLID_9226_" class="st0" cx="125.4" cy="408" r="2.8"/>
				<circle id="XMLID_9225_" class="st0" cx="150.3" cy="451.2" r="2.8"/>
			</g>
			<g id="XMLID_9221_">
				<circle id="XMLID_9223_" class="st0" cx="116.2" cy="417.1" r="2.8"/>
				<circle id="XMLID_9222_" class="st0" cx="159.4" cy="442.1" r="2.8"/>
			</g>
			<g id="XMLID_9218_">
				<circle id="XMLID_9220_" class="st0" cx="112.9" cy="429.6" r="2.8"/>
				<circle id="XMLID_9219_" class="st0" cx="162.8" cy="429.6" r="2.8"/>
			</g>
			<g id="XMLID_9215_">
				<circle id="XMLID_9217_" class="st0" cx="116.2" cy="442.1" r="2.8"/>
				<circle id="XMLID_9216_" class="st0" cx="159.4" cy="417.1" r="2.8"/>
			</g>
			<g id="XMLID_9212_">
				<circle id="XMLID_9214_" class="st0" cx="125.4" cy="451.2" r="2.8"/>
				<circle id="XMLID_9213_" class="st0" cx="150.3" cy="408" r="2.8"/>
			</g>
		</g>
	</g>
	<g id="XMLID_3_">
		<circle id="XMLID_31_" class="st6" cx="280.2" cy="429.6" r="54.7"/>
		<circle id="XMLID_30_" class="st0" cx="280.2" cy="429.6" r="36.7"/>
		<circle id="XMLID_29_" class="st7" cx="280.2" cy="429.6" r="32.2"/>
		<circle id="XMLID_28_" class="st6" cx="280.2" cy="429.6" r="19.9"/>
		<g id="XMLID_4_">
			<g id="XMLID_20_">
				<circle id="XMLID_27_" class="st0" cx="280.2" cy="404.7" r="2.8"/>
				<circle id="XMLID_26_" class="st0" cx="280.2" cy="454.6" r="2.8"/>
			</g>
			<g id="XMLID_17_">
				<circle id="XMLID_19_" class="st0" cx="267.7" cy="408" r="2.8"/>
				<circle id="XMLID_18_" class="st0" cx="292.6" cy="451.2" r="2.8"/>
			</g>
			<g id="XMLID_14_">
				<circle id="XMLID_16_" class="st0" cx="258.6" cy="417.1" r="2.8"/>
				<circle id="XMLID_15_" class="st0" cx="301.8" cy="442.1" r="2.8"/>
			</g>
			<g id="XMLID_11_">
				<circle id="XMLID_13_" class="st0" cx="255.3" cy="429.6" r="2.8"/>
				<circle id="XMLID_12_" class="st0" cx="305.1" cy="429.6" r="2.8"/>
			</g>
			<g id="XMLID_8_">
				<circle id="XMLID_10_" class="st0" cx="258.6" cy="442.1" r="2.8"/>
				<circle id="XMLID_9_" class="st0" cx="301.8" cy="417.1" r="2.8"/>
			</g>
			<g id="XMLID_5_">
				<circle id="XMLID_7_" class="st0" cx="267.7" cy="451.2" r="2.8"/>
				<circle id="XMLID_6_" class="st0" cx="292.6" cy="408" r="2.8"/>
			</g>
		</g>
	</g>
	<g id="XMLID_32_">
		<circle id="XMLID_55_" class="st6" cx="648.2" cy="429.6" r="54.7"/>
		<circle id="XMLID_54_" class="st0" cx="648.2" cy="429.6" r="36.7"/>
		<circle id="XMLID_53_" class="st7" cx="648.2" cy="429.6" r="32.2"/>
		<circle id="XMLID_52_" class="st6" cx="648.2" cy="429.6" r="19.9"/>
		<g id="XMLID_33_">
			<g id="XMLID_49_">
				<circle id="XMLID_51_" class="st0" cx="648.2" cy="404.7" r="2.8"/>
				<circle id="XMLID_50_" class="st0" cx="648.2" cy="454.6" r="2.8"/>
			</g>
			<g id="XMLID_46_">
				<circle id="XMLID_48_" class="st0" cx="635.7" cy="408" r="2.8"/>
				<circle id="XMLID_47_" class="st0" cx="660.6" cy="451.2" r="2.8"/>
			</g>
			<g id="XMLID_43_">
				<circle id="XMLID_45_" class="st0" cx="626.6" cy="417.1" r="2.8"/>
				<circle id="XMLID_44_" class="st0" cx="669.8" cy="442.1" r="2.8"/>
			</g>
			<g id="XMLID_40_">
				<circle id="XMLID_42_" class="st0" cx="623.3" cy="429.6" r="2.8"/>
				<circle id="XMLID_41_" class="st0" cx="673.1" cy="429.6" r="2.8"/>
			</g>
			<g id="XMLID_37_">
				<circle id="XMLID_39_" class="st0" cx="626.6" cy="442.1" r="2.8"/>
				<circle id="XMLID_38_" class="st0" cx="669.8" cy="417.1" r="2.8"/>
			</g>
			<g id="XMLID_34_">
				<circle id="XMLID_36_" class="st0" cx="635.7" cy="451.2" r="2.8"/>
				<circle id="XMLID_35_" class="st0" cx="660.6" cy="408" r="2.8"/>
			</g>
		</g>
	</g>
</g>
<g id="Layer_3">
	<g>
		<path id="XMLID_9318_" class="st8" d="M751.8,299.8c0,0,8.1,3.2,8.7,9.8v71.2l-8.9,9.8L751.8,299.8z"/>
		<polygon id="XMLID_288_" class="st9" points="521.4,116.5 532.4,116.5 531.5,354.1 521.4,354.1 		"/>
		<g id="XMLID_249_">
			<path id="XMLID_272_" class="st10" d="M558.3,84c1,0,1.8,1,1.8,2.2v14.2h21v4.3h-21v28.2h21v4.3h-21v28.2h21v4.3h-21v28.2h21v4.3
				h-21v28.2h21v4.3h-21v28.2h21v4.3h-21v28.2h21v4.3h-21v28.2h21v4.3h-21v12.1c0,1.2-0.8,2.2-1.8,2.2s-1.8-1-1.8-2.2V86.2
				C556.3,85,557.3,84,558.3,84z"/>
			<g id="XMLID_250_">
				<path id="XMLID_262_" class="st11" d="M557.3,86.2v258.2c0,1.2,0.8,2.2,1.8,2.2s1.8-1,1.8-2.2v-12.1h24.9v12.1
					c0,1.2,0.8,2.2,1.8,2.2s1.8-1,1.8-2.2V86.2c0-1.2-0.8-2.2-1.8-2.2s-1.8,1-1.8,2.2v14.2h-24.9V86.2c0-1.2-0.8-2.2-1.8-2.2
					C558.2,84,557.3,85,557.3,86.2z M561,230.5v-28.2h24.9v28.2H561z M585.9,234.8V263H561v-28.2H585.9z M561,198v-28.2h24.9V198
					H561z M561,165.4v-28.1h24.9v28.2L561,165.4L561,165.4z M585.9,295.5H561v-28.2h24.9V295.5z M585.9,104.8V133H561v-28.2H585.9z
					 M561,328v-28.2h24.9V328H561z"/>
				<path id="XMLID_261_" class="st12" d="M559.2,84.9c0,0,0.3-0.1,0.6,0.3c0.3,0.4,0.5,1.1,0.5,2.1c0,1.9,0,4.7,0,8.3
					c0,7.1-0.1,17.3-0.1,29.5c0,24.4-0.1,56.9-0.2,89.4c0.1,32.5,0.1,65,0.2,89.4c0.1,24.4,0.2,40.6,0.2,40.6s0.1-16.3,0.2-40.6
					c0-24.4,0.1-56.9,0.2-89.4c-0.1-32.5-0.1-65-0.2-89.4c-0.1-12.2-0.1-22.3-0.1-29.5c0-3.6,0-6.4-0.1-8.3
					c-0.1-0.9-0.2-1.7-0.6-2.1C559.5,84.8,559.2,84.9,559.2,84.9z"/>
				<path id="XMLID_260_" class="st12" d="M587.8,84.9c0,0,0.3-0.1,0.6,0.3c0.3,0.4,0.5,1.1,0.6,2.1c0,1.9,0,4.7,0,8.3
					c0,7.1-0.1,17.3-0.1,29.5c0,24.4-0.1,56.9-0.2,89.4c0.1,32.5,0.1,65,0.2,89.4c0.1,24.4,0.2,40.6,0.2,40.6s0.1-16.3,0.2-40.6
					c0-24.4,0.1-56.9,0.2-89.4c-0.1-32.5-0.1-65-0.2-89.4c-0.1-12.2-0.1-22.3-0.1-29.5c0-3.6,0-6.4-0.1-8.3c0-0.9-0.2-1.7-0.6-2.1
					C588.2,84.8,587.8,84.9,587.8,84.9z"/>
				<path id="XMLID_258_" class="st12" d="M584.7,101.4c0,0-1.4-0.2-3.5-0.3c-1,0-2.3-0.1-3.6-0.2c-1.3,0-2.7-0.1-4.1-0.1
					c-1.4,0-2.8,0-4.1,0.1c-1.3,0-2.5,0.1-3.6,0.2c-2.1,0.1-3.5,0.3-3.5,0.3s1.4,0.2,3.5,0.3c1,0.1,2.3,0.1,3.6,0.2
					c1.3,0,2.7,0.1,4.1,0.1s2.8,0,4.1-0.1c1.3,0,2.5-0.1,3.6-0.2C583.3,101.5,584.7,101.4,584.7,101.4z"/>
				<path id="XMLID_257_" class="st12" d="M584.7,134.1c0,0-1.4-0.2-3.5-0.3c-1,0-2.3-0.1-3.6-0.2c-1.3,0-2.7-0.1-4.1-0.1
					c-1.4,0-2.8,0-4.1,0.1c-1.3,0-2.5,0.1-3.6,0.2c-2.1,0.1-3.5,0.3-3.5,0.3s1.4,0.2,3.5,0.3c1,0.1,2.3,0.1,3.6,0.2
					c1.3,0,2.7,0.1,4.1,0.1s2.8,0,4.1-0.1c1.3,0,2.5-0.1,3.6-0.2C583.3,134.2,584.7,134.1,584.7,134.1z"/>
				<path id="XMLID_256_" class="st12" d="M584.7,166.8c0,0-1.4-0.2-3.5-0.3c-1,0-2.3-0.1-3.6-0.2c-1.3,0-2.7-0.1-4.1-0.1
					c-1.4,0-2.8,0-4.1,0.1c-1.3,0-2.5,0.1-3.6,0.2c-2.1,0.1-3.5,0.3-3.5,0.3s1.4,0.2,3.5,0.3c1,0,2.3,0.1,3.6,0.2
					c1.3,0,2.7,0.1,4.1,0.1s2.8,0,4.1-0.1c1.3,0,2.5-0.1,3.6-0.2C583.3,166.9,584.7,166.8,584.7,166.8z"/>
				<path id="XMLID_255_" class="st12" d="M584.7,199.5c0,0-1.4-0.2-3.5-0.3c-1,0-2.3-0.1-3.6-0.2c-1.3,0-2.7-0.1-4.1-0.1
					c-1.4,0-2.8,0-4.1,0.1c-1.3,0-2.5,0.1-3.6,0.2c-2.1,0.1-3.5,0.3-3.5,0.3s1.4,0.2,3.5,0.3c1,0,2.3,0.1,3.6,0.2
					c1.3,0,2.7,0.1,4.1,0.1s2.8,0,4.1-0.1c1.3,0,2.5-0.1,3.6-0.2C583.3,199.6,584.7,199.5,584.7,199.5z"/>
				<path id="XMLID_254_" class="st12" d="M584.7,231.8c0,0-1.4-0.2-3.5-0.3c-1-0.1-2.3-0.1-3.6-0.2c-1.3,0-2.7-0.1-4.1-0.1
					c-1.4,0-2.8,0-4.1,0.1c-1.3,0-2.5,0.1-3.6,0.2c-2.1,0.1-3.5,0.3-3.5,0.3s1.4,0.2,3.5,0.3c1,0,2.3,0.1,3.6,0.2
					c1.3,0,2.7,0.1,4.1,0.1s2.8,0,4.1-0.1c1.3,0,2.5-0.1,3.6-0.2C583.3,232,584.7,231.8,584.7,231.8z"/>
				<path id="XMLID_253_" class="st12" d="M584.7,264.4c0,0-1.4-0.2-3.5-0.3c-1-0.1-2.3-0.1-3.6-0.2c-1.3,0-2.7-0.1-4.1-0.1
					c-1.4,0-2.8,0-4.1,0.1c-1.3,0-2.5,0.1-3.6,0.2c-2.1,0.1-3.5,0.3-3.5,0.3s1.4,0.2,3.5,0.3c1,0,2.3,0.1,3.6,0.2
					c1.3,0.1,2.7,0.1,4.1,0.1s2.8,0,4.1-0.1c1.3,0,2.5-0.1,3.6-0.2C583.3,264.6,584.7,264.4,584.7,264.4z"/>
				<path id="XMLID_252_" class="st12" d="M584.7,297.2c0,0-1.4-0.2-3.5-0.3c-1,0-2.3-0.1-3.6-0.2c-1.3-0.1-2.7-0.1-4.1-0.1
					c-1.4,0-2.8,0-4.1,0.1c-1.3,0-2.5,0.1-3.6,0.2c-2.1,0.1-3.5,0.3-3.5,0.3s1.4,0.2,3.5,0.3c1,0.1,2.3,0.1,3.6,0.2
					c1.3,0.1,2.7,0.1,4.1,0.1s2.8,0,4.1-0.1c1.3,0,2.5-0.1,3.6-0.2C583.3,297.4,584.7,297.2,584.7,297.2z"/>
				<path id="XMLID_251_" class="st12" d="M584.7,329.2c0,0-1.4-0.2-3.5-0.3c-1-0.1-2.3-0.1-3.6-0.2c-1.3,0-2.7-0.1-4.1-0.1
					c-1.4,0-2.8,0-4.1,0.1c-1.3,0-2.5,0.1-3.6,0.2c-2.1,0.1-3.5,0.3-3.5,0.3s1.4,0.2,3.5,0.3c1,0,2.3,0.1,3.6,0.2
					c1.3,0,2.7,0.1,4.1,0.1s2.8,0,4.1-0.1c1.3,0,2.5-0.1,3.6-0.2C583.3,329.4,584.7,329.2,584.7,329.2z"/>
			</g>
		</g>
		<rect id="XMLID_246_" x="40.8" y="126.8" class="st9" width="480.5" height="9.4"/>
		<path id="XMLID_9312_" class="st8" d="M598.7,219.8h136.9c-5.3-19.6-26.1-23.3-26.1-23.3H598.7V219.8z"/>
	</g>
</g>
</svg>
