<?xml version="1.0" encoding="UTF-8" standalone="no"?>
<!DOCTYPE svg PUBLIC "-//W3C//DTD SVG 1.1//EN" "http://www.w3.org/Graphics/SVG/1.1/DTD/svg11.dtd">
<svg version="1.1" xmlns="http://www.w3.org/2000/svg" xmlns:xlink="http://www.w3.org/1999/xlink" preserveAspectRatio="xMidYMid meet" viewBox="0 0 640 640" width="640" height="640"><defs><path d="M627.01 403.79C607.03 403.79 595.93 403.79 593.71 403.79C589.59 378.9 567.94 359.91 542 359.91C515.98 359.91 494.4 378.9 490.28 403.79C470.9 403.79 315.88 403.79 296.5 403.79C292.38 378.9 270.72 359.91 244.78 359.91C218.76 359.91 197.19 378.9 193.07 403.79C191.95 403.79 183.03 403.79 181.92 403.79C177.79 378.9 156.14 359.91 130.2 359.91C104.18 359.91 82.6 378.9 78.48 403.79C77.66 403.79 73.57 403.79 66.2 403.79L66.2 422.61L58.12 422.61L58.12 414.53L48.66 414.53L48.66 387.95L58.12 387.95L58.12 356.27L627.01 356.27L627.01 403.79Z" id="b3bFv2nJND"></path><path d="M449.63 158.53L47.37 158.53L43.65 317.32L99.81 350.53L486.89 350.53L486.89 139.87L503.53 139.87L511.05 128.8L449.63 128.8L449.63 158.53ZM74.76 317L74.76 282.49L150.24 282.49L150.24 317L74.76 317ZM74.76 268.11L74.76 233.6L150.24 233.6L150.24 268.11L74.76 268.11ZM74.76 219.14L74.76 184.63L150.24 184.63L150.24 219.14L74.76 219.14ZM167.77 316.84L167.77 282.33L243.25 282.33L243.25 316.84L167.77 316.84ZM167.77 267.62L167.77 233.12L243.25 233.12L243.25 267.62L167.77 267.62ZM167.77 219.14L167.77 184.63L243.25 184.63L243.25 219.14L167.77 219.14ZM260.3 315.38L260.3 280.88L335.77 280.88L335.77 315.38L260.3 315.38ZM260.3 266.49L260.3 231.99L335.77 231.99L335.77 266.49L260.3 266.49ZM260.3 219.14L260.3 184.63L335.77 184.63L335.77 219.14L260.3 219.14ZM352.42 314.9L352.42 280.39L427.9 280.39L427.9 314.9L352.42 314.9ZM352.42 265.44L352.42 230.94L427.9 230.94L427.9 265.44L352.42 265.44ZM352.42 219.14L352.42 184.63L427.9 184.63L427.9 219.14L352.42 219.14Z" id="g2uWiabXc"></path><path d="M539.09 242.25L539.09 334.86L626.44 334.86L626.44 335.67L539.09 335.67L539.09 357.97L538.28 357.97L538.28 335.67L502.97 335.67L502.97 334.86L538.28 334.86L538.28 242.25L502.89 242.25L502.89 358.13C530.33 358.18 545.57 358.21 548.62 358.21C578.6 358.7 587.98 380.35 587.98 380.35C590.55 380.35 603.39 380.35 626.52 380.35L626.52 304.96L603.17 242.25L539.09 242.25ZM552.26 325.64C550.08 325.64 548.38 324.11 548.38 322.17C548.38 320.23 550.16 318.7 552.26 318.7C553.67 318.7 564.99 318.7 566.4 318.7C568.58 318.7 570.28 320.23 570.28 322.17C570.2 324.11 568.42 325.64 566.4 325.64C563.57 325.64 553.67 325.64 552.26 325.64ZM547.17 248.15L598.97 248.15L614.48 289.85L547.17 289.85L547.17 248.15ZM514.85 248.39C516.15 248.39 526.63 248.39 527.94 248.39C529.47 248.39 530.76 249.36 530.76 250.49C530.76 254.15 530.76 283.37 530.76 287.02C530.76 288.23 529.55 289.12 527.94 289.12C526.63 289.12 516.15 289.12 514.85 289.12C513.31 289.12 512.02 288.15 512.02 287.02C512.02 284.58 512.02 272.41 512.02 250.49C512.83 249.09 513.77 248.39 514.85 248.39Z" id="e5PLEWSSqu"></path><path d="M446.08 381.16C446.08 381.16 446.08 381.16 446.08 381.16C446.08 406.66 446.08 420.83 446.08 423.67C446.08 423.67 446.08 423.67 446.08 423.67C381.3 423.67 345.32 423.67 338.12 423.67C338.12 423.67 338.12 423.67 338.12 423.67C338.12 398.16 338.12 383.99 338.12 381.16C338.12 381.16 338.12 381.16 338.12 381.16C402.89 381.16 438.88 381.16 446.08 381.16Z" id="ajyMVQH9f"></path><path d="M446.08 408.63C446.08 408.63 446.08 408.63 446.08 408.63C446.08 417.6 446.08 422.59 446.08 423.58C446.08 423.58 446.08 423.58 446.08 423.58C381.3 423.58 345.32 423.58 338.12 423.58C338.12 423.58 338.12 423.58 338.12 423.58C338.12 414.61 338.12 409.63 338.12 408.63C338.12 408.63 338.12 408.63 338.12 408.63C402.89 408.63 438.88 408.63 446.08 408.63Z" id="b2cXJPkfa"></path><path d="M446.08 381.16C446.08 381.16 446.08 381.16 446.08 381.16C446.08 388.92 446.08 393.23 446.08 394.09C446.08 394.09 446.08 394.09 446.08 394.09C381.3 394.09 345.32 394.09 338.12 394.09C338.12 394.09 338.12 394.09 338.12 394.09C338.12 386.33 338.12 382.02 338.12 381.16C338.12 381.16 338.12 381.16 338.12 381.16C402.89 381.16 438.88 381.16 446.08 381.16Z" id="amQrEvium"></path><path d="M405.35 381.16C405.35 381.16 405.35 381.16 405.35 381.16C405.35 406.66 405.35 420.83 405.35 423.67C405.35 423.67 405.35 423.67 405.35 423.67C401.52 423.67 399.39 423.67 398.97 423.67C398.97 423.67 398.97 423.67 398.97 423.67C398.97 398.16 398.97 383.99 398.97 381.16C398.97 381.16 398.97 381.16 398.97 381.16C402.8 381.16 404.92 381.16 405.35 381.16Z" id="bvjVRxspJ"></path><path d="M432.74 381.16C432.74 381.16 432.74 381.16 432.74 381.16C432.74 406.66 432.74 420.83 432.74 423.67C432.74 423.67 432.74 423.67 432.74 423.67C428.91 423.67 426.79 423.67 426.36 423.67C426.36 423.67 426.36 423.67 426.36 423.67C426.36 398.16 426.36 383.99 426.36 381.16C426.36 381.16 426.36 381.16 426.36 381.16C430.19 381.16 432.32 381.16 432.74 381.16Z" id="c2hITlA6Wy"></path><path d="M129.71 368.15C105.3 368.15 85.51 387.94 85.51 412.35C85.51 436.76 105.3 456.55 129.71 456.55C154.13 456.55 173.92 436.76 173.92 412.35C173.92 387.94 154.13 368.15 129.71 368.15Z" id="a1D0h4giH0"></path><path d="M129.71 382.7C113.34 382.7 100.06 395.97 100.06 412.35C100.06 428.73 113.34 442.01 129.71 442.01C146.09 442.01 159.37 428.73 159.37 412.35C159.37 395.97 146.09 382.7 129.71 382.7Z" id="bASyuaZHx"></path><path d="M129.71 386.33C115.34 386.33 103.69 397.98 103.69 412.35C103.69 426.72 115.34 438.37 129.71 438.37C144.08 438.37 155.73 426.72 155.73 412.35C155.73 397.98 144.08 386.33 129.71 386.33Z" id="atEeDMc0h"></path><path d="M129.71 396.27C120.83 396.27 113.63 403.47 113.63 412.35C113.63 421.23 120.83 428.43 129.71 428.43C138.6 428.43 145.79 421.23 145.79 412.35C145.79 403.47 138.6 396.27 129.71 396.27Z" id="brPrJRKOw"></path><path d="M244.7 368.15C220.29 368.15 200.5 387.94 200.5 412.35C200.5 436.76 220.29 456.55 244.7 456.55C269.12 456.55 288.91 436.76 288.91 412.35C288.91 387.94 269.12 368.15 244.7 368.15Z" id="c1fxm47iP0"></path><path d="M244.7 382.7C228.32 382.7 215.05 395.97 215.05 412.35C215.05 428.73 228.32 442.01 244.7 442.01C261.08 442.01 274.36 428.73 274.36 412.35C274.36 395.97 261.08 382.7 244.7 382.7Z" id="c2NKAhtkwY"></path><path d="M244.7 386.33C230.33 386.33 218.68 397.98 218.68 412.35C218.68 426.72 230.33 438.37 244.7 438.37C259.07 438.37 270.72 426.72 270.72 412.35C270.72 397.98 259.07 386.33 244.7 386.33Z" id="c2f7Q4Ctla"></path><path d="M244.7 396.27C235.82 396.27 228.62 403.47 228.62 412.35C228.62 421.23 235.82 428.43 244.7 428.43C253.58 428.43 260.78 421.23 260.78 412.35C260.78 403.47 253.58 396.27 244.7 396.27Z" id="a16DK1W7wi"></path><path d="M542.08 368.15C517.67 368.15 497.88 387.94 497.88 412.35C497.88 436.76 517.67 456.55 542.08 456.55C566.49 456.55 586.28 436.76 586.28 412.35C586.28 387.94 566.49 368.15 542.08 368.15Z" id="b4kuCo6JWh"></path><path d="M542.08 382.7C525.7 382.7 512.42 395.97 512.42 412.35C512.42 428.73 525.7 442.01 542.08 442.01C558.46 442.01 571.73 428.73 571.73 412.35C571.73 395.97 558.46 382.7 542.08 382.7Z" id="c1TpU279v0"></path><path d="M542.08 386.33C527.71 386.33 516.06 397.98 516.06 412.35C516.06 426.72 527.71 438.37 542.08 438.37C556.45 438.37 568.1 426.72 568.1 412.35C568.1 397.98 556.45 386.33 542.08 386.33Z" id="djfSUWcWw"></path><path d="M542.08 396.27C533.2 396.27 526 403.47 526 412.35C526 421.23 533.2 428.43 542.08 428.43C550.96 428.43 558.16 421.23 558.16 412.35C558.16 403.47 550.96 396.27 542.08 396.27Z" id="f4HmnVRFap"></path><path d="M632.83 315.38C632.83 319.22 632.83 338.4 632.83 372.92L625.63 380.84L625.79 307.46C630.16 309.19 632.5 311.83 632.83 315.38Z" id="b36aJUFvf"></path><path d="M448.5 159.34L447.77 351.34L439.61 351.34L439.61 159.34L448.5 159.34Z" id="b2FKIRyAGi"></path><path d="M470.89 134.86C470.89 135.62 470.89 139.45 470.89 146.33L487.86 146.33L487.86 149.81L470.89 149.81L470.89 172.59L487.86 172.59L487.86 176.07L470.89 176.07L470.89 198.86L487.86 198.86L487.86 202.33L470.89 202.33L470.89 225.12L487.86 225.12L487.86 228.59L470.89 228.59L470.89 251.38L487.86 251.38L487.86 254.86L470.89 254.86L470.89 277.64L487.86 277.64L487.86 281.12L470.89 281.12L470.89 303.91L487.86 303.91L487.86 307.38L470.89 307.38L470.89 330.17L487.86 330.17L487.86 333.64L470.89 333.64C470.89 339.51 470.89 342.77 470.89 343.42C470.89 344.39 470.24 345.2 469.43 345.2C468.62 345.2 467.98 344.39 467.98 343.42C467.98 322.57 467.98 155.71 467.98 134.86C467.81 133.89 468.62 133.08 469.43 133.08C470.24 133.08 470.89 133.89 470.89 134.86Z" id="cKCURTno9"></path><path d="M468.62 343.5C468.62 344.47 469.27 345.28 470.08 345.28C470.89 345.28 471.53 344.47 471.53 343.5C471.53 342.85 471.53 339.59 471.53 333.73L491.65 333.73C491.65 339.59 491.65 342.85 491.65 343.5C491.65 344.47 492.3 345.28 493.11 345.28C493.92 345.28 494.56 344.47 494.56 343.5C494.56 322.64 494.56 155.72 494.56 134.86C494.56 133.89 493.92 133.08 493.11 133.08C492.3 133.08 491.65 133.89 491.65 134.86C491.65 135.62 491.65 139.45 491.65 146.33L471.53 146.33C471.53 139.45 471.53 135.62 471.53 134.86C471.53 133.89 470.89 133.08 470.08 133.08C469.35 133.08 468.62 133.89 468.62 134.86C468.62 176.59 468.62 322.64 468.62 343.5ZM471.61 228.68L491.73 228.68L491.73 251.46L471.61 251.46L471.61 228.68ZM491.73 277.73L471.61 277.73L471.61 254.94L491.73 254.94L491.73 277.73ZM471.61 202.41L491.73 202.41L491.73 225.2L471.61 225.2L471.61 202.41ZM471.61 176.15L491.73 176.15L491.73 198.94L471.61 198.86L471.61 198.86L471.61 176.15ZM471.61 303.99L471.61 281.2L491.73 281.2L491.73 303.99L471.61 303.99ZM491.73 172.68L471.61 172.68L471.61 149.89L491.73 149.89L491.73 172.68ZM471.61 307.46L491.73 307.46L491.73 330.25L471.61 330.25L471.61 307.46Z" id="a13UmRn9Ir"></path><path d="M470.64 134.05C470.89 134.37 471.05 134.94 471.05 135.75C471.05 137.28 471.05 139.54 471.05 142.45C471.05 148.19 470.97 156.43 470.97 166.29C470.97 186.01 470.89 212.27 470.8 238.53C470.89 264.8 470.89 291.06 470.97 310.78C471.05 330.49 471.13 343.58 471.13 343.58C471.13 343.58 471.21 330.41 471.29 310.78C471.29 291.06 471.37 264.8 471.45 238.53C471.37 212.27 471.37 186.01 471.29 166.29C471.21 156.43 471.21 148.27 471.21 142.45C471.21 139.54 471.21 137.28 471.13 135.75C471.05 135.02 470.97 134.37 470.64 134.05C470.4 133.73 470.16 133.81 470.16 133.81C470.26 133.85 470.4 133.73 470.64 134.05Z" id="d7AbfGINHX"></path><path d="M493.75 134.05C494 134.37 494.16 134.94 494.24 135.75C494.24 137.28 494.24 139.54 494.24 142.45C494.24 148.19 494.16 156.43 494.16 166.29C494.16 186.01 494.08 212.27 494 238.53C494.08 264.8 494.08 291.06 494.16 310.78C494.24 330.49 494.32 343.58 494.32 343.58C494.32 343.58 494.4 330.41 494.48 310.78C494.48 291.06 494.56 264.8 494.64 238.53C494.56 212.27 494.56 186.01 494.48 166.29C494.4 156.43 494.4 148.27 494.4 142.45C494.4 139.54 494.4 137.28 494.32 135.75C494.32 135.02 494.16 134.37 493.84 134.05C493.59 133.73 493.27 133.81 493.27 133.81C493.37 133.85 493.51 133.73 493.75 134.05Z" id="b1fWCAZBV4"></path><path d="M487.94 146.9C487.13 146.9 486.08 146.82 485.03 146.74C483.98 146.74 482.85 146.65 481.71 146.65C480.58 146.65 479.45 146.65 478.4 146.74C477.35 146.74 476.38 146.82 475.49 146.9C473.79 146.98 472.66 147.14 472.66 147.14C472.66 147.14 473.79 147.3 475.49 147.38C476.3 147.46 477.35 147.46 478.4 147.54C479.45 147.54 480.58 147.62 481.71 147.62C482.85 147.62 483.98 147.62 485.03 147.54C486.08 147.54 487.05 147.46 487.94 147.38C489.63 147.22 490.76 147.14 490.76 147.14C490.2 147.09 489.63 146.98 487.94 146.9Z" id="k1Sdz336HP"></path><path d="M487.94 173.32C487.13 173.32 486.08 173.24 485.03 173.16C483.98 173.16 482.85 173.08 481.71 173.08C480.58 173.08 479.45 173.08 478.4 173.16C477.35 173.16 476.38 173.24 475.49 173.32C473.79 173.4 472.66 173.56 472.66 173.56C472.66 173.56 473.79 173.73 475.49 173.81C476.3 173.89 477.35 173.89 478.4 173.97C479.45 173.97 480.58 174.05 481.71 174.05C482.85 174.05 483.98 174.05 485.03 173.97C486.08 173.97 487.05 173.89 487.94 173.81C489.63 173.64 490.76 173.56 490.76 173.56C490.2 173.52 489.63 173.4 487.94 173.32Z" id="a5CbTlYQa"></path><path d="M487.94 199.75C487.13 199.75 486.08 199.67 485.03 199.58C483.98 199.58 482.85 199.5 481.71 199.5C480.58 199.5 479.45 199.5 478.4 199.58C477.35 199.58 476.38 199.67 475.49 199.75C473.79 199.83 472.66 199.99 472.66 199.99C472.66 199.99 473.79 200.15 475.49 200.23C476.3 200.23 477.35 200.31 478.4 200.39C479.45 200.39 480.58 200.47 481.71 200.47C482.85 200.47 483.98 200.47 485.03 200.39C486.08 200.39 487.05 200.31 487.94 200.23C489.63 200.07 490.76 199.99 490.76 199.99C490.2 199.94 489.63 199.83 487.94 199.75Z" id="gZMxGwhMt"></path><path d="M487.94 226.17C487.13 226.17 486.08 226.09 485.03 226.01C483.98 226.01 482.85 225.93 481.71 225.93C480.58 225.93 479.45 225.93 478.4 226.01C477.35 226.01 476.38 226.09 475.49 226.17C473.79 226.25 472.66 226.41 472.66 226.41C472.66 226.41 473.79 226.57 475.49 226.65C476.3 226.65 477.35 226.74 478.4 226.82C479.45 226.82 480.58 226.9 481.71 226.9C482.85 226.9 483.98 226.9 485.03 226.82C486.08 226.82 487.05 226.74 487.94 226.65C489.63 226.49 490.76 226.41 490.76 226.41C490.2 226.36 489.63 226.25 487.94 226.17Z" id="a17rQupdBf"></path><path d="M487.94 252.27C487.13 252.19 486.08 252.19 485.03 252.11C483.98 252.11 482.85 252.03 481.71 252.03C480.58 252.03 479.45 252.03 478.4 252.11C477.35 252.11 476.38 252.19 475.49 252.27C473.79 252.35 472.66 252.51 472.66 252.51C472.66 252.51 473.79 252.68 475.49 252.76C476.3 252.76 477.35 252.84 478.4 252.92C479.45 252.92 480.58 253 481.71 253C482.85 253 483.98 253 485.03 252.92C486.08 252.92 487.05 252.84 487.94 252.76C489.63 252.68 490.76 252.51 490.76 252.51C490.2 252.47 489.63 252.35 487.94 252.27Z" id="brSJ8M1UE"></path><path d="M487.94 278.61C487.13 278.53 486.08 278.53 485.03 278.45C483.98 278.45 482.85 278.37 481.71 278.37C480.58 278.37 479.45 278.37 478.4 278.45C477.35 278.45 476.38 278.53 475.49 278.61C473.79 278.7 472.66 278.86 472.66 278.86C472.66 278.86 473.79 279.02 475.49 279.1C476.3 279.1 477.35 279.18 478.4 279.26C479.45 279.34 480.58 279.34 481.71 279.34C482.85 279.34 483.98 279.34 485.03 279.26C486.08 279.26 487.05 279.18 487.94 279.1C489.63 279.02 490.76 278.86 490.76 278.86C490.2 278.81 489.63 278.7 487.94 278.61Z" id="gaHsTpo98"></path><path d="M487.94 305.12C487.13 305.12 486.08 305.04 485.03 304.96C483.98 304.88 482.85 304.88 481.71 304.88C480.58 304.88 479.45 304.88 478.4 304.96C477.35 304.96 476.38 305.04 475.49 305.12C473.79 305.2 472.66 305.36 472.66 305.36C472.66 305.36 473.79 305.52 475.49 305.6C476.3 305.69 477.35 305.69 478.4 305.77C479.45 305.85 480.58 305.85 481.71 305.85C482.85 305.85 483.98 305.85 485.03 305.77C486.08 305.77 487.05 305.69 487.94 305.6C489.63 305.52 490.76 305.36 490.76 305.36C490.2 305.31 489.63 305.2 487.94 305.12Z" id="asPkxujqg"></path><path d="M487.94 330.98C487.13 330.9 486.08 330.9 485.03 330.82C483.98 330.82 482.85 330.74 481.71 330.74C480.58 330.74 479.45 330.74 478.4 330.82C477.35 330.82 476.38 330.9 475.49 330.98C473.79 331.06 472.66 331.22 472.66 331.22C472.66 331.22 473.79 331.38 475.49 331.46C476.3 331.46 477.35 331.54 478.4 331.62C479.45 331.62 480.58 331.71 481.71 331.71C482.85 331.71 483.98 331.71 485.03 331.62C486.08 331.62 487.05 331.54 487.94 331.46C489.63 331.38 490.76 331.22 490.76 331.22C490.2 331.17 489.63 331.06 487.94 330.98Z" id="d20cRWgtZH"></path><path d="M439.53 167.67C439.53 167.67 439.53 167.67 439.53 167.67C439.53 172.22 439.53 174.75 439.53 175.26C439.53 175.26 439.53 175.26 439.53 175.26C206.56 175.26 77.13 175.26 51.25 175.26C51.25 175.26 51.25 175.26 51.25 175.26C51.25 170.7 51.25 168.17 51.25 167.67C51.25 167.67 51.25 167.67 51.25 167.67C284.22 167.67 413.65 167.67 439.53 167.67Z" id="eGuO0cOVr"></path><path d="M612.7 242.82C608.42 226.98 591.61 223.99 591.61 223.99C585.64 223.99 555.8 223.99 502.08 223.99L502.08 242.82C568.45 242.82 605.33 242.82 612.7 242.82Z" id="ccB2tjXO3"></path></defs><g><g><g><use xlink:href="#b3bFv2nJND" opacity="1" fill="#5d5a64" fill-opacity="1"></use><g><use xlink:href="#b3bFv2nJND" opacity="1" fill-opacity="0" stroke="#000000" stroke-width="1" stroke-opacity="0"></use></g></g><g><use xlink:href="#g2uWiabXc" opacity="1" fill="#7bb542" fill-opacity="1"></use><g><use xlink:href="#g2uWiabXc" opacity="1" fill-opacity="0" stroke="#000000" stroke-width="1" stroke-opacity="0"></use></g></g><g><use xlink:href="#e5PLEWSSqu" opacity="1" fill="#7bb542" fill-opacity="1"></use><g><use xlink:href="#e5PLEWSSqu" opacity="1" fill-opacity="0" stroke="#000000" stroke-width="1" stroke-opacity="0"></use></g></g><g><use xlink:href="#ajyMVQH9f" opacity="1" fill="#c9c8cc" fill-opacity="1"></use><g><use xlink:href="#ajyMVQH9f" opacity="1" fill-opacity="0" stroke="#000000" stroke-width="1" stroke-opacity="0"></use></g></g><g><use xlink:href="#b2cXJPkfa" opacity="1" fill="#6b6a73" fill-opacity="1"></use><g><use xlink:href="#b2cXJPkfa" opacity="1" fill-opacity="0" stroke="#000000" stroke-width="1" stroke-opacity="0"></use></g></g><g><use xlink:href="#amQrEvium" opacity="1" fill="#86848d" fill-opacity="1"></use><g><use xlink:href="#amQrEvium" opacity="1" fill-opacity="0" stroke="#000000" stroke-width="1" stroke-opacity="0"></use></g></g><g><use xlink:href="#bvjVRxspJ" opacity="1" fill="#424048" fill-opacity="1"></use><g><use xlink:href="#bvjVRxspJ" opacity="1" fill-opacity="0" stroke="#000000" stroke-width="1" stroke-opacity="0"></use></g></g><g><use xlink:href="#c2hITlA6Wy" opacity="1" fill="#424048" fill-opacity="1"></use><g><use xlink:href="#c2hITlA6Wy" opacity="1" fill-opacity="0" stroke="#000000" stroke-width="1" stroke-opacity="0"></use></g></g><g><use xlink:href="#a1D0h4giH0" opacity="1" fill="#322f37" fill-opacity="1"></use><g><use xlink:href="#a1D0h4giH0" opacity="1" fill-opacity="0" stroke="#000000" stroke-width="1" stroke-opacity="0"></use></g></g><g><use xlink:href="#bASyuaZHx" opacity="1" fill="#5d5a64" fill-opacity="1"></use><g><use xlink:href="#bASyuaZHx" opacity="1" fill-opacity="0" stroke="#000000" stroke-width="1" stroke-opacity="0"></use></g></g><g><use xlink:href="#atEeDMc0h" opacity="1" fill="#e9e8ec" fill-opacity="1"></use><g><use xlink:href="#atEeDMc0h" opacity="1" fill-opacity="0" stroke="#000000" stroke-width="1" stroke-opacity="0"></use></g></g><g><use xlink:href="#brPrJRKOw" opacity="1" fill="#322f37" fill-opacity="1"></use><g><use xlink:href="#brPrJRKOw" opacity="1" fill-opacity="0" stroke="#000000" stroke-width="1" stroke-opacity="0"></use></g></g><g><use xlink:href="#c1fxm47iP0" opacity="1" fill="#322f37" fill-opacity="1"></use><g><use xlink:href="#c1fxm47iP0" opacity="1" fill-opacity="0" stroke="#000000" stroke-width="1" stroke-opacity="0"></use></g></g><g><use xlink:href="#c2NKAhtkwY" opacity="1" fill="#5d5a64" fill-opacity="1"></use><g><use xlink:href="#c2NKAhtkwY" opacity="1" fill-opacity="0" stroke="#000000" stroke-width="1" stroke-opacity="0"></use></g></g><g><use xlink:href="#c2f7Q4Ctla" opacity="1" fill="#e9e8ec" fill-opacity="1"></use><g><use xlink:href="#c2f7Q4Ctla" opacity="1" fill-opacity="0" stroke="#000000" stroke-width="1" stroke-opacity="0"></use></g></g><g><use xlink:href="#a16DK1W7wi" opacity="1" fill="#322f37" fill-opacity="1"></use><g><use xlink:href="#a16DK1W7wi" opacity="1" fill-opacity="0" stroke="#000000" stroke-width="1" stroke-opacity="0"></use></g></g><g><use xlink:href="#b4kuCo6JWh" opacity="1" fill="#322f37" fill-opacity="1"></use><g><use xlink:href="#b4kuCo6JWh" opacity="1" fill-opacity="0" stroke="#000000" stroke-width="1" stroke-opacity="0"></use></g></g><g><use xlink:href="#c1TpU279v0" opacity="1" fill="#5d5a64" fill-opacity="1"></use><g><use xlink:href="#c1TpU279v0" opacity="1" fill-opacity="0" stroke="#000000" stroke-width="1" stroke-opacity="0"></use></g></g><g><use xlink:href="#djfSUWcWw" opacity="1" fill="#e9e8ec" fill-opacity="1"></use><g><use xlink:href="#djfSUWcWw" opacity="1" fill-opacity="0" stroke="#000000" stroke-width="1" stroke-opacity="0"></use></g></g><g><use xlink:href="#f4HmnVRFap" opacity="1" fill="#322f37" fill-opacity="1"></use><g><use xlink:href="#f4HmnVRFap" opacity="1" fill-opacity="0" stroke="#000000" stroke-width="1" stroke-opacity="0"></use></g></g><g><use xlink:href="#b36aJUFvf" opacity="1" fill="#669740" fill-opacity="1"></use><g><use xlink:href="#b36aJUFvf" opacity="1" fill-opacity="0" stroke="#000000" stroke-width="1" stroke-opacity="0"></use></g></g><g><use xlink:href="#b2FKIRyAGi" opacity="1" fill="#3d3d3d" fill-opacity="1"></use><g><use xlink:href="#b2FKIRyAGi" opacity="1" fill-opacity="0" stroke="#000000" stroke-width="1" stroke-opacity="0"></use></g></g><g><use xlink:href="#cKCURTno9" opacity="1" fill="#8bc63f" fill-opacity="1"></use><g><use xlink:href="#cKCURTno9" opacity="1" fill-opacity="0" stroke="#000000" stroke-width="1" stroke-opacity="0"></use></g></g><g><use xlink:href="#a13UmRn9Ir" opacity="1" fill="#608c3d" fill-opacity="1"></use><g><use xlink:href="#a13UmRn9Ir" opacity="1" fill-opacity="0" stroke="#000000" stroke-width="1" stroke-opacity="0"></use></g></g><g><use xlink:href="#d7AbfGINHX" opacity="1" fill="#cfe4aa" fill-opacity="1"></use><g><use xlink:href="#d7AbfGINHX" opacity="1" fill-opacity="0" stroke="#000000" stroke-width="1" stroke-opacity="0"></use></g></g><g><use xlink:href="#b1fWCAZBV4" opacity="1" fill="#cfe4aa" fill-opacity="1"></use><g><use xlink:href="#b1fWCAZBV4" opacity="1" fill-opacity="0" stroke="#000000" stroke-width="1" stroke-opacity="0"></use></g></g><g><use xlink:href="#k1Sdz336HP" opacity="1" fill="#cfe4aa" fill-opacity="1"></use><g><use xlink:href="#k1Sdz336HP" opacity="1" fill-opacity="0" stroke="#000000" stroke-width="1" stroke-opacity="0"></use></g></g><g><use xlink:href="#a5CbTlYQa" opacity="1" fill="#cfe4aa" fill-opacity="1"></use><g><use xlink:href="#a5CbTlYQa" opacity="1" fill-opacity="0" stroke="#000000" stroke-width="1" stroke-opacity="0"></use></g></g><g><use xlink:href="#gZMxGwhMt" opacity="1" fill="#cfe4aa" fill-opacity="1"></use><g><use xlink:href="#gZMxGwhMt" opacity="1" fill-opacity="0" stroke="#000000" stroke-width="1" stroke-opacity="0"></use></g></g><g><use xlink:href="#a17rQupdBf" opacity="1" fill="#cfe4aa" fill-opacity="1"></use><g><use xlink:href="#a17rQupdBf" opacity="1" fill-opacity="0" stroke="#000000" stroke-width="1" stroke-opacity="0"></use></g></g><g><use xlink:href="#brSJ8M1UE" opacity="1" fill="#cfe4aa" fill-opacity="1"></use><g><use xlink:href="#brSJ8M1UE" opacity="1" fill-opacity="0" stroke="#000000" stroke-width="1" stroke-opacity="0"></use></g></g><g><use xlink:href="#gaHsTpo98" opacity="1" fill="#cfe4aa" fill-opacity="1"></use><g><use xlink:href="#gaHsTpo98" opacity="1" fill-opacity="0" stroke="#000000" stroke-width="1" stroke-opacity="0"></use></g></g><g><use xlink:href="#asPkxujqg" opacity="1" fill="#cfe4aa" fill-opacity="1"></use><g><use xlink:href="#asPkxujqg" opacity="1" fill-opacity="0" stroke="#000000" stroke-width="1" stroke-opacity="0"></use></g></g><g><use xlink:href="#d20cRWgtZH" opacity="1" fill="#cfe4aa" fill-opacity="1"></use><g><use xlink:href="#d20cRWgtZH" opacity="1" fill-opacity="0" stroke="#000000" stroke-width="1" stroke-opacity="0"></use></g></g><g><use xlink:href="#eGuO0cOVr" opacity="1" fill="#3d3d3d" fill-opacity="1"></use><g><use xlink:href="#eGuO0cOVr" opacity="1" fill-opacity="0" stroke="#000000" stroke-width="1" stroke-opacity="0"></use></g></g><g><use xlink:href="#ccB2tjXO3" opacity="1" fill="#669740" fill-opacity="1"></use><g><use xlink:href="#ccB2tjXO3" opacity="1" fill-opacity="0" stroke="#000000" stroke-width="1" stroke-opacity="0"></use></g></g></g></g></svg>