<?xml version="1.0" encoding="utf-8"?>
<!-- Generator: Adobe Illustrator 19.0.0, SVG Export Plug-In . SVG Version: 6.00 Build 0)  -->
<svg version="1.1" xmlns="http://www.w3.org/2000/svg" xmlns:xlink="http://www.w3.org/1999/xlink" x="0px" y="0px"
	 viewBox="0 0 792 612" style="enable-background:new 0 0 792 612;" xml:space="preserve">
<style type="text/css">
	<!-- .st0{fill:#7BB542;} -->
	.st1{fill:#322F37;}
	.st2{fill:#5D5A64;}
	.st3{fill:#E9E8EC;}
	<!-- .st4{fill:white;} -->
</style>
<g id="Layer_1">
	<path class="st0" d="M737.3,270.2l-107.6-37.1l-70.4-102.5l-145.9,0.2v126H46.7v73.3H33.4v32.6h13.3v34.7h46.4
		c8-44.8,47.2-79,94.3-79c47.1,0,86.3,34.2,94.3,79h244c8-44.8,47.2-79,94.3-79s86.3,34.2,94.3,79h23.1V270.2H737.3z M436.5,372.4
		h-2.8v-87.4H54.3v-2.8h379.3V136.4h2.8V372.4z M512,274.1h-25.6c-3.9,0-7-2.8-7-6.2c0-3.4,3.1-6.2,7-6.2H512c3.9,0,7,2.8,7,6.2
		C519,271.3,515.8,274.1,512,274.1z M455,233.1v-81.9l90.6-0.1l53.5,82H455z"/>
</g>
<g id="Layer_3">
	<g>
		<circle id="XMLID_9112_" class="st1" cx="188.2" cy="413.7" r="64.4"/>
		<circle id="XMLID_9111_" class="st2" cx="188.2" cy="413.7" r="43.1"/>
		<circle id="XMLID_9110_" class="st3" cx="188.2" cy="413.7" r="37.9"/>
		<circle id="XMLID_9109_" class="st1" cx="188.2" cy="413.7" r="23.4"/>
		<g id="XMLID_9090_">
			<g id="XMLID_9106_">
				<circle id="XMLID_9108_" class="st2" cx="188.2" cy="384.4" r="3.3"/>
				<circle id="XMLID_9107_" class="st2" cx="188.2" cy="443.1" r="3.3"/>
			</g>
			<g id="XMLID_9103_">
				<circle id="XMLID_9105_" class="st2" cx="173.6" cy="388.3" r="3.3"/>
				<circle id="XMLID_9104_" class="st2" cx="202.9" cy="439.2" r="3.3"/>
			</g>
			<g id="XMLID_9100_">
				<circle id="XMLID_9102_" class="st2" cx="162.8" cy="399.1" r="3.3"/>
				<circle id="XMLID_9101_" class="st2" cx="213.6" cy="428.4" r="3.3"/>
			</g>
			<g id="XMLID_9097_">
				<circle id="XMLID_9099_" class="st2" cx="158.9" cy="413.7" r="3.3"/>
				<circle id="XMLID_9098_" class="st2" cx="217.6" cy="413.7" r="3.3"/>
			</g>
			<g id="XMLID_9094_">
				<circle id="XMLID_9096_" class="st2" cx="162.8" cy="428.4" r="3.3"/>
				<circle id="XMLID_9095_" class="st2" cx="213.6" cy="399.1" r="3.3"/>
			</g>
			<g id="XMLID_9091_">
				<circle id="XMLID_9093_" class="st2" cx="173.6" cy="439.2" r="3.3"/>
				<circle id="XMLID_9092_" class="st2" cx="202.9" cy="388.3" r="3.3"/>
			</g>
		</g>
		<g id="XMLID_9061_">
			<circle id="XMLID_9087_" class="st1" cx="620.8" cy="413.7" r="64.4"/>
			<circle id="XMLID_9086_" class="st2" cx="620.8" cy="413.7" r="43.1"/>
			<circle id="XMLID_9085_" class="st3" cx="620.8" cy="413.7" r="37.9"/>
			<circle id="XMLID_9084_" class="st1" cx="620.8" cy="413.7" r="23.4"/>
			<g id="XMLID_9062_">
				<g id="XMLID_9081_">
					<circle id="XMLID_9083_" class="st2" cx="620.8" cy="384.4" r="3.3"/>
					<circle id="XMLID_9082_" class="st2" cx="620.8" cy="443.1" r="3.3"/>
				</g>
				<g id="XMLID_9077_">
					<circle id="XMLID_9080_" class="st2" cx="606.2" cy="388.3" r="3.3"/>
					<circle id="XMLID_9079_" class="st2" cx="635.5" cy="439.2" r="3.3"/>
				</g>
				<g id="XMLID_9074_">
					<circle id="XMLID_9076_" class="st2" cx="595.4" cy="399.1" r="3.3"/>
					<circle id="XMLID_9075_" class="st2" cx="646.2" cy="428.4" r="3.3"/>
				</g>
				<g id="XMLID_9070_">
					<circle id="XMLID_9073_" class="st2" cx="591.5" cy="413.7" r="3.3"/>
					<circle id="XMLID_9072_" class="st2" cx="650.2" cy="413.7" r="3.3"/>
				</g>
				<g id="XMLID_9066_">
					<circle id="XMLID_9069_" class="st2" cx="595.4" cy="428.4" r="3.3"/>
					<circle id="XMLID_9067_" class="st2" cx="646.2" cy="399.1" r="3.3"/>
				</g>
				<g id="XMLID_9063_">
					<circle id="XMLID_9065_" class="st2" cx="606.2" cy="439.2" r="3.3"/>
					<circle id="XMLID_9064_" class="st2" cx="635.5" cy="388.3" r="3.3"/>
				</g>
			</g>
		</g>
	</g>
</g>
<g id="Layer_2">
	<path class="st4" d="M762.8,379.7v13.1c0,3.5-2.2,6.3-4.9,6.3h-43.1c0.5,3.5,0.9,7,1.1,10.6H689c-2.1-36.1-32.1-64.8-68.7-64.8
		c-36.6,0-66.6,28.7-68.7,64.8h-27.1c0.1-3.1,0.4-6.1,0.8-9.1H282.6c0.4,3,0.7,6,0.8,9.1h-27c-2.1-36.1-32.1-64.8-68.7-64.8
		c-36.6,0-66.6,28.7-68.7,64.8H92c0.1-3.1,0.4-6.1,0.8-9.1H33.3c-2.3,0-4.1-2.2-4.1-5v-14.2c0-2.8,1.9-5,4.1-5h66.3
		c14.6-34.3,48.6-58.4,88.1-58.4c39.6,0,73.6,24.1,88.2,58.4h256.2c14.6-34.3,48.6-58.4,88.1-58.4c38.4,0,71.6,22.7,86.8,55.4h30.7
		V269.9c0,0,13.6,8.6,14.2,26.5c0.3,11.7,0.2,51.1,0.1,77h5.9C760.6,373.4,762.8,376.2,762.8,379.7z"/>
</g>
</svg>
