<?xml version="1.0" encoding="utf-8"?>
<!-- Generator: Adobe Illustrator 19.0.0, SVG Export Plug-In . SVG Version: 6.00 Build 0)  -->
<svg version="1.1" xmlns="http://www.w3.org/2000/svg" xmlns:xlink="http://www.w3.org/1999/xlink" x="0px" y="0px"
	 viewBox="0 0 792 612" style="enable-background:new 0 0 792 612;" xml:space="preserve">
<style type="text/css">
	<!-- .st0{fill:#7BB542;} -->
	.st1{fill:#322F37;}
	.st2{fill:#5D5A64;}
	.st3{fill:white;}
	<!-- .st4{fill:#669740;} -->
</style>
<g id="Layer_1">
	<g>
		<path class="st0" d="M230.5,244C230.5,243.9,230.4,244,230.5,244c0.8,3.9,5.3,5,8.6,6c4.1,1.2,9.3,1.9,13.5,1.2
			c0.4-0.1,0.5-0.7,0.1-0.8c-4.2-0.3-8.2-0.2-12.3-1.1C236.9,248.5,232.1,247.4,230.5,244z"/>
		<path class="st0" d="M270.3,172.2c0.8,0.1,0.4,0.2,1.2-0.1c1.2-0.4,2.9,0.4,4,0.8c2,0.6,3.8,1.9,5.4,3.2c1.6,1.4,3.2,2.9,4.8,4.3
			c1.5,1.4,2.7,3,4.1,4.4c0.2,0.2,0.6-0.3,0.4-0.5c-2.9-3.8-6.3-7.2-10.1-10.1c-1.6-1.1-3.2-2-5.1-2.4c-0.7-0.1-1.4-0.3-2.2-0.4
			c-1-0.1-1.6,0.5-2.5,0.6C270.2,172,270.2,172.2,270.3,172.2z"/>
		<path class="st0" d="M331.5,250.4c3.9,0.2,7.7-0.3,11.4-1.7c3.9-1.4,6-4.2,8.4-7.4c0.1-0.1-0.1-0.3-0.2-0.2
			c-2.6,2.7-4.9,5-8.5,6.4c-3.5,1.4-7.3,1.5-11,2.2C331.2,249.8,331.1,250.4,331.5,250.4z"/>
		<path class="st0" d="M749,286.2l-56.2-12l-48-140.1H503.5V134H34v229.7H19.5v35.9H34V430h85.8c-0.1-1.5-0.2-3-0.2-4.6
			c0-39.7,32.2-71.8,71.8-71.8c39.6,0,71.8,32.2,71.8,71.8c0,1.5-0.1,3.1-0.2,4.6h240.5v-0.2H586v0.1c2.6-36.7,33.1-65.6,70.4-65.6
			c31.4,0,57.9,20.5,67.1,48.7h49v-94C771.8,294.3,749,286.2,749,286.2z M343.6,212.7c0.3-0.2,0.6-0.3,0.9-0.4
			c0.7,2.1,1.4,4.1,2.1,6.2c2.1,6.1,4.9,12,6.1,18.4c0,0.1,0,0.1,0,0.2c0.1,0.1,0.1,0.1,0.1,0.2c0.2,0.8,0.3,1.6,0.2,2.2
			c-0.2,1.4-1.3,3.4-2.1,4.4c-2.2,4.7-5.2,8.8-7.8,13.3c-3.1,5.5-5.9,11.1-9.4,16.3c-0.1,0.3-1.1,1.4-2,1.7
			c-1.4,0.4-2.8,1.3-4.1,1.6c-3.3,0.7-6.7,1-10.1,1.2c-3.3,0.2-6.6,0.4-9.9,0.7c-0.4,2.2-0.9,4.4-1.1,6.6c-0.3,0.9-0.4,1.8-0.5,2.7
			h-0.1c-0.2-0.3-0.5-0.6-0.7-0.9V287c-0.9-1.1-1.7-2.1-2.6-3.2c-1.2-1.4-2.4-2.9-3.6-4.3c-0.6-0.9-1.1-1.6-1.9-2.3
			c-2-2.4-4-4.8-6-7.2c-1.8-2-3.5-4.1-5.3-6.1c-0.2-0.4-0.5-0.7-0.8-1c0.2-0.2,0.3-0.3,0.5-0.5c3.2-2.7,6.5-5.3,9.9-7.7
			c3.7-2.6,7.2-5.4,10.8-8.1c2.1-1.5,4.3-3.3,6.7-4.7c0,0.4-0.1,0.8-0.1,1.2c0,0.1-0.1,0.1-0.1,0.1c-0.4,2.7-0.7,5.3-1,8
			c1.3,0,2.6,0.1,3.9,0c4.2-0.2,8.3-0.4,12.5-0.8c0.3,0,0.6-0.1,0.9-0.1c-0.9-2.7-2.4-5.5-3.7-8c-1.3-2.8-2.8-5.5-4.2-8.2
			c-1.5-2.9-2.8-5.9-4.4-8.8c-0.2-0.3-0.4-0.7-0.6-1.1c0.6-0.2,1.2-0.5,1.8-0.8c3.8-2.2,8.3-3.5,12.4-5.2
			C334.7,216.4,339.3,214.9,343.6,212.7L343.6,212.7z M254.5,186.9c4.1-4.9,7.8-10.4,12.6-14.7c0.1,0,0.1-0.1,0.2-0.1l0.1-0.1
			c0.6-0.6,1.2-1.1,1.9-1.4c1.3-0.6,3.6-0.6,4.8-0.5c5.2-0.5,10.3-0.1,15.4-0.2c6.3-0.2,12.6-0.7,18.8-0.4c0.3,0,1.8,0.3,2.5,0.9
			c1,0.9,2.5,1.6,3.4,2.6c2.4,2.5,4.3,5.2,6.3,8c2,2.7,3.9,5.4,5.8,8.1c2.1-0.8,4.2-1.6,6.2-2.5c0.8-0.2,1.7-0.6,2.5-1
			c0.1,0.1,0.1,0.1,0.1,0.1c-0.1,0.4-0.3,0.7-0.4,1.1c0,0.1-0.1,0.1-0.1,0.1c-0.5,1.3-1,2.6-1.4,3.9c-0.6,1.8-1.2,3.5-1.8,5.3
			c-0.5,0.9-0.8,1.8-1,2.8c-1.1,3-2.1,5.9-3.1,8.9c-0.8,2.6-1.7,5.1-2.5,7.7c-0.2,0.4-0.3,0.8-0.4,1.2c-0.2,0-0.5-0.1-0.7-0.1
			c-3.9-1.3-7.9-2.7-11.7-4.4c-4.1-1.9-8.3-3.4-12.5-5.1c-2.4-1-5.1-2-7.5-3.3c0.4-0.2,0.7-0.4,1.1-0.6h0.1c2.4-1.1,4.9-2.2,7.3-3.3
			c-0.6-1.1-1.3-2.2-2-3.3c-2.3-3.4-4.7-6.9-7.2-10.2c-0.1-0.2-0.3-0.5-0.5-0.7c-1.9,2.1-3.4,4.8-4.9,7c-1.6,2.6-3.2,5.3-4.8,7.9
			c-1.7,2.8-3.6,5.5-5.2,8.3c-0.2,0.4-0.4,0.7-0.6,1.1c-0.5-0.4-1-0.8-1.6-1.1c-3.9-2.1-7.4-5.3-10.9-7.9c-3.9-2.9-7.6-6-11.6-8.6
			c-0.1,0.1-0.1,0.1-0.1,0.1c-0.3-0.2-0.5-0.4-0.8-0.6C251.7,190.2,253.1,188.6,254.5,186.9z M228.6,215.3c0.4-0.1,0.7-0.2,1.1-0.3
			h0.1c1.3-0.4,2.7-0.7,4-1.1c1.7-0.6,3.5-1.1,5.3-1.6c0.9-0.2,1.9-0.4,2.8-0.8c3-0.8,6-1.7,9-2.6c2.5-0.8,5.1-1.6,7.7-2.4
			c0.4-0.1,0.8-0.3,1.2-0.4c0.1,0.2,0.2,0.4,0.3,0.6c1.2,4,2.3,8,3.1,12.1c0.9,4.5,2.1,8.8,3.1,13.2c0.6,2.5,1.3,5.3,1.6,8
			c-0.4-0.2-0.7-0.4-1.1-0.6v-0.1c-2.3-1.4-4.6-2.8-6.9-4.1c-0.6,1.2-1.1,2.4-1.6,3.6c-1.5,3.9-2.9,7.8-4.2,11.8
			c-0.1,0.3-0.2,0.6-0.3,0.9c2.9,0.4,6,0.1,8.8-0.1c3.1-0.2,6.1-0.4,9.2-0.6c3.3-0.3,6.5-0.3,9.8-0.6c0.4,0,0.9-0.1,1.3-0.1
			c-0.1,0.6-0.1,1.3,0,1.9c0.4,4.5-0.1,9.1-0.1,13.4c-0.1,4.8-0.5,9.7-0.3,14.4h0.1c0,0.3,0,0.7,0,1c-2.2-0.1-4.3-0.3-6.5-0.5
			c-6.4-0.5-13-0.4-19.3-1.8c-0.1,0-0.1-0.1-0.2-0.1c-0.1,0-0.1,0-0.2,0c-0.8-0.1-1.5-0.3-2.2-0.7c-1.2-0.8-2.6-2.6-3.2-3.7
			c-3.5-4-6-8.4-9.1-12.5c-3.7-5-7.7-9.8-11.1-15.1c-0.1-0.2-0.8-1.5-0.7-2.5c0.2-1.3-0.1-3,0.2-4.3c0.6-3.3,1.8-6.5,2.9-9.7
			c1.1-3.1,2.2-6.3,3.3-9.4c-1.8-1.2-3.7-2.5-5.6-3.6C230.2,216.3,229.4,215.8,228.6,215.3L228.6,215.3z M500.6,404.6h-2.8v-81.8
			H39.9V320h457.9V141h2.8V404.6z M586.3,304.5h-24c-3.7,0-6.6-2.6-6.6-5.9c0-3.2,3-5.9,6.6-5.9h24c3.7,0,6.6,2.6,6.6,5.9
			S590,304.5,586.3,304.5z M532.3,258.8v-95.6H624l32.7,95.6H532.3z"/>
	</g>
</g>
<g id="Layer_3">
	<g>
		<circle id="XMLID_9234_" class="st1" cx="192.4" cy="437.5" r="62.2"/>
		<circle id="XMLID_9232_" class="st2" cx="192.4" cy="437.5" r="41.7"/>
		<circle id="XMLID_9231_" class="st3" cx="192.4" cy="437.5" r="36.6"/>
		<circle id="XMLID_9230_" class="st1" cx="192.4" cy="437.5" r="22.6"/>
		<g id="XMLID_9211_">
			<g id="XMLID_9227_">
				<circle id="XMLID_9229_" class="st2" cx="192.4" cy="409.2" r="3.2"/>
				<circle id="XMLID_9228_" class="st2" cx="192.4" cy="465.9" r="3.2"/>
			</g>
			<g id="XMLID_9224_">
				<circle id="XMLID_9226_" class="st2" cx="178.2" cy="413" r="3.2"/>
				<circle id="XMLID_9225_" class="st2" cx="206.5" cy="462.1" r="3.2"/>
			</g>
			<g id="XMLID_9221_">
				<circle id="XMLID_9223_" class="st2" cx="167.8" cy="423.3" r="3.2"/>
				<circle id="XMLID_9222_" class="st2" cx="216.9" cy="451.7" r="3.2"/>
			</g>
			<g id="XMLID_9218_">
				<circle id="XMLID_9220_" class="st2" cx="164" cy="437.5" r="3.2"/>
				<circle id="XMLID_9219_" class="st2" cx="220.7" cy="437.5" r="3.2"/>
			</g>
			<g id="XMLID_9215_">
				<circle id="XMLID_9217_" class="st2" cx="167.8" cy="451.7" r="3.2"/>
				<circle id="XMLID_9216_" class="st2" cx="216.9" cy="423.3" r="3.2"/>
			</g>
			<g id="XMLID_9212_">
				<circle id="XMLID_9214_" class="st2" cx="178.2" cy="462.1" r="3.2"/>
				<circle id="XMLID_9213_" class="st2" cx="206.5" cy="413" r="3.2"/>
			</g>
		</g>
		<circle id="XMLID_9210_" class="st1" cx="657.3" cy="437.5" r="62.2"/>
		<circle id="XMLID_9208_" class="st2" cx="657.3" cy="437.5" r="41.7"/>
		<circle id="XMLID_9207_" class="st3" cx="657.3" cy="437.5" r="36.6"/>
		<circle id="XMLID_9206_" class="st1" cx="657.3" cy="437.5" r="22.6"/>
		<g id="XMLID_9187_">
			<g id="XMLID_9203_">
				<circle id="XMLID_9205_" class="st2" cx="657.3" cy="409.2" r="3.2"/>
				<circle id="XMLID_9204_" class="st2" cx="657.3" cy="465.9" r="3.2"/>
			</g>
			<g id="XMLID_9200_">
				<circle id="XMLID_9202_" class="st2" cx="643.2" cy="413" r="3.2"/>
				<circle id="XMLID_9201_" class="st2" cx="671.5" cy="462.1" r="3.2"/>
			</g>
			<g id="XMLID_9197_">
				<circle id="XMLID_9199_" class="st2" cx="632.8" cy="423.3" r="3.2"/>
				<circle id="XMLID_9198_" class="st2" cx="681.9" cy="451.7" r="3.2"/>
			</g>
			<g id="XMLID_9194_">
				<circle id="XMLID_9196_" class="st2" cx="629" cy="437.5" r="3.2"/>
				<circle id="XMLID_9195_" class="st2" cx="685.7" cy="437.5" r="3.2"/>
			</g>
			<g id="XMLID_9191_">
				<circle id="XMLID_9193_" class="st2" cx="632.8" cy="451.7" r="3.2"/>
				<circle id="XMLID_9192_" class="st2" cx="681.9" cy="423.3" r="3.2"/>
			</g>
			<g id="XMLID_9188_">
				<circle id="XMLID_9190_" class="st2" cx="643.2" cy="462.1" r="3.2"/>
				<circle id="XMLID_9189_" class="st2" cx="671.5" cy="413" r="3.2"/>
			</g>
		</g>
	</g>
</g>
<g id="Layer_2">
	<g>
		<path id="XMLID_9235_" class="st4" d="M644.7,134.4H33.5v-22.2h580.2C613.7,112.2,635.3,116.4,644.7,134.4z"/>
		<path class="st4" d="M739.6,413h-16.8c-9.2-28.2-35.7-48.7-67.1-48.7c-39,0-70.6,31.6-70.6,70.6c0,1.6,0.1,3.1,0.2,4.6h-16
			c-0.1-1.5-0.1-3.1-0.1-4.6c0-1.7,0-3.4,0.1-5H283.2c-2.2,0-4.4-0.1-6.3-0.4c0.1,1.8,0.2,3.6,0.2,5.4c0,1.6,0,3.1-0.1,4.6h-14.5
			c0.1-1.5,0.2-3.1,0.2-4.6c0-39.6-32.1-71.8-71.8-71.8c-39.6,0-71.8,32.1-71.8,71.8c0,1.6,0.1,3.1,0.2,4.6h-14.4
			c-0.1-1.5-0.1-3.1-0.1-4.6c0-1.7,0-3.3,0.2-5H28c-2.4,0-4.3-1.8-4.3-4v-11.3c0-2.2,1.9-4,4.3-4h80.3
			c10.5-35.8,43.6-61.9,82.7-61.9c39.4,0,72.7,26.5,82.9,62.8c2.5-0.6,5.8-0.9,9.3-0.9h289.5c10.5-36.1,43.8-62.4,83.2-62.4
			C696.2,348.2,730.1,375.7,739.6,413z"/>
	</g>
</g>
</svg>
