<?xml version="1.0" encoding="UTF-8" standalone="no"?>
<!DOCTYPE svg PUBLIC "-//W3C//DTD SVG 1.1//EN" "http://www.w3.org/Graphics/SVG/1.1/DTD/svg11.dtd">
<svg version="1.1" xmlns="http://www.w3.org/2000/svg" xmlns:xlink="http://www.w3.org/1999/xlink" preserveAspectRatio="xMidYMid meet" viewBox="0 0 640 640" width="640" height="640"><defs><path d="M390.92 115.24C390.92 100.86 393.47 87.3 398.29 74.3C365.7 61.57 330.27 54.65 292.86 54.65C135.29 54.65 7.47 179.43 7.47 333.26C7.47 487.09 135.29 611.86 292.86 611.86C450.44 611.86 578.26 487.09 578.26 333.26C578.26 295.63 570.6 259.94 556.72 227.02C543.4 232.27 528.94 235.04 513.64 235.04C445.9 235.04 390.92 181.37 390.92 115.24Z" id="b1eNTR9RvC"></path><path d="M409.91 111.92C409.91 169.75 457.81 216.5 517.04 216.5C576.27 216.5 624.17 169.75 624.17 111.92C624.17 54.1 576.27 7.34 517.04 7.34C457.81 7.34 409.91 54.1 409.91 111.92ZM522.71 117.18L522.71 171.96L511.37 171.96L511.37 117.18L455.26 117.18L455.26 106.11L511.37 106.11L511.37 51.33L522.71 51.33L522.71 106.11L578.82 106.11L578.82 117.18L522.71 117.18Z" id="c7kUbg9pmG"></path><path d="M288.33 199.63C237.88 199.63 197.35 239.47 197.35 288.44C197.35 288.44 191.12 375.59 288.33 459.7C385.54 375.59 379.3 288.44 379.3 288.44C379.3 239.19 338.49 199.63 288.33 199.63ZM249.5 288.44C249.5 267.69 266.79 250.81 288.04 250.81C309.3 250.81 326.59 267.69 326.59 288.44C326.59 309.19 309.3 326.06 288.04 326.06C266.79 326.06 249.5 309.19 249.5 288.44Z" id="c2xlMIqBG"></path></defs><g><g><g><use xlink:href="#b1eNTR9RvC" opacity="1" fill="#1A7BB7" fill-opacity="1"></use><g><use xlink:href="#b1eNTR9RvC" opacity="1" fill-opacity="0" stroke="#000000" stroke-width="1" stroke-opacity="0"></use></g></g><g><use xlink:href="#c7kUbg9pmG" opacity="1" fill="#1A7BB7" fill-opacity="1"></use><g><use xlink:href="#c7kUbg9pmG" opacity="1" fill-opacity="0" stroke="#000000" stroke-width="1" stroke-opacity="0"></use></g></g><g><use xlink:href="#c2xlMIqBG" opacity="1" fill="#ffffff" fill-opacity="1"></use><g><use xlink:href="#c2xlMIqBG" opacity="1" fill-opacity="0" stroke="#000000" stroke-width="1" stroke-opacity="0"></use></g></g></g></g></svg>