<?xml version="1.0" encoding="utf-8"?>
<!-- Generator: Adobe Illustrator 19.0.0, SVG Export Plug-In . SVG Version: 6.00 Build 0)  -->
<svg version="1.1" id="Layer_1" xmlns="http://www.w3.org/2000/svg" xmlns:xlink="http://www.w3.org/1999/xlink" x="0px" y="0px"
	 viewBox="0 0 1080 1920" style="enable-background:new 0 0 1080 1920;" xml:space="preserve">
<style type="text/css">
	.st0{fill:#2079B4;}
	.st1{opacity:0.4;clip-path:url(#XMLID_3_);fill:#005F99;}
	.st2{clip-path:url(#XMLID_3_);fill:#90D8F6;}
	.st3{clip-path:url(#XMLID_3_);fill:#005F99;}
</style>
<g id="XMLID_1_">
	<rect id="XMLID_3731_" x="0" class="st0" width="1080" height="1920"/>
	<rect id="XMLID_224_" x="2.4" y="1476" class="st0" width="1075.3" height="444"/>
	<g id="XMLID_56_">
		<defs>
			<polygon id="XMLID_58_" points="1077.6,1920 2.4,1920 2.4,1198.8 1080,1198.8 			"/>
		</defs>
		<clipPath id="XMLID_3_">
			<use xlink:href="#XMLID_58_"  style="overflow:visible;"/>
		</clipPath>
		<path id="XMLID_221_" class="st1" d="M1080,1920H0.6c0,0-2.9-463.2,4.3-483.1c0.2-0.5,0.4-1,0.6-1.5l4.9-2.5v-17.6h4v49.7h5.6
			v135.2h5.6v-71.1h15.1v-36.6h4.2v107.7h11.4v-41h7.5v-10.5h17.5v-35.8h9.6v-25.3h11.7v-36.8h4.2v36.8h11.8v25.3h9.5v35.8h17.5
			v10.5h7.5v41h8.9v-51.5h17.5v-110.8h5.6v-12.2h37.3v12.2h8v80.2h31.7v7.9h11.9v6.1h-11.9v31.4h33.3v-104.7h7.1v-22.2h15.5v-78.9
			h4.4v78.9h11.1v22.2h65.1v-7.3h4v49.7h5.6v0.9h3.3v49.7h5.6v13.5h11.7v-36.6h4.2v87.2h4.7v-36.6h4.2v57.1h2.6v-41h7.5V1585h17.5
			v-35.7h9.6v-25.3h11.8v-36.9h4.2v36.9h11.8v25.3h9.6v35.7h17.4v10.5h7.5v40.1h1.4v0.9h7.6V1585h17.5v-110.8h5.6V1462h37.3v12.2
			h7.9v38.4h1v12.2h7.9v29.7h22.8v7.8h11.9v6.1h-11.9v31.4h33.3v-104.7h7.1v-22.2h15.5V1394h4.4v78.9h4.5v-28.3h4.4v28.3h2.2v22.2
			h22.8v50.6h0.4v-71.9h13.4v-17.4l28.6-14.7v-17.6h4v49.7h5.6V1609h5.6v-71.1h15.1v-36.6h4.2V1609h11.4v-41h7.5v-10.5h17.5v-35.8
			h9.6v-25.3h11.7v-36.9h4.2v36.9h11.7v25.3h9.6v35.8h17.5v10.5h7.5v41h8.9v-51.5h17.5v-110.8h5.6v-12.2h37.3v12.2h8v80.3h31.7v7.9
			h11.9v6.1h-11.9v31.4h33.3v-104.7h4.1C1089.1,1510.4,1080,1920,1080,1920z"/>
		<polygon id="XMLID_220_" class="st2" points="72.1,1789.7 72.1,1789.7 72.1,1789.7 		"/>
		<polygon id="XMLID_219_" class="st2" points="146.6,1703.3 146.6,1703.3 146.6,1703.3 		"/>
		<polygon id="XMLID_218_" class="st2" points="279.3,1750.7 279.3,1750.7 279.3,1750.7 		"/>
		<polygon id="XMLID_217_" class="st2" points="406.4,1780.8 406.4,1780.8 406.4,1780.8 		"/>
		<path id="XMLID_59_" class="st3" d="M1102.6,1872.1c-0.2-0.3-0.4-0.7-0.5-1.1c-0.1-0.5,0.2-1,0.4-1.5c0.2-0.5,0.2-1.1-0.1-1.4
			c-0.1-0.1-0.3-0.2-0.4-0.3c-0.2-0.3,0.1-0.6,0.2-0.9c0.6-1.1,0.1-2.7-1-3.1c-0.6-0.2-1.3-0.2-1.7-0.6c-2-2,3.6-5.4,2.4-7.7
			c-0.2-0.3-0.4-0.6-0.7-0.9c-0.8-0.8-1.6-1.6-2.4-2.4c-0.4-0.3-0.7-0.8-0.7-1.3c0-0.3,0.2-0.6,0.1-0.9c-0.2-0.7-1.4-0.9-1.8-1.5
			c-0.5-0.7-0.6-2.1-0.7-3c-0.1-0.6-0.2-1.3-0.2-1.9c0-0.3,0.1-0.6,0-0.9c-0.1-0.4-0.7-0.6-1.1-0.6c-1.1-0.1-2.2-0.1-3.2-0.2
			c0.7-1.4,1.4-3.3,0.4-4.5c-0.9-1.2-2.6-1-4-0.6c-0.5-0.4-0.1-1.4-0.5-1.9c-0.5-0.5-1.4,0-1.8-0.5c-0.2-0.2-0.2-0.5-0.2-0.8
			c-0.1-0.8-0.1-1.5-0.2-2.3c0-0.2,0-0.5-0.2-0.6c-0.1-0.1-0.3-0.2-0.5-0.2c-4.3-0.7-0.7-1.8-2.5-4.4c-0.3-0.4-0.8-0.6-1.2-1
			c-0.4-0.3-0.7-0.9-0.5-1.4c-2.2-0.6-4.9,0.4-6.6-1.2c-0.3-0.3-0.5-0.6-0.8-0.8c-0.7-0.4-1.7,0.3-1.7,1.1c-0.2-0.6-0.8-0.8-1.3-0.9
			c-0.5-0.1-1.1-0.1-1.6-0.4c-0.5-0.3-0.7-1.1-0.2-1.5c-2-0.7-3.9,1.4-6,1.6c-0.3,0-0.6,0-0.8-0.2c-0.2-0.2-0.3-0.4-0.3-0.6
			c-0.4-1.2-0.4-5.4-1.9-5.8c-0.2,0-0.4,0-0.6,0v-63.3c3.3-1.3,6.3-3.6,8.9-6.3c1.4-0.1,2.8,0.1,4.1,0.3c-0.3,1,0.7,1.9,1.7,1.9
			c0.1,0,0.2,0,0.3-0.1c0.1-0.1,0.2-0.3,0.2-0.5c0.1-0.6-0.1-1.1-0.1-1.7c0.1-0.6,0.6-1.2,1.1-0.9c0.2,0.1,0.3,0.3,0.5,0.5
			c1.9,1.9,2-2.4,3.7-2.8c1.8-0.4,2.9,2.1,4.6,1.8c1.4-0.2,1.9-2,3.8-1.8c0.4,0,0.8,0.1,1-0.2c0.1-0.2,0.1-0.4,0.2-0.6
			c0.1-1.3,0.2-2.7,1.1-3.7c0.4-0.4,1.1-0.6,1.5-0.2c-0.5-0.9,0.5-2.2,1.5-2.1c0.4,0,1,0,1-0.4c0.7,0.2,1.4,0.2,2.1,0.2
			c0.2,0,0.4,0,0.5-0.2c0.4-0.5,0-1.6,0.4-2.1c0.3-0.4,0.9-0.5,1.1-0.7c0.6-0.7,1.4,0.4,1.1-1.4c-0.2-1-1.3-1.9-2.2-2
			c-0.3-2.5-0.9-3.5,1.4-4.5c1.3-0.6,3.3-0.5,4.3-1.8c0.5-0.7,0.3-2-0.4-2.3c0-0.9,0.9-1.6,1.2-2.5c0.4-0.9,0.2-1.9-0.3-2.7
			c-0.2-0.3-0.4-0.6-0.4-0.9c-0.1-0.4,0.2-0.8,0.3-1.2c0.2-0.4,0.2-0.9-0.1-1.2c-0.1-0.1-0.3-0.1-0.4-0.3c-0.1-0.2,0-0.5,0.2-0.8
			c0.5-0.9,0.1-2.3-0.8-2.6c-0.5-0.2-1.1-0.2-1.4-0.5c-1.7-1.7,3-4.5,2-6.5c-0.1-0.3-0.4-0.5-0.6-0.7c-0.7-0.7-1.4-1.3-2-2
			c-0.3-0.3-0.6-0.6-0.6-1.1c0-0.3,0.1-0.5,0.1-0.8c-0.2-0.6-1.2-0.8-1.5-1.3c-0.4-0.6-0.5-1.8-0.6-2.5c-0.1-0.5-0.1-1.1-0.1-1.6
			c0-0.2,0.1-0.5,0-0.7c-0.1-0.4-0.5-0.5-0.9-0.5c-0.9-0.1-1.8-0.1-2.7-0.1c0.6-1.2,1.1-2.7,0.3-3.8c-0.8-1-2.2-0.8-3.4-0.5
			c-0.4-0.4-0.1-1.2-0.5-1.6c-0.4-0.4-1.2,0-1.5-0.4c-0.2-0.2-0.2-0.4-0.2-0.7c0-0.6-0.1-1.3-0.1-1.9c0-0.2,0-0.4-0.2-0.5
			c-0.1-0.1-0.3-0.1-0.4-0.2c-3.6-0.6-0.6-1.5-2.1-3.7c-0.3-0.4-0.7-0.5-1-0.8c-0.3-0.3-0.6-0.8-0.4-1.2c-1.9-0.5-4.1,0.3-5.5-1
			c-0.2-0.2-0.4-0.5-0.7-0.7c-0.6-0.3-1.4,0.2-1.4,1c-0.1-0.5-0.6-0.7-1.1-0.8c-0.5-0.1-0.9-0.1-1.3-0.4c-0.4-0.3-0.6-0.9-0.2-1.2
			c-1.7-0.6-3.3,1.2-5,1.4c-0.2,0-0.5,0-0.6-0.1c-0.2-0.1-0.2-0.3-0.3-0.5c-0.3-1-0.3-4.5-1.6-4.8c-0.2-0.1-0.5,0-0.8,0
			c-0.7,0-1.2-0.5-1.9-0.7c-1.5-0.4-2.9,1.1-4.4,0.7c-0.7-0.2-1.2-0.8-1.9-1.1c-0.7-0.2-1.7,0.3-1.4,1.1c-0.6-0.4-1.5-0.1-1.8,0.6
			c-0.1,0.3-0.2,0.6-0.3,0.8c-0.3,0.8-1,1.3-1.8,1.3c-0.8,0-1.5-0.6-1.7-1.4c-0.2-0.6-0.3-1.6-0.9-1.6c-0.3,0-0.5,0.2-0.7,0.3
			c-1.1,0.7-2.6,0.1-4-0.1c0-0.2-0.1-0.3-0.1-0.4c-0.2-0.3-0.4-0.6-0.7-0.9c-0.8-0.8-1.6-1.6-2.4-2.4c-0.4-0.3-0.7-0.8-0.7-1.3
			c0-0.3,0.2-0.6,0.1-0.9c-0.2-0.7-1.4-0.9-1.8-1.5c-0.5-0.7-0.6-2.1-0.7-3c-0.1-0.6-0.2-1.3-0.2-1.9c0-0.3,0.1-0.6,0-0.9
			c-0.1-0.4-0.7-0.6-1.1-0.6c-1.1-0.1-2.2-0.1-3.2-0.2c0.7-1.4,1.4-3.3,0.4-4.5c-0.9-1.2-2.6-1-4-0.6c-0.5-0.4-0.1-1.4-0.5-1.9
			c-0.5-0.5-1.4,0-1.8-0.5c-0.2-0.2-0.2-0.5-0.2-0.8c-0.1-0.8-0.1-1.5-0.2-2.3c0-0.2,0-0.5-0.2-0.6c-0.1-0.1-0.3-0.2-0.5-0.2
			c-4.3-0.7-0.7-1.8-2.5-4.4c-0.3-0.4-0.8-0.6-1.2-1c-0.4-0.3-0.7-0.9-0.5-1.4c-2.2-0.6-4.9,0.4-6.6-1.2c-0.3-0.3-0.5-0.6-0.8-0.8
			c-0.7-0.4-1.7,0.3-1.7,1.1c-0.2-0.6-0.8-0.8-1.3-0.9c-0.5-0.1-1.1-0.1-1.6-0.4c-0.5-0.3-0.7-1.1-0.2-1.5c-2-0.7-3.9,1.4-6,1.6
			c-0.3,0-0.6,0-0.8-0.2c-0.2-0.2-0.3-0.4-0.3-0.6c-0.4-1.2-0.4-5.4-1.9-5.8c-0.3-0.1-0.6,0-0.9,0c-0.8,0-1.5-0.6-2.3-0.8
			c-1.7-0.4-3.5,1.3-5.2,0.8c-0.8-0.3-1.5-1-2.3-1.3c-0.8-0.3-2,0.4-1.7,1.3c-0.7-0.5-1.8-0.1-2.2,0.7c-0.1,0.3-0.2,0.7-0.3,1
			c-0.3,0.9-1.2,1.5-2.1,1.5c-0.9,0-1.8-0.7-2-1.6c-0.2-0.8-0.3-1.9-1.1-1.9c-0.3,0-0.6,0.2-0.8,0.4c-2.1,1.3-5.8-1.3-7.7,0.2
			c-0.3,0.2-0.2,0.7-0.3,1.1c-0.3,0.9-1.4,1.1-2.3,1.1c-0.5,0-1.1,0-1.6,0l0.4-0.2c-0.6-0.1-1.3-0.3-1.9-0.4
			c-0.4-0.1-0.8-0.2-1.1-0.5c-0.3-0.3-0.4-0.9-0.1-1.2c-0.9-0.3-2.1-0.3-2.3,0.6c-0.1,0.4,0,0.8,0,1.1c-0.1,0.7-0.8,1.4-0.6,2.1
			c0.1,0.3,0.3,0.6,0.5,0.8l-1.7,0.8c-0.4,0.1-0.8,0.2-1.2,0.4c-0.4-0.9-0.8-1.7-1.4-2.4c-0.3-0.4-0.8-0.8-1.3-0.7
			c-0.9,0.3-0.5,1.8-1.1,2.6c-0.4,0-0.7-0.5-0.7-0.9c-0.7-0.5-1.8,0.1-2.1,0.9c-0.3,0.8-0.2,1.8,0,2.7c-0.8,0-1.6,0.1-2.4,0.1
			c-0.1,0.3-0.1,0.6,0,1c-0.8,0-1.6-0.1-2.3-0.1c0,0,0,0.1,0,0.1c-1.1,0.1-2.1,0.5-2.9,1.2c-0.3,0.1-0.6,0.2-0.9,0.3
			c-3,1.8,0.5,3.1,1.3,4.2c0.5,0.6-0.4,1.7-1.1,1.3c0.1,0.5,0.2,1,0.1,1.5c-0.2,0.5-0.7,0.8-1.1,0.5c-0.1-0.1-0.2-0.3-0.3-0.4
			c-0.7-1.1-2.3-1.3-3.3-0.4c-0.6,0.6-0.9,1.5-0.7,2.4c-0.3-0.2-0.6-0.3-1-0.3c-0.8,0.1-1.4,0.8-1.8,1.5c-0.1,0.2-0.3,0.5-0.3,0.8
			c-0.1,1.1,1.2,1.7,1.9,2.5c0.6,0.6,0.8,1.5,0.7,2.3c-0.5,0.1-1,0.4-1.4,0.6c-0.3,0-0.6,0-1,0.1c-0.7,0.2-1.3,0.9-1.2,1.7
			c-0.2-0.8-1.3-1.2-1.9-0.8c-0.7,0.5-0.7,1.7,0,2.2c0.2,0.2,0.5,0.3,0.7,0.4c0.3,0.2,0.5,0.7,0.8,1.2c0,0.6,0.2,1.1,0.5,1.6
			c-0.1,0.1-0.3,0.1-0.4,0.2c-1.3-0.6-2.9,0.2-4,1.3c-0.2,0.2-0.4,0.4-0.4,0.6c-0.1,0.4,0.1,0.8,0.4,1.1c0.9,1.1,2.1,1.8,3.4,2.1
			c0,0,0.1,0,0.1,0.1c-0.3,0.3-0.5,0.7-0.5,1.2c-0.8,0.3-1.4,1.2-1.4,2.1c-1-0.2-2.2-0.3-3.1,0.3c-0.9,0.6-0.9,2.4,0.1,2.7
			c0.4,0.1,0.8,0,1.1,0.2c0.5,0.3,0.5,1.1,0.4,1.8c-0.1,0.6,0,1.5,0.6,1.7c0,0,0,0,0,0c0.5,2.1,2.1,3.9,3.9,3.7
			c-0.4,0.3-1.2,0.1-1.7,0.4c-1,0.8,0.6,2.9-0.4,3.6c-0.6,0.4-1.5-0.1-2.1,0.3c-0.4,0.3-0.4,0.9-0.2,1.4c0.2,0.5,0.4,0.9,0.5,1.5
			c0,0.3,0,0.7-0.1,1c-0.1,0.9-0.3,1.8-0.4,2.6c-0.5,0.2-1.1,0.5-1.2,1.1c-0.2,0.7,0.2,1.5,0.8,1.9c0.5,0.3,1,0.6,1.4,0.9
			c-0.1,0.8-0.1,1.7-0.2,2.5c-0.5,0.1-1.2,0-1.6,0.4c-0.6,0.6-0.2,1.7,0.6,2.1c0.7,0.3,1.6,0.1,2.4,0c2.8-0.5,3-0.2,3,2.7l-0.1-0.1
			c-0.1,1.3,0.1,2.6,0.5,3.9c1.7-1,3.9-0.9,5.6,0.2c0.9,0.6,1.8,1.5,2.8,1.7c0.2,0,0.4,0.1,0.7,0.2c0.1,0.1,0.3,0.2,0.4,0.4
			c0,0.1,0,0.1,0,0.2c0,0.5-0.6,0.6-1,0.6c-0.1,0.9,0.6,1.6,1.2,2.3c0.6,0.6,1.3,1.5,0.9,2.4c0.9-0.2,1.8-0.5,2.7-0.3
			c0.3,0,0.5,0.2,0.8,0.3c0.2,0.2,0.3,0.3,0.5,0.5c0.3,0.3,0.5,0.7,0.6,1.2c-1.1,0.2-1.8,1.6-1.4,2.7c0.9-0.3,2.1-0.5,2.7,0.4
			c0.1,0.2,0.2,0.4,0.4,0.6c0.2,0.2,0.5,0.3,0.8,0.4c1.2,0.3,2.2,1,3.1,1.9c-0.7,0.6-0.2,2,0.7,2.1c0.9,0.1,1.7-0.8,1.8-1.7
			c0.1-0.6-0.1-1.4,0.3-1.9c0.4-0.6,1.1-0.6,1.8-0.6c0.9,0,1.8,0,2.8,0c0.1,0,0.3,0,0.4,0.1c0.1,0.1,0.1,0.4,0.1,0.6
			c0,0.6,0.6,1,1.2,0.9c0.5-0.1,1-0.4,1.4-0.8c-0.3-0.4-0.5-0.9-0.6-1.4c0-0.8,0.1-1.6,0.2-2.4c0,0,0-0.1,0-0.1c1.8,1.2,3,3,5.3,3
			c1.6,1.5,2.6,2.3,2.6,2.3v125.7c-0.5-0.1-1-0.6-1.1-1.1c-0.2-0.6-0.2-1.4-0.8-1.4c-0.2,0-0.4,0.1-0.6,0.3c-1.5,0.9-4.2-1-5.6,0.2
			c-0.2,0.2-0.2,0.5-0.3,0.8c-0.2,0.7-1,0.8-1.7,0.8c-0.4,0-0.8,0-1.2,0l0.3-0.1c-0.5-0.1-0.9-0.2-1.4-0.3c-0.3-0.1-0.6-0.1-0.8-0.4
			s-0.3-0.6-0.1-0.8c-0.6-0.2-1.5-0.2-1.7,0.4c-0.1,0.3,0,0.5,0,0.8c-0.1,0.5-0.6,1-0.4,1.5c0.1,0.2,0.2,0.4,0.4,0.6l-1.3,0.6
			c-0.3,0.1-0.6,0.2-0.9,0.3c-0.3-0.6-0.6-1.2-1-1.7c-0.2-0.3-0.6-0.6-0.9-0.5c-0.6,0.2-0.4,1.3-0.8,1.9c-0.3,0-0.5-0.4-0.5-0.7
			c-0.2-0.2-0.5-0.2-0.7-0.1c-0.1-0.2-0.3-0.4-0.4-0.5c-0.6-0.6-1.2-1.2-1.8-1.7c-0.3-0.3-0.5-0.6-0.5-0.9c0-0.2,0.1-0.5,0.1-0.7
			c-0.1-0.5-1-0.7-1.3-1.1c-0.3-0.5-0.4-1.6-0.5-2.2c-0.1-0.5-0.1-0.9-0.1-1.4c0-0.2,0.1-0.4,0-0.6c-0.1-0.3-0.5-0.4-0.8-0.4
			c-0.8-0.1-1.6-0.1-2.3-0.1c0.5-1,1-2.4,0.3-3.3c-0.7-0.9-1.9-0.7-2.9-0.4c-0.4-0.3-0.1-1-0.4-1.4c-0.3-0.4-1,0-1.3-0.4
			c-0.1-0.2-0.2-0.4-0.2-0.6c0-0.5-0.1-1.1-0.1-1.6c0-0.2,0-0.4-0.1-0.5c-0.1-0.1-0.2-0.1-0.4-0.1c-3.1-0.5-0.5-1.3-1.8-3.2
			c-0.2-0.3-0.6-0.5-0.9-0.7c-0.3-0.2-0.5-0.7-0.3-1c-1.6-0.4-3.6,0.3-4.8-0.9c-0.2-0.2-0.4-0.4-0.6-0.6c-0.5-0.3-1.2,0.2-1.2,0.8
			c-0.1-0.4-0.6-0.6-1-0.7c-0.4-0.1-0.8-0.1-1.1-0.3c-0.3-0.2-0.5-0.8-0.2-1.1c-1.4-0.5-2.8,1-4.3,1.2c-0.2,0-0.4,0-0.6-0.1
			c-0.1-0.1-0.2-0.3-0.3-0.5c-0.3-0.9-0.3-3.9-1.3-4.2c-0.2-0.1-0.4,0-0.7,0c-0.6,0-1.1-0.4-1.6-0.6c-1.3-0.3-2.5,0.9-3.8,0.6
			c-0.6-0.2-1.1-0.7-1.6-0.9c-0.6-0.2-1.5,0.3-1.2,0.9c-0.5-0.3-1.3-0.1-1.6,0.5c-0.1,0.2-0.1,0.5-0.2,0.7c-0.2,0.6-0.9,1.1-1.5,1.1
			c-0.7,0-1.3-0.5-1.5-1.2c-0.2-0.6-0.2-1.4-0.8-1.4c-0.2,0-0.4,0.1-0.6,0.3c-1.5,0.9-4.2-1-5.6,0.2c-0.2,0.2-0.2,0.5-0.3,0.8
			c-0.2,0.7-1,0.8-1.7,0.8c-0.4,0-0.8,0-1.2,0l0.3-0.1c-0.5-0.1-0.9-0.2-1.4-0.3c-0.3-0.1-0.6-0.1-0.8-0.4c-0.2-0.2-0.3-0.6-0.1-0.8
			c-0.6-0.2-1.5-0.2-1.7,0.4c-0.1,0.3,0,0.5,0,0.8c-0.1,0.5-0.6,1-0.4,1.5c0.1,0.2,0.2,0.4,0.4,0.6l-1.3,0.6
			c-0.3,0.1-0.6,0.2-0.9,0.3c-0.3-0.6-0.6-1.2-1-1.7c-0.2-0.3-0.6-0.6-0.9-0.5c-0.6,0.2-0.4,1.3-0.8,1.9c-0.3,0-0.5-0.4-0.5-0.7
			c-0.5-0.4-1.3,0.1-1.5,0.7c-0.2,0.6-0.1,1.3,0,2c-0.6,0-1.2,0.1-1.7,0.1c-0.1,0.2-0.1,0.5,0,0.7c-0.6,0-1.1-0.1-1.7-0.1
			c0,0,0,0.1,0,0.1c-0.8,0-1.5,0.4-2.1,0.9c-0.2,0-0.5,0.1-0.7,0.2c-2.2,1.3,0.3,2.2,0.9,3c0.3,0.5-0.3,1.2-0.8,1
			c0.1,0.4,0.2,0.7,0,1.1c-0.1,0.3-0.5,0.6-0.8,0.4c-0.1-0.1-0.2-0.2-0.2-0.3c-0.5-0.8-1.7-0.9-2.4-0.3c-0.5,0.4-0.6,1.1-0.5,1.7
			c-0.2-0.2-0.5-0.2-0.7-0.2c-0.6,0.1-1,0.6-1.3,1.1c-0.1,0.2-0.2,0.4-0.2,0.6c-0.1,0.8,0.8,1.2,1.4,1.8c0.3,0.4,0.5,0.8,0.5,1.3
			c-0.6,0-1.2,0.1-1.7,0.3c-0.5-0.4-0.1-1.4-0.5-1.9c-0.5-0.5-1.4,0-1.8-0.5c-0.2-0.2-0.2-0.5-0.2-0.8c-0.1-0.8-0.1-1.5-0.2-2.3
			c0-0.2,0-0.5-0.2-0.6c-0.1-0.1-0.3-0.2-0.5-0.2c-4.3-0.7-0.7-1.8-2.5-4.4c-0.3-0.4-0.8-0.6-1.2-1c-0.4-0.3-0.7-0.9-0.5-1.4
			c-2.2-0.6-4.9,0.4-6.6-1.2c-0.3-0.3-0.5-0.6-0.8-0.8c-0.7-0.4-1.7,0.3-1.7,1.1c-0.2-0.6-0.8-0.8-1.3-0.9c-0.2,0-0.3-0.1-0.5-0.1
			V1678c3.3-1.3,6.3-3.6,8.9-6.3c1.4-0.1,2.8,0.1,4.1,0.3c-0.3,1,0.7,1.9,1.7,1.9c0.1,0,0.2,0,0.3-0.1c0.1-0.1,0.2-0.3,0.2-0.5
			c0.1-0.6-0.1-1.1-0.1-1.7c0.1-0.6,0.6-1.2,1.1-0.9c0.2,0.1,0.3,0.3,0.5,0.5c1.9,1.9,2-2.4,3.7-2.8c1.8-0.4,2.9,2.1,4.6,1.8
			c1.4-0.2,1.9-2,3.8-1.8c0.4,0,0.8,0.1,1-0.2c0.1-0.2,0.1-0.4,0.2-0.6c0.1-1.3,0.2-2.7,1.1-3.7c0.4-0.4,1.1-0.6,1.5-0.2
			c-0.5-0.9,0.5-2.2,1.5-2.1c0.4,0,1,0,1-0.4c0.7,0.2,1.4,0.2,2.1,0.2c0.2,0,0.4,0,0.5-0.2c0.4-0.5,0-1.6,0.4-2.1
			c0.3-0.4,0.9-0.5,1.1-0.7c0.6-0.7,1.4,0.4,1.1-1.4c-0.2-1-1.3-1.9-2.2-2c-0.3-2.5-0.9-3.5,1.4-4.5c1.3-0.6,3.3-0.5,4.3-1.8
			c0.5-0.7,0.3-2-0.4-2.3c0-0.9,0.9-1.6,1.2-2.5c0.4-0.9,0.2-1.9-0.3-2.7c-0.2-0.3-0.4-0.6-0.4-0.9c-0.1-0.4,0.2-0.8,0.3-1.2
			c0.2-0.4,0.2-0.9-0.1-1.2c-0.1-0.1-0.3-0.1-0.4-0.3c-0.1-0.2,0-0.5,0.2-0.8c0.5-0.9,0.1-2.3-0.8-2.6c-0.5-0.2-1.1-0.2-1.4-0.5
			c-1.7-1.7,3-4.5,2-6.5c-0.1-0.3-0.4-0.5-0.6-0.7c-0.7-0.7-1.4-1.3-2-2c-0.3-0.3-0.6-0.6-0.6-1.1c0-0.3,0.1-0.5,0.1-0.8
			c-0.2-0.6-1.2-0.8-1.5-1.3c-0.4-0.6-0.5-1.8-0.6-2.5c-0.1-0.5-0.1-1.1-0.1-1.6c0-0.2,0.1-0.5,0-0.7c-0.1-0.4-0.5-0.5-0.9-0.5
			c-0.9-0.1-1.8-0.1-2.7-0.1c0.6-1.2,1.1-2.7,0.3-3.8c-0.8-1-2.2-0.8-3.4-0.5c-0.4-0.4-0.1-1.2-0.5-1.6c-0.4-0.4-1.2,0-1.5-0.4
			c-0.2-0.2-0.2-0.4-0.2-0.7c0-0.6-0.1-1.3-0.1-1.9c0-0.2,0-0.4-0.2-0.5c-0.1-0.1-0.3-0.1-0.4-0.2c-3.6-0.6-0.6-1.5-2.1-3.7
			c-0.3-0.4-0.7-0.5-1-0.8c-0.3-0.3-0.6-0.8-0.4-1.2c-1.9-0.5-4.1,0.3-5.5-1c-0.2-0.2-0.4-0.5-0.7-0.7c-0.6-0.3-1.4,0.2-1.4,1
			c-0.1-0.5-0.6-0.7-1.1-0.8c-0.5-0.1-0.9-0.1-1.3-0.4c-0.4-0.3-0.6-0.9-0.2-1.2c-1.7-0.6-3.3,1.2-5,1.4c-0.2,0-0.5,0-0.6-0.1
			c-0.2-0.1-0.2-0.3-0.3-0.5c-0.3-1-0.3-4.5-1.6-4.8c-0.2-0.1-0.5,0-0.8,0c-0.7,0-1.2-0.5-1.9-0.7c-1.5-0.4-2.9,1.1-4.4,0.7
			c-0.7-0.2-1.2-0.8-1.9-1.1c-0.7-0.2-1.7,0.3-1.4,1.1c-0.6-0.4-1.5-0.1-1.8,0.6c-0.1,0.3-0.2,0.6-0.3,0.8c-0.3,0.8-1,1.3-1.8,1.3
			c-0.8,0-1.5-0.6-1.7-1.4c-0.2-0.6-0.3-1.6-0.9-1.6c-0.3,0-0.5,0.2-0.7,0.3c-1.8,1.1-4.9-1.1-6.5,0.2c-0.2,0.2-0.2,0.6-0.3,0.9
			c-0.2,0.8-1.2,0.9-1.9,0.9c-0.4,0-0.9,0-1.3,0l0.3-0.1c-0.5-0.1-1.1-0.2-1.6-0.4c-0.3-0.1-0.7-0.2-0.9-0.4c-0.2-0.3-0.3-0.7-0.1-1
			c-0.7-0.2-1.8-0.3-2,0.5c-0.1,0.3,0,0.6,0,1c-0.1,0.6-0.7,1.2-0.5,1.8c0.1,0.3,0.3,0.5,0.5,0.7l-1.5,0.7c-0.3,0.1-0.7,0.2-1,0.4
			c-0.3-0.7-0.7-1.4-1.2-2c-0.3-0.3-0.7-0.7-1.1-0.6c-0.7,0.2-0.4,1.5-0.9,2.2c-0.3,0-0.6-0.4-0.6-0.8c-0.6-0.4-1.5,0.1-1.7,0.8
			c-0.3,0.7-0.1,1.5,0,2.3c-0.7,0-1.3,0.1-2,0.1c-0.1,0.2-0.1,0.5,0,0.8c-0.7,0-1.3-0.1-2-0.1c0,0,0,0.1,0,0.1c-0.9,0-1.8,0.4-2.4,1
			c-0.3,0.1-0.5,0.1-0.8,0.3c-2.5,1.5,0.4,2.6,1.1,3.5c0.4,0.5-0.3,1.4-0.9,1.1c0.1,0.4,0.2,0.9,0.1,1.3c-0.1,0.4-0.6,0.7-1,0.4
			c-0.1-0.1-0.2-0.2-0.3-0.4c-0.6-0.9-1.9-1.1-2.7-0.4c-0.5,0.5-0.7,1.3-0.6,2c-0.2-0.2-0.5-0.3-0.8-0.2c-0.6,0.1-1.1,0.6-1.5,1.2
			c-0.1,0.2-0.2,0.4-0.2,0.7c-0.1,0.9,1,1.4,1.6,2.1c0.5,0.5,0.7,1.3,0.6,2c-0.4,0.1-0.8,0.3-1.2,0.5c-0.3,0-0.5,0-0.8,0.1
			c-0.6,0.2-1.1,0.8-1,1.4c-0.2-0.7-1.1-1-1.6-0.6c-0.5,0.4-0.6,1.4,0,1.8c0.2,0.1,0.4,0.2,0.6,0.4c0.2,0.2,0.4,0.6,0.6,1
			c0,0.5,0.2,0.9,0.4,1.4c-0.1,0.1-0.2,0.1-0.3,0.2c-1.1-0.5-2.4,0.2-3.4,1.1c-0.2,0.1-0.3,0.3-0.4,0.5c-0.1,0.3,0.1,0.6,0.3,0.9
			c0.7,0.9,1.8,1.5,2.9,1.8c0,0,0,0,0.1,0c-0.3,0.3-0.4,0.6-0.5,1c-0.7,0.3-1.2,1-1.2,1.8c-0.9-0.1-1.8-0.3-2.6,0.3
			c-0.7,0.5-0.8,2,0.1,2.2c0.3,0.1,0.6,0,0.9,0.2c0.4,0.3,0.4,1,0.3,1.5c-0.1,0.5,0,1.3,0.5,1.4c0,0,0,0,0,0
			c0.4,1.7,1.7,3.3,3.3,3.1c-0.4,0.3-1,0.1-1.4,0.4c-0.8,0.6,0.5,2.4-0.3,3.1c-0.5,0.4-1.2-0.1-1.7,0.3c-0.3,0.3-0.3,0.8-0.2,1.2
			c0.1,0.4,0.4,0.8,0.4,1.2c0,0.3,0,0.6,0,0.9c-0.1,0.7-0.2,1.5-0.3,2.2c-0.4,0.2-0.9,0.4-1,0.9c-0.2,0.6,0.2,1.2,0.7,1.6
			c0.4,0.3,0.8,0.5,1.2,0.8c0,0.7-0.1,1.4-0.1,2.1c-0.5,0.1-1,0-1.3,0.3c-0.5,0.5-0.1,1.4,0.5,1.7c0.6,0.3,1.3,0.1,2,0
			c2.3-0.4,2.6-0.1,2.6,2.3l-0.1-0.1c-0.1,1.1,0.1,2.2,0.4,3.3c1.5-0.8,3.3-0.7,4.7,0.2c0.8,0.5,1.5,1.3,2.4,1.4
			c0.2,0,0.4,0.1,0.5,0.1c0.1,0.1,0.2,0.2,0.4,0.3c0,0,0,0.1,0,0.1c0,0.4-0.5,0.5-0.9,0.5c-0.1,0.8,0.5,1.4,1,1.9
			c0.5,0.5,1.1,1.3,0.8,2c0.8-0.2,1.5-0.4,2.3-0.3c0.2,0,0.5,0.1,0.6,0.3c0.1,0.1,0.3,0.3,0.4,0.4c0.2,0.3,0.4,0.6,0.5,1
			c-0.9,0.2-1.5,1.3-1.2,2.2c0.8-0.2,1.8-0.4,2.3,0.3c0.1,0.2,0.2,0.4,0.3,0.5c0.2,0.2,0.5,0.3,0.7,0.3c1,0.3,1.9,0.9,2.6,1.6
			c-0.6,0.5-0.1,1.7,0.6,1.8c0.7,0.1,1.4-0.6,1.5-1.4c0.1-0.5-0.1-1.2,0.2-1.6c0.3-0.5,1-0.5,1.5-0.5c0.8,0,1.5,0,2.3,0
			c0.1,0,0.3,0,0.3,0.1c0.1,0.1,0,0.3,0,0.5c0,0.5,0.5,0.8,1,0.8c0.5,0,0.8-0.4,1.2-0.7c-0.2-0.3-0.4-0.8-0.5-1.2
			c0-0.7,0.1-1.3,0.2-2c0,0,0,0,0-0.1c1.5,1,2.5,2.5,4.4,2.5c1.3,1.2,2.1,1.9,2.1,1.9v141.7c-1.6-0.2-3.3,1.3-4.9,0.8
			c-0.8-0.3-1.5-1-2.3-1.3c-0.8-0.3-2,0.4-1.7,1.3c-0.7-0.5-1.8-0.1-2.2,0.7c-0.1,0.3-0.2,0.7-0.3,1c-0.3,0.9-1.2,1.5-2.1,1.5
			c-0.9,0-1.8-0.7-2-1.6c-0.2-0.8-0.3-1.9-1.1-1.9c-0.3,0-0.6,0.2-0.8,0.4c-2.1,1.3-5.8-1.3-7.7,0.2c-0.3,0.2-0.2,0.7-0.3,1.1
			c-0.3,0.9-1.4,1.1-2.3,1.1c-0.5,0-1.1,0-1.6,0l0.4-0.2c-0.6-0.1-1.3-0.3-1.9-0.4c-0.4-0.1-0.8-0.2-1.1-0.5s-0.4-0.9-0.1-1.2
			c-0.9-0.3-2.1-0.3-2.3,0.6c-0.1,0.4,0,0.8,0,1.1c-0.1,0.7-0.8,1.4-0.6,2.1c0.1,0.3,0.3,0.6,0.5,0.8l-1.7,0.8
			c-0.4,0.1-0.8,0.2-1.2,0.4c-0.4-0.9-0.8-1.7-1.4-2.4c-0.3-0.4-0.8-0.8-1.3-0.7c-0.9,0.3-0.5,1.8-1.1,2.6c-0.4,0-0.7-0.5-0.7-0.9
			c-0.7-0.5-1.8,0.1-2.1,0.9c-0.3,0.8-0.2,1.8,0,2.7c-0.8,0-1.6,0.1-2.4,0.1c-0.1,0.3-0.1,0.6,0,1c-0.8,0-1.6-0.1-2.3-0.1
			c0,0,0,0.1,0,0.1c-1.1,0.1-2.1,0.5-2.9,1.2c-0.3,0.1-0.6,0.2-0.9,0.3c-3,1.8,0.5,3.1,1.3,4.2c0.5,0.6-0.4,1.7-1.1,1.3
			c0.1,0.5,0.2,1,0.1,1.5c-0.2,0.5-0.7,0.8-1.1,0.5c-0.1-0.1-0.2-0.3-0.3-0.4c-0.7-1.1-2.3-1.3-3.3-0.4c-0.6,0.6-0.9,1.5-0.7,2.4
			c-0.3-0.2-0.6-0.3-1-0.3c-0.8,0.1-1.4,0.8-1.8,1.5c-0.1,0.1-0.1,0.2-0.2,0.3v-72.2c3.3-1.3,6.3-3.6,8.9-6.3
			c1.4-0.1,2.8,0.1,4.1,0.3c-0.3,1,0.7,1.9,1.7,1.9c0.1,0,0.2,0,0.3-0.1c0.1-0.1,0.2-0.3,0.2-0.5c0.1-0.6-0.1-1.1-0.1-1.7
			c0.1-0.6,0.6-1.2,1.1-0.9c0.2,0.1,0.3,0.3,0.5,0.5c1.9,1.9,2-2.4,3.7-2.8c1.8-0.4,2.9,2.1,4.6,1.8c1.4-0.2,1.9-2,3.8-1.8
			c0.4,0,0.8,0.1,1-0.2c0.1-0.2,0.1-0.4,0.2-0.6c0.1-1.3,0.2-2.7,1.1-3.7c0.4-0.4,1.1-0.6,1.5-0.2c-0.5-0.9,0.5-2.2,1.5-2.1
			c0.4,0,1,0,1-0.4c0.7,0.2,1.4,0.2,2.1,0.2c0.2,0,0.4,0,0.5-0.2c0.4-0.5,0-1.6,0.4-2.1c0.3-0.4,0.9-0.5,1.1-0.7
			c0.6-0.7,1.4,0.4,1.1-1.4c-0.2-1-1.3-1.9-2.2-2c-0.3-2.5-0.9-3.5,1.4-4.5c1.3-0.6,3.3-0.5,4.3-1.8c0.5-0.7,0.3-2-0.4-2.3
			c0-0.9,0.9-1.6,1.2-2.5c0.4-0.9,0.2-1.9-0.3-2.7c-0.2-0.3-0.4-0.6-0.4-0.9c-0.1-0.4,0.2-0.8,0.3-1.2c0.2-0.4,0.2-0.9-0.1-1.2
			c-0.1-0.1-0.3-0.1-0.4-0.3c-0.1-0.2,0-0.5,0.2-0.8c0.5-0.9,0.1-2.3-0.8-2.6c-0.5-0.2-1.1-0.2-1.4-0.5c-1.7-1.7,3-4.5,2-6.5
			c-0.1-0.3-0.4-0.5-0.6-0.7c-0.7-0.7-1.4-1.3-2-2c-0.3-0.3-0.6-0.6-0.6-1.1c0-0.3,0.1-0.5,0.1-0.8c-0.2-0.6-1.2-0.8-1.5-1.3
			c-0.4-0.6-0.5-1.8-0.6-2.5c-0.1-0.5-0.1-1.1-0.1-1.6c0-0.2,0.1-0.5,0-0.7c-0.1-0.4-0.5-0.5-0.9-0.5c-0.9-0.1-1.8-0.1-2.7-0.1
			c0.6-1.2,1.1-2.7,0.3-3.8c-0.8-1-2.2-0.8-3.4-0.5c-0.4-0.4-0.1-1.2-0.5-1.6c-0.4-0.4-1.2,0-1.5-0.4c-0.2-0.2-0.2-0.4-0.2-0.7
			c0-0.6-0.1-1.3-0.1-1.9c0-0.2,0-0.4-0.2-0.5c-0.1-0.1-0.3-0.1-0.4-0.2c-3.6-0.6-0.6-1.5-2.1-3.7c-0.3-0.4-0.7-0.5-1-0.8
			c-0.3-0.3-0.6-0.8-0.4-1.2c-1.9-0.5-4.1,0.3-5.5-1c-0.2-0.2-0.4-0.5-0.7-0.7c-0.6-0.3-1.4,0.2-1.4,1c-0.1-0.5-0.6-0.7-1.1-0.8
			c-0.5-0.1-0.9-0.1-1.3-0.4c-0.4-0.3-0.6-0.9-0.2-1.2c-1.7-0.6-3.3,1.2-5,1.4c-0.2,0-0.5,0-0.6-0.1c-0.2-0.1-0.2-0.3-0.3-0.5
			c-0.3-1-0.3-4.5-1.6-4.8c-0.2-0.1-0.5,0-0.8,0c-0.7,0-1.2-0.5-1.9-0.7c-1.5-0.4-2.9,1.1-4.4,0.7c-0.7-0.2-1.2-0.8-1.9-1.1
			c-0.7-0.2-1.7,0.3-1.4,1.1c-0.6-0.4-1.5-0.1-1.8,0.6c-0.1,0.3-0.2,0.6-0.3,0.8c-0.3,0.8-1,1.3-1.8,1.3c-0.8,0-1.5-0.6-1.7-1.4
			c-0.2-0.6-0.3-1.6-0.9-1.6c-0.3,0-0.5,0.2-0.7,0.3c-1.8,1.1-4.9-1.1-6.5,0.2c-0.2,0.2-0.2,0.6-0.3,0.9c-0.2,0.8-1.2,0.9-1.9,0.9
			c-0.4,0-0.9,0-1.3,0l0.3-0.1c-0.5-0.1-1.1-0.2-1.6-0.4c-0.3-0.1-0.7-0.2-0.9-0.4c-0.2-0.3-0.3-0.7-0.1-1c-0.7-0.2-1.8-0.3-2,0.5
			c-0.1,0.3,0,0.6,0,1c-0.1,0.6-0.7,1.2-0.5,1.8c0.1,0.3,0.3,0.5,0.5,0.7l-1.5,0.7c-0.3,0.1-0.7,0.2-1,0.4c-0.3-0.7-0.7-1.4-1.2-2
			c-0.3-0.3-0.7-0.7-1.1-0.6c-0.7,0.2-0.4,1.5-0.9,2.2c-0.3,0-0.6-0.4-0.6-0.8c-0.6-0.4-1.5,0.1-1.7,0.8c-0.3,0.7-0.1,1.5,0,2.3
			c-0.7,0-1.3,0.1-2,0.1c-0.1,0.2-0.1,0.5,0,0.8c-0.7,0-1.3-0.1-2-0.1c0,0,0,0.1,0,0.1c-0.9,0-1.8,0.4-2.4,1
			c-0.3,0.1-0.5,0.1-0.8,0.3c-2.5,1.5,0.4,2.6,1.1,3.5c0.4,0.5-0.3,1.4-0.9,1.1c0.1,0.4,0.2,0.9,0.1,1.3c-0.1,0.4-0.6,0.7-1,0.4
			c-0.1-0.1-0.2-0.2-0.3-0.4c-0.6-0.9-1.9-1.1-2.7-0.4c-0.5,0.5-0.7,1.3-0.6,2c-0.2-0.2-0.5-0.3-0.8-0.2c-0.6,0.1-1.1,0.6-1.5,1.2
			c-0.1,0.2-0.2,0.4-0.2,0.7c-0.1,0.9,1,1.4,1.6,2.1c0.5,0.5,0.7,1.3,0.6,2c-0.4,0.1-0.8,0.3-1.2,0.5c-0.3,0-0.5,0-0.8,0.1
			c-0.6,0.2-1.1,0.8-1,1.4c-0.2-0.7-1.1-1-1.6-0.6c-0.5,0.4-0.6,1.4,0,1.8c0.2,0.1,0.4,0.2,0.6,0.4c0.2,0.2,0.4,0.6,0.6,1
			c0,0.5,0.2,0.9,0.4,1.4c-0.1,0.1-0.2,0.1-0.3,0.2c-1.1-0.5-2.4,0.2-3.4,1.1c-0.2,0.1-0.3,0.3-0.4,0.5c-0.1,0.3,0.1,0.6,0.3,0.9
			c0.7,0.9,1.8,1.5,2.9,1.8c0,0,0,0,0.1,0c-0.3,0.3-0.4,0.6-0.5,1c-0.7,0.3-1.2,1-1.2,1.8c-0.9-0.1-1.8-0.3-2.6,0.3
			c-0.7,0.5-0.8,2,0.1,2.2c0.3,0.1,0.6,0,0.9,0.2c0.4,0.3,0.4,1,0.3,1.5c-0.1,0.5,0,1.3,0.5,1.4c0,0,0,0,0,0
			c0.4,1.7,1.7,3.3,3.3,3.1c-0.4,0.3-1,0.1-1.4,0.4c-0.8,0.6,0.5,2.4-0.3,3.1c-0.5,0.4-1.2-0.1-1.7,0.3c-0.3,0.3-0.3,0.8-0.2,1.2
			c0.1,0.4,0.4,0.8,0.4,1.2c0,0.3,0,0.6,0,0.9c-0.1,0.7-0.2,1.5-0.3,2.2c-0.4,0.2-0.9,0.4-1,0.9c-0.2,0.6,0.2,1.2,0.7,1.6
			c0.4,0.3,0.8,0.5,1.2,0.8c0,0.7-0.1,1.4-0.1,2.1c-0.5,0.1-1,0-1.3,0.3c-0.5,0.5-0.1,1.4,0.5,1.7c0.6,0.3,1.3,0.1,2,0
			c2.3-0.4,2.6-0.1,2.6,2.3l-0.1-0.1c-0.1,1.1,0.1,2.2,0.4,3.3c1.5-0.8,3.3-0.7,4.7,0.2c0.8,0.5,1.5,1.3,2.4,1.4
			c0.2,0,0.4,0.1,0.5,0.1c0.1,0.1,0.2,0.2,0.4,0.3c0,0,0,0.1,0,0.1c0,0.4-0.5,0.5-0.9,0.5c-0.1,0.8,0.5,1.4,1,1.9
			c0.5,0.5,1.1,1.3,0.8,2c0.8-0.2,1.5-0.4,2.3-0.3c0.2,0,0.5,0.1,0.6,0.3c0.1,0.1,0.3,0.3,0.4,0.4c0.2,0.3,0.4,0.6,0.5,1
			c-0.9,0.2-1.5,1.3-1.2,2.2c0.8-0.2,1.8-0.4,2.3,0.3c0.1,0.2,0.2,0.4,0.3,0.5c0.2,0.2,0.5,0.3,0.7,0.3c1,0.3,1.9,0.9,2.6,1.6
			c-0.6,0.5-0.1,1.7,0.6,1.8c0.7,0.1,1.4-0.6,1.5-1.4c0.1-0.5-0.1-1.2,0.2-1.6c0.3-0.5,1-0.5,1.5-0.5c0.8,0,1.5,0,2.3,0
			c0.1,0,0.3,0,0.3,0.1c0.1,0.1,0,0.3,0,0.5c0,0.5,0.5,0.8,1,0.8c0.5,0,0.8-0.4,1.2-0.7c-0.2-0.3-0.4-0.8-0.5-1.2
			c0-0.7,0.1-1.3,0.2-2c0,0,0,0,0-0.1c1.5,1,2.5,2.5,4.4,2.5c1.3,1.2,2.1,1.9,2.1,1.9v78.2c-0.5,0-0.9,0.1-1.2,0.4
			c-0.2,0.2-0.2,0.5-0.3,0.8c-0.2,0.7-1,0.8-1.7,0.8c-0.1,0-0.3,0-0.4,0c0-0.1-0.1-0.2-0.2-0.3c-0.1-0.1-0.2-0.1-0.3-0.2
			c-0.1-0.2,0-0.4,0.2-0.6c0.4-0.8,0.1-1.9-0.7-2.3c-0.4-0.2-0.9-0.1-1.2-0.5c-1.4-1.5,2.6-3.9,1.8-5.6c-0.1-0.3-0.3-0.4-0.5-0.6
			c-0.6-0.6-1.2-1.2-1.8-1.7c-0.3-0.3-0.5-0.6-0.5-0.9c0-0.2,0.1-0.5,0.1-0.7c-0.1-0.5-1-0.7-1.3-1.1c-0.3-0.5-0.4-1.6-0.5-2.2
			c-0.1-0.5-0.1-0.9-0.1-1.4c0-0.2,0.1-0.4,0-0.6c-0.1-0.3-0.5-0.4-0.8-0.4c-0.8-0.1-1.6-0.1-2.3-0.1c0.5-1,1-2.4,0.3-3.3
			c-0.7-0.9-1.9-0.7-2.9-0.4c-0.4-0.3-0.1-1-0.4-1.4c-0.3-0.4-1,0-1.3-0.4c-0.1-0.2-0.2-0.4-0.2-0.6c0-0.5-0.1-1.1-0.1-1.6
			c0-0.2,0-0.4-0.1-0.5c-0.1-0.1-0.2-0.1-0.4-0.1c-3.1-0.5-0.5-1.3-1.8-3.2c-0.2-0.3-0.6-0.5-0.9-0.7c-0.3-0.2-0.5-0.7-0.3-1
			c-1.6-0.4-3.6,0.3-4.8-0.9c-0.2-0.2-0.4-0.4-0.6-0.6c-0.5-0.3-1.2,0.2-1.2,0.8c-0.1-0.4-0.6-0.6-1-0.7c-0.4-0.1-0.8-0.1-1.1-0.3
			c-0.3-0.2-0.5-0.8-0.2-1.1c-1.4-0.5-2.8,1-4.3,1.2c-0.2,0-0.4,0-0.6-0.1c-0.1-0.1-0.2-0.3-0.3-0.5c-0.3-0.9-0.3-3.9-1.3-4.2
			c-0.2-0.1-0.4,0-0.7,0c-0.6,0-1.1-0.4-1.6-0.6c-1.3-0.3-2.5,0.9-3.8,0.6c-0.6-0.2-1.1-0.7-1.6-0.9c-0.6-0.2-1.5,0.3-1.2,0.9
			c-0.5-0.3-1.3-0.1-1.6,0.5c-0.1,0.2-0.1,0.5-0.2,0.7c-0.2,0.6-0.9,1.1-1.5,1.1c-0.7,0-1.3-0.5-1.5-1.2c-0.2-0.6-0.2-1.4-0.8-1.4
			c-0.2,0-0.4,0.1-0.6,0.3c-1.5,0.9-4.2-1-5.6,0.2c-0.2,0.2-0.2,0.5-0.3,0.8c-0.2,0.7-1,0.8-1.7,0.8c-0.4,0-0.8,0-1.2,0l0.3-0.1
			c-0.5-0.1-0.9-0.2-1.4-0.3c-0.3-0.1-0.6-0.1-0.8-0.4c-0.2-0.2-0.3-0.6-0.1-0.8c-0.6-0.2-1.5-0.2-1.7,0.4c-0.1,0.3,0,0.5,0,0.8
			c-0.1,0.5-0.6,1-0.4,1.5c0.1,0.2,0.2,0.4,0.4,0.6l-1.3,0.6c-0.3,0.1-0.6,0.2-0.9,0.3c-0.3-0.6-0.6-1.2-1-1.7
			c-0.2-0.3-0.6-0.6-0.9-0.5c-0.6,0.2-0.4,1.3-0.8,1.9c-0.3,0-0.5-0.4-0.5-0.7c-0.5-0.4-1.3,0.1-1.5,0.7c-0.2,0.6-0.1,1.3,0,2
			c-0.6,0-1.2,0.1-1.7,0.1c-0.1,0.2-0.1,0.5,0,0.7c-0.6,0-1.1-0.1-1.7-0.1c0,0,0,0.1,0,0.1c-0.8,0-1.5,0.4-2.1,0.9
			c-0.2,0-0.5,0.1-0.7,0.2c-2.2,1.3,0.3,2.2,0.9,3c0.3,0.5-0.3,1.2-0.8,1c0.1,0.4,0.2,0.7,0,1.1c-0.1,0.3-0.5,0.6-0.8,0.4
			c-0.1-0.1-0.2-0.2-0.2-0.3c-0.5-0.8-1.7-0.9-2.4-0.3c-0.5,0.4-0.6,1.1-0.5,1.7c-0.2-0.2-0.5-0.2-0.7-0.2c-0.6,0.1-1,0.6-1.3,1.1
			c-0.1,0.2-0.2,0.4-0.2,0.6c-0.1,0.8,0.8,1.2,1.4,1.8c0.4,0.4,0.6,1.1,0.5,1.7c-0.4,0.1-0.7,0.3-1,0.5c-0.2,0-0.5,0-0.7,0.1
			c-0.1,0-0.1,0.1-0.2,0.1c-0.1,0-0.2,0-0.2-0.1c-0.2-0.2-0.3-0.4-0.3-0.6c-0.4-1.2-0.4-5.4-1.9-5.8c-0.3-0.1-0.6,0-0.9,0
			c-0.8,0-1.5-0.6-2.3-0.8c-1.7-0.4-3.5,1.3-5.2,0.8c-0.8-0.3-1.5-1-2.3-1.3c-0.8-0.3-2,0.4-1.7,1.3c-0.7-0.5-1.8-0.1-2.2,0.7
			c-0.1,0.3-0.2,0.7-0.3,1c-0.3,0.9-1.2,1.5-2.1,1.5c-0.9,0-1.8-0.7-2-1.6c-0.2-0.8-0.3-1.9-1.1-1.9c-0.1,0-0.2,0-0.2,0.1v-129.2
			c4.2-1.7,8-4.6,11.5-8.1c1.7-0.2,3.6,0.1,5.3,0.4c-0.4,1.2,0.9,2.4,2.2,2.5c0.2,0,0.3,0,0.4-0.1c0.2-0.1,0.3-0.4,0.3-0.6
			c0.1-0.7-0.2-1.5-0.1-2.2c0.1-0.7,0.8-1.5,1.4-1.2c0.3,0.1,0.4,0.4,0.6,0.6c2.5,2.4,2.6-3.1,4.7-3.6c2.3-0.5,3.7,2.7,5.9,2.3
			c1.7-0.3,2.5-2.5,4.8-2.3c0.5,0,1,0.1,1.3-0.3c0.2-0.2,0.2-0.5,0.2-0.7c0.1-1.6,0.2-3.5,1.4-4.7c0.5-0.5,1.4-0.8,1.9-0.3
			c-0.7-1.2,0.6-2.8,2-2.7c0.5,0,1.2,0,1.2-0.5c0.9,0.2,1.8,0.3,2.7,0.2c0.2,0,0.5,0,0.6-0.2c0.6-0.7,0-2,0.5-2.7
			c0.4-0.5,1.2-0.6,1.4-0.9c0.7-0.9,1.8,0.5,1.4-1.8c-0.2-1.3-1.7-2.4-2.8-2.6c-0.4-3.2-1.2-4.5,1.8-5.7c1.7-0.7,4.3-0.6,5.5-2.3
			c0.7-0.9,0.4-2.5-0.6-2.9c0.1-1.2,1.1-2.1,1.6-3.2c0.5-1.1,0.3-2.5-0.4-3.5c-0.2-0.4-0.5-0.7-0.5-1.1c-0.1-0.6,0.2-1.1,0.4-1.6
			c0.2-0.5,0.3-1.2-0.2-1.5c-0.2-0.1-0.4-0.2-0.5-0.3c-0.2-0.3,0.1-0.7,0.2-1c0.7-1.2,0.1-2.9-1.1-3.4c-0.6-0.2-1.4-0.2-1.8-0.7
			c-2.1-2.2,3.8-5.8,2.6-8.3c-0.2-0.4-0.5-0.7-0.8-1c-0.9-0.9-1.8-1.7-2.6-2.6c-0.4-0.4-0.8-0.8-0.8-1.4c0-0.3,0.2-0.7,0.1-1
			c-0.2-0.7-1.5-1-1.9-1.7c-0.5-0.8-0.6-2.3-0.8-3.2c-0.1-0.7-0.2-1.4-0.2-2.1c0-0.3,0.1-0.6,0-0.9c-0.1-0.5-0.7-0.6-1.2-0.6
			c-1.2-0.1-2.3-0.2-3.5-0.2c0.7-1.5,1.5-3.5,0.4-4.9c-1-1.3-2.8-1-4.4-0.7c-0.5-0.5-0.1-1.5-0.6-2c-0.5-0.5-1.5,0-2-0.6
			c-0.2-0.2-0.2-0.6-0.3-0.9c-0.1-0.8-0.1-1.6-0.2-2.4c0-0.2,0-0.5-0.2-0.7c-0.1-0.1-0.4-0.2-0.5-0.2c-4.7-0.8-0.7-1.9-2.7-4.7
			c-0.3-0.5-0.9-0.7-1.3-1.1c-0.4-0.4-0.8-1-0.5-1.5c-2.4-0.7-5.3,0.4-7.1-1.3c-0.3-0.3-0.5-0.7-0.9-0.8c-0.8-0.4-1.8,0.3-1.8,1.2
			c-0.2-0.6-0.8-0.9-1.4-1c-0.6-0.1-1.2-0.1-1.7-0.5c-0.5-0.3-0.7-1.2-0.3-1.6c-2.1-0.8-4.2,1.5-6.5,1.7c-0.3,0-0.6,0-0.8-0.2
			c-0.2-0.2-0.3-0.4-0.4-0.7c-0.4-1.3-0.4-5.8-2-6.2c-0.3-0.1-0.6,0-1,0c-0.9,0-1.6-0.6-2.4-0.8c-1.9-0.5-3.8,1.4-5.6,0.8
			c-0.9-0.3-1.6-1.1-2.4-1.4c-0.9-0.3-2.2,0.4-1.8,1.4c-0.8-0.5-1.9-0.1-2.3,0.7c-0.2,0.3-0.2,0.7-0.3,1.1c-0.4,1-1.3,1.6-2.3,1.6
			c-1,0-1.9-0.8-2.2-1.7c-0.3-0.8-0.4-2-1.2-2.1c-0.3,0-0.6,0.2-0.9,0.4c-2.3,1.4-6.2-1.5-8.3,0.3c-0.3,0.3-0.3,0.8-0.4,1.2
			c-0.3,1-1.5,1.2-2.5,1.2c-0.6,0-1.2,0-1.7,0l0.4-0.2c-0.7-0.2-1.4-0.3-2.1-0.5c-0.4-0.1-0.9-0.2-1.2-0.5c-0.3-0.3-0.4-0.9-0.1-1.2
			c-0.9-0.3-2.3-0.4-2.5,0.6c-0.1,0.4,0,0.8,0,1.2c-0.1,0.8-0.9,1.5-0.7,2.3c0.1,0.3,0.4,0.6,0.6,0.9l-1.9,0.9
			c-0.4,0.1-0.9,0.2-1.3,0.5c-0.4-0.9-0.9-1.8-1.5-2.6c-0.3-0.4-0.8-0.9-1.4-0.7c-1,0.3-0.6,1.9-1.2,2.8c-0.4,0-0.8-0.5-0.7-1
			c-0.8-0.5-1.9,0.1-2.2,1c-0.4,0.9-0.2,2,0,2.9c-0.9,0-1.7,0.1-2.6,0.1c-0.1,0.3-0.1,0.7,0,1.1c-0.8,0-1.7-0.1-2.5-0.1
			c0,0,0,0.1,0,0.1c-1.1,0.1-2.3,0.6-3.1,1.3c-0.4,0.1-0.7,0.2-1,0.4c-3.3,2,0.5,3.3,1.4,4.5c0.5,0.7-0.4,1.9-1.1,1.4
			c0.1,0.5,0.3,1.1,0.1,1.6c-0.2,0.5-0.8,0.9-1.2,0.6c-0.2-0.1-0.3-0.3-0.4-0.5c-0.8-1.1-2.5-1.4-3.5-0.5c-0.7,0.6-1,1.6-0.8,2.6
			c-0.3-0.2-0.7-0.4-1.1-0.3c-0.8,0.1-1.5,0.8-1.9,1.6c-0.2,0.3-0.3,0.6-0.3,0.9c-0.1,1.2,1.2,1.8,2,2.7c0.6,0.7,0.9,1.6,0.8,2.5
			c-0.5,0.1-1,0.4-1.5,0.7c-0.3,0-0.7,0-1,0.1c-0.7,0.2-1.4,1-1.2,1.8c-0.2-0.9-1.3-1.3-2.1-0.8c-0.7,0.5-0.7,1.8,0,2.3
			c0.2,0.2,0.5,0.3,0.7,0.5c0.3,0.2,0.6,0.7,0.8,1.3c0,0.6,0.2,1.2,0.5,1.7c-0.1,0.1-0.3,0.2-0.4,0.2c-1.4-0.7-3.1,0.3-4.3,1.4
			c-0.2,0.2-0.4,0.4-0.5,0.7c-0.1,0.4,0.1,0.8,0.4,1.1c0.9,1.2,2.3,2,3.7,2.2c0,0,0.1,0,0.1,0.1c-0.3,0.3-0.6,0.8-0.6,1.3
			c-0.9,0.4-1.5,1.3-1.5,2.3c-1.1-0.2-2.4-0.4-3.3,0.3c-0.9,0.7-1,2.6,0.1,2.9c0.4,0.1,0.8,0,1.2,0.2c0.6,0.3,0.5,1.2,0.4,1.9
			c-0.1,0.7,0,1.6,0.6,1.8c0,0,0,0,0.1,0c0.5,2.2,2.2,4.2,4.2,4c-0.5,0.4-1.3,0.1-1.8,0.5c-1.1,0.8,0.6,3.1-0.4,3.9
			c-0.6,0.5-1.6-0.1-2.2,0.4c-0.4,0.3-0.4,1-0.2,1.5c0.2,0.5,0.5,1,0.6,1.6c0,0.4,0,0.7-0.1,1.1c-0.1,0.9-0.3,1.9-0.4,2.8
			c-0.5,0.3-1.1,0.6-1.3,1.2c-0.3,0.8,0.3,1.6,0.9,2c0.5,0.4,1.1,0.6,1.5,1c-0.1,0.9-0.1,1.8-0.2,2.7c-0.6,0.1-1.2,0-1.7,0.4
			c-0.7,0.6-0.2,1.9,0.6,2.2c0.8,0.4,1.7,0.1,2.6,0c3-0.5,3.3-0.2,3.3,2.9l-0.2-0.1c-0.1,1.4,0.1,2.8,0.5,4.2c1.9-1,4.2-1,6,0.2
			c1,0.6,1.9,1.6,3.1,1.8c0.2,0,0.5,0.1,0.7,0.2c0.2,0.1,0.3,0.3,0.5,0.4c0,0.1,0,0.1,0,0.2c0,0.5-0.6,0.6-1.1,0.6
			c-0.1,1,0.7,1.8,1.3,2.4c0.7,0.7,1.3,1.6,1,2.5c1-0.3,2-0.5,2.9-0.4c0.3,0,0.6,0.2,0.8,0.4c0.2,0.2,0.3,0.4,0.5,0.5
			c0.3,0.4,0.5,0.8,0.6,1.2c-1.1,0.2-1.9,1.7-1.5,2.9c1-0.3,2.3-0.5,2.9,0.4c0.1,0.2,0.2,0.5,0.4,0.7c0.2,0.3,0.6,0.3,0.9,0.4
			c1.3,0.4,2.4,1.1,3.3,2.1c-0.7,0.7-0.2,2.2,0.8,2.3c1,0.1,1.8-0.8,2-1.8c0.1-0.7-0.1-1.5,0.3-2.1c0.4-0.6,1.2-0.7,1.9-0.7
			c1,0,2,0,3,0c0.2,0,0.3,0,0.4,0.1c0.1,0.2,0.1,0.4,0.1,0.6c0,0.6,0.7,1.1,1.2,1c0.6-0.1,1.1-0.5,1.6-0.8c-0.3-0.4-0.5-1-0.6-1.5
			c0-0.9,0.1-1.7,0.2-2.5c0,0,0-0.1,0-0.1c1.9,1.2,3.3,3.3,5.7,3.2c1.7,1.6,2.8,2.4,2.8,2.4v138.4c-0.1,0.7-0.7,1.3-0.6,2
			c0.1,0.3,0.3,0.6,0.5,0.8l-1.7,0.8c-0.4,0.1-0.8,0.2-1.2,0.4c-0.4-0.9-0.8-1.7-1.4-2.4c-0.3-0.4-0.8-0.8-1.3-0.7
			c-0.9,0.3-0.5,1.8-1.1,2.6c-0.4,0-0.7-0.5-0.7-0.9c-0.7-0.5-1.8,0.1-2.1,0.9c-0.3,0.8-0.2,1.8,0,2.7c-0.8,0-1.6,0.1-2.4,0.1
			c-0.1,0.3-0.1,0.6,0,1c-0.8,0-1.6-0.1-2.3-0.1c0,0,0,0.1,0,0.1c-1.1,0.1-2.1,0.5-2.9,1.2c-0.3,0.1-0.6,0.2-0.9,0.3
			c-3,1.8,0.5,3.1,1.3,4.2c0.5,0.6-0.4,1.7-1.1,1.3c0.1,0.5,0.2,1,0.1,1.5c-0.2,0.5-0.7,0.8-1.1,0.5c-0.1-0.1-0.2-0.3-0.3-0.4
			c-0.7-1.1-2.3-1.3-3.3-0.4c-0.6,0.6-0.9,1.5-0.7,2.4c-0.3-0.2-0.6-0.3-1-0.3c-0.8,0.1-1.4,0.8-1.8,1.5c-0.1,0.2-0.3,0.5-0.3,0.8
			c0,0.1,0,0.2,0,0.3c-0.5-0.1-1-0.4-1.5-0.5c-1.3-0.3-2.5,0.9-3.8,0.6c-0.6-0.2-1.1-0.7-1.6-0.9c-0.6-0.2-1.5,0.3-1.2,0.9
			c-0.5-0.3-1.3-0.1-1.6,0.5c-0.1,0.2-0.1,0.5-0.2,0.7c-0.2,0.6-0.9,1.1-1.5,1.1c-0.7,0-1.3-0.5-1.5-1.2c-0.2-0.6-0.2-1.4-0.8-1.4
			c-0.2,0-0.4,0.1-0.6,0.3c-1.5,0.9-4.2-1-5.6,0.2c-0.2,0.2-0.2,0.5-0.3,0.8c-0.2,0.7-1,0.8-1.7,0.8l-1.2,0l0.3-0.1
			c-0.5-0.1-0.9-0.2-1.4-0.3c-0.3-0.1-0.6-0.1-0.8-0.4c-0.2-0.2-0.3-0.6-0.1-0.8c-0.6-0.2-1.5-0.2-1.7,0.4c-0.1,0.3,0,0.5,0,0.8
			c-0.1,0.5-0.6,1-0.4,1.5c0.1,0.2,0.2,0.4,0.4,0.6l-1.3,0.6c-0.3,0.1-0.6,0.2-0.9,0.3c-0.3-0.6-0.6-1.2-1-1.7
			c-0.2-0.3-0.6-0.6-0.9-0.5c-0.6,0.2-0.4,1.3-0.8,1.9c-0.3,0-0.5-0.4-0.5-0.7c-0.5-0.4-1.3,0.1-1.5,0.7c-0.2,0.6-0.1,1.3,0,2
			c-0.6,0-1.2,0.1-1.7,0.1c-0.1,0.2-0.1,0.5,0,0.7c-0.6,0-1.1-0.1-1.7-0.1c0,0,0,0.1,0,0.1c-0.8,0-1.5,0.4-2.1,0.9
			c-0.2,0-0.5,0.1-0.7,0.2c-2.2,1.3,0.3,2.2,0.9,3c0.3,0.4,0,0.9-0.4,1c0-0.3,0-0.5-0.1-0.8c0-0.2,0-0.4-0.1-0.5
			c-0.1-0.1-0.2-0.1-0.4-0.1c-3.1-0.5-0.5-1.3-1.8-3.2c-0.2-0.3-0.6-0.5-0.9-0.7c-0.3-0.2-0.5-0.7-0.3-1c-1.6-0.4-3.6,0.3-4.8-0.9
			c-0.2-0.2-0.4-0.4-0.6-0.6c-0.5-0.3-1.2,0.2-1.2,0.8c-0.1-0.4-0.6-0.6-1-0.7c-0.4-0.1-0.8-0.1-1.1-0.3c-0.3-0.2-0.5-0.8-0.2-1.1
			c-1.4-0.5-2.8,1-4.3,1.2c-0.2,0-0.4,0-0.6-0.1c-0.1-0.1-0.2-0.3-0.3-0.5c-0.3-0.9-0.3-3.9-1.3-4.2c-0.2-0.1-0.4,0-0.7,0
			c-0.6,0-1.1-0.4-1.6-0.6c-1.3-0.3-2.5,0.9-3.8,0.6c-0.6-0.2-1.1-0.7-1.6-0.9c-0.6-0.2-1.5,0.3-1.2,0.9c-0.5-0.3-1.3-0.1-1.6,0.5
			c-0.1,0.2-0.1,0.5-0.2,0.7c-0.2,0.6-0.9,1.1-1.5,1.1c-0.7,0-1.3-0.5-1.5-1.2c-0.2-0.6-0.2-1.4-0.8-1.4c-0.2,0-0.4,0.1-0.6,0.3
			c-1.5,0.9-4.2-1-5.6,0.2c-0.2,0.2-0.2,0.5-0.3,0.8c-0.2,0.7-1,0.8-1.7,0.8c-0.4,0-0.8,0-1.2,0l0.3-0.1c-0.5-0.1-0.9-0.2-1.4-0.3
			c-0.3-0.1-0.6-0.1-0.8-0.4s-0.3-0.6-0.1-0.8c-0.6-0.2-1.5-0.2-1.7,0.4c-0.1,0.3,0,0.5,0,0.8c0,0.3-0.2,0.6-0.3,0.9
			c-0.5-0.5-1.1-1-1.6-1.6c-0.4-0.3-0.7-0.8-0.7-1.3c0-0.3,0.2-0.6,0.1-0.9c-0.2-0.7-1.4-0.9-1.8-1.5c-0.5-0.7-0.6-2.1-0.7-3
			c-0.1-0.6-0.2-1.3-0.2-1.9c0-0.3,0.1-0.6,0-0.9c-0.1-0.4-0.7-0.6-1.1-0.6c-1.1-0.1-2.2-0.1-3.2-0.2c0.7-1.4,1.4-3.3,0.4-4.5
			c-0.9-1.2-2.6-1-4-0.6c-0.5-0.4-0.1-1.4-0.5-1.9c-0.5-0.5-1.4,0-1.8-0.5c-0.2-0.2-0.2-0.5-0.2-0.8c-0.1-0.8-0.1-1.5-0.2-2.3
			c0-0.2,0-0.5-0.2-0.6c-0.1-0.1-0.3-0.2-0.5-0.2c-4.3-0.7-0.7-1.8-2.5-4.4c-0.3-0.4-0.8-0.6-1.2-1c-0.4-0.3-0.7-0.9-0.5-1.4
			c-2.2-0.6-4.9,0.4-6.6-1.2c-0.3-0.3-0.5-0.6-0.8-0.8c-0.7-0.4-1.7,0.3-1.7,1.1c-0.2-0.6-0.8-0.8-1.3-0.9c-0.5-0.1-1.1-0.1-1.6-0.4
			c-0.2-0.1-0.3-0.3-0.4-0.5v-0.8c0-0.1,0.1-0.1,0.1-0.2c0,0-0.1,0-0.1,0v-47.5c3.3-1.3,6.3-3.6,8.9-6.3c1.4-0.1,2.8,0.1,4.1,0.3
			c-0.3,1,0.7,1.9,1.7,1.9c0.1,0,0.2,0,0.3-0.1c0.1-0.1,0.2-0.3,0.2-0.5c0.1-0.6-0.1-1.1-0.1-1.7c0.1-0.6,0.6-1.2,1.1-0.9
			c0.2,0.1,0.3,0.3,0.5,0.5c1.9,1.9,2-2.4,3.7-2.8c1.8-0.4,2.9,2.1,4.6,1.8c1.4-0.2,1.9-2,3.8-1.8c0.4,0,0.8,0.1,1-0.2
			c0.1-0.2,0.1-0.4,0.2-0.6c0.1-1.3,0.2-2.7,1.1-3.7c0.4-0.4,1.1-0.6,1.5-0.2c-0.5-0.9,0.5-2.2,1.5-2.1c0.4,0,1,0,1-0.4
			c0.7,0.2,1.4,0.2,2.1,0.2c0.2,0,0.4,0,0.5-0.2c0.4-0.5,0-1.6,0.4-2.1c0.3-0.4,0.9-0.5,1.1-0.7c0.6-0.7,1.4,0.4,1.1-1.4
			c-0.2-1-1.3-1.9-2.2-2c-0.3-2.5-0.9-3.5,1.4-4.5c1.3-0.6,3.3-0.5,4.3-1.8c0.5-0.7,0.3-2-0.4-2.3c0-0.9,0.9-1.6,1.2-2.5
			c0.4-0.9,0.2-1.9-0.3-2.7c-0.2-0.3-0.4-0.6-0.4-0.9c-0.1-0.4,0.2-0.8,0.3-1.2c0.2-0.4,0.2-0.9-0.1-1.2c-0.1-0.1-0.3-0.1-0.4-0.3
			c-0.1-0.2,0-0.5,0.2-0.8c0.5-0.9,0.1-2.3-0.8-2.6c-0.5-0.2-1.1-0.2-1.4-0.5c-1.7-1.7,3-4.5,2-6.5c-0.1-0.3-0.4-0.5-0.6-0.7
			c-0.7-0.7-1.4-1.3-2-2c-0.3-0.3-0.6-0.6-0.6-1.1c0-0.3,0.1-0.5,0.1-0.8c-0.2-0.6-1.2-0.8-1.5-1.3c-0.4-0.6-0.5-1.8-0.6-2.5
			c-0.1-0.5-0.1-1.1-0.1-1.6c0-0.2,0.1-0.5,0-0.7c-0.1-0.4-0.5-0.5-0.9-0.5c-0.9-0.1-1.8-0.1-2.7-0.1c0.6-1.2,1.1-2.7,0.3-3.8
			c-0.8-1-2.2-0.8-3.4-0.5c-0.4-0.4-0.1-1.2-0.5-1.6c-0.4-0.4-1.2,0-1.5-0.4c-0.2-0.2-0.2-0.4-0.2-0.7c0-0.6-0.1-1.3-0.1-1.9
			c0-0.2,0-0.4-0.2-0.5c-0.1-0.1-0.3-0.1-0.4-0.2c-3.6-0.6-0.6-1.5-2.1-3.7c-0.3-0.4-0.7-0.5-1-0.8c-0.3-0.3-0.6-0.8-0.4-1.2
			c-1.9-0.5-4.1,0.3-5.5-1c-0.2-0.2-0.4-0.5-0.7-0.7c-0.6-0.3-1.4,0.2-1.4,1c-0.1-0.5-0.6-0.7-1.1-0.8c-0.5-0.1-0.9-0.1-1.3-0.4
			c-0.4-0.3-0.6-0.9-0.2-1.2c-1.7-0.6-3.3,1.2-5,1.4c-0.2,0-0.5,0-0.6-0.1c-0.2-0.1-0.2-0.3-0.3-0.5c-0.3-1-0.3-4.5-1.6-4.8
			c-0.2-0.1-0.5,0-0.8,0c-0.7,0-1.2-0.5-1.9-0.7c-1.5-0.4-2.9,1.1-4.4,0.7c-0.7-0.2-1.2-0.8-1.9-1.1c-0.7-0.2-1.7,0.3-1.4,1.1
			c-0.6-0.4-1.5-0.1-1.8,0.6c-0.1,0.3-0.2,0.6-0.3,0.8c-0.3,0.8-1,1.3-1.8,1.3s-1.5-0.6-1.7-1.4c-0.2-0.6-0.3-1.6-0.9-1.6
			c-0.3,0-0.5,0.2-0.7,0.3c-1.8,1.1-4.9-1.1-6.5,0.2c-0.2,0.2-0.2,0.6-0.3,0.9c-0.2,0.8-1.2,0.9-1.9,0.9c-0.4,0-0.9,0-1.3,0l0.3-0.1
			c-0.5-0.1-1.1-0.2-1.6-0.4c-0.3-0.1-0.7-0.2-0.9-0.4c-0.2-0.3-0.3-0.7-0.1-1c-0.7-0.2-1.8-0.3-2,0.5c-0.1,0.3,0,0.6,0,1
			c-0.1,0.6-0.7,1.2-0.5,1.8c0.1,0.3,0.3,0.5,0.5,0.7l-1.5,0.7c-0.3,0.1-0.7,0.2-1,0.4c-0.3-0.7-0.7-1.4-1.2-2
			c-0.3-0.3-0.7-0.7-1.1-0.6c-0.7,0.2-0.4,1.5-0.9,2.2c-0.3,0-0.6-0.4-0.6-0.8c-0.6-0.4-1.5,0.1-1.7,0.8c-0.3,0.7-0.1,1.5,0,2.3
			c-0.7,0-1.3,0.1-2,0.1c-0.1,0.2-0.1,0.5,0,0.8c-0.7,0-1.3-0.1-2-0.1c0,0,0,0.1,0,0.1c-0.9,0-1.8,0.4-2.4,1
			c-0.3,0.1-0.5,0.1-0.8,0.3c-2.5,1.5,0.4,2.6,1.1,3.5c0.4,0.5-0.3,1.4-0.9,1.1c0.1,0.4,0.2,0.9,0.1,1.3c-0.1,0.4-0.6,0.7-1,0.4
			c-0.1-0.1-0.2-0.2-0.3-0.4c-0.6-0.9-1.9-1.1-2.7-0.4c-0.5,0.5-0.7,1.3-0.6,2c-0.2-0.2-0.5-0.3-0.8-0.2c-0.6,0.1-1.1,0.6-1.5,1.2
			c-0.1,0.2-0.2,0.4-0.2,0.7c-0.1,0.9,1,1.4,1.6,2.1c0.5,0.5,0.7,1.3,0.6,2c-0.4,0.1-0.8,0.3-1.2,0.5c-0.3,0-0.5,0-0.8,0.1
			c-0.6,0.2-1.1,0.8-1,1.4c-0.2-0.7-1.1-1-1.6-0.6c-0.5,0.4-0.6,1.4,0,1.8c0.2,0.1,0.4,0.2,0.6,0.4c0.2,0.2,0.4,0.6,0.6,1
			c0,0.5,0.2,0.9,0.4,1.4c-0.1,0.1-0.2,0.1-0.3,0.2c-0.9-0.4-1.9,0-2.8,0.6c0-0.1,0-0.3,0-0.4c-0.2-0.6-1.2-0.8-1.5-1.3
			c-0.4-0.6-0.5-1.8-0.6-2.5c-0.1-0.5-0.1-1.1-0.1-1.6c0-0.2,0.1-0.5,0-0.7c-0.1-0.4-0.5-0.5-0.9-0.5c-0.9-0.1-1.8-0.1-2.7-0.1
			c0.6-1.2,1.1-2.7,0.3-3.8c-0.8-1-2.2-0.8-3.4-0.5c-0.4-0.4-0.1-1.2-0.5-1.6c-0.4-0.4-1.2,0-1.5-0.4c-0.2-0.2-0.2-0.4-0.2-0.7
			c0-0.6-0.1-1.3-0.1-1.9c0-0.2,0-0.4-0.2-0.5c-0.1-0.1-0.3-0.1-0.4-0.2c-3.6-0.6-0.6-1.5-2.1-3.7c-0.3-0.4-0.7-0.5-1-0.8
			s-0.6-0.8-0.4-1.2c-1.9-0.5-4.1,0.3-5.5-1c-0.2-0.2-0.4-0.5-0.7-0.7c-0.6-0.3-1.4,0.2-1.4,1c-0.1-0.5-0.6-0.7-1.1-0.8
			c-0.5-0.1-0.9-0.1-1.3-0.4c-0.4-0.3-0.6-0.9-0.2-1.2c-1.7-0.6-3.3,1.2-5,1.4c-0.2,0-0.5,0-0.6-0.1c-0.2-0.1-0.2-0.3-0.3-0.5
			c-0.3-1-0.3-4.5-1.6-4.8c-0.2-0.1-0.5,0-0.8,0c-0.7,0-1.2-0.5-1.9-0.7c-1.5-0.4-2.9,1.1-4.4,0.7c-0.7-0.2-1.2-0.8-1.9-1.1
			c-0.7-0.2-1.7,0.3-1.4,1.1c-0.6-0.4-1.5-0.1-1.8,0.6c-0.1,0.3-0.2,0.6-0.3,0.8c-0.3,0.8-1,1.3-1.8,1.3c-0.8,0-1.5-0.6-1.7-1.4
			c-0.2-0.6-0.3-1.6-0.9-1.6c-0.3,0-0.5,0.2-0.7,0.3c-1.8,1.1-4.9-1.1-6.5,0.2c-0.2,0.2-0.2,0.6-0.3,0.9c-0.2,0.8-1.2,0.9-1.9,0.9
			c-0.4,0-0.9,0-1.3,0l0.3-0.1c-0.5-0.1-1.1-0.2-1.6-0.4c-0.3-0.1-0.7-0.2-0.9-0.4c-0.2-0.3-0.3-0.7-0.1-1c-0.7-0.2-1.8-0.3-2,0.5
			c-0.1,0.3,0,0.6,0,1c-0.1,0.6-0.7,1.2-0.5,1.8c0.1,0.3,0.3,0.5,0.5,0.7l-1.5,0.7c-0.3,0.1-0.7,0.2-1,0.4c-0.3-0.7-0.7-1.4-1.2-2
			c-0.3-0.3-0.7-0.7-1.1-0.6c-0.7,0.2-0.4,1.5-0.9,2.2c-0.3,0-0.6-0.4-0.6-0.8c-0.6-0.4-1.5,0.1-1.7,0.8c-0.3,0.7-0.1,1.5,0,2.3
			c-0.7,0-1.3,0.1-2,0.1c-0.1,0.2-0.1,0.5,0,0.8c-0.7,0-1.3-0.1-2-0.1c0,0,0,0.1,0,0.1c-0.9,0-1.8,0.4-2.4,1
			c-0.3,0.1-0.5,0.1-0.8,0.3c-2.5,1.5,0.4,2.6,1.1,3.5c0.4,0.5-0.3,1.4-0.9,1.1c0.1,0.4,0.2,0.9,0.1,1.3c-0.1,0.4-0.6,0.7-1,0.4
			c-0.1-0.1-0.2-0.2-0.3-0.4c-0.6-0.9-1.9-1.1-2.7-0.4c-0.5,0.5-0.7,1.3-0.6,2c-0.2-0.2-0.5-0.3-0.8-0.2c-0.6,0.1-1.1,0.6-1.5,1.2
			c-0.1,0.2-0.2,0.4-0.2,0.7c-0.1,0.9,1,1.4,1.6,2.1c0.5,0.5,0.7,1.3,0.6,2c-0.4,0.1-0.8,0.3-1.2,0.5c-0.3,0-0.5,0-0.8,0.1
			c-0.6,0.2-1.1,0.8-1,1.4c-0.2-0.7-1.1-1-1.6-0.6c-0.5,0.4-0.6,1.4,0,1.8c0.2,0.1,0.4,0.2,0.6,0.4c0.2,0.2,0.4,0.6,0.6,1
			c0,0.5,0.2,0.9,0.4,1.4c-0.1,0.1-0.2,0.1-0.3,0.2c-1.1-0.5-2.4,0.2-3.4,1.1c-0.2,0.1-0.3,0.3-0.4,0.5c-0.1,0.3,0.1,0.6,0.3,0.9
			c0.7,0.9,1.8,1.5,2.9,1.8c0,0,0,0,0.1,0c-0.3,0.3-0.4,0.6-0.5,1c-0.7,0.3-1.2,1-1.2,1.8c-0.9-0.1-1.8-0.3-2.6,0.3s-0.8,2,0.1,2.2
			c0.3,0.1,0.6,0,0.9,0.2c0.4,0.3,0.4,1,0.3,1.5c-0.1,0.5,0,1.3,0.5,1.4c0,0,0,0,0,0c0.4,1.7,1.7,3.3,3.3,3.1
			c-0.4,0.3-1,0.1-1.4,0.4c-0.8,0.6,0.5,2.4-0.3,3.1c-0.5,0.4-1.2-0.1-1.7,0.3c-0.3,0.3-0.3,0.8-0.2,1.2c0.1,0.4,0.4,0.8,0.4,1.2
			c0,0.3,0,0.6,0,0.9c-0.1,0.7-0.2,1.5-0.3,2.2c-0.4,0.2-0.9,0.4-1,0.9c-0.2,0.6,0.2,1.2,0.7,1.6c0.4,0.3,0.8,0.5,1.2,0.8
			c0,0.7-0.1,1.4-0.1,2.1c-0.5,0.1-1,0-1.3,0.3c-0.5,0.5-0.1,1.4,0.5,1.7c0.6,0.3,1.3,0.1,2,0c2.3-0.4,2.6-0.1,2.6,2.3l-0.1-0.1
			c-0.1,1.1,0.1,2.2,0.4,3.3c1.5-0.8,3.3-0.7,4.7,0.2c0.8,0.5,1.5,1.3,2.4,1.4c0.2,0,0.4,0.1,0.5,0.1c0.1,0.1,0.2,0.2,0.4,0.3
			c0,0,0,0.1,0,0.1c0,0.4-0.5,0.5-0.9,0.5c-0.1,0.8,0.5,1.4,1,1.9c0.5,0.5,1.1,1.3,0.8,2c0.8-0.2,1.5-0.4,2.3-0.3
			c0.2,0,0.5,0.1,0.6,0.3c0.1,0.1,0.3,0.3,0.4,0.4c0.2,0.3,0.4,0.6,0.5,1c-0.9,0.2-1.5,1.3-1.2,2.2c0.8-0.2,1.8-0.4,2.3,0.3
			c0.1,0.2,0.2,0.4,0.3,0.5c0.2,0.2,0.5,0.3,0.7,0.3c1,0.3,1.9,0.9,2.6,1.6c-0.6,0.5-0.1,1.7,0.6,1.8c0.7,0.1,1.4-0.6,1.5-1.4
			c0.1-0.5-0.1-1.2,0.2-1.6c0.3-0.5,1-0.5,1.5-0.5c0.8,0,1.5,0,2.3,0c0.1,0,0.3,0,0.3,0.1c0.1,0.1,0,0.3,0,0.5c0,0.5,0.5,0.8,1,0.8
			c0.5,0,0.8-0.4,1.2-0.7c-0.2-0.3-0.4-0.8-0.5-1.2c0-0.7,0.1-1.3,0.2-2c0,0,0,0,0-0.1c1.5,1,2.5,2.5,4.4,2.5
			c1.3,1.2,2.1,1.9,2.1,1.9v88.7c-1.6,0.6-4-1-5.3,0.1c-0.2,0.2-0.2,0.5-0.3,0.8c-0.2,0.7-1,0.8-1.7,0.8c-0.4,0-0.8,0-1.2,0l0.3-0.1
			c-0.5-0.1-0.9-0.2-1.4-0.3c-0.3-0.1-0.6-0.1-0.8-0.4c-0.2-0.2-0.3-0.6-0.1-0.8c-0.6-0.2-1.5-0.2-1.7,0.4c-0.1,0.3,0,0.5,0,0.8
			c-0.1,0.5-0.6,1-0.4,1.5c0,0.1,0.1,0.2,0.1,0.3c-0.2,0-0.4,0-0.6,0c0.7-1.4,1.4-3.3,0.4-4.5c-0.9-1.2-2.6-1-4-0.6
			c-0.5-0.4-0.1-1.4-0.5-1.9c-0.5-0.5-1.4,0-1.8-0.5c-0.2-0.2-0.2-0.5-0.2-0.8c-0.1-0.8-0.1-1.5-0.2-2.3c0-0.2,0-0.5-0.2-0.6
			c-0.1-0.1-0.3-0.2-0.5-0.2c-4.3-0.7-0.7-1.8-2.5-4.4c-0.3-0.4-0.8-0.6-1.2-1c-0.4-0.3-0.7-0.9-0.5-1.4c-2.2-0.6-4.9,0.4-6.6-1.2
			c-0.3-0.3-0.5-0.6-0.8-0.8c-0.7-0.4-1.7,0.3-1.7,1.1c-0.2-0.6-0.8-0.8-1.3-0.9c-0.5-0.1-1.1-0.1-1.6-0.4c-0.5-0.3-0.7-1.1-0.2-1.5
			c-2-0.7-3.9,1.4-6,1.6c-0.3,0-0.6,0-0.8-0.2c-0.2-0.2-0.3-0.4-0.3-0.6c-0.4-1.2-0.4-5.4-1.9-5.8c-0.3-0.1-0.6,0-0.9,0
			c-0.8,0-1.5-0.6-2.3-0.8c-1.7-0.4-3.5,1.3-5.2,0.8c-0.8-0.3-1.5-1-2.3-1.3c-0.8-0.3-2,0.4-1.7,1.3c-0.7-0.5-1.8-0.1-2.2,0.7
			c-0.1,0.3-0.2,0.7-0.3,1c-0.3,0.9-1.2,1.5-2.1,1.5c-0.9,0-1.8-0.7-2-1.6c-0.2-0.8-0.3-1.9-1.1-1.9c-0.3,0-0.6,0.2-0.8,0.4
			c-2.1,1.3-5.8-1.3-7.7,0.2c-0.3,0.2-0.2,0.7-0.3,1.1c-0.3,0.9-1.4,1.1-2.3,1.1c-0.5,0-1.1,0-1.6,0l0.4-0.2
			c-0.6-0.1-1.3-0.3-1.9-0.4c-0.4-0.1-0.8-0.2-1.1-0.5c-0.3-0.3-0.4-0.9-0.1-1.2c-0.9-0.3-2.1-0.3-2.3,0.6c-0.1,0.4,0,0.8,0,1.1
			c-0.1,0.7-0.8,1.4-0.6,2.1c0.1,0.3,0.3,0.6,0.5,0.8l-1.7,0.8c-0.4,0.1-0.8,0.2-1.2,0.4c-0.4-0.9-0.8-1.7-1.4-2.4
			c-0.3-0.4-0.8-0.8-1.3-0.7c-0.9,0.3-0.5,1.8-1.1,2.6c-0.4,0-0.7-0.5-0.7-0.9c-0.7-0.5-1.8,0.1-2.1,0.9c-0.3,0.8-0.2,1.8,0,2.7
			c-0.8,0-1.6,0.1-2.4,0.1c-0.1,0.3-0.1,0.6,0,1c-0.8,0-1.6-0.1-2.3-0.1c0,0,0,0.1,0,0.1c-1.1,0.1-2.1,0.5-2.9,1.2
			c-0.3,0.1-0.6,0.2-0.9,0.3c-3,1.8,0.5,3.1,1.3,4.2c0.5,0.6-0.4,1.7-1.1,1.3c0.1,0.5,0.2,1,0.1,1.5c-0.2,0.5-0.7,0.8-1.1,0.5
			c-0.1-0.1-0.2-0.3-0.3-0.4c-0.7-1.1-2.3-1.3-3.3-0.4c-0.6,0.6-0.9,1.5-0.7,2.4c-0.3-0.2-0.6-0.3-1-0.3c-0.8,0.1-1.4,0.8-1.8,1.5
			c-0.1,0.2-0.3,0.5-0.3,0.8c-0.1,1.1,1.2,1.7,1.9,2.5c0.6,0.6,0.8,1.5,0.7,2.3c-0.5,0.1-1,0.4-1.4,0.6c-0.3,0-0.6,0-1,0.1
			c-0.7,0.2-1.3,0.9-1.2,1.7c-0.2-0.7-1.1-1.1-1.7-0.8v-116.6c3.9-1.5,7.4-4.3,10.7-7.5c1.6-0.1,3.3,0.1,4.9,0.4
			c-0.4,1.1,0.9,2.2,2,2.3c0.1,0,0.3,0,0.4-0.1c0.2-0.1,0.2-0.3,0.3-0.5c0.1-0.7-0.2-1.3-0.1-2c0.1-0.7,0.7-1.4,1.3-1.1
			c0.2,0.1,0.4,0.4,0.6,0.6c2.3,2.2,2.4-2.9,4.4-3.3c2.1-0.4,3.4,2.5,5.5,2.2c1.6-0.3,2.3-2.4,4.5-2.2c0.4,0,1,0.1,1.2-0.3
			c0.1-0.2,0.2-0.5,0.2-0.7c0.1-1.5,0.2-3.2,1.3-4.4c0.5-0.5,1.3-0.7,1.8-0.3c-0.6-1.1,0.6-2.6,1.8-2.5c0.5,0,1.2,0,1.1-0.5
			c0.8,0.2,1.6,0.3,2.5,0.2c0.2,0,0.4,0,0.6-0.2c0.5-0.6,0-1.9,0.5-2.5c0.4-0.5,1.1-0.6,1.3-0.8c0.7-0.8,1.6,0.4,1.3-1.7
			c-0.2-1.2-1.5-2.3-2.6-2.4c-0.4-3-1.1-4.1,1.7-5.3c1.6-0.7,4-0.5,5.1-2.1c0.6-0.9,0.4-2.3-0.5-2.7c0.1-1.1,1-1.9,1.5-2.9
			c0.4-1,0.2-2.3-0.3-3.3c-0.2-0.3-0.4-0.7-0.5-1.1c-0.1-0.5,0.2-1,0.4-1.5c0.2-0.5,0.2-1.1-0.1-1.4c-0.1-0.1-0.3-0.2-0.4-0.3
			c-0.2-0.3,0.1-0.6,0.2-0.9c0.6-1.1,0.1-2.7-1-3.1c-0.6-0.2-1.3-0.2-1.7-0.6c-2-2,3.6-5.4,2.4-7.7c-0.2-0.3-0.4-0.6-0.7-0.9
			c-0.8-0.8-1.6-1.6-2.4-2.4c-0.4-0.3-0.7-0.8-0.7-1.3c0-0.3,0.2-0.6,0.1-0.9c-0.2-0.7-1.4-0.9-1.8-1.5c-0.5-0.7-0.6-2.1-0.7-3
			c-0.1-0.6-0.2-1.3-0.2-1.9c0-0.3,0.1-0.6,0-0.9c-0.1-0.4-0.7-0.6-1.1-0.6c-1.1-0.1-2.2-0.1-3.2-0.2c0.7-1.4,1.4-3.3,0.4-4.5
			c-0.9-1.2-2.6-1-4-0.6c-0.5-0.4-0.1-1.4-0.5-1.9c-0.5-0.5-1.4,0-1.8-0.5c-0.2-0.2-0.2-0.5-0.2-0.8c-0.1-0.8-0.1-1.5-0.2-2.3
			c0-0.2,0-0.5-0.2-0.6c-0.1-0.1-0.3-0.2-0.5-0.2c-4.3-0.7-0.7-1.8-2.5-4.4c-0.3-0.4-0.8-0.6-1.2-1c-0.4-0.3-0.7-0.9-0.5-1.4
			c-2.2-0.6-4.9,0.4-6.6-1.2c-0.3-0.3-0.5-0.6-0.8-0.8c-0.7-0.4-1.7,0.3-1.7,1.1c-0.2-0.6-0.8-0.8-1.3-0.9c-0.5-0.1-1.1-0.1-1.6-0.4
			c-0.5-0.3-0.7-1.1-0.2-1.5c-2-0.7-3.9,1.4-6,1.6c-0.3,0-0.6,0-0.8-0.2c-0.2-0.2-0.3-0.4-0.3-0.6c-0.4-1.2-0.4-5.4-1.9-5.8
			c-0.3-0.1-0.6,0-0.9,0c-0.8,0-1.5-0.6-2.3-0.8c-1.7-0.4-3.5,1.3-5.2,0.8c-0.8-0.3-1.5-1-2.3-1.3c-0.8-0.3-2,0.4-1.7,1.3
			c-0.7-0.5-1.8-0.1-2.2,0.7c-0.1,0.3-0.2,0.7-0.3,1c-0.3,0.9-1.2,1.5-2.1,1.5c-0.9,0-1.8-0.7-2-1.6c-0.2-0.8-0.3-1.9-1.1-1.9
			c-0.3,0-0.6,0.2-0.8,0.4c-2.1,1.3-5.8-1.3-7.7,0.2c-0.3,0.2-0.2,0.7-0.3,1.1c-0.3,0.9-1.4,1.1-2.3,1.1c-0.5,0-1.1,0-1.6,0l0.4-0.2
			c-0.6-0.1-1.3-0.3-1.9-0.4c-0.4-0.1-0.8-0.2-1.1-0.5c-0.3-0.3-0.4-0.9-0.1-1.2c-0.9-0.3-2.1-0.3-2.3,0.6c-0.1,0.4,0,0.8,0,1.1
			c-0.1,0.7-0.8,1.4-0.6,2.1c0.1,0.3,0.3,0.6,0.5,0.8l-1.7,0.8c-0.4,0.1-0.8,0.2-1.2,0.4c-0.4-0.9-0.8-1.7-1.4-2.4
			c-0.3-0.4-0.8-0.8-1.3-0.7c-0.9,0.3-0.5,1.8-1.1,2.6c-0.4,0-0.7-0.5-0.7-0.9c-0.7-0.5-1.8,0.1-2.1,0.9c-0.3,0.8-0.2,1.8,0,2.7
			c-0.8,0-1.6,0.1-2.4,0.1c-0.1,0.3-0.1,0.6,0,1c-0.8,0-1.6-0.1-2.3-0.1c0,0,0,0.1,0,0.1c-1.1,0.1-2.1,0.5-2.9,1.2
			c-0.3,0.1-0.6,0.2-0.9,0.3c-3,1.8,0.5,3.1,1.3,4.2c0.5,0.6-0.4,1.7-1.1,1.3c0.1,0.5,0.2,1,0.1,1.5c-0.2,0.5-0.7,0.8-1.1,0.5
			c-0.1-0.1-0.2-0.3-0.3-0.4c-0.7-1.1-2.3-1.3-3.3-0.4c-0.6,0.6-0.9,1.5-0.7,2.4c-0.3-0.2-0.6-0.3-1-0.3c-0.8,0.1-1.4,0.8-1.8,1.5
			c-0.1,0.2-0.3,0.5-0.3,0.8c-0.1,1.1,1.2,1.7,1.9,2.5c0.6,0.6,0.8,1.5,0.7,2.3c-0.5,0.1-1,0.4-1.4,0.6c-0.3,0-0.6,0-1,0.1
			c-0.7,0.2-1.3,0.9-1.2,1.7c-0.2-0.8-1.3-1.2-1.9-0.8c-0.7,0.5-0.7,1.7,0,2.2c0.2,0.2,0.5,0.3,0.7,0.4c0.3,0.2,0.5,0.7,0.8,1.2
			c0,0.6,0.2,1.1,0.5,1.6c-0.1,0.1-0.3,0.1-0.4,0.2c-1.3-0.6-2.9,0.2-4,1.3c-0.2,0.2-0.4,0.4-0.4,0.6c-0.1,0.4,0.1,0.8,0.4,1.1
			c0.9,1.1,2.1,1.8,3.4,2.1c0,0,0.1,0,0.1,0.1c-0.3,0.3-0.5,0.7-0.5,1.2c-0.8,0.3-1.4,1.2-1.4,2.1c-1-0.2-2.2-0.3-3.1,0.3
			c-0.9,0.6-0.9,2.4,0.1,2.7c0.4,0.1,0.8,0,1.1,0.2c0.5,0.3,0.5,1.1,0.4,1.8c-0.1,0.6,0,1.5,0.6,1.7c0,0,0,0,0,0
			c0.5,2.1,2.1,3.9,3.9,3.7c-0.4,0.3-1.2,0.1-1.7,0.4c-1,0.8,0.6,2.9-0.4,3.6c-0.6,0.4-1.5-0.1-2.1,0.3c-0.4,0.3-0.4,0.9-0.2,1.4
			c0.2,0.5,0.4,0.9,0.5,1.5c0,0.3,0,0.7-0.1,1c-0.1,0.9-0.3,1.8-0.4,2.6c-0.5,0.2-1.1,0.5-1.2,1.1c-0.2,0.7,0.2,1.5,0.8,1.9
			c0.5,0.3,1,0.6,1.4,0.9c-0.1,0.8-0.1,1.7-0.2,2.5c-0.5,0.1-1.2,0-1.6,0.4c-0.6,0.6-0.2,1.7,0.6,2.1c0.7,0.3,1.6,0.1,2.4,0
			c2.8-0.5,3-0.2,3,2.7l-0.1-0.1c-0.1,1.3,0.1,2.6,0.5,3.9c1.7-1,3.9-0.9,5.6,0.2c0.9,0.6,1.8,1.5,2.8,1.7c0.2,0,0.4,0.1,0.7,0.2
			c0.1,0.1,0.3,0.2,0.4,0.4c0,0.1,0,0.1,0,0.2c0,0.5-0.6,0.6-1,0.6c-0.1,0.9,0.6,1.6,1.2,2.3c0.6,0.6,1.3,1.5,0.9,2.4
			c0.9-0.2,1.8-0.5,2.7-0.3c0.3,0,0.5,0.2,0.8,0.3c0.2,0.2,0.3,0.3,0.5,0.5c0.3,0.3,0.5,0.7,0.6,1.2c-1.1,0.2-1.8,1.6-1.4,2.7
			c0.9-0.3,2.1-0.5,2.7,0.4c0.1,0.2,0.2,0.4,0.4,0.6c0.2,0.2,0.5,0.3,0.8,0.4c1.2,0.3,2.2,1,3.1,1.9c-0.7,0.6-0.2,2,0.7,2.1
			c0.9,0.1,1.7-0.8,1.8-1.7c0.1-0.6-0.1-1.4,0.3-1.9c0.4-0.6,1.1-0.6,1.8-0.6c0.9,0,1.8,0,2.8,0c0.1,0,0.3,0,0.4,0.1
			c0.1,0.1,0.1,0.4,0.1,0.6c0,0.6,0.6,1,1.2,0.9c0.5-0.1,1-0.4,1.4-0.8c-0.3-0.4-0.5-0.9-0.6-1.4c0-0.8,0.1-1.6,0.2-2.4
			c0,0,0-0.1,0-0.1c1.8,1.2,3,3,5.3,3c1.6,1.5,2.6,2.3,2.6,2.3v125.7c-0.5-0.1-1-0.6-1.1-1.1c-0.2-0.6-0.2-1.4-0.8-1.4
			c-0.2,0-0.4,0.1-0.6,0.3c-1.5,0.9-4.2-1-5.6,0.2c-0.2,0.2-0.2,0.5-0.3,0.8c-0.2,0.7-1,0.8-1.7,0.8c-0.4,0-0.8,0-1.2,0l0.3-0.1
			c-0.5-0.1-0.9-0.2-1.4-0.3c-0.3-0.1-0.6-0.1-0.8-0.4c-0.2-0.2-0.3-0.6-0.1-0.8c-0.6-0.2-1.5-0.2-1.7,0.4c-0.1,0.3,0,0.5,0,0.8
			c-0.1,0.5-0.6,1-0.4,1.5c0.1,0.2,0.2,0.4,0.4,0.6l-1.3,0.6c-0.3,0.1-0.6,0.2-0.9,0.3c-0.3-0.6-0.6-1.2-1-1.7
			c-0.2-0.3-0.6-0.6-0.9-0.5c-0.6,0.2-0.4,1.3-0.8,1.9c-0.3,0-0.5-0.4-0.5-0.7c-0.2-0.2-0.5-0.2-0.7-0.1c-0.1-0.2-0.3-0.4-0.4-0.5
			c-0.6-0.6-1.2-1.2-1.8-1.7c-0.3-0.3-0.5-0.6-0.5-0.9c0-0.2,0.1-0.5,0.1-0.7c-0.1-0.5-1-0.7-1.3-1.1c-0.3-0.5-0.4-1.6-0.5-2.2
			c-0.1-0.5-0.1-0.9-0.1-1.4c0-0.2,0.1-0.4,0-0.6c-0.1-0.3-0.5-0.4-0.8-0.4c-0.8-0.1-1.6-0.1-2.3-0.1c0.5-1,1-2.4,0.3-3.3
			c-0.7-0.9-1.9-0.7-2.9-0.4c-0.4-0.3-0.1-1-0.4-1.4c-0.3-0.4-1,0-1.3-0.4c-0.1-0.2-0.2-0.4-0.2-0.6c0-0.5-0.1-1.1-0.1-1.6
			c0-0.2,0-0.4-0.1-0.5c-0.1-0.1-0.2-0.1-0.4-0.1c-3.1-0.5-0.5-1.3-1.8-3.2c-0.2-0.3-0.6-0.5-0.9-0.7c-0.3-0.2-0.5-0.7-0.3-1
			c-1.6-0.4-3.6,0.3-4.8-0.9c-0.2-0.2-0.4-0.4-0.6-0.6c-0.5-0.3-1.2,0.2-1.2,0.8c-0.1-0.4-0.6-0.6-1-0.7c-0.4-0.1-0.8-0.1-1.1-0.3
			c-0.3-0.2-0.5-0.8-0.2-1.1c-1.4-0.5-2.8,1-4.3,1.2c-0.2,0-0.4,0-0.6-0.1c-0.1-0.1-0.2-0.3-0.3-0.5c-0.3-0.9-0.3-3.9-1.3-4.2
			c-0.2-0.1-0.4,0-0.7,0c-0.6,0-1.1-0.4-1.6-0.6c-1.3-0.3-2.5,0.9-3.8,0.6c-0.6-0.2-1.1-0.7-1.6-0.9c-0.6-0.2-1.5,0.3-1.2,0.9
			c-0.5-0.3-1.3-0.1-1.6,0.5c-0.1,0.2-0.1,0.5-0.2,0.7c-0.2,0.6-0.9,1.1-1.5,1.1c-0.7,0-1.3-0.5-1.5-1.2c-0.2-0.6-0.2-1.4-0.8-1.4
			c-0.2,0-0.4,0.1-0.6,0.3c-1.5,0.9-4.2-1-5.6,0.2c-0.2,0.2-0.2,0.5-0.3,0.8c-0.2,0.7-1,0.8-1.7,0.8c-0.4,0-0.8,0-1.2,0l0.3-0.1
			c-0.5-0.1-0.9-0.2-1.4-0.3c-0.3-0.1-0.6-0.1-0.8-0.4c-0.2-0.2-0.3-0.6-0.1-0.8c-0.6-0.2-1.5-0.2-1.7,0.4c-0.1,0.3,0,0.5,0,0.8
			c-0.1,0.5-0.6,1-0.4,1.5c0.1,0.2,0.2,0.4,0.4,0.6l-1.3,0.6c-0.3,0.1-0.6,0.2-0.9,0.3c-0.3-0.6-0.6-1.2-1-1.7
			c-0.2-0.3-0.6-0.6-0.9-0.5c-0.6,0.2-0.4,1.3-0.8,1.9c-0.3,0-0.5-0.4-0.5-0.7c-0.5-0.4-1.3,0.1-1.5,0.7c-0.2,0.6-0.1,1.3,0,2
			c-0.6,0-1.2,0.1-1.7,0.1c-0.1,0.2-0.1,0.5,0,0.7c-0.6,0-1.1-0.1-1.7-0.1c0,0,0,0.1,0,0.1c-0.8,0-1.5,0.4-2.1,0.9
			c-0.2,0-0.5,0.1-0.7,0.2c-2.2,1.3,0.3,2.2,0.9,3c0.3,0.5-0.3,1.2-0.8,1c0.1,0.4,0.2,0.7,0,1.1c-0.1,0.3-0.5,0.6-0.8,0.4
			c-0.1-0.1-0.2-0.2-0.2-0.3c-0.5-0.8-1.7-0.9-2.4-0.3c-0.5,0.4-0.6,1.1-0.5,1.7c-0.2-0.2-0.5-0.2-0.7-0.2c-0.6,0.1-1,0.6-1.3,1.1
			c-0.1,0.2-0.2,0.4-0.2,0.6c-0.1,0.8,0.8,1.2,1.4,1.8c0.3,0.4,0.5,0.8,0.5,1.3c-0.6,0-1.2,0.1-1.7,0.3c-0.5-0.4-0.1-1.4-0.5-1.9
			c-0.5-0.5-1.4,0-1.8-0.5c-0.2-0.2-0.2-0.5-0.2-0.8c-0.1-0.8-0.1-1.5-0.2-2.3c0-0.2,0-0.5-0.2-0.6c-0.1-0.1-0.3-0.2-0.5-0.2
			c-4.3-0.7-0.7-1.8-2.5-4.4c-0.3-0.4-0.8-0.6-1.2-1c-0.4-0.3-0.7-0.9-0.5-1.4c-2.2-0.6-4.9,0.4-6.6-1.2c-0.3-0.3-0.5-0.6-0.8-0.8
			c-0.7-0.4-1.7,0.3-1.7,1.1c-0.2-0.6-0.8-0.8-1.3-0.9c-0.2,0-0.3-0.1-0.5-0.1v-143.9c3.3-1.3,6.3-3.6,8.9-6.3
			c1.4-0.1,2.8,0.1,4.1,0.3c-0.3,1,0.7,1.9,1.7,1.9c0.1,0,0.2,0,0.3-0.1c0.1-0.1,0.2-0.3,0.2-0.5c0.1-0.6-0.1-1.1-0.1-1.7
			c0.1-0.6,0.6-1.2,1.1-0.9c0.2,0.1,0.3,0.3,0.5,0.5c1.9,1.9,2-2.4,3.7-2.8c1.8-0.4,2.9,2.1,4.6,1.8c1.4-0.2,1.9-2,3.8-1.8
			c0.4,0,0.8,0.1,1-0.2c0.1-0.2,0.1-0.4,0.2-0.6c0.1-1.3,0.2-2.7,1.1-3.7c0.4-0.4,1.1-0.6,1.5-0.2c-0.5-0.9,0.5-2.2,1.5-2.1
			c0.4,0,1,0,1-0.4c0.7,0.2,1.4,0.2,2.1,0.2c0.2,0,0.4,0,0.5-0.2c0.4-0.5,0-1.6,0.4-2.1c0.3-0.4,0.9-0.5,1.1-0.7
			c0.6-0.7,1.4,0.4,1.1-1.4c-0.2-1-1.3-1.9-2.2-2c-0.3-2.5-0.9-3.5,1.4-4.5c1.3-0.6,3.3-0.5,4.3-1.8c0.5-0.7,0.3-2-0.4-2.3
			c0-0.9,0.9-1.6,1.2-2.5c0.4-0.9,0.2-1.9-0.3-2.7c-0.2-0.3-0.4-0.6-0.4-0.9c-0.1-0.4,0.2-0.8,0.3-1.2c0.2-0.4,0.2-0.9-0.1-1.2
			c-0.1-0.1-0.3-0.1-0.4-0.3c-0.1-0.2,0-0.5,0.2-0.8c0.5-0.9,0.1-2.3-0.8-2.6c-0.5-0.2-1.1-0.2-1.4-0.5c-1.7-1.7,3-4.5,2-6.5
			c-0.1-0.3-0.4-0.5-0.6-0.7c-0.7-0.7-1.4-1.3-2-2c-0.3-0.3-0.6-0.6-0.6-1.1c0-0.3,0.1-0.5,0.1-0.8c-0.2-0.6-1.2-0.8-1.5-1.3
			c-0.4-0.6-0.5-1.8-0.6-2.5c-0.1-0.5-0.1-1.1-0.1-1.6c0-0.2,0.1-0.5,0-0.7c-0.1-0.4-0.5-0.5-0.9-0.5c-0.9-0.1-1.8-0.1-2.7-0.1
			c0.6-1.2,1.1-2.7,0.3-3.8c-0.8-1-2.2-0.8-3.4-0.5c-0.4-0.4-0.1-1.2-0.5-1.6c-0.4-0.4-1.2,0-1.5-0.4c-0.2-0.2-0.2-0.4-0.2-0.7
			c0-0.6-0.1-1.3-0.1-1.9c0-0.2,0-0.4-0.2-0.5c-0.1-0.1-0.3-0.1-0.4-0.2c-3.6-0.6-0.6-1.5-2.1-3.7c-0.3-0.4-0.7-0.5-1-0.8
			c-0.3-0.3-0.6-0.8-0.4-1.2c-1.9-0.5-4.1,0.3-5.5-1c-0.2-0.2-0.4-0.5-0.7-0.7c-0.6-0.3-1.4,0.2-1.4,1c-0.1-0.5-0.6-0.7-1.1-0.8
			c-0.5-0.1-0.9-0.1-1.3-0.4c-0.4-0.3-0.6-0.9-0.2-1.2c-1.7-0.6-3.3,1.2-5,1.4c-0.2,0-0.5,0-0.6-0.1c-0.2-0.1-0.2-0.3-0.3-0.5
			c-0.3-1-0.3-4.5-1.6-4.8c-0.2-0.1-0.5,0-0.8,0c-0.7,0-1.2-0.5-1.9-0.7c-1.5-0.4-2.9,1.1-4.4,0.7c-0.7-0.2-1.2-0.8-1.9-1.1
			c-0.7-0.2-1.7,0.3-1.4,1.1c-0.6-0.4-1.5-0.1-1.8,0.6c-0.1,0.3-0.2,0.6-0.3,0.8c-0.3,0.8-1,1.3-1.8,1.3c-0.8,0-1.5-0.6-1.7-1.4
			c-0.2-0.6-0.3-1.6-0.9-1.6c-0.3,0-0.5,0.2-0.7,0.3c-1.8,1.1-4.9-1.1-6.5,0.2c-0.2,0.2-0.2,0.6-0.3,0.9c-0.2,0.8-1.2,0.9-1.9,0.9
			c-0.4,0-0.9,0-1.3,0l0.3-0.1c-0.5-0.1-1.1-0.2-1.6-0.4c-0.3-0.1-0.7-0.2-0.9-0.4c-0.2-0.3-0.3-0.7-0.1-1c-0.7-0.2-1.8-0.3-2,0.5
			c-0.1,0.3,0,0.6,0,1c-0.1,0.6-0.7,1.2-0.5,1.8c0.1,0.3,0.3,0.5,0.5,0.7l-1.5,0.7c-0.3,0.1-0.7,0.2-1,0.4c-0.3-0.7-0.7-1.4-1.2-2
			c-0.3-0.3-0.7-0.7-1.1-0.6c-0.7,0.2-0.4,1.5-0.9,2.2c-0.3,0-0.6-0.4-0.6-0.8c-0.6-0.4-1.5,0.1-1.7,0.8c-0.3,0.7-0.1,1.5,0,2.3
			c-0.7,0-1.3,0.1-2,0.1c-0.1,0.2-0.1,0.5,0,0.8c-0.7,0-1.3-0.1-2-0.1c0,0,0,0.1,0,0.1c-0.9,0-1.8,0.4-2.4,1
			c-0.3,0.1-0.5,0.1-0.8,0.3c-2.5,1.5,0.4,2.6,1.1,3.5c0.4,0.5-0.3,1.5-0.9,1.1c0.1,0.4,0.2,0.9,0.1,1.3c-0.1,0.4-0.6,0.7-1,0.4
			c-0.1-0.1-0.2-0.2-0.3-0.4c-0.6-0.9-1.9-1.1-2.7-0.4c-0.5,0.5-0.7,1.3-0.6,2c-0.2-0.2-0.5-0.3-0.8-0.2c-0.6,0.1-1.1,0.6-1.5,1.2
			c-0.1,0.2-0.2,0.4-0.2,0.7c-0.1,0.9,1,1.4,1.6,2.1c0.5,0.5,0.7,1.3,0.6,2c-0.4,0.1-0.8,0.3-1.2,0.5c-0.3,0-0.5,0-0.8,0.1
			c-0.6,0.2-1.1,0.8-1,1.4c-0.2-0.7-1.1-1-1.6-0.6c-0.5,0.4-0.6,1.4,0,1.8c0.2,0.1,0.4,0.2,0.6,0.4c0.2,0.2,0.4,0.6,0.6,1
			c0,0.5,0.2,0.9,0.4,1.4c-0.1,0.1-0.2,0.1-0.3,0.2c-1.1-0.5-2.4,0.2-3.4,1.1c-0.2,0.1-0.3,0.3-0.4,0.5c-0.1,0.3,0.1,0.6,0.3,0.9
			c0.7,0.9,1.8,1.5,2.9,1.8c0,0,0,0,0.1,0c-0.3,0.3-0.4,0.6-0.5,1c-0.7,0.3-1.2,1-1.2,1.8c-0.9-0.1-1.8-0.3-2.6,0.3
			c-0.7,0.5-0.8,2,0.1,2.2c0.3,0.1,0.6,0,0.9,0.2c0.4,0.3,0.4,1,0.3,1.5c-0.1,0.5,0,1.3,0.5,1.4c0,0,0,0,0,0
			c0.4,1.7,1.7,3.3,3.3,3.1c-0.4,0.3-1,0.1-1.4,0.4c-0.8,0.6,0.5,2.4-0.3,3.1c-0.5,0.4-1.2-0.1-1.7,0.3c-0.3,0.3-0.3,0.8-0.2,1.2
			c0.1,0.4,0.4,0.8,0.4,1.2c0,0.3,0,0.6,0,0.9c-0.1,0.7-0.2,1.5-0.3,2.2c-0.4,0.2-0.9,0.4-1,0.9c-0.2,0.6,0.2,1.2,0.7,1.6
			c0.4,0.3,0.8,0.5,1.2,0.8c0,0.7-0.1,1.4-0.1,2.1c-0.5,0.1-1,0-1.3,0.3c-0.5,0.5-0.1,1.4,0.5,1.7c0.6,0.3,1.3,0.1,2,0
			c2.3-0.4,2.6-0.1,2.6,2.3l-0.1-0.1c-0.1,1.1,0.1,2.2,0.4,3.3c1.5-0.8,3.3-0.7,4.7,0.2c0.8,0.5,1.5,1.3,2.4,1.4
			c0.2,0,0.4,0.1,0.5,0.1c0.1,0.1,0.2,0.2,0.4,0.3c0,0,0,0.1,0,0.1c0,0.4-0.5,0.5-0.9,0.5c-0.1,0.8,0.5,1.4,1,1.9
			c0.5,0.5,1.1,1.3,0.8,2c0.8-0.2,1.5-0.4,2.3-0.3c0.2,0,0.5,0.1,0.6,0.3c0.1,0.1,0.3,0.3,0.4,0.4c0.2,0.3,0.4,0.6,0.5,1
			c-0.9,0.2-1.5,1.3-1.2,2.2c0.8-0.2,1.8-0.4,2.3,0.3c0.1,0.2,0.2,0.4,0.3,0.5c0.2,0.2,0.5,0.3,0.7,0.3c1,0.3,1.9,0.9,2.6,1.6
			c-0.6,0.5-0.1,1.7,0.6,1.8c0.7,0.1,1.4-0.6,1.5-1.4c0.1-0.5-0.1-1.2,0.2-1.6c0.3-0.5,1-0.5,1.5-0.5c0.8,0,1.5,0,2.3,0
			c0.1,0,0.3,0,0.3,0.1c0.1,0.1,0,0.3,0,0.5c0,0.5,0.5,0.8,1,0.8c0.5,0,0.8-0.4,1.2-0.7c-0.2-0.3-0.4-0.8-0.5-1.2
			c0-0.7,0.1-1.3,0.2-2c0,0,0,0,0-0.1c1.5,1,2.5,2.5,4.4,2.5c1.3,1.2,2.1,1.9,2.1,1.9v141.7c-1.6-0.2-3.3,1.3-4.9,0.8
			c-0.8-0.3-1.5-1-2.3-1.3c-0.8-0.3-2,0.4-1.7,1.3c-0.7-0.5-1.8-0.1-2.2,0.7c-0.1,0.3-0.2,0.7-0.3,1c-0.3,0.9-1.2,1.5-2.1,1.5
			c-0.9,0-1.8-0.7-2-1.6c-0.2-0.8-0.3-1.9-1.1-1.9c-0.3,0-0.6,0.2-0.8,0.4c-2.1,1.3-5.8-1.3-7.7,0.2c-0.3,0.2-0.2,0.7-0.3,1.1
			c-0.3,0.9-1.4,1.1-2.3,1.1c-0.5,0-1.1,0-1.6,0l0.4-0.2c-0.6-0.1-1.3-0.3-1.9-0.4c-0.4-0.1-0.8-0.2-1.1-0.5s-0.4-0.9-0.1-1.2
			c-0.9-0.3-2.1-0.3-2.3,0.6c-0.1,0.4,0,0.8,0,1.1c-0.1,0.7-0.8,1.4-0.6,2.1c0.1,0.3,0.3,0.6,0.5,0.8l-1.7,0.8
			c-0.4,0.1-0.8,0.2-1.2,0.4c-0.4-0.9-0.8-1.7-1.4-2.4c-0.3-0.4-0.8-0.8-1.3-0.7c-0.9,0.3-0.5,1.8-1.1,2.6c-0.4,0-0.7-0.5-0.7-0.9
			c-0.7-0.5-1.8,0.1-2.1,0.9c-0.3,0.8-0.2,1.8,0,2.7c-0.8,0-1.6,0.1-2.4,0.1c-0.1,0.3-0.1,0.6,0,1c-0.8,0-1.6-0.1-2.3-0.1
			c0,0,0,0.1,0,0.1c-1.1,0.1-2.1,0.5-2.9,1.2c-0.3,0.1-0.6,0.2-0.9,0.3c-3,1.8,0.5,3.1,1.3,4.2c0.5,0.6-0.4,1.7-1.1,1.3
			c0.1,0.5,0.2,1,0.1,1.5c-0.2,0.5-0.7,0.8-1.1,0.5c-0.1-0.1-0.2-0.3-0.3-0.4c-0.7-1.1-2.3-1.3-3.3-0.4c-0.6,0.6-0.9,1.5-0.7,2.4
			c-0.3-0.2-0.6-0.3-1-0.3c-0.8,0.1-1.4,0.8-1.8,1.5c-0.1,0.1-0.1,0.2-0.2,0.3v-72.2c3.3-1.3,6.3-3.6,8.9-6.3
			c1.4-0.1,2.8,0.1,4.1,0.3c-0.3,1,0.7,1.9,1.7,1.9c0.1,0,0.2,0,0.3-0.1c0.1-0.1,0.2-0.3,0.2-0.5c0.1-0.6-0.1-1.1-0.1-1.7
			c0.1-0.6,0.6-1.2,1.1-0.9c0.2,0.1,0.3,0.3,0.5,0.5c1.9,1.9,2-2.4,3.7-2.8c1.8-0.4,2.9,2.1,4.6,1.8c1.4-0.2,1.9-2,3.8-1.8
			c0.4,0,0.8,0.1,1-0.2c0.1-0.2,0.1-0.4,0.2-0.6c0.1-1.3,0.2-2.7,1.1-3.7c0.4-0.4,1.1-0.6,1.5-0.2c-0.5-0.9,0.5-2.2,1.5-2.1
			c0.4,0,1,0,1-0.4c0.7,0.1,1.4,0.2,2.1,0.2c0.2,0,0.4,0,0.5-0.2c0.4-0.5,0-1.6,0.4-2.1c0.3-0.4,0.9-0.5,1.1-0.7
			c0.6-0.7,1.4,0.4,1.1-1.4c-0.2-1-1.3-1.9-2.2-2c-0.3-2.5-0.9-3.5,1.4-4.5c1.3-0.6,3.3-0.5,4.3-1.8c0.5-0.7,0.3-2-0.4-2.3
			c0-0.9,0.9-1.6,1.2-2.5c0.4-0.9,0.2-1.9-0.3-2.7c-0.2-0.3-0.4-0.6-0.4-0.9c-0.1-0.4,0.2-0.8,0.3-1.2c0.2-0.4,0.2-0.9-0.1-1.2
			c-0.1-0.1-0.3-0.1-0.4-0.3c-0.1-0.2,0-0.5,0.2-0.8c0.5-0.9,0.1-2.3-0.8-2.6c-0.5-0.2-1.1-0.2-1.4-0.5c-1.7-1.7,3-4.5,2-6.5
			c-0.1-0.3-0.4-0.5-0.6-0.7c-0.7-0.7-1.4-1.3-2-2c-0.3-0.3-0.6-0.6-0.6-1.1c0-0.3,0.1-0.5,0.1-0.8c-0.2-0.6-1.2-0.8-1.5-1.3
			c-0.4-0.6-0.5-1.8-0.6-2.5c-0.1-0.5-0.1-1.1-0.1-1.6c0-0.2,0.1-0.5,0-0.7c-0.1-0.4-0.5-0.5-0.9-0.5c-0.9-0.1-1.8-0.1-2.7-0.1
			c0.6-1.2,1.1-2.7,0.3-3.8c-0.8-1-2.2-0.8-3.4-0.5c-0.4-0.4-0.1-1.2-0.5-1.6c-0.4-0.4-1.2,0-1.5-0.4c-0.2-0.2-0.2-0.4-0.2-0.7
			c0-0.6-0.1-1.3-0.1-1.9c0-0.2,0-0.4-0.2-0.5c-0.1-0.1-0.3-0.1-0.4-0.2c-3.6-0.6-0.6-1.5-2.1-3.7c-0.3-0.4-0.7-0.5-1-0.8
			c-0.3-0.3-0.6-0.8-0.4-1.2c-1.9-0.5-4.1,0.3-5.5-1c-0.2-0.2-0.4-0.5-0.7-0.7c-0.6-0.3-1.4,0.2-1.4,1c-0.1-0.5-0.6-0.7-1.1-0.8
			c-0.5-0.1-0.9-0.1-1.3-0.4c-0.4-0.3-0.6-0.9-0.2-1.2c-1.7-0.6-3.3,1.2-5,1.4c-0.2,0-0.5,0-0.6-0.1c-0.2-0.1-0.2-0.3-0.3-0.5
			c-0.3-1-0.3-4.5-1.6-4.8c-0.2-0.1-0.5,0-0.8,0c-0.7,0-1.2-0.5-1.9-0.7c-1.5-0.4-2.9,1.1-4.4,0.7c-0.7-0.2-1.2-0.8-1.9-1.1
			c-0.7-0.2-1.7,0.3-1.4,1.1c-0.6-0.4-1.5-0.1-1.8,0.6c-0.1,0.3-0.2,0.6-0.3,0.8c-0.3,0.8-1,1.3-1.8,1.3c-0.8,0-1.5-0.6-1.7-1.4
			c-0.2-0.6-0.3-1.6-0.9-1.6c-0.3,0-0.5,0.2-0.7,0.3c-1.8,1.1-4.9-1.1-6.5,0.2c-0.2,0.2-0.2,0.6-0.3,0.9c-0.2,0.8-1.2,0.9-1.9,0.9
			c-0.4,0-0.9,0-1.3,0l0.3-0.1c-0.5-0.1-1.1-0.2-1.6-0.4c-0.3-0.1-0.7-0.2-0.9-0.4c-0.2-0.3-0.3-0.7-0.1-1c-0.7-0.2-1.8-0.3-2,0.5
			c-0.1,0.3,0,0.6,0,1c-0.1,0.6-0.7,1.2-0.5,1.8c0.1,0.3,0.3,0.5,0.5,0.7l-1.5,0.7c-0.3,0.1-0.7,0.2-1,0.4c-0.3-0.7-0.7-1.4-1.2-2
			c-0.3-0.3-0.7-0.7-1.1-0.6c-0.7,0.2-0.4,1.5-0.9,2.2c-0.3,0-0.6-0.4-0.6-0.8c-0.6-0.4-1.5,0.1-1.7,0.8c-0.3,0.7-0.1,1.5,0,2.3
			c-0.7,0-1.3,0.1-2,0.1c-0.1,0.2-0.1,0.5,0,0.8c-0.7,0-1.3-0.1-2-0.1c0,0,0,0.1,0,0.1c-0.9,0-1.8,0.4-2.4,1
			c-0.3,0.1-0.5,0.1-0.8,0.3c-2.5,1.5,0.4,2.6,1.1,3.5c0.4,0.5-0.3,1.4-0.9,1.1c0.1,0.4,0.2,0.9,0.1,1.3c-0.1,0.4-0.6,0.7-1,0.4
			c-0.1-0.1-0.2-0.2-0.3-0.4c-0.6-0.9-1.9-1.1-2.7-0.4c-0.5,0.5-0.7,1.3-0.6,2c-0.2-0.2-0.5-0.3-0.8-0.2c-0.6,0.1-1.1,0.6-1.5,1.2
			c-0.1,0.2-0.2,0.4-0.2,0.7c-0.1,0.9,1,1.4,1.6,2.1c0.5,0.5,0.7,1.3,0.6,2c-0.4,0.1-0.8,0.3-1.2,0.5c-0.3,0-0.5,0-0.8,0.1
			c-0.6,0.2-1.1,0.8-1,1.4c-0.2-0.7-1.1-1-1.6-0.6c-0.5,0.4-0.6,1.4,0,1.8c0.2,0.1,0.4,0.2,0.6,0.4c0.2,0.2,0.4,0.6,0.6,1
			c0,0.5,0.2,0.9,0.4,1.4c-0.1,0.1-0.2,0.1-0.3,0.2c-1.1-0.5-2.4,0.2-3.4,1.1c-0.2,0.1-0.3,0.3-0.4,0.5c-0.1,0.3,0.1,0.6,0.3,0.9
			c0.7,0.9,1.8,1.5,2.9,1.8c0,0,0,0,0.1,0c-0.3,0.3-0.4,0.6-0.5,1c-0.7,0.3-1.2,1-1.2,1.8c-0.9-0.1-1.8-0.3-2.6,0.3
			c-0.7,0.5-0.8,2,0.1,2.2c0.3,0.1,0.6,0,0.9,0.2c0.4,0.3,0.4,1,0.3,1.5c-0.1,0.5,0,1.3,0.5,1.4c0,0,0,0,0,0
			c0.4,1.7,1.7,3.3,3.3,3.1c-0.4,0.3-1,0.1-1.4,0.4c-0.8,0.6,0.5,2.4-0.3,3.1c-0.5,0.4-1.2-0.1-1.7,0.3c-0.3,0.3-0.3,0.8-0.2,1.2
			c0.1,0.4,0.4,0.8,0.4,1.2c0,0.3,0,0.6,0,0.9c-0.1,0.7-0.2,1.5-0.3,2.2c-0.4,0.2-0.9,0.4-1,0.9c-0.2,0.6,0.2,1.2,0.7,1.6
			c0.4,0.3,0.8,0.5,1.2,0.8c0,0.7-0.1,1.4-0.1,2.1c-0.5,0.1-1,0-1.3,0.3c-0.5,0.5-0.1,1.4,0.5,1.7c0.6,0.3,1.3,0.1,2,0
			c2.3-0.4,2.6-0.1,2.6,2.3l-0.1-0.1c-0.1,1.1,0.1,2.2,0.4,3.3c1.5-0.8,3.3-0.7,4.7,0.2c0.8,0.5,1.5,1.3,2.4,1.4
			c0.2,0,0.4,0.1,0.5,0.1c0.1,0.1,0.2,0.2,0.4,0.3c0,0,0,0.1,0,0.1c0,0.4-0.5,0.5-0.9,0.5c-0.1,0.8,0.5,1.4,1,1.9
			c0.5,0.5,1.1,1.3,0.8,2c0.8-0.2,1.5-0.4,2.3-0.3c0.2,0,0.5,0.1,0.6,0.3c0.1,0.1,0.3,0.3,0.4,0.4c0.2,0.3,0.4,0.6,0.5,1
			c-0.9,0.2-1.5,1.3-1.2,2.2c0.8-0.2,1.8-0.4,2.3,0.3c0.1,0.2,0.2,0.4,0.3,0.5c0.2,0.2,0.5,0.3,0.7,0.3c1,0.3,1.9,0.9,2.6,1.6
			c-0.6,0.5-0.1,1.7,0.6,1.8c0.7,0.1,1.4-0.6,1.5-1.4c0.1-0.5-0.1-1.2,0.2-1.6c0.3-0.5,1-0.5,1.5-0.5c0.8,0,1.5,0,2.3,0
			c0.1,0,0.3,0,0.3,0.1c0.1,0.1,0,0.3,0,0.5c0,0.5,0.5,0.8,1,0.8c0.5,0,0.8-0.4,1.2-0.7c-0.2-0.3-0.4-0.8-0.5-1.2
			c0-0.7,0.1-1.3,0.2-2c0,0,0,0,0-0.1c1.5,1,2.5,2.5,4.4,2.5c1.3,1.2,2.1,1.9,2.1,1.9v78.2c-0.5,0-0.9,0.1-1.2,0.4
			c-0.2,0.2-0.2,0.5-0.3,0.8c-0.2,0.7-1,0.8-1.7,0.8c-0.1,0-0.3,0-0.4,0c0-0.1-0.1-0.2-0.2-0.3c-0.1-0.1-0.2-0.1-0.3-0.2
			c-0.1-0.2,0-0.4,0.2-0.6c0.4-0.8,0.1-1.9-0.7-2.3c-0.4-0.2-0.9-0.1-1.2-0.5c-1.4-1.5,2.6-3.9,1.8-5.6c-0.1-0.3-0.3-0.4-0.5-0.6
			c-0.6-0.6-1.2-1.2-1.8-1.7c-0.3-0.3-0.5-0.6-0.5-0.9c0-0.2,0.1-0.5,0.1-0.7c-0.1-0.5-1-0.7-1.3-1.1c-0.3-0.5-0.4-1.6-0.5-2.2
			c-0.1-0.5-0.1-0.9-0.1-1.4c0-0.2,0.1-0.4,0-0.6c-0.1-0.3-0.5-0.4-0.8-0.4c-0.8-0.1-1.6-0.1-2.3-0.1c0.5-1,1-2.4,0.3-3.3
			c-0.7-0.9-1.9-0.7-2.9-0.4c-0.4-0.3-0.1-1-0.4-1.4c-0.3-0.4-1,0-1.3-0.4c-0.1-0.2-0.2-0.4-0.2-0.6c0-0.5-0.1-1.1-0.1-1.6
			c0-0.2,0-0.4-0.1-0.5c-0.1-0.1-0.2-0.1-0.4-0.1c-3.1-0.5-0.5-1.3-1.8-3.2c-0.2-0.3-0.6-0.5-0.9-0.7c-0.3-0.2-0.5-0.7-0.3-1
			c-1.6-0.4-3.6,0.3-4.8-0.9c-0.2-0.2-0.4-0.4-0.6-0.6c-0.5-0.3-1.2,0.2-1.2,0.8c-0.1-0.4-0.6-0.6-1-0.7c-0.4-0.1-0.8-0.1-1.1-0.3
			c-0.3-0.2-0.5-0.8-0.2-1.1c-1.4-0.5-2.6,0.8-4.1,1.1c-0.2-0.1-0.5-0.3-0.7-0.4c-0.1-0.1-0.3-0.1-0.4-0.2c-0.2-1-0.3-3.8-1.3-4.1
			c-0.2-0.1-0.4,0-0.7,0c-0.6,0-1.1-0.4-1.6-0.6c-1.3-0.3-2.5,0.9-3.8,0.6c-0.6-0.2-1.1-0.7-1.6-0.9c-0.6-0.2-1.4,0.3-1.2,0.9
			c-3.6-1-7.3-1.6-11.1-1.7c-0.7,0-1.4,0-2,0.2c-1.1,0.4-1.8,1.5-2.7,2.3c-0.9,0.8-2.3,1.3-3.2,0.6c-1.2,3.3-1.4,2.7-3.7,4.1
			c-0.6,0.3-3.8,2-3.8,2.6c0-1-0.9-1.8-1.7-1.3c-0.3,0.2-0.6,0.6-0.8,0.9c-1.7,1.9-4.4,0.7-6.6,1.4c0.3,0.5-0.1,1.3-0.5,1.6
			c-0.4,0.4-0.9,0.6-1.2,1.1c-1.8,3,1.8,4.3-2.5,5.1c-0.2,0-0.4,0.1-0.5,0.2c-0.2,0.2-0.2,0.5-0.2,0.8c-0.1,0.9-0.1,1.8-0.2,2.6
			c0,0.3-0.1,0.7-0.2,0.9c-0.5,0.6-1.4,0-1.8,0.6c-0.5,0.6-0.1,1.7-0.5,2.2c-1.4-0.4-3.1-0.7-4,0.7c-1,1.4-0.3,3.6,0.4,5.2
			c-1.1,0-2.2,0.1-3.2,0.2c-0.4,0-1,0.2-1.1,0.7c-0.1,0.3,0,0.7,0,1c0,0.7-0.1,1.5-0.2,2.2c-0.1,1-0.3,2.6-0.7,3.5
			c-0.4,0.7-1.6,1-1.8,1.8c-0.1,0.4,0.1,0.7,0.1,1.1c0,0.6-0.4,1.1-0.7,1.5c-0.8,0.9-1.6,1.9-2.4,2.8c-0.3,0.3-0.5,0.6-0.7,1
			c-1.1,2.7,4.4,6.6,2.4,9c-0.4,0.5-1.1,0.5-1.7,0.8c-1.1,0.5-1.6,2.4-1,3.6c0.2,0.3,0.4,0.7,0.2,1c-0.1,0.2-0.3,0.2-0.4,0.4
			c-0.4,0.4-0.3,1.1-0.1,1.7c0.2,0.6,0.5,1.1,0.4,1.7c0,0.5-0.3,0.8-0.5,1.2c-0.6,1.1-0.8,2.6-0.3,3.8c0.4,1.2,1.4,2.1,1.5,3.4
			c-0.9,0.5-1.1,2.2-0.5,3.2c1.1,1.9,3.5,1.7,5.1,2.5c2.8,1.4,2.1,2.7,1.7,6.2c-1.1,0.1-2.4,1.3-2.6,2.8c-0.4,2.5,0.6,1,1.3,2
			c0.2,0.3,1,0.4,1.3,1c0.4,0.7-0.1,2.2,0.5,2.9c0.1,0.2,0.4,0.2,0.6,0.2c0.8,0,1.7-0.1,2.5-0.3c0,0.6,0.7,0.6,1.1,0.6
			c1.2-0.1,2.4,1.6,1.8,2.9c0.5-0.5,1.3-0.3,1.8,0.3c1.1,1.3,1.2,3.4,1.3,5.1c0,0.3,0,0.6,0.2,0.8c0.3,0.4,0.8,0.4,1.2,0.3
			c2-0.2,2.8,1.9,4.2,2.4v4.5v9.7h1095v-9.5h2.4v-3.8c1.4-0.5,2.2-2.2,4.2-2.1c0.4,0,1,0.1,1.2-0.3c0.1-0.2,0.2-0.5,0.2-0.7
			c0.1-1.5,0.2-3.2,1.3-4.4c0.5-0.5,1.3-0.7,1.8-0.3c-0.6-1.1,0.6-2.6,1.8-2.5c0.5,0,1.2,0,1.1-0.5c0.8,0.2,1.6,0.3,2.5,0.2
			c0.2,0,0.4,0,0.6-0.2c0.5-0.6,0-1.9,0.5-2.5c0.4-0.5,1.1-0.6,1.3-0.8c0.7-0.8,1.6,0.4,1.3-1.7c-0.2-1.2-1.5-2.3-2.6-2.4
			c-0.4-3-1.1-4.1,1.7-5.3c1.6-0.7,4-0.5,5.1-2.1c0.6-0.9,0.4-2.3-0.5-2.7c0.1-1.1,1-1.9,1.5-2.9
			C1103.3,1874.4,1103.1,1873.1,1102.6,1872.1z M991.6,1847.9v-2.2c0.2,0.1,0.3,0.2,0.4,0.3c0.3,0.2,0.5,0.7,0.8,1.2
			c0,0.1,0,0.2,0,0.2C992.4,1847.5,992,1847.7,991.6,1847.9z M1055.8,1744.6c0.6-0.8,2.5-2,3.4-2c0.1,0,0.3,0,0.6,0.1
			c-2,1.4-3.6,2.4-4.7,2.9C1055.4,1745.3,1055.6,1745,1055.8,1744.6z M1002.3,1719.2c1.5-0.1,3.2,0.1,4.7,0.4c0,0.3-0.1,0.5-0.1,0.8
			c-0.4,0.2-0.9,0.4-1,0.9c-0.2,0.6,0.2,1.2,0.7,1.6c0.4,0.3,0.8,0.5,1.2,0.8c0,0.7-0.1,1.4-0.1,2.1c-0.5,0.1-1,0-1.3,0.3
			c-0.5,0.5-0.1,1.4,0.5,1.7c0.6,0.3,1.3,0.1,2,0c2.3-0.4,2.6-0.1,2.6,2.3l-0.1-0.1c-0.1,1.1,0.1,2.2,0.4,3.3
			c1.5-0.8,3.3-0.7,4.7,0.2c0.8,0.5,1.5,1.3,2.4,1.4c0.2,0,0.4,0.1,0.5,0.1c0.1,0.1,0.2,0.2,0.4,0.3c0,0,0,0.1,0,0.1
			c0,0.4-0.5,0.5-0.9,0.5c-0.1,0.8,0.5,1.4,1,1.9c0.5,0.5,1.1,1.3,0.8,2c0.8-0.2,1.5-0.4,2.3-0.3c0.2,0,0.5,0.1,0.6,0.3
			c0.1,0.1,0.3,0.3,0.4,0.4c0.2,0.3,0.4,0.6,0.5,1c-0.9,0.2-1.5,1.3-1.2,2.2c0.8-0.2,1.8-0.4,2.3,0.3c0.1,0.2,0.2,0.4,0.3,0.5
			c0.2,0.2,0.5,0.3,0.7,0.3c1,0.3,1.9,0.9,2.6,1.6c-0.6,0.5-0.1,1.7,0.6,1.8c0.7,0.1,1.4-0.6,1.5-1.4c0.1-0.5-0.1-1.2,0.2-1.6
			c0.3-0.5,1-0.5,1.5-0.5c0.8,0,1.5,0,2.3,0c0.1,0,0.3,0,0.3,0.1c0.1,0.1,0,0.3,0,0.5c0,0.5,0.5,0.8,1,0.8c0.5,0,0.8-0.4,1.2-0.7
			c-0.2-0.3-0.4-0.8-0.5-1.2c0-0.7,0.1-1.3,0.2-2c0,0,0,0,0-0.1c1.5,1,2.5,2.5,4.4,2.5c1.3,1.2,2.1,1.9,2.1,1.9v69.3
			c0,0-0.1,0.1-0.1,0.1c-0.1,0.3-0.2,0.7-0.3,1c-0.3,0.9-1.2,1.5-2.1,1.5c-0.9,0-1.8-0.7-2-1.6c-0.2-0.8-0.3-1.9-1.1-1.9
			c-0.3,0-0.6,0.2-0.8,0.4c-2.1,1.3-5.8-1.3-7.7,0.2c-0.3,0.2-0.2,0.7-0.3,1.1c-0.3,0.9-1.4,1.1-2.3,1.1c-0.5,0-1.1,0-1.6,0l0.4-0.2
			c-0.6-0.1-1.3-0.3-1.9-0.4c-0.4-0.1-0.8-0.2-1.1-0.5s-0.4-0.9-0.1-1.2c-0.9-0.3-2.1-0.3-2.3,0.6c-0.1,0.4,0,0.8,0,1.1
			c-0.1,0.7-0.8,1.4-0.6,2.1c0.1,0.3,0.3,0.6,0.5,0.8l-1.7,0.8c-0.4,0.1-0.8,0.2-1.2,0.4c-0.4-0.9-0.8-1.7-1.4-2.4
			c-0.3-0.4-0.8-0.8-1.3-0.7c-0.9,0.3-0.5,1.8-1.1,2.6c-0.4,0-0.7-0.5-0.7-0.9c-0.7-0.5-1.8,0.1-2.1,0.9c-0.3,0.8-0.2,1.8,0,2.7
			c-0.8,0-1.6,0.1-2.4,0.1c-0.1,0.3-0.1,0.6,0,1c-0.8,0-1.6-0.1-2.3-0.1c0,0,0,0.1,0,0.1c-1.1,0.1-2.1,0.5-2.9,1.2
			c-0.3,0.1-0.6,0.2-0.9,0.3c-3,1.8,0.5,3.1,1.3,4.2c0.5,0.6-0.4,1.7-1.1,1.3c0.1,0.5,0.2,1,0.1,1.5c-0.2,0.5-0.7,0.8-1.1,0.5
			c-0.1-0.1-0.2-0.3-0.3-0.4c-0.7-1.1-2.3-1.3-3.3-0.4c-0.6,0.6-0.9,1.5-0.7,2.4c-0.3-0.2-0.6-0.3-1-0.3c-0.8,0.1-1.4,0.8-1.8,1.5
			c-0.1,0.2-0.3,0.5-0.3,0.8c-0.1,1.1,1.2,1.7,1.9,2.5c0.6,0.6,0.8,1.5,0.7,2.3c-0.5,0.1-1,0.4-1.4,0.6c-0.3,0-0.6,0-1,0.1
			c-0.7,0.2-1.3,0.9-1.2,1.7c-0.2-0.7-1.1-1.1-1.7-0.8v-116.6C995.5,1725.2,999.1,1722.4,1002.3,1719.2z M989.1,1718.4
			c0.7-0.9,2.9-2.3,4.1-2.4c0.1,0,0.3,0.1,0.7,0.1c-2.4,1.7-4.3,2.8-5.6,3.4C988.5,1719.2,988.8,1718.8,989.1,1718.4z M855.8,1671
			c0.6-0.8,2.5-2,3.4-2c0.1,0,0.3,0,0.6,0.1c-2,1.4-3.6,2.4-4.7,2.9C855.4,1671.7,855.6,1671.4,855.8,1671z M781.3,1757.4
			c0.6-0.8,2.5-2,3.4-2c0.1,0,0.3,0,0.6,0.1c-2,1.4-3.6,2.4-4.7,2.9C780.9,1758.1,781.1,1757.8,781.3,1757.4z M662.3,1675.3
			c0.7-1,3.2-2.5,4.4-2.6c0.1,0,0.4,0.1,0.7,0.2c-2.6,1.8-4.7,3-6,3.7C661.7,1676.1,662,1675.7,662.3,1675.3z M622.9,1838.2
			c0.6,0.6,0.8,1.5,0.7,2.3c-0.1,0-0.1,0.1-0.2,0.1c-0.1-0.1-0.2-0.3-0.2-0.4C623,1839.8,623,1838.9,622.9,1838.2
			C622.8,1838.1,622.9,1838.2,622.9,1838.2z M500,1749.1c0.6-0.8,2.5-2,3.4-2c0.1,0,0.3,0,0.6,0.1c-2,1.4-3.6,2.4-4.7,2.9
			C499.5,1749.8,499.7,1749.4,500,1749.1z M420,1749.1c1.4-0.1,2.8,0.1,4.1,0.3c-0.3,1,0.7,1.9,1.7,1.9c0.1,0,0.2,0,0.3-0.1
			c0.1-0.1,0.2-0.3,0.2-0.5c0.1-0.6-0.1-1.1-0.1-1.7c0.1-0.6,0.6-1.2,1.1-0.9c0.2,0.1,0.3,0.3,0.5,0.5c1.9,1.9,2-2.4,3.7-2.8
			c1.8-0.4,2.9,2.1,4.6,1.8c1.4-0.2,1.9-2,3.8-1.8c0.4,0,0.8,0.1,1-0.2c0.1-0.2,0.1-0.4,0.2-0.6c0.1-1.3,0.2-2.7,1.1-3.7
			c0.4-0.4,1.1-0.6,1.5-0.2c-0.5-0.9,0.5-2.2,1.5-2.1c0.4,0,1,0,1-0.4c0.7,0.2,1.4,0.2,2.1,0.2c0.2,0,0.4,0,0.5-0.2
			c0.4-0.5,0-1.6,0.4-2.1c0.3-0.4,0.9-0.5,1.1-0.7c0.6-0.7,1.4,0.4,1.1-1.4c-0.2-1-1.3-1.9-2.2-2c-0.3-2.5-0.9-3.5,1.4-4.5
			c0.3-0.1,0.6-0.2,0.9-0.3c0.2,0.1,0.3,0.2,0.4,0.3c0,0.7-0.1,1.4-0.1,2.1c-0.5,0.1-1,0-1.3,0.3c-0.5,0.5-0.1,1.4,0.5,1.7
			c0.6,0.3,1.3,0.1,2,0c2.3-0.4,2.6-0.1,2.6,2.3l-0.1-0.1c-0.1,1.1,0.1,2.2,0.4,3.3c1.5-0.8,3.3-0.7,4.7,0.2
			c0.8,0.5,1.5,1.3,2.4,1.4c0.2,0,0.4,0.1,0.5,0.1c0.1,0.1,0.2,0.2,0.4,0.3c0,0,0,0.1,0,0.1c0,0.4-0.5,0.5-0.9,0.5
			c-0.1,0.8,0.5,1.4,1,1.9c0.5,0.5,1.1,1.3,0.8,2c0.8-0.2,1.5-0.4,2.3-0.3c0.2,0,0.5,0.1,0.6,0.3c0.1,0.1,0.3,0.3,0.4,0.4
			c0.2,0.3,0.4,0.6,0.5,1c-0.9,0.2-1.5,1.3-1.2,2.2c0.8-0.2,1.8-0.4,2.3,0.3c0.1,0.2,0.2,0.4,0.3,0.5c0.2,0.2,0.5,0.3,0.7,0.3
			c1,0.3,1.9,0.9,2.6,1.6c-0.6,0.5-0.1,1.7,0.6,1.8c0.7,0.1,1.4-0.6,1.5-1.4c0.1-0.5-0.1-1.2,0.2-1.6c0.3-0.5,1-0.5,1.5-0.5
			c0.8,0,1.5,0,2.3,0c0.1,0,0.3,0,0.3,0.1c0.1,0.1,0,0.3,0,0.5c0,0.5,0.5,0.8,1,0.8c0.5,0,0.8-0.4,1.2-0.7c-0.2-0.3-0.4-0.8-0.5-1.2
			c0-0.7,0.1-1.3,0.2-2c0,0,0,0,0-0.1c1.5,1,2.5,2.5,4.4,2.5c1.3,1.2,2.1,1.9,2.1,1.9v47.4c-1.1,0.4-2.3,1-3.4,0.6
			c-0.8-0.3-1.5-1-2.3-1.3c-0.8-0.3-2,0.4-1.7,1.3c-0.7-0.5-1.8-0.1-2.2,0.7c-0.1,0.3-0.2,0.7-0.3,1c-0.3,0.9-1.2,1.5-2.1,1.5
			c-0.9,0-1.8-0.7-2-1.6c-0.2-0.8-0.3-1.9-1.1-1.9c-0.3,0-0.6,0.2-0.8,0.4c-2.1,1.3-5.8-1.3-7.7,0.2c-0.3,0.2-0.2,0.7-0.3,1.1
			c-0.3,0.9-1.4,1.1-2.3,1.1c-0.5,0-1.1,0-1.6,0l0.4-0.2c-0.6-0.1-1.3-0.3-1.9-0.4c-0.4-0.1-0.8-0.2-1.1-0.5s-0.4-0.9-0.1-1.2
			c-0.9-0.3-2.1-0.3-2.3,0.6c-0.1,0.4,0,0.8,0,1.1c-0.1,0.7-0.8,1.4-0.6,2.1c0.1,0.3,0.3,0.6,0.5,0.8l-1.7,0.8
			c-0.4,0.1-0.8,0.2-1.2,0.4c-0.4-0.9-0.8-1.7-1.4-2.4c-0.3-0.4-0.8-0.8-1.3-0.7c-0.9,0.3-0.5,1.8-1.1,2.6c-0.4,0-0.7-0.5-0.7-0.9
			c-0.7-0.5-1.8,0.1-2.1,0.9c-0.3,0.8-0.2,1.8,0,2.7c-0.8,0-1.6,0.1-2.4,0.1c-0.1,0.3-0.1,0.6,0,1c-0.8,0-1.6-0.1-2.3-0.1
			c0,0,0,0.1,0,0.1c-1.1,0.1-2.1,0.5-2.9,1.2c-0.3,0.1-0.6,0.2-0.9,0.3c-3,1.8,0.5,3.1,1.3,4.2c0.5,0.6-0.4,1.7-1.1,1.3
			c0.1,0.5,0.2,1,0.1,1.5c-0.2,0.5-0.7,0.8-1.1,0.5c-0.1-0.1-0.2-0.3-0.3-0.4c-0.7-1.1-2.3-1.3-3.3-0.4c-0.6,0.6-0.9,1.5-0.7,2.4
			c-0.3-0.2-0.6-0.3-1-0.3c-0.8,0.1-1.4,0.8-1.8,1.5c-0.1,0.2-0.3,0.5-0.3,0.8c-0.1,1.1,1.2,1.7,1.9,2.5c0.6,0.6,0.8,1.5,0.7,2.3
			c-0.5,0.1-1,0.4-1.4,0.6c-0.3,0-0.6,0-1,0.1c-0.7,0.2-1.3,0.9-1.2,1.7c-0.2-0.8-1.3-1.2-1.9-0.8c-0.7,0.5-0.7,1.7,0,2.2
			c0.2,0.2,0.5,0.3,0.7,0.4c0.3,0.2,0.5,0.7,0.8,1.2c0,0.6,0.2,1.1,0.5,1.6c-0.1,0.1-0.3,0.1-0.4,0.2c-1.3-0.6-2.9,0.2-4,1.3
			c-0.2,0.2-0.4,0.4-0.4,0.6c-0.1,0.4,0.1,0.8,0.4,1.1c0.9,1.1,2.1,1.8,3.4,2.1c0,0,0.1,0,0.1,0.1c-0.3,0.3-0.5,0.7-0.5,1.2
			c-0.8,0.3-1.4,1.2-1.4,2.1c-1-0.2-2.2-0.3-3.1,0.3c-0.7,0.5-0.9,1.7-0.4,2.3c-0.1,0.2-0.2,0.4-0.2,0.6c-0.1-0.4-0.6-0.6-1-0.7
			c-0.4-0.1-0.8-0.1-1.1-0.3c-0.3-0.2-0.5-0.8-0.2-1.1c-1.4-0.5-2.8,1-4.3,1.2c-0.2,0-0.4,0-0.6-0.1c-0.1-0.1-0.2-0.3-0.3-0.5
			c-0.3-0.9-0.3-3.9-1.3-4.2c-0.2-0.1-0.4,0-0.7,0c-0.3,0-0.6-0.1-0.9-0.3v-83C414.3,1754.2,417.3,1751.9,420,1749.1z M408.9,1748.5
			c0.6-0.8,2.5-2,3.4-2c0.1,0,0.3,0,0.6,0.1c-2,1.4-3.6,2.4-4.7,2.9C408.5,1749.1,408.6,1748.8,408.9,1748.5z M285.2,1845.8
			c0.3,0.2,0.5,0.7,0.8,1.2c0,0.1,0,0.2,0,0.2c-0.4,0.1-0.8,0.3-1.2,0.5v-2.2C285,1845.6,285.1,1845.7,285.2,1845.8z M282.2,1718.2
			c0.7-0.9,2.9-2.3,4.1-2.4c0.1,0,0.3,0.1,0.7,0.1c-2.4,1.7-4.3,2.8-5.6,3.4C281.7,1719,282,1718.6,282.2,1718.2z M149,1670.9
			c0.6-0.8,2.5-2,3.4-2c0.1,0,0.3,0,0.6,0.1c-2,1.4-3.6,2.4-4.7,2.9C148.6,1671.6,148.8,1671.2,149,1670.9z M74.5,1757.3
			c0.6-0.8,2.5-2,3.4-2c0.1,0,0.3,0,0.6,0.1c-2,1.4-3.6,2.4-4.7,2.9C74.1,1758,74.3,1757.6,74.5,1757.3z"/>
	</g>
</g>
</svg>
