<?xml version="1.0" encoding="UTF-8" standalone="no"?>
<!DOCTYPE svg PUBLIC "-//W3C//DTD SVG 1.1//EN" "http://www.w3.org/Graphics/SVG/1.1/DTD/svg11.dtd">
<svg version="1.1" xmlns="http://www.w3.org/2000/svg" xmlns:xlink="http://www.w3.org/1999/xlink" preserveAspectRatio="xMidYMid meet" viewBox="0 0 640 640" width="640" height="640"><defs><path d="M396.87 120.73C396.87 106.19 399.45 91.96 404.3 78.99C371.03 66.03 334.85 58.76 296.73 58.76C135.86 58.76 5.67 186.19 5.67 343.66C5.67 501.14 135.86 628.57 296.73 628.57C457.6 628.57 587.78 501.14 587.78 343.66C587.78 305.08 580.03 268.72 565.82 235.2C552.25 240.26 537.39 243.11 521.88 243.11C452.76 243.11 396.87 188.4 396.87 120.73Z" id="a10k8ABF59"></path><path d="M416.25 117.25C416.25 176.39 465.03 224.13 525.44 224.13C585.85 224.13 634.62 176.39 634.62 117.25C634.62 58.12 585.85 10.37 525.44 10.37C465.03 10.37 416.25 58.12 416.25 117.25ZM531.25 122.95L531.25 178.92L519.95 178.92L519.95 122.95L462.77 122.95L462.77 111.56L519.95 111.56L519.95 55.59L531.25 55.59L531.25 111.56L588.43 111.56L588.43 122.95L531.25 122.95Z" id="b5kJ72vvW"></path><path d="M351.97 322.16C337.11 341.45 313.53 353.78 287.04 353.78C260.55 353.78 236.97 341.45 222.11 322.16C211.77 308.88 205.63 292.12 205.63 274.1C205.63 230.14 242.14 194.41 287.04 194.41C331.94 194.41 368.44 230.14 368.44 274.1C368.44 292.12 362.31 308.88 351.97 322.16Z" id="j9VUF0jIZ"></path><path d="M431.11 452.44C431.11 456.23 428.2 458.13 424.97 458.13C397.35 458.13 176.4 458.13 148.78 458.13C145.87 458.13 142.96 456.23 142.64 452.44C142.64 451.33 142.64 442.48 142.64 441.37C142.64 399.63 177.21 366.11 219.52 366.11C232.99 366.11 340.76 366.11 354.23 366.11C396.87 366.11 431.11 399.63 431.11 441.37C431.11 443.59 431.11 451.33 431.11 452.44Z" id="b3E5COIHfS"></path></defs><g><g><g><use xlink:href="#a10k8ABF59" opacity="1" fill="#1A7BB7" fill-opacity="1"></use><g><use xlink:href="#a10k8ABF59" opacity="1" fill-opacity="0" stroke="#000000" stroke-width="1" stroke-opacity="0"></use></g></g><g><use xlink:href="#b5kJ72vvW" opacity="1" fill="#1A7BB7" fill-opacity="1"></use><g><use xlink:href="#b5kJ72vvW" opacity="1" fill-opacity="0" stroke="#000000" stroke-width="1" stroke-opacity="0"></use></g></g><g><use xlink:href="#j9VUF0jIZ" opacity="1" fill="#ffffff" fill-opacity="1"></use><g><use xlink:href="#j9VUF0jIZ" opacity="1" fill-opacity="0" stroke="#000000" stroke-width="1" stroke-opacity="0"></use></g></g><g><use xlink:href="#b3E5COIHfS" opacity="1" fill="#ffffff" fill-opacity="1"></use><g><use xlink:href="#b3E5COIHfS" opacity="1" fill-opacity="0" stroke="#000000" stroke-width="1" stroke-opacity="0"></use></g></g></g></g></svg>