<?xml version="1.0" encoding="utf-8"?>
<!-- Generator: Adobe Illustrator 19.0.0, SVG Export Plug-In . SVG Version: 6.00 Build 0)  -->
<svg version="1.1" id="Layer_1" xmlns="http://www.w3.org/2000/svg" xmlns:xlink="http://www.w3.org/1999/xlink" x="0px" y="0px"
	 viewBox="0 0 1080 1790" style="enable-background:new 0 0 1080 1790;" xml:space="preserve">
<style type="text/css">
	.st0{opacity:0.4;clip-path:url(#XMLID_2_);fill:#005F99;}
	.st1{clip-path:url(#XMLID_2_);fill:#90D8F6;}
	.st2{clip-path:url(#XMLID_2_);fill:#005F99;}
</style>
<g id="XMLID_56_">
	<defs>
		<polygon id="XMLID_58_" points="1079.4,1790 0,1790 0,1068.8 1081.8,1068.8 		"/>
	</defs>
	<clipPath id="XMLID_2_">
		<use xlink:href="#XMLID_58_"  style="overflow:visible;"/>
	</clipPath>
	<path id="XMLID_221_" class="st0" d="M1081.8,1790H-1.8c0,0-3-463.2,4.3-483.1c0.2-0.5,0.4-1,0.6-1.5l4.9-2.5v-17.6h4v49.7h5.6
		v135.2h5.6v-71.1h15.1v-36.6h4.2v107.7H54v-41h7.6v-10.5h17.5v-35.8h9.6v-25.3h11.8v-36.8h4.2v36.8h11.8v25.3h9.6v35.8h17.5v10.5
		h7.6v41h9v-51.5h17.5v-110.8h5.6v-12.2h37.4v12.2h8v80.2h31.9v7.9h12v6.1h-12v31.4H294v-104.7h7.2v-22.2h15.5v-78.9h4.4v78.9h11.1
		v22.2h65.4v-7.3h4v49.7h5.6v0.9h3.4v49.7h5.6v13.5h11.8v-36.6h4.2v87.2h4.7v-36.6h4.2v57.1h2.6v-41h7.6V1455h17.5v-35.7h9.6v-25.3
		h11.8v-36.9h4.2v36.9h11.8v25.3h9.6v35.7h17.5v10.5h7.6v40.1h1.4v0.9h7.6V1455h17.5v-110.8h5.6V1332h37.4v12.2h8v38.4h1v12.2h8
		v29.7h22.9v7.8h12v6.1h-12v31.4h33.5v-104.7h7.2v-22.2h15.5V1264h4.4v78.9h4.5v-28.3h4.4v28.3h2.2v22.2h22.9v50.6h0.4v-71.9h13.5
		v-17.4l28.7-14.7v-17.6h4v49.7h5.6V1479h5.6v-71.1h15.1v-36.6h4.2V1479h11.5v-41h7.6v-10.5h17.5v-35.8h9.6v-25.3h11.8v-36.9h4.2
		v36.9h11.8v25.3h9.6v35.8h17.5v10.5h7.6v41h9v-51.5h17.5v-110.8h5.6v-12.2h37.4v12.2h8v80.3h31.9v7.9h12v6.1h-12v31.4h33.5v-104.7
		l6.8,0.7C1080.8,1383,1081.8,1790,1081.8,1790z"/>
	<polygon id="XMLID_220_" class="st1" points="70,1659.7 70,1659.7 70,1659.7 	"/>
	<polygon id="XMLID_219_" class="st1" points="144.8,1573.3 144.7,1573.3 144.8,1573.3 	"/>
	<polygon id="XMLID_218_" class="st1" points="278,1620.7 278,1620.7 278.1,1620.7 	"/>
	<polygon id="XMLID_217_" class="st1" points="405.6,1650.8 405.6,1650.8 405.7,1650.8 	"/>
	<path id="XMLID_59_" class="st2" d="M1079.8,1693.4c-1.8,0-3.6,0.2-4.8-1c-0.3-0.3-0.5-0.6-0.8-0.8c-0.7-0.4-1.7,0.3-1.7,1.1
		c-0.2-0.6-0.8-0.8-1.3-0.9c-0.5-0.1-1.1-0.1-1.6-0.4c-0.5-0.3-0.7-1.1-0.3-1.5c-2-0.7-3.9,1.4-6,1.6c-0.3,0-0.6,0-0.8-0.2
		c-0.2-0.2-0.3-0.4-0.3-0.6c-0.4-1.2-0.4-5.4-1.9-5.8c-0.2,0-0.4,0-0.6,0v-63.3c3.3-1.3,6.3-3.6,9-6.3c1.4-0.1,2.8,0.1,4.2,0.3
		c-0.3,1,0.7,1.9,1.7,1.9c0.1,0,0.2,0,0.3-0.1c0.1-0.1,0.2-0.3,0.2-0.5c0.1-0.6-0.1-1.1-0.1-1.7c0.1-0.6,0.6-1.2,1.1-0.9
		c0.2,0.1,0.3,0.3,0.5,0.5c1.9,1.9,3.8-4.5,3.7-2.8c-0.3,3.9,0.4-67.6-1-69c-0.2-0.2-0.4-0.5-0.7-0.7c-0.6-0.3-1.4,0.2-1.4,1
		c-0.1-0.5-0.6-0.7-1.1-0.8c-0.5-0.1-0.9-0.1-1.3-0.4c-0.4-0.3-0.6-0.9-0.2-1.2c-1.7-0.6-3.3,1.2-5.1,1.4c-0.2,0-0.5,0-0.6-0.1
		c-0.2-0.1-0.2-0.3-0.3-0.5c-0.3-1-0.3-4.5-1.6-4.8c-0.2-0.1-0.5,0-0.8,0c-0.7,0-1.2-0.5-1.9-0.7c-1.5-0.4-2.9,1.1-4.4,0.7
		c-0.7-0.2-1.2-0.8-1.9-1.1c-0.7-0.2-1.7,0.3-1.4,1.1c-0.6-0.4-1.5-0.1-1.8,0.6c-0.1,0.3-0.2,0.6-0.3,0.8c-0.3,0.8-1,1.3-1.8,1.3
		c-0.8,0-1.5-0.6-1.7-1.4c-0.2-0.6-0.3-1.6-0.9-1.6c-0.3,0-0.5,0.2-0.7,0.3c-1.1,0.7-2.6,0.1-4-0.1c0-0.2-0.1-0.3-0.1-0.4
		c-0.2-0.3-0.4-0.6-0.7-0.9c-0.8-0.8-1.6-1.6-2.5-2.4c-0.4-0.3-0.7-0.8-0.7-1.3c0-0.3,0.2-0.6,0.1-0.9c-0.2-0.7-1.4-0.9-1.8-1.5
		c-0.5-0.7-0.6-2.1-0.7-3c-0.1-0.6-0.2-1.3-0.2-1.9c0-0.3,0.1-0.6,0-0.9c-0.1-0.4-0.7-0.6-1.1-0.6c-1.1-0.1-2.2-0.1-3.2-0.2
		c0.7-1.4,1.4-3.3,0.4-4.5c-0.9-1.2-2.7-1-4.1-0.6c-0.5-0.4-0.1-1.4-0.5-1.9c-0.5-0.5-1.4,0-1.9-0.5c-0.2-0.2-0.2-0.5-0.2-0.8
		c-0.1-0.8-0.1-1.5-0.2-2.3c0-0.2,0-0.5-0.2-0.6c-0.1-0.1-0.3-0.2-0.5-0.2c-4.4-0.7-0.7-1.8-2.5-4.4c-0.3-0.4-0.8-0.6-1.2-1
		c-0.4-0.3-0.7-0.9-0.5-1.4c-2.2-0.6-5,0.4-6.6-1.2c-0.3-0.3-0.5-0.6-0.8-0.8c-0.7-0.4-1.7,0.3-1.7,1.1c-0.2-0.6-0.8-0.8-1.3-0.9
		c-0.5-0.1-1.1-0.1-1.6-0.4c-0.5-0.3-0.7-1.1-0.3-1.5c-2-0.7-3.9,1.4-6,1.6c-0.3,0-0.6,0-0.8-0.2c-0.2-0.2-0.3-0.4-0.3-0.6
		c-0.4-1.2-0.4-5.4-1.9-5.8c-0.3-0.1-0.6,0-0.9,0c-0.8,0-1.5-0.6-2.3-0.8c-1.7-0.4-3.5,1.3-5.2,0.8c-0.8-0.3-1.5-1-2.3-1.3
		c-0.8-0.3-2,0.4-1.7,1.3c-0.7-0.5-1.8-0.1-2.2,0.7c-0.2,0.3-0.2,0.7-0.3,1c-0.3,0.9-1.2,1.5-2.1,1.5c-0.9,0-1.8-0.7-2.1-1.6
		c-0.2-0.8-0.3-1.9-1.1-1.9c-0.3,0-0.6,0.2-0.9,0.4c-2.1,1.3-5.8-1.3-7.7,0.2c-0.3,0.2-0.2,0.7-0.3,1.1c-0.3,0.9-1.4,1.1-2.3,1.1
		c-0.5,0-1.1,0-1.6,0l0.4-0.2c-0.6-0.1-1.3-0.3-1.9-0.4c-0.4-0.1-0.8-0.2-1.1-0.5c-0.3-0.3-0.4-0.9-0.1-1.2
		c-0.9-0.3-2.1-0.3-2.4,0.6c-0.1,0.4,0,0.8,0,1.1c-0.1,0.7-0.8,1.4-0.6,2.1c0.1,0.3,0.3,0.6,0.5,0.8l-1.8,0.8
		c-0.4,0.1-0.8,0.2-1.2,0.4c-0.4-0.9-0.8-1.7-1.4-2.4c-0.3-0.4-0.8-0.8-1.3-0.7c-0.9,0.3-0.5,1.8-1.1,2.6c-0.4,0-0.7-0.5-0.7-0.9
		c-0.7-0.5-1.8,0.1-2.1,0.9c-0.3,0.8-0.2,1.8,0,2.7c-0.8,0-1.6,0.1-2.4,0.1c-0.1,0.3-0.1,0.6,0,1c-0.8,0-1.6-0.1-2.4-0.1
		c0,0,0,0.1,0,0.1c-1.1,0.1-2.1,0.5-2.9,1.2c-0.3,0.1-0.6,0.2-0.9,0.3c-3,1.8,0.5,3.1,1.3,4.2c0.5,0.6-0.4,1.7-1.1,1.3
		c0.1,0.5,0.2,1,0.1,1.5c-0.2,0.5-0.7,0.8-1.1,0.5c-0.1-0.1-0.2-0.3-0.3-0.4c-0.7-1.1-2.3-1.3-3.3-0.4c-0.6,0.6-0.9,1.5-0.7,2.4
		c-0.3-0.2-0.6-0.3-1-0.3c-0.8,0.1-1.4,0.8-1.8,1.5c-0.1,0.2-0.3,0.5-0.3,0.8c-0.1,1.1,1.2,1.7,1.9,2.5c0.6,0.6,0.8,1.5,0.7,2.3
		c-0.5,0.1-1,0.4-1.4,0.6c-0.3,0-0.6,0-1,0.1c-0.7,0.2-1.3,0.9-1.2,1.7c-0.2-0.8-1.3-1.2-1.9-0.8c-0.7,0.5-0.7,1.7,0,2.2
		c0.2,0.2,0.5,0.3,0.7,0.4c0.3,0.2,0.5,0.7,0.8,1.2c0,0.6,0.2,1.1,0.5,1.6c-0.1,0.1-0.3,0.1-0.4,0.2c-1.3-0.6-2.9,0.2-4,1.3
		c-0.2,0.2-0.4,0.4-0.4,0.6c-0.1,0.4,0.1,0.8,0.4,1.1c0.9,1.1,2.1,1.8,3.4,2.1c0,0,0.1,0,0.1,0.1c-0.3,0.3-0.5,0.7-0.5,1.2
		c-0.8,0.3-1.4,1.2-1.4,2.1c-1-0.2-2.2-0.3-3.1,0.3c-0.9,0.6-0.9,2.4,0.1,2.7c0.4,0.1,0.8,0,1.1,0.2c0.5,0.3,0.5,1.1,0.4,1.8
		c-0.1,0.6,0,1.5,0.6,1.7c0,0,0,0,0,0c0.5,2.1,2.1,3.9,3.9,3.7c-0.4,0.3-1.2,0.1-1.7,0.4c-1,0.8,0.6,2.9-0.4,3.6
		c-0.6,0.4-1.5-0.1-2.1,0.3c-0.4,0.3-0.4,0.9-0.2,1.4c0.2,0.5,0.5,0.9,0.5,1.5c0,0.3,0,0.7-0.1,1c-0.1,0.9-0.3,1.8-0.4,2.6
		c-0.5,0.2-1.1,0.5-1.3,1.1c-0.2,0.7,0.2,1.5,0.8,1.9c0.5,0.3,1,0.6,1.4,0.9c-0.1,0.8-0.1,1.7-0.2,2.5c-0.5,0.1-1.2,0-1.6,0.4
		c-0.6,0.6-0.2,1.7,0.6,2.1c0.7,0.3,1.6,0.1,2.4,0c2.8-0.5,3.1-0.2,3.1,2.7l-0.2-0.1c-0.1,1.3,0.1,2.6,0.5,3.9c1.7-1,4-0.9,5.6,0.2
		c0.9,0.6,1.8,1.5,2.8,1.7c0.2,0,0.4,0.1,0.7,0.2c0.1,0.1,0.3,0.2,0.4,0.4c0,0.1,0,0.1,0,0.2c0,0.5-0.6,0.6-1,0.6
		c-0.1,0.9,0.6,1.6,1.2,2.3c0.6,0.6,1.3,1.5,0.9,2.4c0.9-0.2,1.8-0.5,2.7-0.3c0.3,0,0.5,0.2,0.8,0.3c0.2,0.2,0.3,0.3,0.5,0.5
		c0.3,0.3,0.5,0.7,0.6,1.2c-1.1,0.2-1.8,1.6-1.4,2.7c0.9-0.3,2.1-0.5,2.7,0.4c0.1,0.2,0.2,0.4,0.4,0.6c0.2,0.2,0.5,0.3,0.8,0.4
		c1.2,0.3,2.3,1,3.1,1.9c-0.7,0.6-0.2,2,0.7,2.1c0.9,0.1,1.7-0.8,1.8-1.7c0.1-0.6-0.1-1.4,0.3-1.9c0.4-0.6,1.1-0.6,1.8-0.6
		c0.9,0,1.8,0,2.8,0c0.1,0,0.3,0,0.4,0.1c0.1,0.1,0.1,0.4,0.1,0.6c0,0.6,0.6,1,1.2,0.9c0.5-0.1,1-0.4,1.5-0.8
		c-0.3-0.4-0.5-0.9-0.6-1.4c0-0.8,0.1-1.6,0.2-2.4c0,0,0-0.1,0-0.1c1.8,1.2,3,3,5.3,3c1.6,1.5,2.6,2.3,2.6,2.3v125.7
		c-0.5-0.1-1-0.6-1.1-1.1c-0.2-0.6-0.2-1.4-0.8-1.4c-0.2,0-0.4,0.1-0.6,0.3c-1.5,0.9-4.2-1-5.6,0.2c-0.2,0.2-0.2,0.5-0.3,0.8
		c-0.2,0.7-1,0.8-1.7,0.8c-0.4,0-0.8,0-1.2,0l0.3-0.1c-0.5-0.1-0.9-0.2-1.4-0.3c-0.3-0.1-0.6-0.1-0.8-0.4s-0.3-0.6-0.1-0.8
		c-0.6-0.2-1.5-0.2-1.7,0.4c-0.1,0.3,0,0.5,0,0.8c-0.1,0.5-0.6,1-0.4,1.5c0.1,0.2,0.2,0.4,0.4,0.6l-1.3,0.6
		c-0.3,0.1-0.6,0.2-0.9,0.3c-0.3-0.6-0.6-1.2-1-1.7c-0.2-0.3-0.6-0.6-0.9-0.5c-0.6,0.2-0.4,1.3-0.8,1.9c-0.3,0-0.5-0.4-0.5-0.7
		c-0.2-0.2-0.5-0.2-0.7-0.1c-0.1-0.2-0.3-0.4-0.4-0.5c-0.6-0.6-1.2-1.2-1.8-1.7c-0.3-0.3-0.5-0.6-0.5-0.9c0-0.2,0.1-0.5,0.1-0.7
		c-0.1-0.5-1-0.7-1.3-1.1c-0.3-0.5-0.4-1.6-0.5-2.2c-0.1-0.5-0.1-0.9-0.1-1.4c0-0.2,0.1-0.4,0-0.6c-0.1-0.3-0.5-0.4-0.8-0.4
		c-0.8-0.1-1.6-0.1-2.4-0.1c0.5-1,1-2.4,0.3-3.3c-0.7-0.9-1.9-0.7-2.9-0.4c-0.4-0.3-0.1-1-0.4-1.4c-0.3-0.4-1,0-1.3-0.4
		c-0.1-0.2-0.2-0.4-0.2-0.6c0-0.5-0.1-1.1-0.1-1.6c0-0.2,0-0.4-0.1-0.5c-0.1-0.1-0.2-0.1-0.4-0.1c-3.2-0.5-0.5-1.3-1.8-3.2
		c-0.2-0.3-0.6-0.5-0.9-0.7c-0.3-0.2-0.5-0.7-0.3-1c-1.6-0.4-3.6,0.3-4.8-0.9c-0.2-0.2-0.4-0.4-0.6-0.6c-0.5-0.3-1.2,0.2-1.2,0.8
		c-0.1-0.4-0.6-0.6-1-0.7c-0.4-0.1-0.8-0.1-1.2-0.3c-0.3-0.2-0.5-0.8-0.2-1.1c-1.4-0.5-2.8,1-4.4,1.2c-0.2,0-0.4,0-0.6-0.1
		c-0.1-0.1-0.2-0.3-0.3-0.5c-0.3-0.9-0.3-3.9-1.3-4.2c-0.2-0.1-0.4,0-0.7,0c-0.6,0-1.1-0.4-1.6-0.6c-1.3-0.3-2.5,0.9-3.8,0.6
		c-0.6-0.2-1.1-0.7-1.6-0.9c-0.6-0.2-1.5,0.3-1.2,0.9c-0.5-0.3-1.3-0.1-1.6,0.5c-0.1,0.2-0.1,0.5-0.2,0.7c-0.2,0.6-0.9,1.1-1.5,1.1
		c-0.7,0-1.3-0.5-1.5-1.2c-0.2-0.6-0.2-1.4-0.8-1.4c-0.2,0-0.4,0.1-0.6,0.3c-1.5,0.9-4.2-1-5.6,0.2c-0.2,0.2-0.2,0.5-0.3,0.8
		c-0.2,0.7-1,0.8-1.7,0.8c-0.4,0-0.8,0-1.2,0l0.3-0.1c-0.5-0.1-0.9-0.2-1.4-0.3c-0.3-0.1-0.6-0.1-0.8-0.4c-0.2-0.2-0.3-0.6-0.1-0.8
		c-0.6-0.2-1.5-0.2-1.7,0.4c-0.1,0.3,0,0.5,0,0.8c-0.1,0.5-0.6,1-0.4,1.5c0.1,0.2,0.2,0.4,0.4,0.6l-1.3,0.6
		c-0.3,0.1-0.6,0.2-0.9,0.3c-0.3-0.6-0.6-1.2-1-1.7c-0.2-0.3-0.6-0.6-0.9-0.5c-0.6,0.2-0.4,1.3-0.8,1.9c-0.3,0-0.5-0.4-0.5-0.7
		c-0.5-0.4-1.3,0.1-1.5,0.7c-0.2,0.6-0.1,1.3,0,2c-0.6,0-1.2,0.1-1.7,0.1c-0.1,0.2-0.1,0.5,0,0.7c-0.6,0-1.1-0.1-1.7-0.1
		c0,0,0,0.1,0,0.1c-0.8,0-1.5,0.4-2.1,0.9c-0.2,0-0.5,0.1-0.7,0.2c-2.2,1.3,0.3,2.2,0.9,3c0.3,0.5-0.3,1.2-0.8,1
		c0.1,0.4,0.2,0.7,0,1.1c-0.1,0.3-0.5,0.6-0.8,0.4c-0.1-0.1-0.2-0.2-0.2-0.3c-0.5-0.8-1.7-0.9-2.4-0.3c-0.5,0.4-0.6,1.1-0.5,1.7
		c-0.2-0.2-0.5-0.2-0.7-0.2c-0.6,0.1-1,0.6-1.3,1.1c-0.1,0.2-0.2,0.4-0.2,0.6c-0.1,0.8,0.8,1.2,1.4,1.8c0.3,0.4,0.5,0.8,0.5,1.3
		c-0.6,0-1.2,0.1-1.7,0.3c-0.5-0.4-0.1-1.4-0.5-1.9c-0.5-0.5-1.4,0-1.9-0.5c-0.2-0.2-0.2-0.5-0.2-0.8c-0.1-0.8-0.1-1.5-0.2-2.3
		c0-0.2,0-0.5-0.2-0.6c-0.1-0.1-0.3-0.2-0.5-0.2c-4.4-0.7-0.7-1.8-2.5-4.4c-0.3-0.4-0.8-0.6-1.2-1c-0.4-0.3-0.7-0.9-0.5-1.4
		c-2.2-0.6-5,0.4-6.6-1.2c-0.3-0.3-0.5-0.6-0.8-0.8c-0.7-0.4-1.7,0.3-1.7,1.1c-0.2-0.6-0.8-0.8-1.3-0.9c-0.2,0-0.3-0.1-0.5-0.1V1548
		c3.3-1.3,6.3-3.6,9-6.3c1.4-0.1,2.8,0.1,4.2,0.3c-0.3,1,0.7,1.9,1.7,1.9c0.1,0,0.2,0,0.3-0.1c0.1-0.1,0.2-0.3,0.2-0.5
		c0.1-0.6-0.1-1.1-0.1-1.7c0.1-0.6,0.6-1.2,1.1-0.9c0.2,0.1,0.3,0.3,0.5,0.5c1.9,1.9,2-2.4,3.7-2.8c1.8-0.4,2.9,2.1,4.6,1.8
		c1.4-0.2,2-2,3.8-1.8c0.4,0,0.8,0.1,1-0.2c0.1-0.2,0.1-0.4,0.2-0.6c0.1-1.3,0.2-2.7,1.1-3.7c0.4-0.4,1.1-0.6,1.5-0.2
		c-0.5-0.9,0.5-2.2,1.5-2.1c0.4,0,1,0,1-0.4c0.7,0.2,1.4,0.2,2.1,0.2c0.2,0,0.4,0,0.5-0.2c0.4-0.5,0-1.6,0.4-2.1
		c0.3-0.4,0.9-0.5,1.1-0.7c0.6-0.7,1.4,0.4,1.1-1.4c-0.2-1-1.3-1.9-2.2-2c-0.3-2.5-0.9-3.5,1.4-4.5c1.3-0.6,3.3-0.5,4.3-1.8
		c0.5-0.7,0.3-2-0.4-2.3c0-0.9,0.9-1.6,1.2-2.5c0.4-0.9,0.2-1.9-0.3-2.7c-0.2-0.3-0.4-0.6-0.4-0.9c-0.1-0.4,0.2-0.8,0.3-1.2
		c0.2-0.4,0.2-0.9-0.1-1.2c-0.1-0.1-0.3-0.1-0.4-0.3c-0.1-0.2,0-0.5,0.2-0.8c0.5-0.9,0.1-2.3-0.9-2.6c-0.5-0.2-1.1-0.2-1.4-0.5
		c-1.7-1.7,3-4.5,2-6.5c-0.1-0.3-0.4-0.5-0.6-0.7c-0.7-0.7-1.4-1.3-2.1-2c-0.3-0.3-0.6-0.6-0.6-1.1c0-0.3,0.1-0.5,0.1-0.8
		c-0.2-0.6-1.2-0.8-1.5-1.3c-0.4-0.6-0.5-1.8-0.6-2.5c-0.1-0.5-0.1-1.1-0.1-1.6c0-0.2,0.1-0.5,0-0.7c-0.1-0.4-0.5-0.5-0.9-0.5
		c-0.9-0.1-1.8-0.1-2.7-0.1c0.6-1.2,1.1-2.7,0.3-3.8c-0.8-1-2.2-0.8-3.4-0.5c-0.4-0.4-0.1-1.2-0.5-1.6c-0.4-0.4-1.2,0-1.6-0.4
		c-0.2-0.2-0.2-0.4-0.2-0.7c0-0.6-0.1-1.3-0.1-1.9c0-0.2,0-0.4-0.2-0.5c-0.1-0.1-0.3-0.1-0.4-0.2c-3.7-0.6-0.6-1.5-2.1-3.7
		c-0.3-0.4-0.7-0.5-1-0.8c-0.3-0.3-0.6-0.8-0.4-1.2c-1.9-0.5-4.2,0.3-5.6-1c-0.2-0.2-0.4-0.5-0.7-0.7c-0.6-0.3-1.4,0.2-1.4,1
		c-0.1-0.5-0.6-0.7-1.1-0.8c-0.5-0.1-0.9-0.1-1.3-0.4c-0.4-0.3-0.6-0.9-0.2-1.2c-1.7-0.6-3.3,1.2-5.1,1.4c-0.2,0-0.5,0-0.6-0.1
		c-0.2-0.1-0.2-0.3-0.3-0.5c-0.3-1-0.3-4.5-1.6-4.8c-0.2-0.1-0.5,0-0.8,0c-0.7,0-1.2-0.5-1.9-0.7c-1.5-0.4-2.9,1.1-4.4,0.7
		c-0.7-0.2-1.2-0.8-1.9-1.1c-0.7-0.2-1.7,0.3-1.4,1.1c-0.6-0.4-1.5-0.1-1.8,0.6c-0.1,0.3-0.2,0.6-0.3,0.8c-0.3,0.8-1,1.3-1.8,1.3
		c-0.8,0-1.5-0.6-1.7-1.4c-0.2-0.6-0.3-1.6-0.9-1.6c-0.3,0-0.5,0.2-0.7,0.3c-1.8,1.1-4.9-1.1-6.5,0.2c-0.2,0.2-0.2,0.6-0.3,0.9
		c-0.2,0.8-1.2,0.9-1.9,0.9c-0.5,0-0.9,0-1.4,0l0.3-0.1c-0.5-0.1-1.1-0.2-1.6-0.4c-0.3-0.1-0.7-0.2-0.9-0.4c-0.3-0.3-0.3-0.7-0.1-1
		c-0.7-0.2-1.8-0.3-2,0.5c-0.1,0.3,0,0.6,0,1c-0.1,0.6-0.7,1.2-0.5,1.8c0.1,0.3,0.3,0.5,0.5,0.7l-1.5,0.7c-0.3,0.1-0.7,0.2-1,0.4
		c-0.3-0.7-0.7-1.4-1.2-2c-0.3-0.3-0.7-0.7-1.1-0.6c-0.8,0.2-0.4,1.5-0.9,2.2c-0.3,0-0.6-0.4-0.6-0.8c-0.6-0.4-1.5,0.1-1.8,0.8
		c-0.3,0.7-0.1,1.5,0,2.3c-0.7,0-1.3,0.1-2,0.1c-0.1,0.2-0.1,0.5,0,0.8c-0.7,0-1.3-0.1-2-0.1c0,0,0,0.1,0,0.1c-0.9,0-1.8,0.4-2.5,1
		c-0.3,0.1-0.5,0.1-0.8,0.3c-2.6,1.5,0.4,2.6,1.1,3.5c0.4,0.5-0.3,1.4-0.9,1.1c0.1,0.4,0.2,0.9,0.1,1.3c-0.1,0.4-0.6,0.7-1,0.4
		c-0.1-0.1-0.2-0.2-0.3-0.4c-0.6-0.9-1.9-1.1-2.7-0.4c-0.5,0.5-0.7,1.3-0.6,2c-0.2-0.2-0.5-0.3-0.8-0.2c-0.6,0.1-1.2,0.6-1.5,1.2
		c-0.1,0.2-0.2,0.4-0.2,0.7c-0.1,0.9,1,1.4,1.6,2.1c0.5,0.5,0.7,1.3,0.6,2c-0.4,0.1-0.8,0.3-1.2,0.5c-0.3,0-0.5,0-0.8,0.1
		c-0.6,0.2-1.1,0.8-1,1.4c-0.2-0.7-1.1-1-1.6-0.6c-0.6,0.4-0.6,1.4,0,1.8c0.2,0.1,0.4,0.2,0.6,0.4c0.2,0.2,0.4,0.6,0.6,1
		c0,0.5,0.2,0.9,0.4,1.4c-0.1,0.1-0.2,0.1-0.3,0.2c-1.1-0.5-2.4,0.2-3.4,1.1c-0.2,0.1-0.3,0.3-0.4,0.5c-0.1,0.3,0.1,0.6,0.3,0.9
		c0.7,0.9,1.8,1.5,2.9,1.8c0,0,0,0,0.1,0c-0.3,0.3-0.4,0.6-0.5,1c-0.7,0.3-1.2,1-1.2,1.8c-0.9-0.1-1.8-0.3-2.6,0.3
		c-0.7,0.5-0.8,2,0.1,2.2c0.3,0.1,0.6,0,0.9,0.2c0.5,0.3,0.4,1,0.3,1.5c-0.1,0.5,0,1.3,0.5,1.4c0,0,0,0,0,0c0.4,1.7,1.8,3.3,3.3,3.1
		c-0.4,0.3-1,0.1-1.4,0.4c-0.8,0.6,0.5,2.4-0.3,3.1c-0.5,0.4-1.3-0.1-1.7,0.3c-0.3,0.3-0.3,0.8-0.2,1.2c0.1,0.4,0.4,0.8,0.4,1.2
		c0,0.3,0,0.6,0,0.9c-0.1,0.7-0.2,1.5-0.3,2.2c-0.4,0.2-0.9,0.4-1.1,0.9c-0.2,0.6,0.2,1.2,0.7,1.6c0.4,0.3,0.8,0.5,1.2,0.8
		c0,0.7-0.1,1.4-0.1,2.1c-0.5,0.1-1,0-1.3,0.3c-0.5,0.5-0.1,1.4,0.5,1.7c0.6,0.3,1.3,0.1,2,0c2.3-0.4,2.6-0.1,2.6,2.3l-0.1-0.1
		c-0.1,1.1,0.1,2.2,0.4,3.3c1.5-0.8,3.3-0.7,4.7,0.2c0.8,0.5,1.5,1.3,2.4,1.4c0.2,0,0.4,0.1,0.5,0.1c0.1,0.1,0.2,0.2,0.4,0.3
		c0,0,0,0.1,0,0.1c0,0.4-0.5,0.5-0.9,0.5c-0.1,0.8,0.5,1.4,1,1.9c0.5,0.5,1.1,1.3,0.8,2c0.8-0.2,1.5-0.4,2.3-0.3
		c0.2,0,0.5,0.1,0.6,0.3c0.1,0.1,0.3,0.3,0.4,0.4c0.2,0.3,0.4,0.6,0.5,1c-0.9,0.2-1.5,1.3-1.2,2.2c0.8-0.2,1.8-0.4,2.3,0.3
		c0.1,0.2,0.2,0.4,0.3,0.5c0.2,0.2,0.5,0.3,0.7,0.3c1,0.3,1.9,0.9,2.6,1.6c-0.6,0.5-0.1,1.7,0.6,1.8c0.8,0.1,1.4-0.6,1.5-1.4
		c0.1-0.5-0.1-1.2,0.2-1.6c0.3-0.5,1-0.5,1.5-0.5c0.8,0,1.6,0,2.3,0c0.1,0,0.3,0,0.3,0.1c0.1,0.1,0,0.3,0,0.5c0,0.5,0.5,0.8,1,0.8
		c0.5,0,0.9-0.4,1.2-0.7c-0.2-0.3-0.4-0.8-0.5-1.2c0-0.7,0.1-1.3,0.2-2c0,0,0,0,0-0.1c1.5,1,2.6,2.5,4.5,2.5
		c1.3,1.2,2.2,1.9,2.2,1.9v141.7c-1.6-0.2-3.3,1.3-4.9,0.8c-0.8-0.3-1.5-1-2.3-1.3c-0.8-0.3-2,0.4-1.7,1.3c-0.7-0.5-1.8-0.1-2.2,0.7
		c-0.2,0.3-0.2,0.7-0.3,1c-0.3,0.9-1.2,1.5-2.1,1.5s-1.8-0.7-2.1-1.6c-0.2-0.8-0.3-1.9-1.1-1.9c-0.3,0-0.6,0.2-0.9,0.4
		c-2.1,1.3-5.8-1.3-7.7,0.2c-0.3,0.2-0.2,0.7-0.3,1.1c-0.3,0.9-1.4,1.1-2.3,1.1c-0.5,0-1.1,0-1.6,0l0.4-0.2
		c-0.6-0.1-1.3-0.3-1.9-0.4c-0.4-0.1-0.8-0.2-1.1-0.5s-0.4-0.9-0.1-1.2c-0.9-0.3-2.1-0.3-2.4,0.6c-0.1,0.4,0,0.8,0,1.1
		c-0.1,0.7-0.8,1.4-0.6,2.1c0.1,0.3,0.3,0.6,0.5,0.8l-1.8,0.8c-0.4,0.1-0.8,0.2-1.2,0.4c-0.4-0.9-0.8-1.7-1.4-2.4
		c-0.3-0.4-0.8-0.8-1.3-0.7c-0.9,0.3-0.5,1.8-1.1,2.6c-0.4,0-0.7-0.5-0.7-0.9c-0.7-0.5-1.8,0.1-2.1,0.9c-0.3,0.8-0.2,1.8,0,2.7
		c-0.8,0-1.6,0.1-2.4,0.1c-0.1,0.3-0.1,0.6,0,1c-0.8,0-1.6-0.1-2.4-0.1c0,0,0,0.1,0,0.1c-1.1,0.1-2.1,0.5-2.9,1.2
		c-0.3,0.1-0.6,0.2-0.9,0.3c-3,1.8,0.5,3.1,1.3,4.2c0.5,0.6-0.4,1.7-1.1,1.3c0.1,0.5,0.2,1,0.1,1.5c-0.2,0.5-0.7,0.8-1.1,0.5
		c-0.1-0.1-0.2-0.3-0.3-0.4c-0.7-1.1-2.3-1.3-3.3-0.4c-0.6,0.6-0.9,1.5-0.7,2.4c-0.3-0.2-0.6-0.3-1-0.3c-0.8,0.1-1.4,0.8-1.8,1.5
		c-0.1,0.1-0.1,0.2-0.2,0.3v-72.2c3.3-1.3,6.3-3.6,9-6.3c1.4-0.1,2.8,0.1,4.2,0.3c-0.3,1,0.7,1.9,1.7,1.9c0.1,0,0.2,0,0.3-0.1
		c0.1-0.1,0.2-0.3,0.2-0.5c0.1-0.6-0.1-1.1-0.1-1.7c0.1-0.6,0.6-1.2,1.1-0.9c0.2,0.1,0.3,0.3,0.5,0.5c1.9,1.9,2-2.4,3.7-2.8
		c1.8-0.4,2.9,2.1,4.6,1.8c1.4-0.2,2-2,3.8-1.8c0.4,0,0.8,0.1,1-0.2c0.1-0.2,0.1-0.4,0.2-0.6c0.1-1.3,0.2-2.7,1.1-3.7
		c0.4-0.4,1.1-0.6,1.5-0.2c-0.5-0.9,0.5-2.2,1.5-2.1c0.4,0,1,0,1-0.4c0.7,0.2,1.4,0.2,2.1,0.2c0.2,0,0.4,0,0.5-0.2
		c0.4-0.5,0-1.6,0.4-2.1c0.3-0.4,0.9-0.5,1.1-0.7c0.6-0.7,1.4,0.4,1.1-1.4c-0.2-1-1.3-1.9-2.2-2c-0.3-2.5-0.9-3.5,1.4-4.5
		c1.3-0.6,3.3-0.5,4.3-1.8c0.5-0.7,0.3-2-0.4-2.3c0-0.9,0.9-1.6,1.2-2.5c0.4-0.9,0.2-1.9-0.3-2.7c-0.2-0.3-0.4-0.6-0.4-0.9
		c-0.1-0.4,0.2-0.8,0.3-1.2c0.2-0.4,0.2-0.9-0.1-1.2c-0.1-0.1-0.3-0.1-0.4-0.3c-0.1-0.2,0-0.5,0.2-0.8c0.5-0.9,0.1-2.3-0.9-2.6
		c-0.5-0.2-1.1-0.2-1.4-0.5c-1.7-1.7,3-4.5,2-6.5c-0.1-0.3-0.4-0.5-0.6-0.7c-0.7-0.7-1.4-1.3-2.1-2c-0.3-0.3-0.6-0.6-0.6-1.1
		c0-0.3,0.1-0.5,0.1-0.8c-0.2-0.6-1.2-0.8-1.5-1.3c-0.4-0.6-0.5-1.8-0.6-2.5c-0.1-0.5-0.1-1.1-0.1-1.6c0-0.2,0.1-0.5,0-0.7
		c-0.1-0.4-0.5-0.5-0.9-0.5c-0.9-0.1-1.8-0.1-2.7-0.1c0.6-1.2,1.1-2.7,0.3-3.8c-0.8-1-2.2-0.8-3.4-0.5c-0.4-0.4-0.1-1.2-0.5-1.6
		c-0.4-0.4-1.2,0-1.6-0.4c-0.2-0.2-0.2-0.4-0.2-0.7c0-0.6-0.1-1.3-0.1-1.9c0-0.2,0-0.4-0.2-0.5c-0.1-0.1-0.3-0.1-0.4-0.2
		c-3.7-0.6-0.6-1.5-2.1-3.7c-0.3-0.4-0.7-0.5-1-0.8c-0.3-0.3-0.6-0.8-0.4-1.2c-1.9-0.5-4.2,0.3-5.6-1c-0.2-0.2-0.4-0.5-0.7-0.7
		c-0.6-0.3-1.4,0.2-1.4,1c-0.1-0.5-0.6-0.7-1.1-0.8c-0.5-0.1-0.9-0.1-1.3-0.4c-0.4-0.3-0.6-0.9-0.2-1.2c-1.7-0.6-3.3,1.2-5.1,1.4
		c-0.2,0-0.5,0-0.6-0.1c-0.2-0.1-0.2-0.3-0.3-0.5c-0.3-1-0.3-4.5-1.6-4.8c-0.2-0.1-0.5,0-0.8,0c-0.7,0-1.2-0.5-1.9-0.7
		c-1.5-0.4-2.9,1.1-4.4,0.7c-0.7-0.2-1.2-0.8-1.9-1.1c-0.7-0.2-1.7,0.3-1.4,1.1c-0.6-0.4-1.5-0.1-1.8,0.6c-0.1,0.3-0.2,0.6-0.3,0.8
		c-0.3,0.8-1,1.3-1.8,1.3c-0.8,0-1.5-0.6-1.7-1.4c-0.2-0.6-0.3-1.6-0.9-1.6c-0.3,0-0.5,0.2-0.7,0.3c-1.8,1.1-4.9-1.1-6.5,0.2
		c-0.2,0.2-0.2,0.6-0.3,0.9c-0.2,0.8-1.2,0.9-1.9,0.9c-0.5,0-0.9,0-1.4,0l0.3-0.1c-0.5-0.1-1.1-0.2-1.6-0.4
		c-0.3-0.1-0.7-0.2-0.9-0.4c-0.3-0.3-0.3-0.7-0.1-1c-0.7-0.2-1.8-0.3-2,0.5c-0.1,0.3,0,0.6,0,1c-0.1,0.6-0.7,1.2-0.5,1.8
		c0.1,0.3,0.3,0.5,0.5,0.7l-1.5,0.7c-0.3,0.1-0.7,0.2-1,0.4c-0.3-0.7-0.7-1.4-1.2-2c-0.3-0.3-0.7-0.7-1.1-0.6
		c-0.8,0.2-0.4,1.5-0.9,2.2c-0.3,0-0.6-0.4-0.6-0.8c-0.6-0.4-1.5,0.1-1.8,0.8c-0.3,0.7-0.1,1.5,0,2.3c-0.7,0-1.3,0.1-2,0.1
		c-0.1,0.2-0.1,0.5,0,0.8c-0.7,0-1.3-0.1-2-0.1c0,0,0,0.1,0,0.1c-0.9,0-1.8,0.4-2.5,1c-0.3,0.1-0.5,0.1-0.8,0.3
		c-2.6,1.5,0.4,2.6,1.1,3.5c0.4,0.5-0.3,1.4-0.9,1.1c0.1,0.4,0.2,0.9,0.1,1.3c-0.1,0.4-0.6,0.7-1,0.4c-0.1-0.1-0.2-0.2-0.3-0.4
		c-0.6-0.9-1.9-1.1-2.7-0.4c-0.5,0.5-0.7,1.3-0.6,2c-0.2-0.2-0.5-0.3-0.8-0.2c-0.6,0.1-1.2,0.6-1.5,1.2c-0.1,0.2-0.2,0.4-0.2,0.7
		c-0.1,0.9,1,1.4,1.6,2.1c0.5,0.5,0.7,1.3,0.6,2c-0.4,0.1-0.8,0.3-1.2,0.5c-0.3,0-0.5,0-0.8,0.1c-0.6,0.2-1.1,0.8-1,1.4
		c-0.2-0.7-1.1-1-1.6-0.6c-0.6,0.4-0.6,1.4,0,1.8c0.2,0.1,0.4,0.2,0.6,0.4c0.2,0.2,0.4,0.6,0.6,1c0,0.5,0.2,0.9,0.4,1.4
		c-0.1,0.1-0.2,0.1-0.3,0.2c-1.1-0.5-2.4,0.2-3.4,1.1c-0.2,0.1-0.3,0.3-0.4,0.5c-0.1,0.3,0.1,0.6,0.3,0.9c0.7,0.9,1.8,1.5,2.9,1.8
		c0,0,0,0,0.1,0c-0.3,0.3-0.4,0.6-0.5,1c-0.7,0.3-1.2,1-1.2,1.8c-0.9-0.1-1.8-0.3-2.6,0.3c-0.7,0.5-0.8,2,0.1,2.2
		c0.3,0.1,0.6,0,0.9,0.2c0.5,0.3,0.4,1,0.3,1.5c-0.1,0.5,0,1.3,0.5,1.4c0,0,0,0,0,0c0.4,1.7,1.8,3.3,3.3,3.1c-0.4,0.3-1,0.1-1.4,0.4
		c-0.8,0.6,0.5,2.4-0.3,3.1c-0.5,0.4-1.3-0.1-1.7,0.3c-0.3,0.3-0.3,0.8-0.2,1.2c0.1,0.4,0.4,0.8,0.4,1.2c0,0.3,0,0.6,0,0.9
		c-0.1,0.7-0.2,1.5-0.3,2.2c-0.4,0.2-0.9,0.4-1.1,0.9c-0.2,0.6,0.2,1.2,0.7,1.6c0.4,0.3,0.8,0.5,1.2,0.8c0,0.7-0.1,1.4-0.1,2.1
		c-0.5,0.1-1,0-1.3,0.3c-0.5,0.5-0.1,1.4,0.5,1.7c0.6,0.3,1.3,0.1,2,0c2.3-0.4,2.6-0.1,2.6,2.3l-0.1-0.1c-0.1,1.1,0.1,2.2,0.4,3.3
		c1.5-0.8,3.3-0.7,4.7,0.2c0.8,0.5,1.5,1.3,2.4,1.4c0.2,0,0.4,0.1,0.5,0.1c0.1,0.1,0.2,0.2,0.4,0.3c0,0,0,0.1,0,0.1
		c0,0.4-0.5,0.5-0.9,0.5c-0.1,0.8,0.5,1.4,1,1.9c0.5,0.5,1.1,1.3,0.8,2c0.8-0.2,1.5-0.4,2.3-0.3c0.2,0,0.5,0.1,0.6,0.3
		c0.1,0.1,0.3,0.3,0.4,0.4c0.2,0.3,0.4,0.6,0.5,1c-0.9,0.2-1.5,1.3-1.2,2.2c0.8-0.2,1.8-0.4,2.3,0.3c0.1,0.2,0.2,0.4,0.3,0.5
		c0.2,0.2,0.5,0.3,0.7,0.3c1,0.3,1.9,0.9,2.6,1.6c-0.6,0.5-0.1,1.7,0.6,1.8c0.8,0.1,1.4-0.6,1.5-1.4c0.1-0.5-0.1-1.2,0.2-1.6
		c0.3-0.5,1-0.5,1.5-0.5c0.8,0,1.6,0,2.3,0c0.1,0,0.3,0,0.3,0.1c0.1,0.1,0,0.3,0,0.5c0,0.5,0.5,0.8,1,0.8c0.5,0,0.9-0.4,1.2-0.7
		c-0.2-0.3-0.4-0.8-0.5-1.2c0-0.7,0.1-1.3,0.2-2c0,0,0,0,0-0.1c1.5,1,2.6,2.5,4.5,2.5c1.3,1.2,2.2,1.9,2.2,1.9v78.2
		c-0.5,0-0.9,0.1-1.2,0.4c-0.2,0.2-0.2,0.5-0.3,0.8c-0.2,0.7-1,0.8-1.7,0.8c-0.1,0-0.3,0-0.4,0c0-0.1-0.1-0.2-0.2-0.3
		c-0.1-0.1-0.2-0.1-0.3-0.2c-0.1-0.2,0-0.4,0.2-0.6c0.4-0.8,0.1-1.9-0.7-2.3c-0.4-0.2-0.9-0.1-1.2-0.5c-1.4-1.5,2.6-3.9,1.8-5.6
		c-0.1-0.3-0.3-0.4-0.5-0.6c-0.6-0.6-1.2-1.2-1.8-1.7c-0.3-0.3-0.5-0.6-0.5-0.9c0-0.2,0.1-0.5,0.1-0.7c-0.1-0.5-1-0.7-1.3-1.1
		c-0.3-0.5-0.4-1.6-0.5-2.2c-0.1-0.5-0.1-0.9-0.1-1.4c0-0.2,0.1-0.4,0-0.6c-0.1-0.3-0.5-0.4-0.8-0.4c-0.8-0.1-1.6-0.1-2.4-0.1
		c0.5-1,1-2.4,0.3-3.3c-0.7-0.9-1.9-0.7-2.9-0.4c-0.4-0.3-0.1-1-0.4-1.4c-0.3-0.4-1,0-1.3-0.4c-0.1-0.2-0.2-0.4-0.2-0.6
		c0-0.5-0.1-1.1-0.1-1.6c0-0.2,0-0.4-0.1-0.5c-0.1-0.1-0.2-0.1-0.4-0.1c-3.2-0.5-0.5-1.3-1.8-3.2c-0.2-0.3-0.6-0.5-0.9-0.7
		c-0.3-0.2-0.5-0.7-0.3-1c-1.6-0.4-3.6,0.3-4.8-0.9c-0.2-0.2-0.4-0.4-0.6-0.6c-0.5-0.3-1.2,0.2-1.2,0.8c-0.1-0.4-0.6-0.6-1-0.7
		c-0.4-0.1-0.8-0.1-1.2-0.3c-0.3-0.2-0.5-0.8-0.2-1.1c-1.4-0.5-2.8,1-4.4,1.2c-0.2,0-0.4,0-0.6-0.1c-0.1-0.1-0.2-0.3-0.3-0.5
		c-0.3-0.9-0.3-3.9-1.3-4.2c-0.2-0.1-0.4,0-0.7,0c-0.6,0-1.1-0.4-1.6-0.6c-1.3-0.3-2.5,0.9-3.8,0.6c-0.6-0.2-1.1-0.7-1.6-0.9
		c-0.6-0.2-1.5,0.3-1.2,0.9c-0.5-0.3-1.3-0.1-1.6,0.5c-0.1,0.2-0.1,0.5-0.2,0.7c-0.2,0.6-0.9,1.1-1.5,1.1c-0.7,0-1.3-0.5-1.5-1.2
		c-0.2-0.6-0.2-1.4-0.8-1.4c-0.2,0-0.4,0.1-0.6,0.3c-1.5,0.9-4.2-1-5.6,0.2c-0.2,0.2-0.2,0.5-0.3,0.8c-0.2,0.7-1,0.8-1.7,0.8
		c-0.4,0-0.8,0-1.2,0l0.3-0.1c-0.5-0.1-0.9-0.2-1.4-0.3c-0.3-0.1-0.6-0.1-0.8-0.4c-0.2-0.2-0.3-0.6-0.1-0.8
		c-0.6-0.2-1.5-0.2-1.7,0.4c-0.1,0.3,0,0.5,0,0.8c-0.1,0.5-0.6,1-0.4,1.5c0.1,0.2,0.2,0.4,0.4,0.6l-1.3,0.6
		c-0.3,0.1-0.6,0.2-0.9,0.3c-0.3-0.6-0.6-1.2-1-1.7c-0.2-0.3-0.6-0.6-0.9-0.5c-0.6,0.2-0.4,1.3-0.8,1.9c-0.3,0-0.5-0.4-0.5-0.7
		c-0.5-0.4-1.3,0.1-1.5,0.7c-0.2,0.6-0.1,1.3,0,2c-0.6,0-1.2,0.1-1.7,0.1c-0.1,0.2-0.1,0.5,0,0.7c-0.6,0-1.1-0.1-1.7-0.1
		c0,0,0,0.1,0,0.1c-0.8,0-1.5,0.4-2.1,0.9c-0.2,0-0.5,0.1-0.7,0.2c-2.2,1.3,0.3,2.2,0.9,3c0.3,0.5-0.3,1.2-0.8,1
		c0.1,0.4,0.2,0.7,0,1.1c-0.1,0.3-0.5,0.6-0.8,0.4c-0.1-0.1-0.2-0.2-0.2-0.3c-0.5-0.8-1.7-0.9-2.4-0.3c-0.5,0.4-0.6,1.1-0.5,1.7
		c-0.2-0.2-0.5-0.2-0.7-0.2c-0.6,0.1-1,0.6-1.3,1.1c-0.1,0.2-0.2,0.4-0.2,0.6c-0.1,0.8,0.8,1.2,1.4,1.8c0.4,0.4,0.6,1.1,0.5,1.7
		c-0.4,0.1-0.7,0.3-1,0.5c-0.2,0-0.5,0-0.7,0.1c-0.1,0-0.1,0.1-0.2,0.1c-0.1,0-0.2,0-0.2-0.1c-0.2-0.2-0.3-0.4-0.3-0.6
		c-0.4-1.2-0.4-5.4-1.9-5.8c-0.3-0.1-0.6,0-0.9,0c-0.8,0-1.5-0.6-2.3-0.8c-1.7-0.4-3.5,1.3-5.2,0.8c-0.8-0.3-1.5-1-2.3-1.3
		c-0.8-0.3-2,0.4-1.7,1.3c-0.7-0.5-1.8-0.1-2.2,0.7c-0.2,0.3-0.2,0.7-0.3,1c-0.3,0.9-1.2,1.5-2.1,1.5c-0.9,0-1.8-0.7-2.1-1.6
		c-0.2-0.8-0.3-1.9-1.1-1.9c-0.1,0-0.2,0-0.2,0.1v-129.2c4.2-1.7,8.1-4.6,11.5-8.1c1.7-0.2,3.6,0.1,5.3,0.4
		c-0.4,1.2,0.9,2.4,2.2,2.5c0.2,0,0.3,0,0.4-0.1c0.2-0.1,0.3-0.4,0.3-0.6c0.1-0.7-0.2-1.5-0.1-2.2c0.1-0.7,0.8-1.5,1.4-1.2
		c0.3,0.1,0.4,0.4,0.6,0.6c2.5,2.4,2.6-3.1,4.7-3.6c2.3-0.5,3.7,2.7,5.9,2.3c1.7-0.3,2.5-2.5,4.8-2.3c0.5,0,1,0.1,1.3-0.3
		c0.2-0.2,0.2-0.5,0.2-0.7c0.1-1.6,0.2-3.5,1.4-4.7c0.5-0.5,1.4-0.8,2-0.3c-0.7-1.2,0.6-2.8,2-2.7c0.5,0,1.3,0,1.2-0.5
		c0.9,0.2,1.8,0.3,2.7,0.2c0.2,0,0.5,0,0.6-0.2c0.6-0.7,0-2,0.5-2.7c0.4-0.5,1.2-0.6,1.4-0.9c0.7-0.9,1.8,0.5,1.4-1.8
		c-0.2-1.3-1.7-2.4-2.9-2.6c-0.4-3.2-1.2-4.5,1.8-5.7c1.7-0.7,4.3-0.6,5.5-2.3c0.7-0.9,0.4-2.5-0.6-2.9c0.1-1.2,1.1-2.1,1.6-3.2
		c0.5-1.1,0.3-2.5-0.4-3.5c-0.2-0.4-0.5-0.7-0.5-1.1c-0.1-0.6,0.2-1.1,0.4-1.6c0.2-0.5,0.3-1.2-0.2-1.5c-0.2-0.1-0.4-0.2-0.5-0.3
		c-0.2-0.3,0.1-0.7,0.2-1c0.7-1.2,0.1-2.9-1.1-3.4c-0.6-0.2-1.4-0.2-1.8-0.7c-2.1-2.2,3.8-5.8,2.6-8.3c-0.2-0.4-0.5-0.7-0.8-1
		c-0.9-0.9-1.8-1.7-2.6-2.6c-0.4-0.4-0.8-0.8-0.8-1.4c0-0.3,0.2-0.7,0.1-1c-0.2-0.7-1.5-1-1.9-1.7c-0.5-0.8-0.6-2.3-0.8-3.2
		c-0.1-0.7-0.2-1.4-0.2-2.1c0-0.3,0.1-0.6,0-0.9c-0.1-0.5-0.7-0.6-1.2-0.6c-1.2-0.1-2.3-0.2-3.5-0.2c0.7-1.5,1.5-3.5,0.4-4.9
		c-1-1.3-2.9-1-4.4-0.7c-0.5-0.5-0.1-1.5-0.6-2c-0.5-0.5-1.5,0-2-0.6c-0.2-0.2-0.2-0.6-0.3-0.9c-0.1-0.8-0.1-1.6-0.2-2.4
		c0-0.2,0-0.5-0.2-0.7c-0.1-0.1-0.4-0.2-0.5-0.2c-4.7-0.8-0.7-1.9-2.7-4.7c-0.3-0.5-0.9-0.7-1.3-1.1c-0.4-0.4-0.8-1-0.5-1.5
		c-2.4-0.7-5.3,0.4-7.1-1.3c-0.3-0.3-0.5-0.7-0.9-0.8c-0.8-0.4-1.8,0.3-1.8,1.2c-0.2-0.6-0.8-0.9-1.4-1c-0.6-0.1-1.2-0.1-1.7-0.5
		c-0.5-0.3-0.7-1.2-0.3-1.6c-2.2-0.8-4.2,1.5-6.5,1.7c-0.3,0-0.6,0-0.8-0.2c-0.2-0.2-0.3-0.4-0.4-0.7c-0.4-1.3-0.4-5.8-2-6.2
		c-0.3-0.1-0.6,0-1,0c-0.9,0-1.6-0.6-2.4-0.8c-1.9-0.5-3.8,1.4-5.6,0.8c-0.9-0.3-1.6-1.1-2.5-1.4c-0.9-0.3-2.2,0.4-1.8,1.4
		c-0.8-0.5-1.9-0.1-2.3,0.7c-0.2,0.3-0.2,0.7-0.3,1.1c-0.4,1-1.3,1.6-2.3,1.6c-1,0-1.9-0.8-2.2-1.7c-0.3-0.8-0.4-2-1.2-2.1
		c-0.3,0-0.6,0.2-0.9,0.4c-2.3,1.4-6.2-1.5-8.3,0.3c-0.3,0.3-0.3,0.8-0.4,1.2c-0.3,1-1.5,1.2-2.5,1.2c-0.6,0-1.2,0-1.7,0l0.4-0.2
		c-0.7-0.2-1.4-0.3-2.1-0.5c-0.4-0.1-0.9-0.2-1.2-0.5c-0.3-0.3-0.4-0.9-0.1-1.2c-0.9-0.3-2.3-0.4-2.5,0.6c-0.1,0.4,0,0.8,0,1.2
		c-0.1,0.8-0.9,1.5-0.7,2.3c0.1,0.3,0.4,0.6,0.6,0.9l-1.9,0.9c-0.4,0.1-0.9,0.2-1.3,0.5c-0.4-0.9-0.9-1.8-1.5-2.6
		c-0.4-0.4-0.8-0.9-1.4-0.7c-1,0.3-0.6,1.9-1.2,2.8c-0.4,0-0.8-0.5-0.7-1c-0.8-0.5-1.9,0.1-2.3,1c-0.4,0.9-0.2,2,0,2.9
		c-0.9,0-1.7,0.1-2.6,0.1c-0.1,0.3-0.1,0.7,0,1.1c-0.8,0-1.7-0.1-2.5-0.1c0,0,0,0.1,0,0.1c-1.1,0.1-2.3,0.6-3.2,1.3
		c-0.4,0.1-0.7,0.2-1,0.4c-3.3,2,0.5,3.3,1.4,4.5c0.5,0.7-0.4,1.9-1.2,1.4c0.1,0.5,0.3,1.1,0.1,1.6c-0.2,0.5-0.8,0.9-1.2,0.6
		c-0.2-0.1-0.3-0.3-0.4-0.5c-0.8-1.1-2.5-1.4-3.5-0.5c-0.7,0.6-1,1.6-0.8,2.6c-0.3-0.2-0.7-0.4-1.1-0.3c-0.8,0.1-1.5,0.8-1.9,1.6
		c-0.2,0.3-0.3,0.6-0.3,0.9c-0.1,1.2,1.2,1.8,2,2.7c0.6,0.7,0.9,1.6,0.8,2.5c-0.5,0.1-1,0.4-1.5,0.7c-0.3,0-0.7,0-1,0.1
		c-0.7,0.2-1.4,1-1.2,1.8c-0.2-0.9-1.4-1.3-2.1-0.8c-0.7,0.5-0.7,1.8,0,2.3c0.2,0.2,0.5,0.3,0.7,0.5c0.3,0.2,0.6,0.7,0.8,1.3
		c0,0.6,0.2,1.2,0.5,1.7c-0.1,0.1-0.3,0.2-0.4,0.2c-1.4-0.7-3.1,0.3-4.3,1.4c-0.2,0.2-0.4,0.4-0.5,0.7c-0.1,0.4,0.2,0.8,0.4,1.1
		c0.9,1.2,2.3,2,3.7,2.2c0,0,0.1,0,0.1,0.1c-0.3,0.3-0.6,0.8-0.6,1.3c-0.9,0.4-1.5,1.3-1.5,2.3c-1.1-0.2-2.4-0.4-3.3,0.3
		c-0.9,0.7-1,2.6,0.1,2.9c0.4,0.1,0.8,0,1.2,0.2c0.6,0.3,0.5,1.2,0.4,1.9c-0.1,0.7,0,1.6,0.6,1.8c0,0,0,0,0.1,0
		c0.5,2.2,2.2,4.2,4.2,4c-0.5,0.4-1.3,0.1-1.8,0.5c-1.1,0.8,0.6,3.1-0.4,3.9c-0.6,0.5-1.6-0.1-2.2,0.4c-0.4,0.3-0.4,1-0.2,1.5
		c0.2,0.5,0.5,1,0.6,1.6c0.1,0.4,0,0.7-0.1,1.1c-0.1,0.9-0.3,1.9-0.4,2.8c-0.5,0.3-1.1,0.6-1.3,1.2c-0.3,0.8,0.3,1.6,0.9,2
		c0.5,0.4,1.1,0.6,1.6,1c-0.1,0.9-0.1,1.8-0.2,2.7c-0.6,0.1-1.3,0-1.7,0.4c-0.7,0.6-0.2,1.9,0.6,2.2c0.8,0.4,1.7,0.1,2.6,0
		c3-0.5,3.3-0.2,3.3,2.9l-0.2-0.1c-0.1,1.4,0.1,2.8,0.5,4.2c1.9-1,4.3-1,6.1,0.2c1,0.6,1.9,1.6,3.1,1.8c0.2,0,0.5,0.1,0.7,0.2
		c0.2,0.1,0.3,0.3,0.5,0.4c0,0.1,0,0.1,0,0.2c0,0.5-0.6,0.6-1.1,0.6c-0.1,1,0.7,1.8,1.3,2.4c0.7,0.7,1.4,1.6,1,2.5
		c1-0.3,2-0.5,3-0.4c0.3,0,0.6,0.2,0.8,0.4c0.2,0.2,0.3,0.4,0.5,0.5c0.3,0.4,0.5,0.8,0.6,1.2c-1.2,0.2-1.9,1.7-1.5,2.9
		c1-0.3,2.3-0.5,2.9,0.4c0.1,0.2,0.2,0.5,0.4,0.7c0.2,0.3,0.6,0.3,0.9,0.4c1.3,0.4,2.4,1.1,3.4,2.1c-0.7,0.7-0.2,2.2,0.8,2.3
		c1,0.1,1.9-0.8,2-1.8c0.1-0.7-0.1-1.5,0.3-2.1c0.4-0.6,1.2-0.7,1.9-0.7c1,0,2,0,3,0c0.2,0,0.3,0,0.4,0.1c0.1,0.2,0.1,0.4,0.1,0.6
		c0,0.6,0.7,1.1,1.3,1c0.6-0.1,1.1-0.5,1.6-0.8c-0.3-0.4-0.5-1-0.7-1.5c0-0.9,0.1-1.7,0.2-2.5c0,0,0-0.1,0-0.1
		c1.9,1.2,3.3,3.3,5.7,3.2c1.7,1.6,2.8,2.4,2.8,2.4v138.4c-0.1,0.7-0.8,1.3-0.6,2c0.1,0.3,0.3,0.6,0.5,0.8l-1.8,0.8
		c-0.4,0.1-0.8,0.2-1.2,0.4c-0.4-0.9-0.8-1.7-1.4-2.4c-0.3-0.4-0.8-0.8-1.3-0.7c-0.9,0.3-0.5,1.8-1.1,2.6c-0.4,0-0.7-0.5-0.7-0.9
		c-0.7-0.5-1.8,0.1-2.1,0.9c-0.3,0.8-0.2,1.8,0,2.7c-0.8,0-1.6,0.1-2.4,0.1c-0.1,0.3-0.1,0.6,0,1c-0.8,0-1.6-0.1-2.4-0.1
		c0,0,0,0.1,0,0.1c-1.1,0.1-2.1,0.5-2.9,1.2c-0.3,0.1-0.6,0.2-0.9,0.3c-3,1.8,0.5,3.1,1.3,4.2c0.5,0.6-0.4,1.7-1.1,1.3
		c0.1,0.5,0.2,1,0.1,1.5c-0.2,0.5-0.7,0.8-1.1,0.5c-0.1-0.1-0.2-0.3-0.3-0.4c-0.7-1.1-2.3-1.3-3.3-0.4c-0.6,0.6-0.9,1.5-0.7,2.4
		c-0.3-0.2-0.6-0.3-1-0.3c-0.8,0.1-1.4,0.8-1.8,1.5c-0.1,0.2-0.3,0.5-0.3,0.8c0,0.1,0,0.2,0,0.3c-0.5-0.1-1-0.4-1.5-0.5
		c-1.3-0.3-2.5,0.9-3.8,0.6c-0.6-0.2-1.1-0.7-1.6-0.9c-0.6-0.2-1.5,0.3-1.2,0.9c-0.5-0.3-1.3-0.1-1.6,0.5c-0.1,0.2-0.1,0.5-0.2,0.7
		c-0.2,0.6-0.9,1.1-1.5,1.1c-0.7,0-1.3-0.5-1.5-1.2c-0.2-0.6-0.2-1.4-0.8-1.4c-0.2,0-0.4,0.1-0.6,0.3c-1.5,0.9-4.2-1-5.6,0.2
		c-0.2,0.2-0.2,0.5-0.3,0.8c-0.2,0.7-1,0.8-1.7,0.8l-1.2,0l0.3-0.1c-0.5-0.1-0.9-0.2-1.4-0.3c-0.3-0.1-0.6-0.1-0.8-0.4
		c-0.2-0.2-0.3-0.6-0.1-0.8c-0.6-0.2-1.5-0.2-1.7,0.4c-0.1,0.3,0,0.5,0,0.8c-0.1,0.5-0.6,1-0.4,1.5c0.1,0.2,0.2,0.4,0.4,0.6
		l-1.3,0.6c-0.3,0.1-0.6,0.2-0.9,0.3c-0.3-0.6-0.6-1.2-1-1.7c-0.2-0.3-0.6-0.6-0.9-0.5c-0.6,0.2-0.4,1.3-0.8,1.9
		c-0.3,0-0.5-0.4-0.5-0.7c-0.5-0.4-1.3,0.1-1.5,0.7c-0.2,0.6-0.1,1.3,0,2c-0.6,0-1.2,0.1-1.7,0.1c-0.1,0.2-0.1,0.5,0,0.7
		c-0.6,0-1.1-0.1-1.7-0.1c0,0,0,0.1,0,0.1c-0.8,0-1.5,0.4-2.1,0.9c-0.2,0-0.5,0.1-0.7,0.2c-2.2,1.3,0.3,2.2,0.9,3
		c0.3,0.4,0,0.9-0.4,1c0-0.3,0-0.5-0.1-0.8c0-0.2,0-0.4-0.1-0.5c-0.1-0.1-0.2-0.1-0.4-0.1c-3.2-0.5-0.5-1.3-1.8-3.2
		c-0.2-0.3-0.6-0.5-0.9-0.7c-0.3-0.2-0.5-0.7-0.3-1c-1.6-0.4-3.6,0.3-4.8-0.9c-0.2-0.2-0.4-0.4-0.6-0.6c-0.5-0.3-1.2,0.2-1.2,0.8
		c-0.1-0.4-0.6-0.6-1-0.7c-0.4-0.1-0.8-0.1-1.2-0.3c-0.3-0.2-0.5-0.8-0.2-1.1c-1.4-0.5-2.8,1-4.4,1.2c-0.2,0-0.4,0-0.6-0.1
		c-0.1-0.1-0.2-0.3-0.3-0.5c-0.3-0.9-0.3-3.9-1.3-4.2c-0.2-0.1-0.4,0-0.7,0c-0.6,0-1.1-0.4-1.6-0.6c-1.3-0.3-2.5,0.9-3.8,0.6
		c-0.6-0.2-1.1-0.7-1.6-0.9c-0.6-0.2-1.5,0.3-1.2,0.9c-0.5-0.3-1.3-0.1-1.6,0.5c-0.1,0.2-0.1,0.5-0.2,0.7c-0.2,0.6-0.9,1.1-1.5,1.1
		c-0.7,0-1.3-0.5-1.5-1.2c-0.2-0.6-0.2-1.4-0.8-1.4c-0.2,0-0.4,0.1-0.6,0.3c-1.5,0.9-4.2-1-5.6,0.2c-0.2,0.2-0.2,0.5-0.3,0.8
		c-0.2,0.7-1,0.8-1.7,0.8c-0.4,0-0.8,0-1.2,0l0.3-0.1c-0.5-0.1-0.9-0.2-1.4-0.3c-0.3-0.1-0.6-0.1-0.8-0.4s-0.3-0.6-0.1-0.8
		c-0.6-0.2-1.5-0.2-1.7,0.4c-0.1,0.3,0,0.5,0,0.8c0,0.3-0.2,0.6-0.3,0.9c-0.5-0.5-1.1-1-1.6-1.6c-0.4-0.3-0.7-0.8-0.7-1.3
		c0-0.3,0.2-0.6,0.1-0.9c-0.2-0.7-1.4-0.9-1.8-1.5c-0.5-0.7-0.6-2.1-0.7-3c-0.1-0.6-0.2-1.3-0.2-1.9c0-0.3,0.1-0.6,0-0.9
		c-0.1-0.4-0.7-0.6-1.1-0.6c-1.1-0.1-2.2-0.1-3.2-0.2c0.7-1.4,1.4-3.3,0.4-4.5c-0.9-1.2-2.7-1-4.1-0.6c-0.5-0.4-0.1-1.4-0.5-1.9
		c-0.5-0.5-1.4,0-1.9-0.5c-0.2-0.2-0.2-0.5-0.2-0.8c-0.1-0.8-0.1-1.5-0.2-2.3c0-0.2,0-0.5-0.2-0.6c-0.1-0.1-0.3-0.2-0.5-0.2
		c-4.4-0.7-0.7-1.8-2.5-4.4c-0.3-0.4-0.8-0.6-1.2-1c-0.4-0.3-0.7-0.9-0.5-1.4c-2.2-0.6-5,0.4-6.6-1.2c-0.3-0.3-0.5-0.6-0.8-0.8
		c-0.7-0.4-1.7,0.3-1.7,1.1c-0.2-0.6-0.8-0.8-1.3-0.9c-0.5-0.1-1.1-0.1-1.6-0.4c-0.2-0.1-0.3-0.3-0.4-0.5v-0.8
		c0-0.1,0.1-0.1,0.1-0.2c0,0-0.1,0-0.1,0v-47.5c3.3-1.3,6.3-3.6,9-6.3c1.4-0.1,2.8,0.1,4.2,0.3c-0.3,1,0.7,1.9,1.7,1.9
		c0.1,0,0.2,0,0.3-0.1c0.1-0.1,0.2-0.3,0.2-0.5c0.1-0.6-0.1-1.1-0.1-1.7c0.1-0.6,0.6-1.2,1.1-0.9c0.2,0.1,0.3,0.3,0.5,0.5
		c1.9,1.9,2-2.4,3.7-2.8c1.8-0.4,2.9,2.1,4.6,1.8c1.4-0.2,2-2,3.8-1.8c0.4,0,0.8,0.1,1-0.2c0.1-0.2,0.1-0.4,0.2-0.6
		c0.1-1.3,0.2-2.7,1.1-3.7c0.4-0.4,1.1-0.6,1.5-0.2c-0.5-0.9,0.5-2.2,1.5-2.1c0.4,0,1,0,1-0.4c0.7,0.2,1.4,0.2,2.1,0.2
		c0.2,0,0.4,0,0.5-0.2c0.4-0.5,0-1.6,0.4-2.1c0.3-0.4,0.9-0.5,1.1-0.7c0.6-0.7,1.4,0.4,1.1-1.4c-0.2-1-1.3-1.9-2.2-2
		c-0.3-2.5-0.9-3.5,1.4-4.5c1.3-0.6,3.3-0.5,4.3-1.8c0.5-0.7,0.3-2-0.4-2.3c0-0.9,0.9-1.6,1.2-2.5c0.4-0.9,0.2-1.9-0.3-2.7
		c-0.2-0.3-0.4-0.6-0.4-0.9c-0.1-0.4,0.2-0.8,0.3-1.2c0.2-0.4,0.2-0.9-0.1-1.2c-0.1-0.1-0.3-0.1-0.4-0.3c-0.1-0.2,0-0.5,0.2-0.8
		c0.5-0.9,0.1-2.3-0.9-2.6c-0.5-0.2-1.1-0.2-1.4-0.5c-1.7-1.7,3-4.5,2-6.5c-0.1-0.3-0.4-0.5-0.6-0.7c-0.7-0.7-1.4-1.3-2.1-2
		c-0.3-0.3-0.6-0.6-0.6-1.1c0-0.3,0.1-0.5,0.1-0.8c-0.2-0.6-1.2-0.8-1.5-1.3c-0.4-0.6-0.5-1.8-0.6-2.5c-0.1-0.5-0.1-1.1-0.1-1.6
		c0-0.2,0.1-0.5,0-0.7c-0.1-0.4-0.5-0.5-0.9-0.5c-0.9-0.1-1.8-0.1-2.7-0.1c0.6-1.2,1.1-2.7,0.3-3.8c-0.8-1-2.2-0.8-3.4-0.5
		c-0.4-0.4-0.1-1.2-0.5-1.6c-0.4-0.4-1.2,0-1.6-0.4c-0.2-0.2-0.2-0.4-0.2-0.7c0-0.6-0.1-1.3-0.1-1.9c0-0.2,0-0.4-0.2-0.5
		c-0.1-0.1-0.3-0.1-0.4-0.2c-3.7-0.6-0.6-1.5-2.1-3.7c-0.3-0.4-0.7-0.5-1-0.8s-0.6-0.8-0.4-1.2c-1.9-0.5-4.2,0.3-5.6-1
		c-0.2-0.2-0.4-0.5-0.7-0.7c-0.6-0.3-1.4,0.2-1.4,1c-0.1-0.5-0.6-0.7-1.1-0.8c-0.5-0.1-0.9-0.1-1.3-0.4c-0.4-0.3-0.6-0.9-0.2-1.2
		c-1.7-0.6-3.3,1.2-5.1,1.4c-0.2,0-0.5,0-0.6-0.1c-0.2-0.1-0.2-0.3-0.3-0.5c-0.3-1-0.3-4.5-1.6-4.8c-0.2-0.1-0.5,0-0.8,0
		c-0.7,0-1.2-0.5-1.9-0.7c-1.5-0.4-2.9,1.1-4.4,0.7c-0.7-0.2-1.2-0.8-1.9-1.1c-0.7-0.2-1.7,0.3-1.4,1.1c-0.6-0.4-1.5-0.1-1.8,0.6
		c-0.1,0.3-0.2,0.6-0.3,0.8c-0.3,0.8-1,1.3-1.8,1.3s-1.5-0.6-1.7-1.4c-0.2-0.6-0.3-1.6-0.9-1.6c-0.3,0-0.5,0.2-0.7,0.3
		c-1.8,1.1-4.9-1.1-6.5,0.2c-0.2,0.2-0.2,0.6-0.3,0.9c-0.2,0.8-1.2,0.9-1.9,0.9c-0.5,0-0.9,0-1.4,0l0.3-0.1
		c-0.5-0.1-1.1-0.2-1.6-0.4c-0.3-0.1-0.7-0.2-0.9-0.4c-0.3-0.3-0.3-0.7-0.1-1c-0.7-0.2-1.8-0.3-2,0.5c-0.1,0.3,0,0.6,0,1
		c-0.1,0.6-0.7,1.2-0.5,1.8c0.1,0.3,0.3,0.5,0.5,0.7l-1.5,0.7c-0.3,0.1-0.7,0.2-1,0.4c-0.3-0.7-0.7-1.4-1.2-2
		c-0.3-0.3-0.7-0.7-1.1-0.6c-0.8,0.2-0.4,1.5-0.9,2.2c-0.3,0-0.6-0.4-0.6-0.8c-0.6-0.4-1.5,0.1-1.8,0.8c-0.3,0.7-0.1,1.5,0,2.3
		c-0.7,0-1.3,0.1-2,0.1c-0.1,0.2-0.1,0.5,0,0.8c-0.7,0-1.3-0.1-2-0.1c0,0,0,0.1,0,0.1c-0.9,0-1.8,0.4-2.5,1
		c-0.3,0.1-0.5,0.1-0.8,0.3c-2.6,1.5,0.4,2.6,1.1,3.5c0.4,0.5-0.3,1.4-0.9,1.1c0.1,0.4,0.2,0.9,0.1,1.3c-0.1,0.4-0.6,0.7-1,0.4
		c-0.1-0.1-0.2-0.2-0.3-0.4c-0.6-0.9-1.9-1.1-2.7-0.4c-0.5,0.5-0.7,1.3-0.6,2c-0.2-0.2-0.5-0.3-0.8-0.2c-0.6,0.1-1.2,0.6-1.5,1.2
		c-0.1,0.2-0.2,0.4-0.2,0.7c-0.1,0.9,1,1.4,1.6,2.1c0.5,0.5,0.7,1.3,0.6,2c-0.4,0.1-0.8,0.3-1.2,0.5c-0.3,0-0.5,0-0.8,0.1
		c-0.6,0.2-1.1,0.8-1,1.4c-0.2-0.7-1.1-1-1.6-0.6c-0.6,0.4-0.6,1.4,0,1.8c0.2,0.1,0.4,0.2,0.6,0.4c0.2,0.2,0.4,0.6,0.6,1
		c0,0.5,0.2,0.9,0.4,1.4c-0.1,0.1-0.2,0.1-0.3,0.2c-0.9-0.4-1.9,0-2.8,0.6c0-0.1,0-0.3,0-0.4c-0.2-0.6-1.2-0.8-1.5-1.3
		c-0.4-0.6-0.5-1.8-0.6-2.5c-0.1-0.5-0.1-1.1-0.1-1.6c0-0.2,0.1-0.5,0-0.7c-0.1-0.4-0.5-0.5-0.9-0.5c-0.9-0.1-1.8-0.1-2.7-0.1
		c0.6-1.2,1.1-2.7,0.3-3.8c-0.8-1-2.2-0.8-3.4-0.5c-0.4-0.4-0.1-1.2-0.5-1.6c-0.4-0.4-1.2,0-1.6-0.4c-0.2-0.2-0.2-0.4-0.2-0.7
		c0-0.6-0.1-1.3-0.1-1.9c0-0.2,0-0.4-0.2-0.5c-0.1-0.1-0.3-0.1-0.4-0.2c-3.7-0.6-0.6-1.5-2.1-3.7c-0.3-0.4-0.7-0.5-1-0.8
		c-0.3-0.3-0.6-0.8-0.4-1.2c-1.9-0.5-4.2,0.3-5.6-1c-0.2-0.2-0.4-0.5-0.7-0.7c-0.6-0.3-1.4,0.2-1.4,1c-0.1-0.5-0.6-0.7-1.1-0.8
		c-0.5-0.1-0.9-0.1-1.3-0.4c-0.4-0.3-0.6-0.9-0.2-1.2c-1.7-0.6-3.3,1.2-5.1,1.4c-0.2,0-0.5,0-0.6-0.1c-0.2-0.1-0.2-0.3-0.3-0.5
		c-0.3-1-0.3-4.5-1.6-4.8c-0.2-0.1-0.5,0-0.8,0c-0.7,0-1.2-0.5-1.9-0.7c-1.5-0.4-2.9,1.1-4.4,0.7c-0.7-0.2-1.2-0.8-1.9-1.1
		c-0.7-0.2-1.7,0.3-1.4,1.1c-0.6-0.4-1.5-0.1-1.8,0.6c-0.1,0.3-0.2,0.6-0.3,0.8c-0.3,0.8-1,1.3-1.8,1.3c-0.8,0-1.5-0.6-1.7-1.4
		c-0.2-0.6-0.3-1.6-0.9-1.6c-0.3,0-0.5,0.2-0.7,0.3c-1.8,1.1-4.9-1.1-6.5,0.2c-0.2,0.2-0.2,0.6-0.3,0.9c-0.2,0.8-1.2,0.9-1.9,0.9
		c-0.5,0-0.9,0-1.4,0l0.3-0.1c-0.5-0.1-1.1-0.2-1.6-0.4c-0.3-0.1-0.7-0.2-0.9-0.4c-0.3-0.3-0.3-0.7-0.1-1c-0.7-0.2-1.8-0.3-2,0.5
		c-0.1,0.3,0,0.6,0,1c-0.1,0.6-0.7,1.2-0.5,1.8c0.1,0.3,0.3,0.5,0.5,0.7l-1.5,0.7c-0.3,0.1-0.7,0.2-1,0.4c-0.3-0.7-0.7-1.4-1.2-2
		c-0.3-0.3-0.7-0.7-1.1-0.6c-0.8,0.2-0.4,1.5-0.9,2.2c-0.3,0-0.6-0.4-0.6-0.8c-0.6-0.4-1.5,0.1-1.8,0.8c-0.3,0.7-0.1,1.5,0,2.3
		c-0.7,0-1.3,0.1-2,0.1c-0.1,0.2-0.1,0.5,0,0.8c-0.7,0-1.3-0.1-2-0.1c0,0,0,0.1,0,0.1c-0.9,0-1.8,0.4-2.5,1
		c-0.3,0.1-0.5,0.1-0.8,0.3c-2.6,1.5,0.4,2.6,1.1,3.5c0.4,0.5-0.3,1.4-0.9,1.1c0.1,0.4,0.2,0.9,0.1,1.3c-0.1,0.4-0.6,0.7-1,0.4
		c-0.1-0.1-0.2-0.2-0.3-0.4c-0.6-0.9-1.9-1.1-2.7-0.4c-0.5,0.5-0.7,1.3-0.6,2c-0.2-0.2-0.5-0.3-0.8-0.2c-0.6,0.1-1.2,0.6-1.5,1.2
		c-0.1,0.2-0.2,0.4-0.2,0.7c-0.1,0.9,1,1.4,1.6,2.1c0.5,0.5,0.7,1.3,0.6,2c-0.4,0.1-0.8,0.3-1.2,0.5c-0.3,0-0.5,0-0.8,0.1
		c-0.6,0.2-1.1,0.8-1,1.4c-0.2-0.7-1.1-1-1.6-0.6c-0.6,0.4-0.6,1.4,0,1.8c0.2,0.1,0.4,0.2,0.6,0.4c0.2,0.2,0.4,0.6,0.6,1
		c0,0.5,0.2,0.9,0.4,1.4c-0.1,0.1-0.2,0.1-0.3,0.2c-1.1-0.5-2.4,0.2-3.4,1.1c-0.2,0.1-0.3,0.3-0.4,0.5c-0.1,0.3,0.1,0.6,0.3,0.9
		c0.7,0.9,1.8,1.5,2.9,1.8c0,0,0,0,0.1,0c-0.3,0.3-0.4,0.6-0.5,1c-0.7,0.3-1.2,1-1.2,1.8c-0.9-0.1-1.8-0.3-2.6,0.3s-0.8,2,0.1,2.2
		c0.3,0.1,0.6,0,0.9,0.2c0.5,0.3,0.4,1,0.3,1.5c-0.1,0.5,0,1.3,0.5,1.4c0,0,0,0,0,0c0.4,1.7,1.8,3.3,3.3,3.1c-0.4,0.3-1,0.1-1.4,0.4
		c-0.8,0.6,0.5,2.4-0.3,3.1c-0.5,0.4-1.3-0.1-1.7,0.3c-0.3,0.3-0.3,0.8-0.2,1.2c0.1,0.4,0.4,0.8,0.4,1.2c0,0.3,0,0.6,0,0.9
		c-0.1,0.7-0.2,1.5-0.3,2.2c-0.4,0.2-0.9,0.4-1.1,0.9c-0.2,0.6,0.2,1.2,0.7,1.6c0.4,0.3,0.8,0.5,1.2,0.8c0,0.7-0.1,1.4-0.1,2.1
		c-0.5,0.1-1,0-1.3,0.3c-0.5,0.5-0.1,1.4,0.5,1.7c0.6,0.3,1.3,0.1,2,0c2.3-0.4,2.6-0.1,2.6,2.3l-0.1-0.1c-0.1,1.1,0.1,2.2,0.4,3.3
		c1.5-0.8,3.3-0.7,4.7,0.2c0.8,0.5,1.5,1.3,2.4,1.4c0.2,0,0.4,0.1,0.5,0.1c0.1,0.1,0.2,0.2,0.4,0.3c0,0,0,0.1,0,0.1
		c0,0.4-0.5,0.5-0.9,0.5c-0.1,0.8,0.5,1.4,1,1.9c0.5,0.5,1.1,1.3,0.8,2c0.8-0.2,1.5-0.4,2.3-0.3c0.2,0,0.5,0.1,0.6,0.3
		c0.1,0.1,0.3,0.3,0.4,0.4c0.2,0.3,0.4,0.6,0.5,1c-0.9,0.2-1.5,1.3-1.2,2.2c0.8-0.2,1.8-0.4,2.3,0.3c0.1,0.2,0.2,0.4,0.3,0.5
		c0.2,0.2,0.5,0.3,0.7,0.3c1,0.3,1.9,0.9,2.6,1.6c-0.6,0.5-0.1,1.7,0.6,1.8c0.8,0.1,1.4-0.6,1.5-1.4c0.1-0.5-0.1-1.2,0.2-1.6
		c0.3-0.5,1-0.5,1.5-0.5c0.8,0,1.6,0,2.3,0c0.1,0,0.3,0,0.3,0.1c0.1,0.1,0,0.3,0,0.5c0,0.5,0.5,0.8,1,0.8c0.5,0,0.9-0.4,1.2-0.7
		c-0.2-0.3-0.4-0.8-0.5-1.2c0-0.7,0.1-1.3,0.2-2c0,0,0,0,0-0.1c1.5,1,2.6,2.5,4.5,2.5c1.3,1.2,2.2,1.9,2.2,1.9v88.7
		c-1.6,0.6-4-1-5.3,0.1c-0.2,0.2-0.2,0.5-0.3,0.8c-0.2,0.7-1,0.8-1.7,0.8c-0.4,0-0.8,0-1.2,0l0.3-0.1c-0.5-0.1-0.9-0.2-1.4-0.3
		c-0.3-0.1-0.6-0.1-0.8-0.4c-0.2-0.2-0.3-0.6-0.1-0.8c-0.6-0.2-1.5-0.2-1.7,0.4c-0.1,0.3,0,0.5,0,0.8c-0.1,0.5-0.6,1-0.4,1.5
		c0,0.1,0.1,0.2,0.1,0.3c-0.2,0-0.4,0-0.6,0c0.7-1.4,1.4-3.3,0.4-4.5c-0.9-1.2-2.7-1-4.1-0.6c-0.5-0.4-0.1-1.4-0.5-1.9
		c-0.5-0.5-1.4,0-1.9-0.5c-0.2-0.2-0.2-0.5-0.2-0.8c-0.1-0.8-0.1-1.5-0.2-2.3c0-0.2,0-0.5-0.2-0.6c-0.1-0.1-0.3-0.2-0.5-0.2
		c-4.4-0.7-0.7-1.8-2.5-4.4c-0.3-0.4-0.8-0.6-1.2-1c-0.4-0.3-0.7-0.9-0.5-1.4c-2.2-0.6-5,0.4-6.6-1.2c-0.3-0.3-0.5-0.6-0.8-0.8
		c-0.7-0.4-1.7,0.3-1.7,1.1c-0.2-0.6-0.8-0.8-1.3-0.9c-0.5-0.1-1.1-0.1-1.6-0.4c-0.5-0.3-0.7-1.1-0.3-1.5c-2-0.7-3.9,1.4-6,1.6
		c-0.3,0-0.6,0-0.8-0.2c-0.2-0.2-0.3-0.4-0.3-0.6c-0.4-1.2-0.4-5.4-1.9-5.8c-0.3-0.1-0.6,0-0.9,0c-0.8,0-1.5-0.6-2.3-0.8
		c-1.7-0.4-3.5,1.3-5.2,0.8c-0.8-0.3-1.5-1-2.3-1.3c-0.8-0.3-2,0.4-1.7,1.3c-0.7-0.5-1.8-0.1-2.2,0.7c-0.2,0.3-0.2,0.7-0.3,1
		c-0.3,0.9-1.2,1.5-2.1,1.5c-0.9,0-1.8-0.7-2.1-1.6c-0.2-0.8-0.3-1.9-1.1-1.9c-0.3,0-0.6,0.2-0.9,0.4c-2.1,1.3-5.8-1.3-7.7,0.2
		c-0.3,0.2-0.2,0.7-0.3,1.1c-0.3,0.9-1.4,1.1-2.3,1.1c-0.5,0-1.1,0-1.6,0l0.4-0.2c-0.6-0.1-1.3-0.3-1.9-0.4
		c-0.4-0.1-0.8-0.2-1.1-0.5c-0.3-0.3-0.4-0.9-0.1-1.2c-0.9-0.3-2.1-0.3-2.4,0.6c-0.1,0.4,0,0.8,0,1.1c-0.1,0.7-0.8,1.4-0.6,2.1
		c0.1,0.3,0.3,0.6,0.5,0.8l-1.8,0.8c-0.4,0.1-0.8,0.2-1.2,0.4c-0.4-0.9-0.8-1.7-1.4-2.4c-0.3-0.4-0.8-0.8-1.3-0.7
		c-0.9,0.3-0.5,1.8-1.1,2.6c-0.4,0-0.7-0.5-0.7-0.9c-0.7-0.5-1.8,0.1-2.1,0.9c-0.3,0.8-0.2,1.8,0,2.7c-0.8,0-1.6,0.1-2.4,0.1
		c-0.1,0.3-0.1,0.6,0,1c-0.8,0-1.6-0.1-2.4-0.1c0,0,0,0.1,0,0.1c-1.1,0.1-2.1,0.5-2.9,1.2c-0.3,0.1-0.6,0.2-0.9,0.3
		c-3,1.8,0.5,3.1,1.3,4.2c0.5,0.6-0.4,1.7-1.1,1.3c0.1,0.5,0.2,1,0.1,1.5c-0.2,0.5-0.7,0.8-1.1,0.5c-0.1-0.1-0.2-0.3-0.3-0.4
		c-0.7-1.1-2.3-1.3-3.3-0.4c-0.6,0.6-0.9,1.5-0.7,2.4c-0.3-0.2-0.6-0.3-1-0.3c-0.8,0.1-1.4,0.8-1.8,1.5c-0.1,0.2-0.3,0.5-0.3,0.8
		c-0.1,1.1,1.2,1.7,1.9,2.5c0.6,0.6,0.8,1.5,0.7,2.3c-0.5,0.1-1,0.4-1.4,0.6c-0.3,0-0.6,0-1,0.1c-0.7,0.2-1.3,0.9-1.2,1.7
		c-0.2-0.7-1.1-1.1-1.7-0.8v-116.6c3.9-1.5,7.5-4.3,10.7-7.5c1.6-0.1,3.3,0.1,5,0.4c-0.4,1.1,0.9,2.2,2,2.3c0.1,0,0.3,0,0.4-0.1
		c0.2-0.1,0.2-0.3,0.3-0.5c0.1-0.7-0.2-1.3-0.1-2c0.1-0.7,0.7-1.4,1.3-1.1c0.2,0.1,0.4,0.4,0.6,0.6c2.3,2.2,2.4-2.9,4.4-3.3
		c2.1-0.4,3.5,2.5,5.5,2.2c1.6-0.3,2.3-2.4,4.5-2.2c0.4,0,1,0.1,1.2-0.3c0.1-0.2,0.2-0.5,0.2-0.7c0.1-1.5,0.2-3.2,1.3-4.4
		c0.5-0.5,1.3-0.7,1.8-0.3c-0.6-1.1,0.6-2.6,1.8-2.5c0.5,0,1.2,0,1.1-0.5c0.8,0.2,1.7,0.3,2.5,0.2c0.2,0,0.4,0,0.6-0.2
		c0.5-0.6,0-1.9,0.5-2.5c0.4-0.5,1.1-0.6,1.3-0.8c0.7-0.8,1.6,0.4,1.3-1.7c-0.2-1.2-1.5-2.3-2.7-2.4c-0.4-3-1.1-4.1,1.7-5.3
		c1.6-0.7,4-0.5,5.1-2.1c0.6-0.9,0.4-2.3-0.5-2.7c0.1-1.1,1-1.9,1.5-2.9c0.4-1,0.2-2.3-0.3-3.3c-0.2-0.3-0.4-0.7-0.5-1.1
		c-0.1-0.5,0.2-1,0.4-1.5c0.2-0.5,0.2-1.1-0.1-1.4c-0.1-0.1-0.3-0.2-0.4-0.3c-0.2-0.3,0.1-0.6,0.2-0.9c0.6-1.1,0.1-2.7-1-3.1
		c-0.6-0.2-1.3-0.2-1.7-0.6c-2-2,3.6-5.4,2.4-7.7c-0.2-0.3-0.4-0.6-0.7-0.9c-0.8-0.8-1.6-1.6-2.5-2.4c-0.4-0.3-0.7-0.8-0.7-1.3
		c0-0.3,0.2-0.6,0.1-0.9c-0.2-0.7-1.4-0.9-1.8-1.5c-0.5-0.7-0.6-2.1-0.7-3c-0.1-0.6-0.2-1.3-0.2-1.9c0-0.3,0.1-0.6,0-0.9
		c-0.1-0.4-0.7-0.6-1.1-0.6c-1.1-0.1-2.2-0.1-3.2-0.2c0.7-1.4,1.4-3.3,0.4-4.5c-0.9-1.2-2.7-1-4.1-0.6c-0.5-0.4-0.1-1.4-0.5-1.9
		c-0.5-0.5-1.4,0-1.9-0.5c-0.2-0.2-0.2-0.5-0.2-0.8c-0.1-0.8-0.1-1.5-0.2-2.3c0-0.2,0-0.5-0.2-0.6c-0.1-0.1-0.3-0.2-0.5-0.2
		c-4.4-0.7-0.7-1.8-2.5-4.4c-0.3-0.4-0.8-0.6-1.2-1c-0.4-0.3-0.7-0.9-0.5-1.4c-2.2-0.6-5,0.4-6.6-1.2c-0.3-0.3-0.5-0.6-0.8-0.8
		c-0.7-0.4-1.7,0.3-1.7,1.1c-0.2-0.6-0.8-0.8-1.3-0.9c-0.5-0.1-1.1-0.1-1.6-0.4c-0.5-0.3-0.7-1.1-0.3-1.5c-2-0.7-3.9,1.4-6,1.6
		c-0.3,0-0.6,0-0.8-0.2c-0.2-0.2-0.3-0.4-0.3-0.6c-0.4-1.2-0.4-5.4-1.9-5.8c-0.3-0.1-0.6,0-0.9,0c-0.8,0-1.5-0.6-2.3-0.8
		c-1.7-0.4-3.5,1.3-5.2,0.8c-0.8-0.3-1.5-1-2.3-1.3c-0.8-0.3-2,0.4-1.7,1.3c-0.7-0.5-1.8-0.1-2.2,0.7c-0.2,0.3-0.2,0.7-0.3,1
		c-0.3,0.9-1.2,1.5-2.1,1.5c-0.9,0-1.8-0.7-2.1-1.6c-0.2-0.8-0.3-1.9-1.1-1.9c-0.3,0-0.6,0.2-0.9,0.4c-2.1,1.3-5.8-1.3-7.7,0.2
		c-0.3,0.2-0.2,0.7-0.3,1.1c-0.3,0.9-1.4,1.1-2.3,1.1c-0.5,0-1.1,0-1.6,0l0.4-0.2c-0.6-0.1-1.3-0.3-1.9-0.4
		c-0.4-0.1-0.8-0.2-1.1-0.5c-0.3-0.3-0.4-0.9-0.1-1.2c-0.9-0.3-2.1-0.3-2.4,0.6c-0.1,0.4,0,0.8,0,1.1c-0.1,0.7-0.8,1.4-0.6,2.1
		c0.1,0.3,0.3,0.6,0.5,0.8l-1.8,0.8c-0.4,0.1-0.8,0.2-1.2,0.4c-0.4-0.9-0.8-1.7-1.4-2.4c-0.3-0.4-0.8-0.8-1.3-0.7
		c-0.9,0.3-0.5,1.8-1.1,2.6c-0.4,0-0.7-0.5-0.7-0.9c-0.7-0.5-1.8,0.1-2.1,0.9c-0.3,0.8-0.2,1.8,0,2.7c-0.8,0-1.6,0.1-2.4,0.1
		c-0.1,0.3-0.1,0.6,0,1c-0.8,0-1.6-0.1-2.4-0.1c0,0,0,0.1,0,0.1c-1.1,0.1-2.1,0.5-2.9,1.2c-0.3,0.1-0.6,0.2-0.9,0.3
		c-3,1.8,0.5,3.1,1.3,4.2c0.5,0.6-0.4,1.7-1.1,1.3c0.1,0.5,0.2,1,0.1,1.5c-0.2,0.5-0.7,0.8-1.1,0.5c-0.1-0.1-0.2-0.3-0.3-0.4
		c-0.7-1.1-2.3-1.3-3.3-0.4c-0.6,0.6-0.9,1.5-0.7,2.4c-0.3-0.2-0.6-0.3-1-0.3c-0.8,0.1-1.4,0.8-1.8,1.5c-0.1,0.2-0.3,0.5-0.3,0.8
		c-0.1,1.1,1.2,1.7,1.9,2.5c0.6,0.6,0.8,1.5,0.7,2.3c-0.5,0.1-1,0.4-1.4,0.6c-0.3,0-0.6,0-1,0.1c-0.7,0.2-1.3,0.9-1.2,1.7
		c-0.2-0.8-1.3-1.2-1.9-0.8c-0.7,0.5-0.7,1.7,0,2.2c0.2,0.2,0.5,0.3,0.7,0.4c0.3,0.2,0.5,0.7,0.8,1.2c0,0.6,0.2,1.1,0.5,1.6
		c-0.1,0.1-0.3,0.1-0.4,0.2c-1.3-0.6-2.9,0.2-4,1.3c-0.2,0.2-0.4,0.4-0.4,0.6c-0.1,0.4,0.1,0.8,0.4,1.1c0.9,1.1,2.1,1.8,3.4,2.1
		c0,0,0.1,0,0.1,0.1c-0.3,0.3-0.5,0.7-0.5,1.2c-0.8,0.3-1.4,1.2-1.4,2.1c-1-0.2-2.2-0.3-3.1,0.3c-0.9,0.6-0.9,2.4,0.1,2.7
		c0.4,0.1,0.8,0,1.1,0.2c0.5,0.3,0.5,1.1,0.4,1.8c-0.1,0.6,0,1.5,0.6,1.7c0,0,0,0,0,0c0.5,2.1,2.1,3.9,3.9,3.7
		c-0.4,0.3-1.2,0.1-1.7,0.4c-1,0.8,0.6,2.9-0.4,3.6c-0.6,0.4-1.5-0.1-2.1,0.3c-0.4,0.3-0.4,0.9-0.2,1.4c0.2,0.5,0.5,0.9,0.5,1.5
		c0,0.3,0,0.7-0.1,1c-0.1,0.9-0.3,1.8-0.4,2.6c-0.5,0.2-1.1,0.5-1.3,1.1c-0.2,0.7,0.2,1.5,0.8,1.9c0.5,0.3,1,0.6,1.4,0.9
		c-0.1,0.8-0.1,1.7-0.2,2.5c-0.5,0.1-1.2,0-1.6,0.4c-0.6,0.6-0.2,1.7,0.6,2.1c0.7,0.3,1.6,0.1,2.4,0c2.8-0.5,3.1-0.2,3.1,2.7
		l-0.2-0.1c-0.1,1.3,0.1,2.6,0.5,3.9c1.7-1,4-0.9,5.6,0.2c0.9,0.6,1.8,1.5,2.8,1.7c0.2,0,0.4,0.1,0.7,0.2c0.1,0.1,0.3,0.2,0.4,0.4
		c0,0.1,0,0.1,0,0.2c0,0.5-0.6,0.6-1,0.6c-0.1,0.9,0.6,1.6,1.2,2.3c0.6,0.6,1.3,1.5,0.9,2.4c0.9-0.2,1.8-0.5,2.7-0.3
		c0.3,0,0.5,0.2,0.8,0.3c0.2,0.2,0.3,0.3,0.5,0.5c0.3,0.3,0.5,0.7,0.6,1.2c-1.1,0.2-1.8,1.6-1.4,2.7c0.9-0.3,2.1-0.5,2.7,0.4
		c0.1,0.2,0.2,0.4,0.4,0.6c0.2,0.2,0.5,0.3,0.8,0.4c1.2,0.3,2.3,1,3.1,1.9c-0.7,0.6-0.2,2,0.7,2.1c0.9,0.1,1.7-0.8,1.8-1.7
		c0.1-0.6-0.1-1.4,0.3-1.9c0.4-0.6,1.1-0.6,1.8-0.6c0.9,0,1.8,0,2.8,0c0.1,0,0.3,0,0.4,0.1c0.1,0.1,0.1,0.4,0.1,0.6
		c0,0.6,0.6,1,1.2,0.9c0.5-0.1,1-0.4,1.5-0.8c-0.3-0.4-0.5-0.9-0.6-1.4c0-0.8,0.1-1.6,0.2-2.4c0,0,0-0.1,0-0.1c1.8,1.2,3,3,5.3,3
		c1.6,1.5,2.6,2.3,2.6,2.3v125.7c-0.5-0.1-1-0.6-1.1-1.1c-0.2-0.6-0.2-1.4-0.8-1.4c-0.2,0-0.4,0.1-0.6,0.3c-1.5,0.9-4.2-1-5.6,0.2
		c-0.2,0.2-0.2,0.5-0.3,0.8c-0.2,0.7-1,0.8-1.7,0.8c-0.4,0-0.8,0-1.2,0l0.3-0.1c-0.5-0.1-0.9-0.2-1.4-0.3c-0.3-0.1-0.6-0.1-0.8-0.4
		c-0.2-0.2-0.3-0.6-0.1-0.8c-0.6-0.2-1.5-0.2-1.7,0.4c-0.1,0.3,0,0.5,0,0.8c-0.1,0.5-0.6,1-0.4,1.5c0.1,0.2,0.2,0.4,0.4,0.6
		l-1.3,0.6c-0.3,0.1-0.6,0.2-0.9,0.3c-0.3-0.6-0.6-1.2-1-1.7c-0.2-0.3-0.6-0.6-0.9-0.5c-0.6,0.2-0.4,1.3-0.8,1.9
		c-0.3,0-0.5-0.4-0.5-0.7c-0.2-0.2-0.5-0.2-0.7-0.1c-0.1-0.2-0.3-0.4-0.4-0.5c-0.6-0.6-1.2-1.2-1.8-1.7c-0.3-0.3-0.5-0.6-0.5-0.9
		c0-0.2,0.1-0.5,0.1-0.7c-0.1-0.5-1-0.7-1.3-1.1c-0.3-0.5-0.4-1.6-0.5-2.2c-0.1-0.5-0.1-0.9-0.1-1.4c0-0.2,0.1-0.4,0-0.6
		c-0.1-0.3-0.5-0.4-0.8-0.4c-0.8-0.1-1.6-0.1-2.4-0.1c0.5-1,1-2.4,0.3-3.3c-0.7-0.9-1.9-0.7-2.9-0.4c-0.4-0.3-0.1-1-0.4-1.4
		c-0.3-0.4-1,0-1.3-0.4c-0.1-0.2-0.2-0.4-0.2-0.6c0-0.5-0.1-1.1-0.1-1.6c0-0.2,0-0.4-0.1-0.5c-0.1-0.1-0.2-0.1-0.4-0.1
		c-3.2-0.5-0.5-1.3-1.8-3.2c-0.2-0.3-0.6-0.5-0.9-0.7c-0.3-0.2-0.5-0.7-0.3-1c-1.6-0.4-3.6,0.3-4.8-0.9c-0.2-0.2-0.4-0.4-0.6-0.6
		c-0.5-0.3-1.2,0.2-1.2,0.8c-0.1-0.4-0.6-0.6-1-0.7c-0.4-0.1-0.8-0.1-1.2-0.3c-0.3-0.2-0.5-0.8-0.2-1.1c-1.4-0.5-2.8,1-4.4,1.2
		c-0.2,0-0.4,0-0.6-0.1c-0.1-0.1-0.2-0.3-0.3-0.5c-0.3-0.9-0.3-3.9-1.3-4.2c-0.2-0.1-0.4,0-0.7,0c-0.6,0-1.1-0.4-1.6-0.6
		c-1.3-0.3-2.5,0.9-3.8,0.6c-0.6-0.2-1.1-0.7-1.6-0.9c-0.6-0.2-1.5,0.3-1.2,0.9c-0.5-0.3-1.3-0.1-1.6,0.5c-0.1,0.2-0.1,0.5-0.2,0.7
		c-0.2,0.6-0.9,1.1-1.5,1.1c-0.7,0-1.3-0.5-1.5-1.2c-0.2-0.6-0.2-1.4-0.8-1.4c-0.2,0-0.4,0.1-0.6,0.3c-1.5,0.9-4.2-1-5.6,0.2
		c-0.2,0.2-0.2,0.5-0.3,0.8c-0.2,0.7-1,0.8-1.7,0.8c-0.4,0-0.8,0-1.2,0l0.3-0.1c-0.5-0.1-0.9-0.2-1.4-0.3c-0.3-0.1-0.6-0.1-0.8-0.4
		c-0.2-0.2-0.3-0.6-0.1-0.8c-0.6-0.2-1.5-0.2-1.7,0.4c-0.1,0.3,0,0.5,0,0.8c-0.1,0.5-0.6,1-0.4,1.5c0.1,0.2,0.2,0.4,0.4,0.6
		l-1.3,0.6c-0.3,0.1-0.6,0.2-0.9,0.3c-0.3-0.6-0.6-1.2-1-1.7c-0.2-0.3-0.6-0.6-0.9-0.5c-0.6,0.2-0.4,1.3-0.8,1.9
		c-0.3,0-0.5-0.4-0.5-0.7c-0.5-0.4-1.3,0.1-1.5,0.7c-0.2,0.6-0.1,1.3,0,2c-0.6,0-1.2,0.1-1.7,0.1c-0.1,0.2-0.1,0.5,0,0.7
		c-0.6,0-1.1-0.1-1.7-0.1c0,0,0,0.1,0,0.1c-0.8,0-1.5,0.4-2.1,0.9c-0.2,0-0.5,0.1-0.7,0.2c-2.2,1.3,0.3,2.2,0.9,3
		c0.3,0.5-0.3,1.2-0.8,1c0.1,0.4,0.2,0.7,0,1.1c-0.1,0.3-0.5,0.6-0.8,0.4c-0.1-0.1-0.2-0.2-0.2-0.3c-0.5-0.8-1.7-0.9-2.4-0.3
		c-0.5,0.4-0.6,1.1-0.5,1.7c-0.2-0.2-0.5-0.2-0.7-0.2c-0.6,0.1-1,0.6-1.3,1.1c-0.1,0.2-0.2,0.4-0.2,0.6c-0.1,0.8,0.8,1.2,1.4,1.8
		c0.3,0.4,0.5,0.8,0.5,1.3c-0.6,0-1.2,0.1-1.7,0.3c-0.5-0.4-0.1-1.4-0.5-1.9c-0.5-0.5-1.4,0-1.9-0.5c-0.2-0.2-0.2-0.5-0.2-0.8
		c-0.1-0.8-0.1-1.5-0.2-2.3c0-0.2,0-0.5-0.2-0.6c-0.1-0.1-0.3-0.2-0.5-0.2c-4.4-0.7-0.7-1.8-2.5-4.4c-0.3-0.4-0.8-0.6-1.2-1
		c-0.4-0.3-0.7-0.9-0.5-1.4c-2.2-0.6-5,0.4-6.6-1.2c-0.3-0.3-0.5-0.6-0.8-0.8c-0.7-0.4-1.7,0.3-1.7,1.1c-0.2-0.6-0.8-0.8-1.3-0.9
		c-0.2,0-0.3-0.1-0.5-0.1v-143.9c3.3-1.3,6.3-3.6,9-6.3c1.4-0.1,2.8,0.1,4.2,0.3c-0.3,1,0.7,1.9,1.7,1.9c0.1,0,0.2,0,0.3-0.1
		c0.1-0.1,0.2-0.3,0.2-0.5c0.1-0.6-0.1-1.1-0.1-1.7c0.1-0.6,0.6-1.2,1.1-0.9c0.2,0.1,0.3,0.3,0.5,0.5c1.9,1.9,2-2.4,3.7-2.8
		c1.8-0.4,2.9,2.1,4.6,1.8c1.4-0.2,2-2,3.8-1.8c0.4,0,0.8,0.1,1-0.2c0.1-0.2,0.1-0.4,0.2-0.6c0.1-1.3,0.2-2.7,1.1-3.7
		c0.4-0.4,1.1-0.6,1.5-0.2c-0.5-0.9,0.5-2.2,1.5-2.1c0.4,0,1,0,1-0.4c0.7,0.2,1.4,0.2,2.1,0.2c0.2,0,0.4,0,0.5-0.2
		c0.4-0.5,0-1.6,0.4-2.1c0.3-0.4,0.9-0.5,1.1-0.7c0.6-0.7,1.4,0.4,1.1-1.4c-0.2-1-1.3-1.9-2.2-2c-0.3-2.5-0.9-3.5,1.4-4.5
		c1.3-0.6,3.3-0.5,4.3-1.8c0.5-0.7,0.3-2-0.4-2.3c0-0.9,0.9-1.6,1.2-2.5c0.4-0.9,0.2-1.9-0.3-2.7c-0.2-0.3-0.4-0.6-0.4-0.9
		c-0.1-0.4,0.2-0.8,0.3-1.2c0.2-0.4,0.2-0.9-0.1-1.2c-0.1-0.1-0.3-0.1-0.4-0.3c-0.1-0.2,0-0.5,0.2-0.8c0.5-0.9,0.1-2.3-0.9-2.6
		c-0.5-0.2-1.1-0.2-1.4-0.5c-1.7-1.7,3-4.5,2-6.5c-0.1-0.3-0.4-0.5-0.6-0.7c-0.7-0.7-1.4-1.3-2.1-2c-0.3-0.3-0.6-0.6-0.6-1.1
		c0-0.3,0.1-0.5,0.1-0.8c-0.2-0.6-1.2-0.8-1.5-1.3c-0.4-0.6-0.5-1.8-0.6-2.5c-0.1-0.5-0.1-1.1-0.1-1.6c0-0.2,0.1-0.5,0-0.7
		c-0.1-0.4-0.5-0.5-0.9-0.5c-0.9-0.1-1.8-0.1-2.7-0.1c0.6-1.2,1.1-2.7,0.3-3.8c-0.8-1-2.2-0.8-3.4-0.5c-0.4-0.4-0.1-1.2-0.5-1.6
		c-0.4-0.4-1.2,0-1.6-0.4c-0.2-0.2-0.2-0.4-0.2-0.7c0-0.6-0.1-1.3-0.1-1.9c0-0.2,0-0.4-0.2-0.5c-0.1-0.1-0.3-0.1-0.4-0.2
		c-3.7-0.6-0.6-1.5-2.1-3.7c-0.3-0.4-0.7-0.5-1-0.8c-0.3-0.3-0.6-0.8-0.4-1.2c-1.9-0.5-4.2,0.3-5.6-1c-0.2-0.2-0.4-0.5-0.7-0.7
		c-0.6-0.3-1.4,0.2-1.4,1c-0.1-0.5-0.6-0.7-1.1-0.8c-0.5-0.1-0.9-0.1-1.3-0.4c-0.4-0.3-0.6-0.9-0.2-1.2c-1.7-0.6-3.3,1.2-5.1,1.4
		c-0.2,0-0.5,0-0.6-0.1c-0.2-0.1-0.2-0.3-0.3-0.5c-0.3-1-0.3-4.5-1.6-4.8c-0.2-0.1-0.5,0-0.8,0c-0.7,0-1.2-0.5-1.9-0.7
		c-1.5-0.4-2.9,1.1-4.4,0.7c-0.7-0.2-1.2-0.8-1.9-1.1c-0.7-0.2-1.7,0.3-1.4,1.1c-0.6-0.4-1.5-0.1-1.8,0.6c-0.1,0.3-0.2,0.6-0.3,0.8
		c-0.3,0.8-1,1.3-1.8,1.3c-0.8,0-1.5-0.6-1.7-1.4c-0.2-0.6-0.3-1.6-0.9-1.6c-0.3,0-0.5,0.2-0.7,0.3c-1.8,1.1-4.9-1.1-6.5,0.2
		c-0.2,0.2-0.2,0.6-0.3,0.9c-0.2,0.8-1.2,0.9-1.9,0.9c-0.5,0-0.9,0-1.4,0l0.3-0.1c-0.5-0.1-1.1-0.2-1.6-0.4
		c-0.3-0.1-0.7-0.2-0.9-0.4c-0.3-0.3-0.3-0.7-0.1-1c-0.7-0.2-1.8-0.3-2,0.5c-0.1,0.3,0,0.6,0,1c-0.1,0.6-0.7,1.2-0.5,1.8
		c0.1,0.3,0.3,0.5,0.5,0.7l-1.5,0.7c-0.3,0.1-0.7,0.2-1,0.4c-0.3-0.7-0.7-1.4-1.2-2c-0.3-0.3-0.7-0.7-1.1-0.6
		c-0.8,0.2-0.4,1.5-0.9,2.2c-0.3,0-0.6-0.4-0.6-0.8c-0.6-0.4-1.5,0.1-1.8,0.8c-0.3,0.7-0.1,1.5,0,2.3c-0.7,0-1.3,0.1-2,0.1
		c-0.1,0.2-0.1,0.5,0,0.8c-0.7,0-1.3-0.1-2-0.1c0,0,0,0.1,0,0.1c-0.9,0-1.8,0.4-2.5,1c-0.3,0.1-0.5,0.1-0.8,0.3
		c-2.6,1.5,0.4,2.6,1.1,3.5c0.4,0.5-0.3,1.5-0.9,1.1c0.1,0.4,0.2,0.9,0.1,1.3c-0.1,0.4-0.6,0.7-1,0.4c-0.1-0.1-0.2-0.2-0.3-0.4
		c-0.6-0.9-1.9-1.1-2.7-0.4c-0.5,0.5-0.7,1.3-0.6,2c-0.2-0.2-0.5-0.3-0.8-0.2c-0.6,0.1-1.2,0.6-1.5,1.2c-0.1,0.2-0.2,0.4-0.2,0.7
		c-0.1,0.9,1,1.4,1.6,2.1c0.5,0.5,0.7,1.3,0.6,2c-0.4,0.1-0.8,0.3-1.2,0.5c-0.3,0-0.5,0-0.8,0.1c-0.6,0.2-1.1,0.8-1,1.4
		c-0.2-0.7-1.1-1-1.6-0.6c-0.6,0.4-0.6,1.4,0,1.8c0.2,0.1,0.4,0.2,0.6,0.4c0.2,0.2,0.4,0.6,0.6,1c0,0.5,0.2,0.9,0.4,1.4
		c-0.1,0.1-0.2,0.1-0.3,0.2c-1.1-0.5-2.4,0.2-3.4,1.1c-0.2,0.1-0.3,0.3-0.4,0.5c-0.1,0.3,0.1,0.6,0.3,0.9c0.7,0.9,1.8,1.5,2.9,1.8
		c0,0,0,0,0.1,0c-0.3,0.3-0.4,0.6-0.5,1c-0.7,0.3-1.2,1-1.2,1.8c-0.9-0.1-1.8-0.3-2.6,0.3c-0.7,0.5-0.8,2,0.1,2.2
		c0.3,0.1,0.6,0,0.9,0.2c0.5,0.3,0.4,1,0.3,1.5c-0.1,0.5,0,1.3,0.5,1.4c0,0,0,0,0,0c0.4,1.7,1.8,3.3,3.3,3.1c-0.4,0.3-1,0.1-1.4,0.4
		c-0.8,0.6,0.5,2.4-0.3,3.1c-0.5,0.4-1.3-0.1-1.7,0.3c-0.3,0.3-0.3,0.8-0.2,1.2c0.1,0.4,0.4,0.8,0.4,1.2c0,0.3,0,0.6,0,0.9
		c-0.1,0.7-0.2,1.5-0.3,2.2c-0.4,0.2-0.9,0.4-1.1,0.9c-0.2,0.6,0.2,1.2,0.7,1.6c0.4,0.3,0.8,0.5,1.2,0.8c0,0.7-0.1,1.4-0.1,2.1
		c-0.5,0.1-1,0-1.3,0.3c-0.5,0.5-0.1,1.4,0.5,1.7c0.6,0.3,1.3,0.1,2,0c2.3-0.4,2.6-0.1,2.6,2.3l-0.1-0.1c-0.1,1.1,0.1,2.2,0.4,3.3
		c1.5-0.8,3.3-0.7,4.7,0.2c0.8,0.5,1.5,1.3,2.4,1.4c0.2,0,0.4,0.1,0.5,0.1c0.1,0.1,0.2,0.2,0.4,0.3c0,0,0,0.1,0,0.1
		c0,0.4-0.5,0.5-0.9,0.5c-0.1,0.8,0.5,1.4,1,1.9c0.5,0.5,1.1,1.3,0.8,2c0.8-0.2,1.5-0.4,2.3-0.3c0.2,0,0.5,0.1,0.6,0.3
		c0.1,0.1,0.3,0.3,0.4,0.4c0.2,0.3,0.4,0.6,0.5,1c-0.9,0.2-1.5,1.3-1.2,2.2c0.8-0.2,1.8-0.4,2.3,0.3c0.1,0.2,0.2,0.4,0.3,0.5
		c0.2,0.2,0.5,0.3,0.7,0.3c1,0.3,1.9,0.9,2.6,1.6c-0.6,0.5-0.1,1.7,0.6,1.8c0.8,0.1,1.4-0.6,1.5-1.4c0.1-0.5-0.1-1.2,0.2-1.6
		c0.3-0.5,1-0.5,1.5-0.5c0.8,0,1.6,0,2.3,0c0.1,0,0.3,0,0.3,0.1c0.1,0.1,0,0.3,0,0.5c0,0.5,0.5,0.8,1,0.8c0.5,0,0.9-0.4,1.2-0.7
		c-0.2-0.3-0.4-0.8-0.5-1.2c0-0.7,0.1-1.3,0.2-2c0,0,0,0,0-0.1c1.5,1,2.6,2.5,4.5,2.5c1.3,1.2,2.2,1.9,2.2,1.9v141.7
		c-1.6-0.2-3.3,1.3-4.9,0.8c-0.8-0.3-1.5-1-2.3-1.3c-0.8-0.3-2,0.4-1.7,1.3c-0.7-0.5-1.8-0.1-2.2,0.7c-0.2,0.3-0.2,0.7-0.3,1
		c-0.3,0.9-1.2,1.5-2.1,1.5s-1.8-0.7-2.1-1.6c-0.2-0.8-0.3-1.9-1.1-1.9c-0.3,0-0.6,0.2-0.9,0.4c-2.1,1.3-5.8-1.3-7.7,0.2
		c-0.3,0.2-0.2,0.7-0.3,1.1c-0.3,0.9-1.4,1.1-2.3,1.1c-0.5,0-1.1,0-1.6,0l0.4-0.2c-0.6-0.1-1.3-0.3-1.9-0.4
		c-0.4-0.1-0.8-0.2-1.1-0.5c-0.3-0.3-0.4-0.9-0.1-1.2c-0.9-0.3-2.1-0.3-2.4,0.6c-0.1,0.4,0,0.8,0,1.1c-0.1,0.7-0.8,1.4-0.6,2.1
		c0.1,0.3,0.3,0.6,0.5,0.8l-1.8,0.8c-0.4,0.1-0.8,0.2-1.2,0.4c-0.4-0.9-0.8-1.7-1.4-2.4c-0.3-0.4-0.8-0.8-1.3-0.7
		c-0.9,0.3-0.5,1.8-1.1,2.6c-0.4,0-0.7-0.5-0.7-0.9c-0.7-0.5-1.8,0.1-2.1,0.9c-0.3,0.8-0.2,1.8,0,2.7c-0.8,0-1.6,0.1-2.4,0.1
		c-0.1,0.3-0.1,0.6,0,1c-0.8,0-1.6-0.1-2.4-0.1c0,0,0,0.1,0,0.1c-1.1,0.1-2.1,0.5-2.9,1.2c-0.3,0.1-0.6,0.2-0.9,0.3
		c-3,1.8,0.5,3.1,1.3,4.2c0.5,0.6-0.4,1.7-1.1,1.3c0.1,0.5,0.2,1,0.1,1.5c-0.2,0.5-0.7,0.8-1.1,0.5c-0.1-0.1-0.2-0.3-0.3-0.4
		c-0.7-1.1-2.3-1.3-3.3-0.4c-0.6,0.6-0.9,1.5-0.7,2.4c-0.3-0.2-0.6-0.3-1-0.3c-0.8,0.1-1.4,0.8-1.8,1.5c-0.1,0.1-0.1,0.2-0.2,0.3
		v-72.2c3.3-1.3,6.3-3.6,9-6.3c1.4-0.1,2.8,0.1,4.2,0.3c-0.3,1,0.7,1.9,1.7,1.9c0.1,0,0.2,0,0.3-0.1c0.1-0.1,0.2-0.3,0.2-0.5
		c0.1-0.6-0.1-1.1-0.1-1.7c0.1-0.6,0.6-1.2,1.1-0.9c0.2,0.1,0.3,0.3,0.5,0.5c1.9,1.9,2-2.4,3.7-2.8c1.8-0.4,2.9,2.1,4.6,1.8
		c1.4-0.2,2-2,3.8-1.8c0.4,0,0.8,0.1,1-0.2c0.1-0.2,0.1-0.4,0.2-0.6c0.1-1.3,0.2-2.7,1.1-3.7c0.4-0.4,1.1-0.6,1.5-0.2
		c-0.5-0.9,0.5-2.2,1.5-2.1c0.4,0,1,0,1-0.4c0.7,0.1,1.4,0.2,2.1,0.2c0.2,0,0.4,0,0.5-0.2c0.4-0.5,0-1.6,0.4-2.1
		c0.3-0.4,0.9-0.5,1.1-0.7c0.6-0.7,1.4,0.4,1.1-1.4c-0.2-1-1.3-1.9-2.2-2c-0.3-2.5-0.9-3.5,1.4-4.5c1.3-0.6,3.3-0.5,4.3-1.8
		c0.5-0.7,0.3-2-0.4-2.3c0-0.9,0.9-1.6,1.2-2.5c0.4-0.9,0.2-1.9-0.3-2.7c-0.2-0.3-0.4-0.6-0.4-0.9c-0.1-0.4,0.2-0.8,0.3-1.2
		c0.2-0.4,0.2-0.9-0.1-1.2c-0.1-0.1-0.3-0.1-0.4-0.3c-0.1-0.2,0-0.5,0.2-0.8c0.5-0.9,0.1-2.3-0.9-2.6c-0.5-0.2-1.1-0.2-1.4-0.5
		c-1.7-1.7,3-4.5,2-6.5c-0.1-0.3-0.4-0.5-0.6-0.7c-0.7-0.7-1.4-1.3-2.1-2c-0.3-0.3-0.6-0.6-0.6-1.1c0-0.3,0.1-0.5,0.1-0.8
		c-0.2-0.6-1.2-0.8-1.5-1.3c-0.4-0.6-0.5-1.8-0.6-2.5c-0.1-0.5-0.1-1.1-0.1-1.6c0-0.2,0.1-0.5,0-0.7c-0.1-0.4-0.5-0.5-0.9-0.5
		c-0.9-0.1-1.8-0.1-2.7-0.1c0.6-1.2,1.1-2.7,0.3-3.8c-0.8-1-2.2-0.8-3.4-0.5c-0.4-0.4-0.1-1.2-0.5-1.6c-0.4-0.4-1.2,0-1.6-0.4
		c-0.2-0.2-0.2-0.4-0.2-0.7c0-0.6-0.1-1.3-0.1-1.9c0-0.2,0-0.4-0.2-0.5c-0.1-0.1-0.3-0.1-0.4-0.2c-3.7-0.6-0.6-1.5-2.1-3.7
		c-0.3-0.4-0.7-0.5-1-0.8c-0.3-0.3-0.6-0.8-0.4-1.2c-1.9-0.5-4.2,0.3-5.6-1c-0.2-0.2-0.4-0.5-0.7-0.7c-0.6-0.3-1.4,0.2-1.4,1
		c-0.1-0.5-0.6-0.7-1.1-0.8c-0.5-0.1-0.9-0.1-1.3-0.4c-0.4-0.3-0.6-0.9-0.2-1.2c-1.7-0.6-3.3,1.2-5.1,1.4c-0.2,0-0.5,0-0.6-0.1
		c-0.2-0.1-0.2-0.3-0.3-0.5c-0.3-1-0.3-4.5-1.6-4.8c-0.2-0.1-0.5,0-0.8,0c-0.7,0-1.2-0.5-1.9-0.7c-1.5-0.4-2.9,1.1-4.4,0.7
		c-0.7-0.2-1.2-0.8-1.9-1.1c-0.7-0.2-1.7,0.3-1.4,1.1c-0.6-0.4-1.5-0.1-1.8,0.6c-0.1,0.3-0.2,0.6-0.3,0.8c-0.3,0.8-1,1.3-1.8,1.3
		c-0.8,0-1.5-0.6-1.7-1.4c-0.2-0.6-0.3-1.6-0.9-1.6c-0.3,0-0.5,0.2-0.7,0.3c-1.8,1.1-4.9-1.1-6.5,0.2c-0.2,0.2-0.2,0.6-0.3,0.9
		c-0.2,0.8-1.2,0.9-1.9,0.9c-0.5,0-0.9,0-1.4,0l0.3-0.1c-0.5-0.1-1.1-0.2-1.6-0.4c-0.3-0.1-0.7-0.2-0.9-0.4c-0.3-0.3-0.3-0.7-0.1-1
		c-0.7-0.2-1.8-0.3-2,0.5c-0.1,0.3,0,0.6,0,1c-0.1,0.6-0.7,1.2-0.5,1.8c0.1,0.3,0.3,0.5,0.5,0.7l-1.5,0.7c-0.3,0.1-0.7,0.2-1,0.4
		c-0.3-0.7-0.7-1.4-1.2-2c-0.3-0.3-0.7-0.7-1.1-0.6c-0.8,0.2-0.4,1.5-0.9,2.2c-0.3,0-0.6-0.4-0.6-0.8c-0.6-0.4-1.5,0.1-1.8,0.8
		c-0.3,0.7-0.1,1.5,0,2.3c-0.7,0-1.3,0.1-2,0.1c-0.1,0.2-0.1,0.5,0,0.8c-0.7,0-1.3-0.1-2-0.1c0,0,0,0.1,0,0.1c-0.9,0-1.8,0.4-2.5,1
		c-0.3,0.1-0.5,0.1-0.8,0.3c-2.6,1.5,0.4,2.6,1.1,3.5c0.4,0.5-0.3,1.4-0.9,1.1c0.1,0.4,0.2,0.9,0.1,1.3c-0.1,0.4-0.6,0.7-1,0.4
		c-0.1-0.1-0.2-0.2-0.3-0.4c-0.6-0.9-1.9-1.1-2.7-0.4c-0.5,0.5-0.7,1.3-0.6,2c-0.2-0.2-0.5-0.3-0.8-0.2c-0.6,0.1-1.2,0.6-1.5,1.2
		c-0.1,0.2-0.2,0.4-0.2,0.7c-0.1,0.9,1,1.4,1.6,2.1c0.5,0.5,0.7,1.3,0.6,2c-0.4,0.1-0.8,0.3-1.2,0.5c-0.3,0-0.5,0-0.8,0.1
		c-0.6,0.2-1.1,0.8-1,1.4c-0.2-0.7-1.1-1-1.6-0.6c-0.6,0.4-0.6,1.4,0,1.8c0.2,0.1,0.4,0.2,0.6,0.4c0.2,0.2,0.4,0.6,0.6,1
		c0,0.5,0.2,0.9,0.4,1.4c-0.1,0.1-0.2,0.1-0.3,0.2c-1.1-0.5-2.4,0.2-3.4,1.1c-0.2,0.1-0.3,0.3-0.4,0.5c-0.1,0.3,0.1,0.6,0.3,0.9
		c0.7,0.9,1.8,1.5,2.9,1.8c0,0,0,0,0.1,0c-0.3,0.3-0.4,0.6-0.5,1c-0.7,0.3-1.2,1-1.2,1.8c-0.9-0.1-1.8-0.3-2.6,0.3
		c-0.7,0.5-0.8,2,0.1,2.2c0.3,0.1,0.6,0,0.9,0.2c0.5,0.3,0.4,1,0.3,1.5c-0.1,0.5,0,1.3,0.5,1.4c0,0,0,0,0,0c0.4,1.7,1.8,3.3,3.3,3.1
		c-0.4,0.3-1,0.1-1.4,0.4c-0.8,0.6,0.5,2.4-0.3,3.1c-0.5,0.4-1.3-0.1-1.7,0.3c-0.3,0.3-0.3,0.8-0.2,1.2c0.1,0.4,0.4,0.8,0.4,1.2
		c0,0.3,0,0.6,0,0.9c-0.1,0.7-0.2,1.5-0.3,2.2c-0.4,0.2-0.9,0.4-1.1,0.9c-0.2,0.6,0.2,1.2,0.7,1.6c0.4,0.3,0.8,0.5,1.2,0.8
		c0,0.7-0.1,1.4-0.1,2.1c-0.5,0.1-1,0-1.3,0.3c-0.5,0.5-0.1,1.4,0.5,1.7c0.6,0.3,1.3,0.1,2,0c2.3-0.4,2.6-0.1,2.6,2.3l-0.1-0.1
		c-0.1,1.1,0.1,2.2,0.4,3.3c1.5-0.8,3.3-0.7,4.7,0.2c0.8,0.5,1.5,1.3,2.4,1.4c0.2,0,0.4,0.1,0.5,0.1c0.1,0.1,0.2,0.2,0.4,0.3
		c0,0,0,0.1,0,0.1c0,0.4-0.5,0.5-0.9,0.5c-0.1,0.8,0.5,1.4,1,1.9c0.5,0.5,1.1,1.3,0.8,2c0.8-0.2,1.5-0.4,2.3-0.3
		c0.2,0,0.5,0.1,0.6,0.3c0.1,0.1,0.3,0.3,0.4,0.4c0.2,0.3,0.4,0.6,0.5,1c-0.9,0.2-1.5,1.3-1.2,2.2c0.8-0.2,1.8-0.4,2.3,0.3
		c0.1,0.2,0.2,0.4,0.3,0.5c0.2,0.2,0.5,0.3,0.7,0.3c1,0.3,1.9,0.9,2.6,1.6c-0.6,0.5-0.1,1.7,0.6,1.8c0.8,0.1,1.4-0.6,1.5-1.4
		c0.1-0.5-0.1-1.2,0.2-1.6c0.3-0.5,1-0.5,1.5-0.5c0.8,0,1.6,0,2.3,0c0.1,0,0.3,0,0.3,0.1c0.1,0.1,0,0.3,0,0.5c0,0.5,0.5,0.8,1,0.8
		c0.5,0,0.9-0.4,1.2-0.7c-0.2-0.3-0.4-0.8-0.5-1.2c0-0.7,0.1-1.3,0.2-2c0,0,0,0,0-0.1c1.5,1,2.6,2.5,4.5,2.5
		c1.3,1.2,2.2,1.9,2.2,1.9v78.2c-0.5,0-0.9,0.1-1.2,0.4c-0.2,0.2-0.2,0.5-0.3,0.8c-0.2,0.7-1,0.8-1.7,0.8c-0.1,0-0.3,0-0.4,0
		c0-0.1-0.1-0.2-0.2-0.3c-0.1-0.1-0.2-0.1-0.3-0.2c-0.1-0.2,0-0.4,0.2-0.6c0.4-0.8,0.1-1.9-0.7-2.3c-0.4-0.2-0.9-0.1-1.2-0.5
		c-1.4-1.5,2.6-3.9,1.8-5.6c-0.1-0.3-0.3-0.4-0.5-0.6c-0.6-0.6-1.2-1.2-1.8-1.7c-0.3-0.3-0.5-0.6-0.5-0.9c0-0.2,0.1-0.5,0.1-0.7
		c-0.1-0.5-1-0.7-1.3-1.1c-0.3-0.5-0.4-1.6-0.5-2.2c-0.1-0.5-0.1-0.9-0.1-1.4c0-0.2,0.1-0.4,0-0.6c-0.1-0.3-0.5-0.4-0.8-0.4
		c-0.8-0.1-1.6-0.1-2.4-0.1c0.5-1,1-2.4,0.3-3.3c-0.7-0.9-1.9-0.7-2.9-0.4c-0.4-0.3-0.1-1-0.4-1.4c-0.3-0.4-1,0-1.3-0.4
		c-0.1-0.2-0.2-0.4-0.2-0.6c0-0.5-0.1-1.1-0.1-1.6c0-0.2,0-0.4-0.1-0.5c-0.1-0.1-0.2-0.1-0.4-0.1c-3.2-0.5-0.5-1.3-1.8-3.2
		c-0.2-0.3-0.6-0.5-0.9-0.7c-0.3-0.2-0.5-0.7-0.3-1c-1.6-0.4-3.6,0.3-4.8-0.9c-0.2-0.2-0.4-0.4-0.6-0.6c-0.5-0.3-1.2,0.2-1.2,0.8
		c-0.1-0.4-0.6-0.6-1-0.7c-0.4-0.1-0.8-0.1-1.2-0.3c-0.3-0.2-0.5-0.8-0.2-1.1c-1.4-0.5-2.7,0.8-4.1,1.1c-0.2-0.1-0.5-0.3-0.7-0.4
		c-0.1-0.1-0.3-0.1-0.4-0.2c-0.2-1-0.3-3.8-1.3-4.1c-0.2-0.1-0.4,0-0.7,0c-0.6,0-1.1-0.4-1.6-0.6c-1.3-0.3-2.5,0.9-3.8,0.6
		c-0.6-0.2-1.1-0.7-1.6-0.9c-0.6-0.2-1.4,0.3-1.2,0.9c-3.6-1-7.4-1.6-11.1-1.7c-0.7,0-1.4,0-2,0.2c-1.1,0.4-1.8,1.5-2.7,2.3
		C-0.5,1671.7,0,1790,0,1790h1079.4v-9.5C1079.4,1780.5,1080.4,1693.4,1079.8,1693.4z M993.1,1717.9v-2.2c0.2,0.1,0.3,0.2,0.4,0.3
		c0.3,0.2,0.5,0.7,0.8,1.2c0,0.1,0,0.2,0,0.2C993.9,1717.5,993.5,1717.7,993.1,1717.9z M1057.5,1614.6c0.6-0.8,2.5-2,3.5-2
		c0.1,0,0.3,0,0.6,0.1c-2,1.4-3.6,2.4-4.7,2.9C1057.1,1615.3,1057.3,1615,1057.5,1614.6z M1003.8,1589.2c1.5-0.1,3.2,0.1,4.7,0.4
		c0,0.3-0.1,0.5-0.1,0.8c-0.4,0.2-0.9,0.4-1.1,0.9c-0.2,0.6,0.2,1.2,0.7,1.6c0.4,0.3,0.8,0.5,1.2,0.8c0,0.7-0.1,1.4-0.1,2.1
		c-0.5,0.1-1,0-1.3,0.3c-0.5,0.5-0.1,1.4,0.5,1.7c0.6,0.3,1.3,0.1,2,0c2.3-0.4,2.6-0.1,2.6,2.3l-0.1-0.1c-0.1,1.1,0.1,2.2,0.4,3.3
		c1.5-0.8,3.3-0.7,4.7,0.2c0.8,0.5,1.5,1.3,2.4,1.4c0.2,0,0.4,0.1,0.5,0.1c0.1,0.1,0.2,0.2,0.4,0.3c0,0,0,0.1,0,0.1
		c0,0.4-0.5,0.5-0.9,0.5c-0.1,0.8,0.5,1.4,1,1.9c0.5,0.5,1.1,1.3,0.8,2c0.8-0.2,1.5-0.4,2.3-0.3c0.2,0,0.5,0.1,0.6,0.3
		c0.1,0.1,0.3,0.3,0.4,0.4c0.2,0.3,0.4,0.6,0.5,1c-0.9,0.2-1.5,1.3-1.2,2.2c0.8-0.2,1.8-0.4,2.3,0.3c0.1,0.2,0.2,0.4,0.3,0.5
		c0.2,0.2,0.5,0.3,0.7,0.3c1,0.3,1.9,0.9,2.6,1.6c-0.6,0.5-0.1,1.7,0.6,1.8c0.8,0.1,1.4-0.6,1.5-1.4c0.1-0.5-0.1-1.2,0.2-1.6
		c0.3-0.5,1-0.5,1.5-0.5c0.8,0,1.6,0,2.3,0c0.1,0,0.3,0,0.3,0.1c0.1,0.1,0,0.3,0,0.5c0,0.5,0.5,0.8,1,0.8c0.5,0,0.9-0.4,1.2-0.7
		c-0.2-0.3-0.4-0.8-0.5-1.2c0-0.7,0.1-1.3,0.2-2c0,0,0,0,0-0.1c1.5,1,2.6,2.5,4.5,2.5c1.3,1.2,2.2,1.9,2.2,1.9v69.3
		c0,0-0.1,0.1-0.1,0.1c-0.2,0.3-0.2,0.7-0.3,1c-0.3,0.9-1.2,1.5-2.1,1.5c-0.9,0-1.8-0.7-2.1-1.6c-0.2-0.8-0.3-1.9-1.1-1.9
		c-0.3,0-0.6,0.2-0.9,0.4c-2.1,1.3-5.8-1.3-7.7,0.2c-0.3,0.2-0.2,0.7-0.3,1.1c-0.3,0.9-1.4,1.1-2.3,1.1c-0.5,0-1.1,0-1.6,0l0.4-0.2
		c-0.6-0.1-1.3-0.3-1.9-0.4c-0.4-0.1-0.8-0.2-1.1-0.5c-0.3-0.3-0.4-0.9-0.1-1.2c-0.9-0.3-2.1-0.3-2.4,0.6c-0.1,0.4,0,0.8,0,1.1
		c-0.1,0.7-0.8,1.4-0.6,2.1c0.1,0.3,0.3,0.6,0.5,0.8l-1.8,0.8c-0.4,0.1-0.8,0.2-1.2,0.4c-0.4-0.9-0.8-1.7-1.4-2.4
		c-0.3-0.4-0.8-0.8-1.3-0.7c-0.9,0.3-0.5,1.8-1.1,2.6c-0.4,0-0.7-0.5-0.7-0.9c-0.7-0.5-1.8,0.1-2.1,0.9c-0.3,0.8-0.2,1.8,0,2.7
		c-0.8,0-1.6,0.1-2.4,0.1c-0.1,0.3-0.1,0.6,0,1c-0.8,0-1.6-0.1-2.4-0.1c0,0,0,0.1,0,0.1c-1.1,0.1-2.1,0.5-2.9,1.2
		c-0.3,0.1-0.6,0.2-0.9,0.3c-3,1.8,0.5,3.1,1.3,4.2c0.5,0.6-0.4,1.7-1.1,1.3c0.1,0.5,0.2,1,0.1,1.5c-0.2,0.5-0.7,0.8-1.1,0.5
		c-0.1-0.1-0.2-0.3-0.3-0.4c-0.7-1.1-2.3-1.3-3.3-0.4c-0.6,0.6-0.9,1.5-0.7,2.4c-0.3-0.2-0.6-0.3-1-0.3c-0.8,0.1-1.4,0.8-1.8,1.5
		c-0.1,0.2-0.3,0.5-0.3,0.8c-0.1,1.1,1.2,1.7,1.9,2.5c0.6,0.6,0.8,1.5,0.7,2.3c-0.5,0.1-1,0.4-1.4,0.6c-0.3,0-0.6,0-1,0.1
		c-0.7,0.2-1.3,0.9-1.2,1.7c-0.2-0.7-1.1-1.1-1.7-0.8v-116.6C997,1595.2,1000.6,1592.4,1003.8,1589.2z M990.5,1588.4
		c0.7-0.9,2.9-2.3,4.1-2.4c0.1,0,0.3,0.1,0.7,0.1c-2.4,1.7-4.4,2.8-5.6,3.4C990,1589.2,990.2,1588.8,990.5,1588.4z M856.8,1541
		c0.6-0.8,2.5-2,3.5-2c0.1,0,0.3,0,0.6,0.1c-2,1.4-3.6,2.4-4.7,2.9C856.3,1541.7,856.5,1541.4,856.8,1541z M782,1627.4
		c0.6-0.8,2.5-2,3.5-2c0.1,0,0.3,0,0.6,0.1c-2,1.4-3.6,2.4-4.7,2.9C781.6,1628.1,781.8,1627.8,782,1627.4z M662.5,1545.3
		c0.7-1,3.2-2.5,4.4-2.6c0.1,0,0.4,0.1,0.7,0.2c-2.6,1.8-4.7,3-6,3.7C661.9,1546.1,662.1,1545.7,662.5,1545.3z M622.9,1708.2
		c0.6,0.6,0.8,1.5,0.7,2.3c-0.1,0-0.1,0.1-0.2,0.1c-0.1-0.1-0.2-0.3-0.2-0.4C623.1,1709.8,623,1708.9,622.9,1708.2
		C622.9,1708.1,622.9,1708.2,622.9,1708.2z M499.5,1619.1c0.6-0.8,2.5-2,3.5-2c0.1,0,0.3,0,0.6,0.1c-2,1.4-3.6,2.4-4.7,2.9
		C499.1,1619.8,499.3,1619.4,499.5,1619.1z M419.2,1619.1c1.4-0.1,2.8,0.1,4.2,0.3c-0.3,1,0.7,1.9,1.7,1.9c0.1,0,0.2,0,0.3-0.1
		c0.1-0.1,0.2-0.3,0.2-0.5c0.1-0.6-0.1-1.1-0.1-1.7c0.1-0.6,0.6-1.2,1.1-0.9c0.2,0.1,0.3,0.3,0.5,0.5c1.9,1.9,2-2.4,3.7-2.8
		c1.8-0.4,2.9,2.1,4.6,1.8c1.4-0.2,2-2,3.8-1.8c0.4,0,0.8,0.1,1-0.2c0.1-0.2,0.1-0.4,0.2-0.6c0.1-1.3,0.2-2.7,1.1-3.7
		c0.4-0.4,1.1-0.6,1.5-0.2c-0.5-0.9,0.5-2.2,1.5-2.1c0.4,0,1,0,1-0.4c0.7,0.2,1.4,0.2,2.1,0.2c0.2,0,0.4,0,0.5-0.2
		c0.4-0.5,0-1.6,0.4-2.1c0.3-0.4,0.9-0.5,1.1-0.7c0.6-0.7,1.4,0.4,1.1-1.4c-0.2-1-1.3-1.9-2.2-2c-0.3-2.5-0.9-3.5,1.4-4.5
		c0.3-0.1,0.6-0.2,0.9-0.3c0.2,0.1,0.3,0.2,0.4,0.3c0,0.7-0.1,1.4-0.1,2.1c-0.5,0.1-1,0-1.3,0.3c-0.5,0.5-0.1,1.4,0.5,1.7
		c0.6,0.3,1.3,0.1,2,0c2.3-0.4,2.6-0.1,2.6,2.3l-0.1-0.1c-0.1,1.1,0.1,2.2,0.4,3.3c1.5-0.8,3.3-0.7,4.7,0.2c0.8,0.5,1.5,1.3,2.4,1.4
		c0.2,0,0.4,0.1,0.5,0.1c0.1,0.1,0.2,0.2,0.4,0.3c0,0,0,0.1,0,0.1c0,0.4-0.5,0.5-0.9,0.5c-0.1,0.8,0.5,1.4,1,1.9
		c0.5,0.5,1.1,1.3,0.8,2c0.8-0.2,1.5-0.4,2.3-0.3c0.2,0,0.5,0.1,0.6,0.3c0.1,0.1,0.3,0.3,0.4,0.4c0.2,0.3,0.4,0.6,0.5,1
		c-0.9,0.2-1.5,1.3-1.2,2.2c0.8-0.2,1.8-0.4,2.3,0.3c0.1,0.2,0.2,0.4,0.3,0.5c0.2,0.2,0.5,0.3,0.7,0.3c1,0.3,1.9,0.9,2.6,1.6
		c-0.6,0.5-0.1,1.7,0.6,1.8c0.8,0.1,1.4-0.6,1.5-1.4c0.1-0.5-0.1-1.2,0.2-1.6c0.3-0.5,1-0.5,1.5-0.5c0.8,0,1.6,0,2.3,0
		c0.1,0,0.3,0,0.3,0.1c0.1,0.1,0,0.3,0,0.5c0,0.5,0.5,0.8,1,0.8c0.5,0,0.9-0.4,1.2-0.7c-0.2-0.3-0.4-0.8-0.5-1.2
		c0-0.7,0.1-1.3,0.2-2c0,0,0,0,0-0.1c1.5,1,2.6,2.5,4.5,2.5c1.3,1.2,2.2,1.9,2.2,1.9v47.4c-1.1,0.4-2.3,1-3.4,0.6
		c-0.8-0.3-1.5-1-2.3-1.3c-0.8-0.3-2,0.4-1.7,1.3c-0.7-0.5-1.8-0.1-2.2,0.7c-0.2,0.3-0.2,0.7-0.3,1c-0.3,0.9-1.2,1.5-2.1,1.5
		c-0.9,0-1.8-0.7-2.1-1.6c-0.2-0.8-0.3-1.9-1.1-1.9c-0.3,0-0.6,0.2-0.9,0.4c-2.1,1.3-5.8-1.3-7.7,0.2c-0.3,0.2-0.2,0.7-0.3,1.1
		c-0.3,0.9-1.4,1.1-2.3,1.1c-0.5,0-1.1,0-1.6,0l0.4-0.2c-0.6-0.1-1.3-0.3-1.9-0.4c-0.4-0.1-0.8-0.2-1.1-0.5s-0.4-0.9-0.1-1.2
		c-0.9-0.3-2.1-0.3-2.4,0.6c-0.1,0.4,0,0.8,0,1.1c-0.1,0.7-0.8,1.4-0.6,2.1c0.1,0.3,0.3,0.6,0.5,0.8l-1.8,0.8
		c-0.4,0.1-0.8,0.2-1.2,0.4c-0.4-0.9-0.8-1.7-1.4-2.4c-0.3-0.4-0.8-0.8-1.3-0.7c-0.9,0.3-0.5,1.8-1.1,2.6c-0.4,0-0.7-0.5-0.7-0.9
		c-0.7-0.5-1.8,0.1-2.1,0.9c-0.3,0.8-0.2,1.8,0,2.7c-0.8,0-1.6,0.1-2.4,0.1c-0.1,0.3-0.1,0.6,0,1c-0.8,0-1.6-0.1-2.4-0.1
		c0,0,0,0.1,0,0.1c-1.1,0.1-2.1,0.5-2.9,1.2c-0.3,0.1-0.6,0.2-0.9,0.3c-3,1.8,0.5,3.1,1.3,4.2c0.5,0.6-0.4,1.7-1.1,1.3
		c0.1,0.5,0.2,1,0.1,1.5c-0.2,0.5-0.7,0.8-1.1,0.5c-0.1-0.1-0.2-0.3-0.3-0.4c-0.7-1.1-2.3-1.3-3.3-0.4c-0.6,0.6-0.9,1.5-0.7,2.4
		c-0.3-0.2-0.6-0.3-1-0.3c-0.8,0.1-1.4,0.8-1.8,1.5c-0.1,0.2-0.3,0.5-0.3,0.8c-0.1,1.1,1.2,1.7,1.9,2.5c0.6,0.6,0.8,1.5,0.7,2.3
		c-0.5,0.1-1,0.4-1.4,0.6c-0.3,0-0.6,0-1,0.1c-0.7,0.2-1.3,0.9-1.2,1.7c-0.2-0.8-1.3-1.2-1.9-0.8c-0.7,0.5-0.7,1.7,0,2.2
		c0.2,0.2,0.5,0.3,0.7,0.4c0.3,0.2,0.5,0.7,0.8,1.2c0,0.6,0.2,1.1,0.5,1.6c-0.1,0.1-0.3,0.1-0.4,0.2c-1.3-0.6-2.9,0.2-4,1.3
		c-0.2,0.2-0.4,0.4-0.4,0.6c-0.1,0.4,0.1,0.8,0.4,1.1c0.9,1.1,2.1,1.8,3.4,2.1c0,0,0.1,0,0.1,0.1c-0.3,0.3-0.5,0.7-0.5,1.2
		c-0.8,0.3-1.4,1.2-1.4,2.1c-1-0.2-2.2-0.3-3.1,0.3c-0.7,0.5-0.9,1.7-0.4,2.3c-0.1,0.2-0.2,0.4-0.2,0.6c-0.1-0.4-0.6-0.6-1-0.7
		c-0.4-0.1-0.8-0.1-1.2-0.3c-0.3-0.2-0.5-0.8-0.2-1.1c-1.4-0.5-2.8,1-4.4,1.2c-0.2,0-0.4,0-0.6-0.1c-0.1-0.1-0.2-0.3-0.3-0.5
		c-0.3-0.9-0.3-3.9-1.3-4.2c-0.2-0.1-0.4,0-0.7,0c-0.3,0-0.6-0.1-0.9-0.3v-83C413.5,1624.2,416.5,1621.9,419.2,1619.1z
		 M408.1,1618.5c0.6-0.8,2.5-2,3.5-2c0.1,0,0.3,0,0.6,0.1c-2,1.4-3.6,2.4-4.7,2.9C407.7,1619.1,407.9,1618.8,408.1,1618.5z
		 M284,1715.8c0.3,0.2,0.5,0.7,0.8,1.2c0,0.1,0,0.2,0,0.2c-0.4,0.1-0.8,0.3-1.2,0.5v-2.2C283.7,1715.6,283.8,1715.7,284,1715.8z
		 M281,1588.2c0.7-0.9,2.9-2.3,4.1-2.4c0.1,0,0.3,0.1,0.7,0.1c-2.4,1.7-4.4,2.8-5.6,3.4C280.4,1589,280.7,1588.6,281,1588.2z
		 M147.2,1540.9c0.6-0.8,2.5-2,3.5-2c0.1,0,0.3,0,0.6,0.1c-2,1.4-3.6,2.4-4.7,2.9C146.8,1541.6,147,1541.2,147.2,1540.9z
		 M72.4,1627.3c0.6-0.8,2.5-2,3.5-2c0.1,0,0.3,0,0.6,0.1c-2,1.4-3.6,2.4-4.7,2.9C72,1628,72.2,1627.6,72.4,1627.3z"/>
</g>
</svg>
