<svg id="Layer_1" data-name="Layer 1" xmlns="http://www.w3.org/2000/svg" viewBox="0 0 1000 1000"><defs>
<style>.cls-1{fill:#2d2d2d;}.cls-2{fill:#a00000;}.cls-3{fill:#00630e;}.cls-4{fill:#fff;}.cls-5{fill:#606060;}.cls-6{fill:none;}</style>
</defs><title>Tree-truck</title><circle class="cls-1" cx="231.12" cy="625.87" r="68.14"/><circle class="cls-1" cx="828.76" cy="625.19" r="68.14"/><path class="cls-2" d="M935.42,507.21c-3.3-11.07-13.15-11.88-23.36-14.27-11.05-2.59-22.36-3.88-33.64-5-13.51-1.35-27.11-2.56-40.66-2.56-20.63,0-41.33.33-61.88,2-14.49,1.21-28.9,4.42-43.13,7.68-24.41,5.59-49,11.41-61,37.44a24,24,0,0,1-2.42,3.34,13.3,13.3,0,0,1-.49-2.59,14,14,0,0,1,.55-3.49c6-17,18.5-27.45,34.67-33.68,29.61-11.4,60.71-15.85,92.14-17.46a534.53,534.53,0,0,1,61.52.12c16.85,1.09,33.59,4.57,50.24,7.74,5.57,1.06,7.4-.09,6.64-5.34-1.52-10.45-3.84-20.82-4.71-31.32-.8-9.62-5.76-14.37-14.22-18-19.24-8.21-39.69-5.36-59.35-5.94-50.24-1.48-100.55-.74-150.84-.5l-10.59,0c-7.8,0-12.52-2.47-15.11-10.3-5.49-16.62-12.5-32.75-17.51-49.5-6.8-22.76-21.69-36.37-44.2-41.63a390.34,390.34,0,0,0-98.48-9.8c-26.56.61-40.27,17.61-42.2,38.13-2.39,25.42-2.83,51-3.34,76.47-.17,8.52-.57,17-.72,25.55-.08,4.34,0,8.67,0,13,0,3.88.54,8.08-.2,11.89a8.94,8.94,0,0,1-2.58,4.42,24.37,24.37,0,0,1-3.72,2l.29-34.42c0-1.94,0-4-.95-5.67-1.12-2-2.75-2-4.73-2.2-12.29-1.32-25.4-.08-37.77-.08l-38.69,0-77.38,0q-77.28,0-154.56,0l-41.73,0c-7,0-13.91,0-20.87,0-5.84,0-9.78-1.67-15,2.05a9.3,9.3,0,0,0-2.75,2.83c-1.21,2.12-1.06,4.72-.94,7.16.47,9.81-1.76,19.29-1.76,29q0,40.13.16,80.26c0,19.81,0,39.22,3.71,58.85.37,2,.84,4.07,2.25,5.5a8.65,8.65,0,0,0,3.64,2c3.9,1.23,7.77,1,11.78.81,28.23-1,56.65,3.22,85-2.9,4.63,39.84,27.56,66.87,66.06,71.43,46.51,5.51,73.65-22.54,84.32-67.19,1.71,1.18,3,1.68,3,2.15-.06,2.82,0,6.9,2.87,8.39,2.7,1.39,7.3.87,10.2.78q27.38-.85,54.77-1.42H742.73c3.44.05,4.7-4.26,5.59-7,1.3-4,3.36-6.58,6-9.7,2.45,23.49,10,42,26.82,56s36.17,22.35,57.62,18.56c20.71-3.66,40.1-13.16,52.09-31.68,16.43-25.37,18.57-52.44,5.08-80.69,1.67,3.5,5.14,5.45,7.1,8.64,2.81,4.55,5,17.58,10.16,19.57a16.68,16.68,0,0,0,6.21.74l7.52-.06a14.35,14.35,0,0,0,6.35-1c4.33-2.16,2.31-7.29,2.45-11.14.23-6.51.8-13,1.18-19.54.74-12.65,1.41-25.31,1.83-38C939.18,534.14,939.31,520.26,935.42,507.21ZM504.48,398.47a191.5,191.5,0,0,0,.15-29.37c-.76-13.42,9.52-21.24,23.62-20.39,17.09,1,34.23,1.56,51.25,3.31,10.36,1.06,21.14,2.52,30.64,6.44,14.13,5.83,15.52,20.91,19.8,33.46,1.69,4.95,2.61,10.16,3.7,14.52-.4,12-9.67,18.51-21.35,17.93-19.08-1-38.23-.4-57.35-.79-11.91-.24-24.08.32-35.63-2C506.09,419,503.16,411.87,504.48,398.47ZM233.69,692.38c-38.87.59-68-29.11-68-66.73.07-36.14,29.83-67.76,68.34-67.12,32.79.55,65.29,31.59,64.18,66.26C298.24,663.61,269.08,691.84,233.69,692.38Zm67.83-96.87C289.15,573.34,273,557,247.17,552c-25.14-4.9-46.6,2.62-66.74,17.32,4.62-11.77,14.5-17.43,25.19-21.11,29.22-10.06,57.41-9.2,81.16,13.07C296,569.92,303.77,580.74,301.52,595.51Zm-29.68-98.78c-40.39-14.2-79-9.18-115.79,11.38C141.48,516.26,128,526.32,114,535.48a9.61,9.61,0,0,1-4.47,1.69c10.65-13.49,23.89-23.61,38.68-32,29-16.49,59.87-26.7,93.29-22.75s63.71,17.11,83.59,46c10.25,14.88,15.3,32.65,17.38,50.91,1.19,10.46,3.54,20.88,3.69,31.34.14,10.05-4.12,18.91-13.77,23.81-2.11,1.07-4.83,1-7.28,1.38l-.51-1.88,8.91-7.53c10.6-9,8.22-21.5,6.59-32.28A222.92,222.92,0,0,0,328,548.62C318,522.37,298.08,506,271.84,496.73Zm545,48.46c20.09-3.92,39.53.83,54.91,16.51-45.14-19.93-82.82-13.25-110.83,30.22C769.08,563.26,790.71,550.29,816.84,545.19ZM828.9,692.53c-36.32-.12-65.07-28.79-65.48-66.66-.42-35.81,28.35-67.49,65.73-67.17,37.67.32,66.6,30.07,66.58,66.56C895.72,663.29,867.4,692.66,828.9,692.53Z"/><path class="cls-3" d="M246.57,332.31c-1.5-5.41,10.35-6.75,13.87-7.88,1.38-.44,3.09-1.55,2.53-2.88a2.54,2.54,0,0,0-.77-.9c-6.32-5.32-14.46-8.23-20.51-13.86-3.63-3.38-5.34-4.73-10-6.38.69,8.12,10,12.89,15.76,17.13a11.3,11.3,0,0,1,3,2.83,1,1,0,0,1,.19.5c0,.33-.3.57-.57.74-1.85,1.22-4,1.42-6,2.38a40.74,40.74,0,0,0-7,5,1.89,1.89,0,0,0-.7.85,1.75,1.75,0,0,0,.41,1.43,19,19,0,0,0,4.7,4.19c6.95,5,12.13,10.92,20.56,13.72l-3.88,2.8c-.57.41-1.2,1-1.08,1.66.09.53.6.87,1.06,1.14q6.33,3.76,12.86,7.18c1.91,1,1.44,2.77.62,4.45l-4.32,8.91c.28,1.44,2,2,3.4,2.37,2.26.53,6.68.67,8.56,2,2.06,1.46,2.27,4.91,2.55,7.26l3.82,31.18c.15,1.2.38,2.54,1.38,3.23s2.63.32,3.73-.44a29.24,29.24,0,0,1,3.18-2.4c3.92-2,5.54,1.18,7,3.87,2.12,4,5.11,7.67,7.62,11.41H298.52c-41.62,0-83.26-.65-124.86.36-14.41.35-26.77-4.12-38.8-10-10.17-5-19.57-11.78-28.71-18.58-4.16-3.1-6.88-8.14-10.25-12.31l1.44-2.5c4.63.74,9.33,1.2,13.87,2.29,7.42,1.79,9.81.22,8.51-7.74-1.41-8.68-4.56-17.07-5.93-25.75-1.26-8-1.17-16.18-1.67-24.28l2.59-.68c3.32,5.62,6.6,11.27,10,16.85,1.67,2.76,3.1,5.86,5.41,8,1.7,1.55,5.39,3,6.86,2.19,2.08-1.19,4.27-4.64,4.09-6.93-.66-8.17-2.61-16.22-3.52-24.38-1.81-16.09-3.29-32.22-4.76-48.35-.08-.86,1.2-1.84,2.7-4,3.74,6.48,7,12.25,10.37,17.93,3,5,5.79,10.23,9.44,14.73,1.42,1.76,5,1.81,7.52,2.64.64-2.27,1.74-4.52,1.81-6.81.13-4.54-.32-9.1-.48-12.5l35.64,14.86,3.08-2.58-8.32-33.33,1.89-1.65c6.4,5.25,12.65,10.69,19.25,15.68,3.36,2.54,7.34,4.28,11,6.38,1-4.2,2.31-8.37,3-12.63.46-2.73.09-5.61,1.14-8.72,5.39,5.63,17,3.26,16.46,14.65,9.92-8,9.78-7.93,3.57-19-2.14-3.81-3.35-8.15-5.55-13.65,21.09,3.4,34.74,21.76,57,19.15l-10-21.45c11.33,2.54,21.28,5.08,31.37,6.85,3.39.59,7.12-.78,10.69-1.25-1-3.69-1.65-7.54-3.14-11-1.71-4-4.17-7.73-6.31-11.58l2-2.17c7.71,4,15.5,7.89,23.08,12.14,3.81,2.14,7.06,5.27,10.88,7.4,2.22,1.24,5.07,1.36,7.63,2-.31-2.68-.57-5.36-1-8-.12-.76-.64-1.46-2.24-4.92,7.86,2.4,13.71,4.06,19.46,6,2.48.83,4.7,2.91,7.18,3.21,4.45.54,9,.16,13.52.17V237c8.87,3.17,18.84,6.89,28.91,10.28,13.2,4.44,14,3.78,13.59-12,25.61,7.31,50.75,16.41,77.75,8.87l1.41,3.06c-7.72,8.61-15.69,17-23.1,25.89s-14.33,18.33-23.37,26.54c.43-2,1.63-4.28,1.11-6-.94-3.11-2.92-5.9-4.47-8.82-2.18,2-5.38,3.57-6.35,6-2.36,6-3.58,12.43-5.49,18.61A72.43,72.43,0,0,1,462.4,317c-4.87-1.25-10.77-4.16-12-2.79-2.77,3-3.92,8.09-4.39,12.48-.68,6.32-.17,12.77-.17,19.16l-2.24.72c-2.18-3.55-4.07-7.32-6.65-10.55-1.68-2.1-5.07-5.2-6.44-4.67-2.46,1-5.61,4.35-5.59,6.69.07,7.57,1.38,15.13,2.36,22.68s2.13,14.86,3.2,22.28l-2.31,1.1c-6.1-5.75-12.41-10.43-15.71-18.16a158.11,158.11,0,0,1-8.63-24.86c-.11-.45-.27-1-.7-1.15a1.48,1.48,0,0,0-.86,0l-6.5,1.4c-.49.1-1.08.18-1.41-.2a1.39,1.39,0,0,1-.23-.88c-.12-4.48.57-8.66,1-13,.18-1.81-1.5-14.11-.53-14.75-3.48,2.33-4.23,7-4.66,11.2L388.09,341c-.25,2.37-.45,4.94.8,7a11,11,0,0,0,8.41-1.73,3.84,3.84,0,0,1,2.44-1.07c1.17.13,1.8,1.41,2.19,2.52a70,70,0,0,1,3.85,24.63c-.19,7.73-2.95,15.2-4.17,22.82-1.33,8.32-1.74,16.78-2.72,26.91-12-8.78-8.26-23.53-17.45-33.91-1.45,4.6-2.72,7.63-3.35,10.79-2,10.05-3.48,20.24-6,30.17-.51,2-4.38,3.93-7,4.55-3.34.78-7,.19-11.16.19-.42,0-2.83-15.83-3.08-17.36-.85-5.09-1.3-9.07-5.63-12.64A36.2,36.2,0,0,0,334,410.75a85.54,85.54,0,0,1-5.6-22.61c-.14-1.29-.41-2.82-1.59-3.34-5.3-2.33-4,10-3.64,11.89,1.8,9.21,5.07,18.06,8.34,26.86.17.45.4,1,.87,1.08a1.5,1.5,0,0,0,1-.28l5.69-3.15c.6-.33,1.35-.66,1.93-.3a1.94,1.94,0,0,1,.65,1c1.64,4,3,8.18,5,12H323.9c-3.49-4.51-6.62-8.2-9.36-12.17-3.57-5.19-6.83-10.6-10.23-15.91-3.07-4.78-6.59-4.85-10.67-.8-.63.62-1.32,1.19-3.83,3.45-.62-1.45-1.94-3-1.85-4.55.48-8.44,1.36-16.53,1.1-25a7.46,7.46,0,0,0-.75-3.66c-1-1.58-2.92-2.23-4.75-2.45s-3.74-.17-5.45-.88a2.15,2.15,0,0,1-1.25-1.06c-.74-1.86,4.25-7.19,5.37-8.37a2.12,2.12,0,0,0,.65-1c.14-.82-.66-1.46-1.38-1.87a32.21,32.21,0,0,0-8.94-3.5,7.93,7.93,0,0,1-3.24-1.19,2.35,2.35,0,0,1-.72-3.06c.55-.75,1.57-.9,2.44-1.22s1.76-1.19,1.41-2a104.17,104.17,0,0,1-21.91-11.72,9.87,9.87,0,0,1-3.82-4A4.41,4.41,0,0,1,246.57,332.31Zm89.66,9.63a11.73,11.73,0,0,1,2.63,4.82,251.22,251.22,0,0,0,16.71,36.87,6.66,6.66,0,0,0,2.9,3.23c6.59,2.72,9.13-29.38,9.34-31.85.28-3.34.42-6.83-.88-9.92-.11-.27-.27-.57-.56-.63a1,1,0,0,0-.66.18c-3.84,2.17-4.2,7.19-5.37,11.1-1.44,4.82-2.8,9.67-4.24,14.49-2.13-3.74-3.72-5.67-4.4-7.88-2-6.41-3.2-13.07-5.44-19.37-4.15-11.65-5.36-18.66-19.44-6.58-.44.37-1.48,0-2.37,0,8.85-18.89,8.72-18.53-10.56-26-4.22-1.63-7.22-3.87-10.68-6.71a2.58,2.58,0,0,1-1.21-1.82,2.17,2.17,0,0,1,1-1.54c2-1.64,4.78-2,7.37-2.23,3-.3,7.75.13,10.44-1.12,3.86-1.8-.33-3.64-2.67-5.52-3.14-2.53-6.33-5.11-8.64-8.44-.87-1.27-3.5-5.19-5.35-2.85a3.57,3.57,0,0,0-.58,2.4,5.8,5.8,0,0,0,.68,2.67,17.12,17.12,0,0,0,2.21,2.48,3.17,3.17,0,0,1,.91,3c-4,1.35-16.13,3.22-14.68,9.82.49,2.24,2.26,3.95,3.94,5.51a65.46,65.46,0,0,0,7.6,6.38,75.6,75.6,0,0,0,7.89,4.36c2,1,4.05,3,6.2,3.46,1.38.32,3.06.74,3.45,2.11a3.86,3.86,0,0,1-.35,2.33,62.66,62.66,0,0,0-3.82,20.6c2.54.73,5.27.1,7.73-.84,3-1.13,7.54-5.28,10.6-2.9ZM200.72,390.88a3.16,3.16,0,0,1,.34,1.22,5.07,5.07,0,0,1-1,2.76l-8,13.31c-.29.48-.57,1.09-.27,1.55a1.48,1.48,0,0,0,.65.48c5.72,2.73,11.92,3.37,18.17,3.53l8.51.23c.35,0,7.09-1,6.11-1.77-2.32-1.92-4.81-2-7.56-2.36a29.08,29.08,0,0,1-9.36-3.24c-.57-.3-1.21-.72-1.27-1.36a2,2,0,0,1,.34-1.09,46.58,46.58,0,0,1,5-7.35c.94-1.13,2-2.38,1.9-3.84s-1.34-2.62-2.46-3.61c-3.45-3-6.26-6.81-9.69-9.74-3.87-3.3-8.3-5.87-12.1-9.29-1.75-1.57-6.42-5.12-6.59-7.66s3.67-3.75,5.44-4.9a60.44,60.44,0,0,1,8.61-4.77c.52-.23,1.11-.54,1.16-1.1a1.47,1.47,0,0,0-.34-.93c-1.45-2.13-3.6-3.66-5.49-5.41-5.3-4.92-8.58-11.67-13.65-16.83-1.18,3.85-1.17,6.69,1,10s4.67,6.12,7,9.21c.43.58.87,1.33.54,2a2,2,0,0,1-1.29.82,61.53,61.53,0,0,0-10.85,4.72c-1.92,1.07-4,2.54-4.2,4.72a6.68,6.68,0,0,0,1.14,3.81,44.56,44.56,0,0,0,13.12,14.54c5,3.44,10.69,6.33,14.37,11.28A7.1,7.1,0,0,1,200.72,390.88ZM432.36,289.06c-8-2.72-16.1-5.48-24.22-8-1.88-.57-4.16-1.66-4.08-3.63.06-1.57,1.63-2.56,2.8-3.61s2-3.13.68-4a3,3,0,0,0-1-.38c-9.95-2.57-23.3-8.55-33.6-6.12,5.43,5.81,13.89,7.37,21,11a2.14,2.14,0,0,1,1.2,1.11,2.2,2.2,0,0,1-.22,1.41L393,281.74a151.9,151.9,0,0,0,38.09,9C432.13,290.84,432.45,290,432.36,289.06Zm45.17-22.26c-2.23-.79-4.46-1.57-6.7-2.31q-7.8-2.59-15.72-4.78a6.39,6.39,0,0,0-3.65-.27c-1,.31-3.53,1.64-3.18,3,.15.54.72.82,1.23,1l7.05,2.92a30.58,30.58,0,0,0,9.16,2.49c-1.25,4.24-7.41,5-9.43,9,.39-.76,13.53-1.71,15.26-2.14,3.14-.78,8.08-1.52,10-4.58s-.08-2.87-3-3.91Z"/><path class="cls-4" d="M829.08,667.59c25.07,2,43.44-19.34,42.64-43.06-.83-24.67-17.8-41.44-41.62-41.42-24.94,0-41.63,16-42.74,42C786.32,648.8,806.16,668.44,829.08,667.59Z"/><path class="cls-4" d="M301.52,595.51C289.15,573.34,273,557,247.17,552c-25.14-4.9-46.6,2.62-66.74,17.32,4.62-11.77,14.5-17.43,25.19-21.11,29.22-10.06,57.41-9.2,81.16,13.07C296,569.92,303.77,580.74,301.52,595.51Z"/><path class="cls-5" d="M829.08,667.59c-22.92.85-42.75-18.79-41.73-42.51,1.12-25.94,17.8-42,42.74-42,23.82,0,40.79,16.75,41.62,41.42C872.51,648.25,854.14,669.55,829.08,667.59Zm27.56-42.18c0-16.41-11-27.4-27.47-27.4-15.17,0-28.36,12.84-28.28,27.53.08,15.38,13.51,28.31,28.91,28.27C843.06,653.77,859.5,639.58,856.63,625.41Z"/><path class="cls-5" d="M231.09,667.59c-23.67,0-42.39-18.59-41.49-42.88.95-25.57,16.93-40.25,41.31-41.69,25.36-1.5,43.75,20.38,43.4,44.31C274,647,257.86,668.91,231.09,667.59ZM232,597.4a28.72,28.72,0,0,0-19.74,8.31c-4.88,4.84-9.75,12.25-9.05,19.46,1.36,14.1,9.91,28.37,29.5,28.58,14.14.15,28.49-14.2,27.93-28.39-.42-10.56-8-21.28-17.56-25.64A25.9,25.9,0,0,0,232,597.4Z"/><path class="cls-1" d="M856.63,625.41c2.87,14.18-13.57,28.36-26.84,28.4-15.4,0-28.83-12.88-28.91-28.27C800.8,610.86,814,598,829.16,598,845.63,598,856.64,609,856.63,625.41Zm-27.19,21.17c12.87,0,21.37-8.51,21.39-21.53a21,21,0,0,0-21.15-21.23c-12.79,0-22.28,9.05-22.24,21.33S816.94,646.53,829.44,646.58Z"/><path class="cls-1" d="M829.44,646.58c-12.5,0-22-9.26-22-21.43s9.45-21.38,22.24-21.33A21,21,0,0,1,850.83,625C850.82,638.06,842.32,646.62,829.44,646.58Z"/><path class="cls-5" d="M253.19,626.3c-.17,11.22-10.24,21.54-21.1,21.63-10.58.08-23-12.17-23-22.81-.08-11.34,11.18-21.48,23.63-21.3C244.61,604,253.38,613.61,253.19,626.3Zm-4.9-.83c.09-9.83-6.65-17-15.91-17.05-10,0-17.73,4.4-18,18.88-.13,7,10,15.8,17.64,15.74C240.48,643,248.2,634.64,248.28,625.46Z"/><path class="cls-6" d="M427,294.29h.31"/><ellipse class="cls-4" cx="248.95" cy="460.43" rx="186.53" ry="3.54"/><ellipse class="cls-4" cx="554.18" cy="460.43" rx="87.57" ry="3.54"/><ellipse class="cls-4" cx="616.66" cy="495.92" rx="1.86" ry="14.87"/><path class="cls-4" d="M897.54,442c4,4.85,4.76,11.55,4.91,17.83a3,3,0,0,1-.52,2.16,3,3,0,0,1-2.24.61l-19.54-.06c-.74,0-6.84-26.13,1.66-27.88C887.43,433.5,894.1,437.8,897.54,442Z"/><ellipse class="cls-4" cx="551.47" cy="612.41" rx="187.69" ry="3.99"/><path d="M511,362.61a33.08,33.08,0,0,1,4.21-3.52,37.93,37.93,0,0,1,4.74-2.84l1.81-.91-.84,1.9c-.77,1.75-1.58,3.48-2.39,5.21L517.28,365a5,5,0,0,0-.44,1.12c-.07.35,0,.48,0,.54l-1.18-.16a40,40,0,0,0,3.82-2.88,43.58,43.58,0,0,1,4-3,14.9,14.9,0,0,1,4.63-2.07,8.37,8.37,0,0,1,5,.2,9.27,9.27,0,0,0-4.71.63,16.47,16.47,0,0,0-4.08,2.38c-1.25,1-2.43,2.08-3.65,3.18a31.22,31.22,0,0,1-3.94,3.13l-.64.42-.54-.58a2.14,2.14,0,0,1-.53-1.13,2.82,2.82,0,0,1,0-1,6.64,6.64,0,0,1,.61-1.54l1.28-2.56c.88-1.7,1.75-3.4,2.66-5.08l1,1c-1.65.69-3.28,1.45-4.86,2.29S512.54,361.65,511,362.61Z"/><path d="M618.42,390.07a45.14,45.14,0,0,0-6.05,6.11q-2.8,3.27-5.39,6.7t-5,7c-1.59,2.37-3.06,4.83-4.5,7.3l-1.61-.86a21.13,21.13,0,0,1,4.62-5.89,42.9,42.9,0,0,1,5.84-4.44,55.12,55.12,0,0,1,13.08-6.26c-2.16,1.08-4.29,2.17-6.33,3.43s-4,2.56-6,4a52.67,52.67,0,0,0-5.45,4.53,21.32,21.32,0,0,0-4.15,5.49l-1.61-.86a95.65,95.65,0,0,1,9.86-14.35c1.86-2.23,3.82-4.37,5.88-6.41A36.62,36.62,0,0,1,618.42,390.07Z"/><path d="M593.56,389.93a23.17,23.17,0,0,1,7.79-3.95l1.32-.39-.89,1.1A128.38,128.38,0,0,0,592.94,399c-1.34,2.13-2.61,4.31-3.83,6.51s-2.33,4.46-3.41,6.73l-1.57-.94a57.15,57.15,0,0,1,13.17-12.07c2.43-1.7,4.95-3.26,7.48-4.77s5.1-3,7.7-4.38c-2.38,1.74-4.84,3.38-7.23,5.09s-4.8,3.4-7.13,5.18-4.58,3.64-6.7,5.63a50.56,50.56,0,0,0-5.82,6.42l-5.12,6.89,3.56-7.83c1.06-2.33,2.25-4.6,3.5-6.84s2.6-4.41,4-6.53a91.71,91.71,0,0,1,9.57-12l.43.7A25.22,25.22,0,0,0,593.56,389.93Z"/><rect class="cls-4" x="447.09" y="492.82" width="5.58" height="110.88" rx="0.75" ry="0.75"/><rect class="cls-4" x="641.75" y="489.72" width="5.58" height="110.88" rx="0.75" ry="0.75"/><path class="cls-5" d="M851.59,626.34c-.17,11.22-10.24,21.54-21.1,21.63-10.58.08-23-12.17-23-22.81-.08-11.34,11.18-21.48,23.63-21.3C843,604,851.78,613.65,851.59,626.34Zm-4.9-.83c.09-9.83-6.65-17-15.91-17.05-10,0-17.73,4.4-18,18.88-.13,7,10,15.8,17.64,15.74C838.88,643,846.6,634.69,846.68,625.51Z"/></svg>