<?xml version="1.0" encoding="utf-8"?>
<!-- Generator: Adobe Illustrator 19.0.0, SVG Export Plug-In . SVG Version: 6.00 Build 0)  -->
<svg version="1.1" id="Layer_1" xmlns="http://www.w3.org/2000/svg" xmlns:xlink="http://www.w3.org/1999/xlink" x="0px" y="0px"
	 viewBox="0 0 792 612" style="enable-background:new 0 0 792 612;" xml:space="preserve">
<style type="text/css">
	.st0{fill:#322F37;}
	.st1{fill:#5D5A64;}
	.st2{fill:#E9E8EC;}
	<!-- .st3{fill:#65B345;} -->
</style>
<g id="XMLID_1_">
	<g id="XMLID_2_">
		<circle id="XMLID_9112_" class="st0" cx="178.7" cy="421.1" r="67.3"/>
		<circle id="XMLID_9111_" class="st1" cx="178.7" cy="421.1" r="45.1"/>
		<circle id="XMLID_9110_" class="st2" cx="178.7" cy="421.1" r="39.6"/>
		<circle id="XMLID_9109_" class="st0" cx="178.7" cy="421.1" r="24.5"/>
		<g id="XMLID_9090_">
			<g id="XMLID_9106_">
				<circle id="XMLID_9108_" class="st1" cx="178.7" cy="390.4" r="3.5"/>
				<circle id="XMLID_9107_" class="st1" cx="178.7" cy="451.7" r="3.5"/>
			</g>
			<g id="XMLID_9103_">
				<circle id="XMLID_9105_" class="st1" cx="163.4" cy="394.5" r="3.5"/>
				<circle id="XMLID_9104_" class="st1" cx="194.1" cy="447.6" r="3.5"/>
			</g>
			<g id="XMLID_9100_">
				<circle id="XMLID_9102_" class="st1" cx="152.2" cy="405.7" r="3.5"/>
				<circle id="XMLID_9101_" class="st1" cx="205.3" cy="436.4" r="3.5"/>
			</g>
			<g id="XMLID_9097_">
				<circle id="XMLID_9099_" class="st1" cx="148.1" cy="421.1" r="3.5"/>
				<circle id="XMLID_9098_" class="st1" cx="209.4" cy="421.1" r="3.5"/>
			</g>
			<g id="XMLID_9094_">
				<circle id="XMLID_9096_" class="st1" cx="152.2" cy="436.4" r="3.5"/>
				<circle id="XMLID_9095_" class="st1" cx="205.3" cy="405.7" r="3.5"/>
			</g>
			<g id="XMLID_9091_">
				<circle id="XMLID_9093_" class="st1" cx="163.4" cy="447.6" r="3.5"/>
				<circle id="XMLID_9092_" class="st1" cx="194.1" cy="394.5" r="3.5"/>
			</g>
		</g>
	</g>
	<path id="XMLID_28_" class="st3" d="M542.9,373.7c-0.9,1.6-1.7,3.2-2.5,4.9C541.2,376.9,542,375.3,542.9,373.7z"/>
	<path id="XMLID_27_" class="st3" d="M549.6,363c-1.1,1.5-2.1,3-3,4.5C547.5,365.9,548.5,364.4,549.6,363z"/>
	<path id="XMLID_26_" class="st3" d="M569.4,342.2c-1.9,1.5-3.7,3-5.5,4.6C565.7,345.2,567.6,343.7,569.4,342.2z"/>
	<path id="XMLID_22_" class="st3" d="M579.9,335c-1.6,0.9-3.1,1.9-4.6,2.9C576.8,336.9,578.3,336,579.9,335z"/>
	<path id="XMLID_69_" class="st3" d="M679.9,333.6c1.2,0.7,2.5,1.4,3.7,2.2C682.4,335,681.1,334.3,679.9,333.6z"/>
	<path id="XMLID_70_" class="st3" d="M692.4,341.9c1.7,1.3,3.4,2.7,5,4.1C695.8,344.6,694.1,343.2,692.4,341.9z"/>
	<path id="XMLID_23_" class="st3" d="M724.3,384.4c-0.8-1.9-1.6-3.8-2.5-5.7c-2.1-4.6-4.6-9-7.4-13.2c2.8,4.2,5.3,8.6,7.4,13.2
		C722.7,380.6,723.6,382.5,724.3,384.4z"/>
	<g id="XMLID_9061_">
		<circle id="XMLID_9087_" class="st0" cx="632.1" cy="421.1" r="67.3"/>
		<circle id="XMLID_9086_" class="st1" cx="632.1" cy="421.1" r="45.1"/>
		<circle id="XMLID_9085_" class="st2" cx="632.1" cy="421.1" r="39.6"/>
		<circle id="XMLID_9084_" class="st0" cx="632.1" cy="421.1" r="24.5"/>
		<g id="XMLID_9062_">
			<g id="XMLID_9081_">
				<circle id="XMLID_9083_" class="st1" cx="632.1" cy="390.4" r="3.5"/>
				<circle id="XMLID_9082_" class="st1" cx="632.1" cy="451.7" r="3.5"/>
			</g>
			<g id="XMLID_9077_">
				<circle id="XMLID_9080_" class="st1" cx="616.8" cy="394.5" r="3.5"/>
				<circle id="XMLID_9079_" class="st1" cx="647.5" cy="447.6" r="3.5"/>
			</g>
			<g id="XMLID_9074_">
				<circle id="XMLID_9076_" class="st1" cx="605.6" cy="405.7" r="3.5"/>
				<circle id="XMLID_9075_" class="st1" cx="658.7" cy="436.4" r="3.5"/>
			</g>
			<g id="XMLID_9070_">
				<circle id="XMLID_9073_" class="st1" cx="601.5" cy="421.1" r="3.5"/>
				<circle id="XMLID_9072_" class="st1" cx="662.8" cy="421.1" r="3.5"/>
			</g>
			<g id="XMLID_9066_">
				<circle id="XMLID_9069_" class="st1" cx="605.6" cy="436.4" r="3.5"/>
				<circle id="XMLID_9067_" class="st1" cx="658.7" cy="405.7" r="3.5"/>
			</g>
			<g id="XMLID_9063_">
				<circle id="XMLID_9065_" class="st1" cx="616.8" cy="447.6" r="3.5"/>
				<circle id="XMLID_9064_" class="st1" cx="647.5" cy="394.5" r="3.5"/>
			</g>
		</g>
	</g>
	<path id="XMLID_13_" class="st3" d="M724.3,384.4c-0.8-1.9-1.6-3.8-2.5-5.7h0C722.7,380.6,723.6,382.5,724.3,384.4z"/>
	<path id="XMLID_17_" class="st3" d="M721.9,378.8c-2.1-4.6-4.6-9-7.4-13.2C717.2,369.8,719.7,374.2,721.9,378.8
		c0.8,1.9,1.7,3.8,2.4,5.7C723.6,382.5,722.7,380.6,721.9,378.8z M575.3,338c1.5-1,3-2,4.6-2.9C578.3,336,576.8,336.9,575.3,338z
		 M563.9,346.9c1.8-1.6,3.6-3.2,5.5-4.6C567.6,343.7,565.7,345.2,563.9,346.9z M546.6,367.4c1-1.5,2-3,3-4.5
		C548.5,364.4,547.5,365.9,546.6,367.4z M540.5,378.6c0.8-1.6,1.6-3.3,2.5-4.9C542,375.3,541.2,376.9,540.5,378.6z"/>
	<path id="XMLID_51_" class="st3" d="M774.9,378.8h-21.1V270.5l-112.5-38.7l-73.6-107.2l-152.5,0.2v131.7H31.8v76.7H17.9v34h13.9
		v14.7H17.4c-2.4,0-4.2,2.3-4.2,5.2V402c0,2.9,1.9,5.2,4.2,5.2h62.3c-0.4,3.1-0.7,6.3-0.9,9.5H107c2.2-37.7,33.6-67.7,71.9-67.7
		c38.3,0,69.6,30,71.9,67.7h28.2c-0.1-3.2-0.4-6.4-0.9-9.5H532c-0.4,3.1-0.7,6.3-0.9,9.5h28.2c2.2-37.7,33.6-67.7,71.9-67.7
		c38.3,0,69.6,30,71.9,67.7h28.1c-0.2-3.8-0.5-7.5-1.1-11.2h44.9c2.9,0,5.2-2.9,5.2-6.6v-13.6C780.1,381.7,777.8,378.8,774.9,378.8z
		 M439,391.4h-2.1V285.5H32v-2.1h404.9V125.7h2.1V391.4z M518.2,274.6h-26.7c-4.1,0-7.3-2.9-7.3-6.5c0-3.6,3.3-6.4,7.3-6.4h26.7
		c4.1,0,7.3,2.9,7.3,6.4C525.6,271.7,522.3,274.6,518.2,274.6z M458.7,231.7v-85.6l94.8-0.1l55.9,85.8H458.7z"/>
	<rect id="XMLID_9_" x="436.9" y="381.9" class="st3" width="2.1" height="9.5"/>
</g>
</svg>
