<?xml version="1.0" encoding="utf-8"?>
<!-- Generator: Adobe Illustrator 19.0.0, SVG Export Plug-In . SVG Version: 6.00 Build 0)  -->
<svg version="1.1" id="Layer_1" xmlns="http://www.w3.org/2000/svg" xmlns:xlink="http://www.w3.org/1999/xlink" x="0px" y="0px"
	 viewBox="0 0 792 612" style="enable-background:new 0 0 792 612;" xml:space="preserve">
<style type="text/css">
	.st0{fill:#424048;}
	.st1{fill:#5D5A64;}
	.st2{fill:#359A46;}
	.st3{fill:#C9C8CC;}
	.st4{fill:#6B6A73;}
	.st5{fill:#86848D;}
	.st7{fill:#322F37;}
</style>
<g id="XMLID_1_">
	<g id="XMLID_25_">
		<path id="XMLID_9_" class="st0" d="M56.6,351.2v17h9.7v40.3h65.6c12.9-19,34.7-31.5,59.3-31.5s46.4,12.5,59.3,31.5h316
			c12.9-19,34.7-31.5,59.3-31.5s46.4,12.5,59.3,31.5h57.6v-57.3H56.6z"/>
		<rect id="XMLID_18_" x="56.6" y="368.2" class="st1" width="9.7" height="40.3"/>
		<rect id="XMLID_15_" x="56.6" y="399.4" class="st0" width="9.7" height="9.1"/>
		<rect id="XMLID_19_" x="56.6" y="368.2" class="st1" width="9.7" height="62.9"/>
		<rect id="XMLID_9283_" x="45.2" y="389.4" class="st2" width="11.5" height="32.1"/>
		<rect id="XMLID_9282_" x="402.2" y="369.3" class="st3" width="130.2" height="51.3"/>
		<rect id="XMLID_9281_" x="402.2" y="402.5" class="st4" width="130.2" height="18.1"/>
		<rect id="XMLID_9280_" x="402.2" y="369.3" class="st5" width="130.2" height="15.6"/>
		<rect id="XMLID_9279_" x="475.7" y="369.3" class="st0" width="7.7" height="51.3"/>
		<rect id="XMLID_9278_" x="508.7" y="369.3" class="st0" width="7.7" height="51.3"/>
		<g id="XMLID_3_">
			<path id="XMLID_9318_" class="st6" d="M744.5,290.6c0,0,7.9,3.1,8.5,9.6v69.4l-8.7,9.6l-15.8-19.9L744.5,290.6z"/>
			<path id="XMLID_10_" class="st6" d="M716.4,215.1h12.4c-5.2-19.1-25.5-22.7-25.5-22.7h-108v162.4l55.2,0.1
				c36.1,0.6,47.5,26.7,47.5,26.7h46.5v-91L716.4,215.1z M660.3,303.8h-17c-2.6,0-4.7-1.9-4.7-4.2s2.1-4.2,4.7-4.2h17
				c2.6,0,4.7,1.9,4.7,4.2S662.9,303.8,660.3,303.8z M646.4,272v-50.3h62.5l18.7,50.3H646.4z"/>
		</g>
		<path id="XMLID_17_" class="st7" d="M190.8,383.8c-36,0-65.3,29.2-65.3,65.3c0,36,29.2,65.3,65.3,65.3s65.3-29.2,65.3-65.3
			C256,413.1,226.8,383.8,190.8,383.8z M190.8,464.8c-8.6,0-15.7-7-15.7-15.7c0-8.6,7-15.7,15.7-15.7c8.6,0,15.7,7,15.7,15.7
			C206.5,457.8,199.4,464.8,190.8,464.8z"/>
		<path id="XMLID_20_" class="st7" d="M625.8,383.8c-36,0-65.3,29.2-65.3,65.3c0,36,29.2,65.3,65.3,65.3s65.3-29.2,65.3-65.3
			C691,413.1,661.8,383.8,625.8,383.8z M626.8,464.8c-8.6,0-15.7-7-15.7-15.7c0-8.6,7-15.7,15.7-15.7c8.6,0,15.7,7,15.7,15.7
			C642.5,457.8,635.4,464.8,626.8,464.8z"/>
	</g>
	<g id="XMLID_33_">
		<path id="XMLID_47_" class="st6" d="M532.8,78.3v34.8H58.1l-4.3,185.8l66.2,38.9h456.8V91.3h19.6l8.9-13H532.8z M272.4,178.9
			c4.8-5.7,9-12,14.6-17c0.1-0.1,0.1-0.1,0.2-0.1c0,0,0.1-0.1,0.1-0.1c0.6-0.6,1.3-1.2,2.1-1.6c1.5-0.7,4.2-0.8,5.6-0.6
			c6-0.7,11.9-0.1,17.8-0.3c7.2-0.2,14.5-0.7,21.7-0.4c0.4,0,2,0.3,2.9,1c1.2,1,2.9,1.9,4,3.1c2.7,2.8,5,6,7.3,9.2
			c2.2,3.1,4.4,6.3,6.6,9.4c2.4-0.9,4.8-1.8,7.2-2.9c1-0.3,2-0.7,2.9-1.2c0,0,0.1,0.1,0.1,0.1c-0.2,0.4-0.3,0.8-0.5,1.2
			c0,0-0.1,0.1-0.1,0.1c-0.5,1.5-1.1,3-1.6,4.5c-0.7,2-1.4,4-2.1,6.1c-0.5,1-0.9,2.1-1.1,3.2c-1.2,3.4-2.4,6.9-3.5,10.3
			c-1,3-2,5.9-2.9,8.9c0,0,0,0,0,0c-0.2,0.5-0.3,0.9-0.5,1.4c-0.3-0.1-0.5-0.1-0.8-0.2v0c-4.6-1.5-9.1-3.2-13.5-5.1
			c-4.8-2.1-9.7-3.9-14.5-5.9c-2.8-1.1-5.9-2.3-8.7-3.8c0.4-0.2,0.8-0.5,1.3-0.7c0,0,0.1,0,0.1,0c2.8-1.2,5.7-2.5,8.5-3.8
			c-0.7-1.3-1.5-2.6-2.3-3.8c-2.7-4-5.4-8-8.3-11.8c-0.2-0.3-0.4-0.6-0.6-0.8c-2.2,2.5-4,5.6-5.7,8.4c-1.9,3-3.7,6.1-5.6,9.1
			c-2,3.2-4.1,6.4-6,9.7c-0.2,0.4-0.5,0.9-0.7,1.3c-0.6-0.4-1.2-0.9-1.9-1.2c0,0,0,0,0-0.1c-4.5-2.5-8.5-6.1-12.6-9.2
			c-4.4-3.3-8.8-6.9-13.4-9.9c0,0,0,0.1-0.1,0.1c-0.3-0.2-0.6-0.5-0.9-0.7C269.2,182.7,270.8,180.8,272.4,178.9z M305,269.6
			c-0.1,5.5-0.6,11.2-0.4,16.6c0,0,0,0,0.1,0c0,0.4,0,0.8,0,1.1c-2.5-0.2-5-0.4-7.5-0.6c-7.4-0.6-15-0.4-22.3-2.1
			c-0.1,0-0.2-0.1-0.2-0.1c-0.1,0-0.1,0-0.2,0c-0.9-0.2-1.8-0.4-2.5-0.8c-1.4-0.8-3.1-3-3.7-4.2c-4-4.5-6.9-9.6-10.5-14.4
			c-4.3-5.8-9-11.4-12.9-17.5c-0.2-0.3-0.9-1.8-0.8-2.9c0.1-1.6-0.1-3.5,0.2-5c0.7-3.8,2.1-7.6,3.4-11.2c1.3-3.6,2.6-7.2,3.8-10.8
			c-2.1-1.4-4.2-2.9-6.5-4.2c-0.8-0.7-1.7-1.2-2.6-1.7c0,0,0-0.1,0-0.1c0.4-0.1,0.8-0.2,1.3-0.3c0,0,0.1,0,0.1,0
			c1.5-0.4,3.1-0.8,4.6-1.3c2-0.6,4.1-1.2,6.2-1.8c1.1-0.2,2.2-0.5,3.3-1c3.5-1,7-2,10.4-3.1c3-0.9,6-1.8,9-2.7c0,0,0,0,0,0
			c0.5-0.1,0.9-0.3,1.4-0.4c0.1,0.3,0.2,0.5,0.3,0.7h0c1.4,4.6,2.7,9.3,3.6,14c1,5.1,2.4,10.1,3.6,15.2c0.7,3,1.5,6.2,1.9,9.3
			c-0.4-0.2-0.8-0.4-1.3-0.6c0,0,0-0.1,0-0.1c-2.6-1.6-5.3-3.2-8-4.8c-0.6,1.4-1.3,2.7-1.8,4.1c-1.7,4.5-3.4,9-4.9,13.6
			c-0.1,0.3-0.2,0.7-0.3,1c3.3,0.4,6.9,0,10.2-0.2c3.5-0.2,7.1-0.5,10.6-0.7c3.8-0.2,7.6-0.3,11.4-0.6c0.5-0.1,1-0.1,1.5-0.1
			c0,0.7,0,1.5,0,2.2c0,0,0,0,0,0C305.8,259.1,305.1,264.5,305,269.6z M386.4,239.6c-0.2,1.7-1.5,4-2.4,5.1
			c-2.5,5.5-6.1,10.2-9,15.4c-3.6,6.3-6.9,12.8-10.9,18.8c-0.2,0.3-1.3,1.6-2.3,1.9c-1.5,0.5-3.2,1.5-4.7,1.8
			c-3.8,0.9-7.8,1.1-11.7,1.4c-3.8,0.3-7.7,0.5-11.5,0.8c-0.5,2.5-1,5.1-1.3,7.6c-0.3,1-0.4,2.1-0.5,3.1c0,0-0.1,0-0.1,0
			c-0.3-0.3-0.5-0.7-0.8-1c0,0,0-0.1,0-0.1c-1-1.2-2-2.5-3-3.7c-1.4-1.6-2.8-3.3-4.1-4.9c-0.6-0.9-1.3-1.9-2.2-2.6
			c-2.3-2.8-4.6-5.6-7-8.3c-2-2.4-4.1-4.8-6.1-7.1c0,0,0,0,0,0c-0.3-0.4-0.6-0.8-1-1.1c0.2-0.2,0.4-0.4,0.5-0.6c0,0,0,0,0,0
			c3.7-3.1,7.5-6.2,11.4-8.9c4.3-3,8.3-6.2,12.5-9.4c2.4-1.8,5-3.9,7.7-5.5c0,0.5,0,1-0.1,1.4c0,0-0.1,0-0.1,0.1
			c-0.4,3.1-0.8,6.2-1.1,9.2c1.5,0,3,0.1,4.5,0c4.8-0.2,9.6-0.5,14.4-1c0.4,0,0.7-0.1,1.1-0.1c-1-3.2-2.7-6.3-4.2-9.2
			c-1.6-3.2-3.3-6.3-4.9-9.5c-1.7-3.4-3.3-6.8-5.1-10.1c-0.2-0.4-0.5-0.9-0.7-1.3c0.7-0.3,1.4-0.6,2.1-0.9c0,0,0,0,0,0
			c4.5-2.5,9.7-4.1,14.4-6c5.1-2.1,10.5-3.9,15.4-6.3c0,0,0-0.1,0-0.1c0.4-0.1,0.7-0.3,1.1-0.4c0.8,2.4,1.6,4.7,2.4,7.1
			c2.4,7.1,5.6,14,7,21.3c0,0.1,0,0.2,0,0.2c0,0.1,0,0.1,0.1,0.2C386.3,237.8,386.5,238.7,386.4,239.6z M595.2,89.7v-8.4l-60.1-1.6
			h67.6L595.2,89.7z"/>
		<path id="XMLID_51_" class="st6" d="M290.7,161.7c0.9,0.1,0.5,0.1,1.4-0.2c1.3-0.5,3.3,0.5,4.6,0.9c2.3,0.7,4.4,2.3,6.2,3.8
			c1.9,1.6,3.7,3.3,5.6,5c1.8,1.6,3.1,3.5,4.7,5.1c0.3,0.3,0.7-0.2,0.5-0.5c-3.3-4.4-7.2-8.3-11.6-11.7c-1.8-1.3-3.7-2.3-5.9-2.8
			c-0.9-0.2-1.7-0.4-2.6-0.5c-1.1-0.2-1.8,0.5-2.9,0.7C290.6,161.4,290.6,161.6,290.7,161.7z"/>
		<path id="XMLID_52_" class="st6" d="M384.1,241.4c-3,3.2-5.6,5.8-9.8,7.4c-4.1,1.6-8.5,1.8-12.7,2.5c-0.4,0.1-0.6,0.8-0.1,0.8
			c4.5,0.2,8.9-0.3,13.2-2c4.5-1.7,6.9-4.9,9.7-8.6C384.5,241.4,384.3,241.2,384.1,241.4z"/>
		<path id="XMLID_53_" class="st6" d="M270.4,252.1c-4.8-0.4-9.5-0.3-14.2-1.3c-4-0.9-9.5-2.2-11.4-6.1c0-0.1-0.2,0-0.2,0.1
			c1,4.4,6.3,5.7,10.1,6.8c4.7,1.4,10.7,2.2,15.6,1.4C270.7,252.9,270.9,252.1,270.4,252.1z"/>
	</g>
</g>
</svg>
