<?xml version="1.0" encoding="utf-8"?>
<!-- Generator: Adobe Illustrator 19.0.0, SVG Export Plug-In . SVG Version: 6.00 Build 0)  -->
<svg version="1.1" id="Layer_1" xmlns="http://www.w3.org/2000/svg" xmlns:xlink="http://www.w3.org/1999/xlink" x="0px" y="0px"
	 viewBox="0 0 792 612" style="enable-background:new 0 0 792 612;" xml:space="preserve">
<style type="text/css">
	<!-- .st0{fill:#65B345;} -->
	.st1{fill:#322F37;}
	.st2{fill:#5D5A64;}
	.st3{fill:#E9E8EC;}
</style>
<g id="XMLID_1_">
	<path id="XMLID_10_" class="st0" d="M123.8,423.3c0,0,0,0.1,0,0.1H55.2v-0.1H123.8z"/>
	<rect id="XMLID_13_" x="495.5" y="139.2" class="st0" width="10.7" height="0.2"/>
	<path id="XMLID_14_" class="st0" d="M506.1,423.3v0.1H289c0-0.2,0-0.3,0-0.5c1.8,0.2,3.9,0.4,6,0.4H506.1z"/>
	<path id="XMLID_11_" class="st0" d="M569.9,423.3c0,0,0,0.1,0,0.1h-98.5v-0.1H569.9z"/>
	<path id="XMLID_9_" class="st0" d="M717.5,407.2h-0.2c-8.8-27.2-34.4-46.8-64.5-46.8c-35.8,0-65.1,27.8-67.6,63h0
		c2.4-35.3,31.7-63.2,67.7-63.2c30.1,0,55.6,19.6,64.5,46.8h0.1C717.5,407.1,717.5,407.2,717.5,407.2z"/>
	<path id="XMLID_9235_" class="st1" d="M642.1,139.6h-587v-21.3h557.2C612.4,118.2,633.2,122.2,642.1,139.6z"/>
	<g id="XMLID_2_">
		<circle id="XMLID_9234_" class="st1" cx="207.5" cy="432.4" r="59.8"/>
		<circle id="XMLID_9232_" class="st2" cx="207.5" cy="432.4" r="40"/>
		<circle id="XMLID_9231_" class="st3" cx="207.5" cy="432.4" r="35.2"/>
		<circle id="XMLID_9230_" class="st1" cx="207.5" cy="432.4" r="21.7"/>
		<g id="XMLID_9211_">
			<g id="XMLID_9227_">
				<circle id="XMLID_9229_" class="st2" cx="207.5" cy="405.2" r="3.1"/>
				<circle id="XMLID_9228_" class="st2" cx="207.5" cy="459.7" r="3.1"/>
			</g>
			<g id="XMLID_9224_">
				<circle id="XMLID_9226_" class="st2" cx="193.9" cy="408.8" r="3.1"/>
				<circle id="XMLID_9225_" class="st2" cx="221.1" cy="456" r="3.1"/>
			</g>
			<g id="XMLID_9221_">
				<circle id="XMLID_9223_" class="st2" cx="183.9" cy="418.8" r="3.1"/>
				<circle id="XMLID_9222_" class="st2" cx="231.1" cy="446" r="3.1"/>
			</g>
			<g id="XMLID_9218_">
				<circle id="XMLID_9220_" class="st2" cx="180.3" cy="432.4" r="3.1"/>
				<circle id="XMLID_9219_" class="st2" cx="234.7" cy="432.4" r="3.1"/>
			</g>
			<g id="XMLID_9215_">
				<circle id="XMLID_9217_" class="st2" cx="183.9" cy="446" r="3.1"/>
				<circle id="XMLID_9216_" class="st2" cx="231.1" cy="418.8" r="3.1"/>
			</g>
			<g id="XMLID_9212_">
				<circle id="XMLID_9214_" class="st2" cx="193.9" cy="456" r="3.1"/>
				<circle id="XMLID_9213_" class="st2" cx="221.1" cy="408.8" r="3.1"/>
			</g>
		</g>
	</g>
	<g id="XMLID_6_">
		<circle id="XMLID_9210_" class="st1" cx="653.3" cy="434" r="59.8"/>
		<circle id="XMLID_9208_" class="st2" cx="653.3" cy="434" r="40"/>
		<circle id="XMLID_9207_" class="st3" cx="653.3" cy="434" r="35.2"/>
		<circle id="XMLID_9206_" class="st1" cx="653.3" cy="434" r="21.7"/>
		<g id="XMLID_9187_">
			<g id="XMLID_9203_">
				<circle id="XMLID_9205_" class="st2" cx="653.3" cy="406.8" r="3.1"/>
				<circle id="XMLID_9204_" class="st2" cx="653.3" cy="461.2" r="3.1"/>
			</g>
			<g id="XMLID_9200_">
				<circle id="XMLID_9202_" class="st2" cx="639.7" cy="410.4" r="3.1"/>
				<circle id="XMLID_9201_" class="st2" cx="666.9" cy="457.6" r="3.1"/>
			</g>
			<g id="XMLID_9197_">
				<circle id="XMLID_9199_" class="st2" cx="629.7" cy="420.4" r="3.1"/>
				<circle id="XMLID_9198_" class="st2" cx="676.9" cy="447.6" r="3.1"/>
			</g>
			<g id="XMLID_9194_">
				<circle id="XMLID_9196_" class="st2" cx="626.1" cy="434" r="3.1"/>
				<circle id="XMLID_9195_" class="st2" cx="680.6" cy="434" r="3.1"/>
			</g>
			<g id="XMLID_9191_">
				<circle id="XMLID_9193_" class="st2" cx="629.7" cy="447.6" r="3.1"/>
				<circle id="XMLID_9192_" class="st2" cx="676.9" cy="420.4" r="3.1"/>
			</g>
			<g id="XMLID_9188_">
				<circle id="XMLID_9190_" class="st2" cx="639.7" cy="457.6" r="3.1"/>
				<circle id="XMLID_9189_" class="st2" cx="666.9" cy="410.4" r="3.1"/>
			</g>
		</g>
	</g>
	<g id="XMLID_3_">
		<path id="XMLID_5_" class="st0" d="M493.3,423.3V313.6H55.2v46.2H41.3v34.5h13.9v10.5h-5.3c-2.3,0-4.2,1.7-4.2,3.8v10.8
			c0,2.1,1.9,3.8,4.2,3.8h73.9c0,0,0,0.1,0,0.1c-0.1,1.5-0.1,3.1-0.1,4.6c0,1.5,0,3,0.1,4.4h13.8c-0.1-1.5-0.1-2.9-0.1-4.4
			c0-1.5,0-3.1,0.1-4.6c2.4-35.9,32.3-64.4,68.8-64.4c36.5,0,66.5,28.4,68.8,64.4c0.1,1.5,0.1,3.1,0.1,4.6c0,1.5-0.1,3-0.1,4.4H289
			c0.1-1.5,0.1-2.9,0.1-4.4c0-1.5,0-3.1-0.1-4.6c0-0.2,0-0.3,0-0.5c1.8,0.2,3.9,0.4,6,0.4H493.3z"/>
		<path id="XMLID_18_" class="st0" d="M769.5,387.3h-5.1V317c-0.6-23.7-22.4-31.5-22.4-31.5L688,274l-46.1-134.6H497.6v283.9h72.3
			c0,0,0,0.1,0,0.1c-0.1,1.5-0.1,3.1-0.1,4.6c0,1.5,0,3,0.1,4.4h15.3c-0.1-1.5-0.2-2.9-0.2-4.4c0-1.5,0-3.1,0.2-4.6
			c2.4-35.3,31.7-63.2,67.7-63.2c30.1,0,55.6,19.6,64.5,46.8h0.1c0,0.1,0,0.1,0.1,0.2c0.6,2.2,2.2,3.8,4.1,3.8h47.8
			c2.4,0,4.4-2.6,4.4-5.8v-12.1C773.9,389.9,771.9,387.3,769.5,387.3z M585.6,303h-23.1c-3.5,0-6.3-2.5-6.3-5.7
			c0-3.1,2.8-5.7,6.3-5.7h23.1c3.5,0,6.3,2.5,6.3,5.7C591.9,300.5,589.1,303,585.6,303z M533.7,259.1v-91.8h88.1l31.5,91.8H533.7z"
			/>
		<g id="XMLID_4_">
			<path id="XMLID_7_" class="st0" d="M256.2,172.4c1.1-0.4,2.7,0.4,3.8,0.7c1.9,0.6,3.6,1.9,5.1,3.1c1.6,1.3,3.1,2.7,4.6,4.1
				c1.4,1.3,2.5,2.8,3.9,4.2c0.2,0.2,0.6-0.2,0.4-0.4c-2.7-3.7-5.9-6.9-9.6-9.6c-1.5-1.1-3.1-1.9-4.8-2.3c-0.7-0.2-1.4-0.3-2.1-0.4
				c-0.9-0.1-1.5,0.4-2.4,0.5c-0.1,0-0.1,0.2,0,0.2C255.7,172.6,255.4,172.6,256.2,172.4z"/>
			<path id="XMLID_8_" class="st0" d="M332,238.2c-2.5,2.6-4.6,4.8-8.1,6.1c-3.4,1.3-7,1.4-10.5,2.1c-0.3,0.1-0.5,0.7-0.1,0.7
				c3.7,0.2,7.4-0.3,10.9-1.6c3.7-1.4,5.7-4.1,8-7.1C332.3,238.2,332.1,238.1,332,238.2z"/>
			<path id="XMLID_27_" class="st0" d="M238.3,247c-4-0.3-7.8-0.2-11.7-1.1c-3.3-0.7-7.9-1.8-9.4-5.1c0-0.1-0.1,0-0.1,0.1
				c0.9,3.6,5.2,4.7,8.3,5.6c3.9,1.1,8.8,1.8,12.9,1.2C238.5,247.7,238.7,247.1,238.3,247z"/>
			<path id="XMLID_30_" class="st0" d="M55.2,139.2v170.2h438.2V139.2H55.2z M240,186.7c3.9-4.7,7.4-9.9,12-14
				c0.1-0.1,0.1-0.1,0.2-0.1c0,0,0.1-0.1,0.1-0.1c0.5-0.5,1.1-1,1.8-1.3c1.2-0.6,3.5-0.6,4.6-0.5c5-0.5,9.8-0.1,14.7-0.2
				c5.9-0.2,12-0.6,17.9-0.4c0.3,0,1.7,0.2,2.4,0.8c1,0.9,2.4,1.6,3.3,2.5c2.3,2.3,4.1,5,6,7.6c1.8,2.6,3.6,5.2,5.5,7.7
				c2-0.7,4-1.5,5.9-2.4c0.8-0.2,1.6-0.6,2.4-1c0,0,0,0.1,0.1,0.1c-0.1,0.3-0.3,0.7-0.4,1c0,0-0.1,0-0.1,0.1
				c-0.4,1.2-0.9,2.5-1.3,3.7c-0.6,1.7-1.1,3.3-1.7,5c-0.4,0.9-0.7,1.7-0.9,2.7c-1,2.8-2,5.7-2.9,8.5c-0.8,2.4-1.6,4.9-2.4,7.3
				c0,0,0,0,0,0c-0.1,0.4-0.3,0.8-0.4,1.2c-0.2-0.1-0.4-0.1-0.6-0.1v0c-3.8-1.3-7.5-2.6-11.1-4.2c-3.9-1.8-8-3.2-12-4.8
				c-2.3-0.9-4.9-1.9-7.1-3.1c0.3-0.2,0.7-0.4,1-0.6c0,0,0,0,0.1,0c2.3-1,4.7-2.1,7-3.1c-0.6-1.1-1.2-2.1-1.9-3.2
				c-2.2-3.3-4.5-6.6-6.8-9.8c-0.2-0.2-0.4-0.5-0.5-0.7c-1.8,2.1-3.3,4.6-4.7,6.9c-1.6,2.5-3.1,5-4.6,7.5c-1.6,2.7-3.4,5.3-5,8
				c-0.2,0.4-0.4,0.7-0.6,1.1c-0.5-0.4-1-0.7-1.5-1c0,0,0,0,0,0c-3.7-2.1-7-5.1-10.4-7.6c-3.6-2.7-7.2-5.7-11-8.2c0,0,0,0-0.1,0.1
				c-0.2-0.2-0.5-0.4-0.7-0.6C237.3,189.9,238.6,188.3,240,186.7z M266.8,261.5c-0.1,4.5-0.5,9.2-0.3,13.7c0,0,0,0,0.1,0
				c0,0.3,0,0.6,0,0.9c-2.1-0.1-4.1-0.3-6.2-0.5c-6.1-0.5-12.4-0.4-18.4-1.7c-0.1,0-0.1-0.1-0.2-0.1c-0.1,0-0.1,0-0.2,0
				c-0.7-0.1-1.4-0.3-2.1-0.7c-1.2-0.7-2.5-2.5-3.1-3.5c-3.3-3.7-5.7-7.9-8.7-11.9c-3.6-4.8-7.4-9.4-10.6-14.4
				c-0.2-0.3-0.8-1.5-0.7-2.4c0.1-1.3-0.1-2.9,0.2-4.1c0.6-3.2,1.7-6.2,2.8-9.3c1.1-3,2.1-6,3.2-8.9c-1.7-1.2-3.5-2.4-5.3-3.5
				c-0.7-0.5-1.4-1-2.2-1.4c0,0,0-0.1,0-0.1c0.4-0.1,0.7-0.2,1-0.3c0,0,0.1,0,0.1,0c1.3-0.4,2.5-0.7,3.8-1.1c1.7-0.5,3.4-1,5.1-1.5
				c0.9-0.2,1.8-0.4,2.7-0.8c2.9-0.8,5.7-1.7,8.6-2.5c2.5-0.7,4.9-1.5,7.4-2.3c0,0,0,0,0,0c0.4-0.1,0.8-0.2,1.2-0.4
				c0.1,0.2,0.2,0.4,0.3,0.6h0c1.1,3.8,2.2,7.7,3,11.5c0.9,4.2,2,8.4,2.9,12.5c0.6,2.4,1.3,5.1,1.6,7.6c-0.3-0.2-0.7-0.3-1.1-0.5
				c0,0,0-0.1,0-0.1c-2.2-1.3-4.4-2.6-6.6-3.9c-0.5,1.1-1,2.2-1.5,3.4c-1.4,3.7-2.8,7.4-4,11.2c-0.1,0.3-0.2,0.6-0.3,0.8
				c2.7,0.3,5.7,0,8.4-0.1c2.9-0.2,5.8-0.4,8.8-0.6c3.1-0.2,6.2-0.2,9.4-0.5c0.4,0,0.8-0.1,1.2-0.1c0,0.6,0,1.2,0,1.8c0,0,0,0,0,0
				C267.5,252.8,266.9,257.2,266.8,261.5z M331.9,241c-2.1,4.5-5,8.4-7.4,12.7c-2.9,5.2-5.7,10.5-9,15.5c-0.2,0.3-1,1.3-1.9,1.6
				c-1.3,0.4-2.6,1.2-3.9,1.5c-3.1,0.7-6.4,0.9-9.6,1.2c-3.2,0.2-6.3,0.4-9.4,0.7c-0.4,2.1-0.8,4.2-1.1,6.3
				c-0.2,0.8-0.4,1.7-0.4,2.6c0,0-0.1,0-0.1,0c-0.2-0.3-0.4-0.6-0.7-0.9c0,0,0-0.1,0-0.1c-0.8-1-1.7-2-2.5-3.1
				c-1.1-1.3-2.3-2.7-3.4-4.1c-0.5-0.8-1.1-1.5-1.8-2.2c-1.9-2.3-3.8-4.6-5.8-6.9c-1.7-2-3.3-3.9-5-5.9c0,0,0,0,0,0
				c-0.3-0.3-0.5-0.6-0.8-0.9c0.2-0.2,0.3-0.3,0.4-0.5c0,0,0,0,0,0c3-2.6,6.1-5.1,9.4-7.3c3.5-2.5,6.9-5.1,10.3-7.7
				c2-1.5,4.1-3.2,6.4-4.5c0,0.4,0,0.8-0.1,1.2c0,0,0,0-0.1,0.1c-0.4,2.5-0.7,5.1-0.9,7.6c1.2,0,2.5,0,3.7,0c4-0.2,7.9-0.4,11.9-0.8
				c0.3,0,0.6-0.1,0.9-0.1c-0.8-2.6-2.3-5.2-3.5-7.6c-1.3-2.6-2.7-5.2-4-7.8c-1.4-2.8-2.7-5.6-4.2-8.4c-0.2-0.4-0.4-0.7-0.6-1.1
				c0.6-0.2,1.1-0.5,1.7-0.8c0,0,0,0,0,0c3.7-2.1,8-3.4,11.8-5c4.2-1.7,8.6-3.2,12.7-5.2c0,0,0,0,0-0.1c0.3-0.1,0.6-0.2,0.9-0.3
				c0.7,1.9,1.3,3.9,2,5.9c2,5.8,4.6,11.5,5.8,17.6c0,0.1,0,0.1,0,0.2c0,0.1,0,0.1,0.1,0.2c0.2,0.7,0.3,1.4,0.2,2.2
				C333.7,238.1,332.6,240,331.9,241z"/>
		</g>
	</g>
</g>
</svg>
