<?xml version="1.0" encoding="UTF-8" standalone="no"?>
<!DOCTYPE svg PUBLIC "-//W3C//DTD SVG 1.1//EN" "http://www.w3.org/Graphics/SVG/1.1/DTD/svg11.dtd">
<svg version="1.1" xmlns="http://www.w3.org/2000/svg" xmlns:xlink="http://www.w3.org/1999/xlink" preserveAspectRatio="xMidYMid meet" viewBox="0 0 640 640" width="640" height="640"><defs><path d="M400.98 123.1C400.98 108.7 403.63 94.58 408.33 81.62C375.4 68.65 339.53 61.74 301.89 61.74C142.82 61.74 13.74 188.2 13.74 344.05C13.74 499.9 142.82 626.37 301.89 626.37C460.96 626.37 590.04 499.9 590.04 344.05C590.04 306.03 582.4 269.73 568.28 236.6C554.76 241.5 540.06 244.38 524.77 244.38C456.55 244.38 400.98 190.22 400.98 123.1Z" id="b1TD4VdKXa"></path><path d="M420.09 119.64C420.09 178.12 468.61 225.65 528.3 225.65C587.98 225.65 636.5 178.12 636.5 119.64C636.5 61.16 587.98 13.63 528.3 13.63C468.61 13.63 420.09 61.16 420.09 119.64ZM534.18 125.12L534.18 180.43L522.71 180.43L522.71 125.12L466.25 125.12L466.25 113.88L522.71 113.88L522.71 58.57L534.18 58.57L534.18 113.88L590.63 113.88L590.63 125.12L534.18 125.12Z" id="a1oul7F61X"></path><path d="M237.2 230.26L137.82 291.91L119.29 291.91L119.59 382.08L369.52 382.08L369.52 291.91L351.58 291.91L350.7 283.27L237.2 230.26Z" id="b1furV7OvW"></path><path d="M403.63 340.31C417.74 340.31 431.85 340.31 446.26 340.31C442.44 325.91 437.73 311.5 433.62 297.39C423.33 296.52 413.33 296.81 403.63 296.81C403.04 311.21 403.33 325.62 403.63 340.31Z" id="c2UxT1Krtl"></path><path d="M405.68 419.53C405.68 420.11 405.39 420.68 405.39 421.26C405.39 424.14 406.57 426.73 408.62 428.46C410.39 430.19 412.74 431.05 415.39 431.05C418.03 431.05 420.39 430.19 422.15 428.46C424.21 426.73 425.38 424.14 425.38 421.26C425.38 420.68 425.38 420.11 425.09 419.53C424.5 414.92 420.39 411.46 415.39 411.46C410.39 411.46 406.57 414.92 405.68 419.53Z" id="gVTwlBEMo"></path><path d="M152.52 411.18C149.29 411.18 146.05 412.9 144.29 415.5C143.41 416.65 142.82 417.8 142.82 419.24C142.82 419.82 142.52 420.39 142.52 420.97C142.52 423.85 143.7 426.44 145.76 428.17C147.52 429.9 149.87 430.77 152.52 430.77C155.17 430.77 157.52 429.9 159.28 428.17C161.34 426.44 162.52 423.85 162.52 420.97C162.52 420.39 162.52 419.82 162.22 419.24C162.22 418.09 161.64 416.65 160.75 415.5C158.99 412.9 156.05 411.18 152.52 411.18Z" id="drCvIFumy"></path><path d="M456.85 399.94C465.37 400.23 474.19 400.23 482.72 399.65C482.72 394.76 482.72 389.86 482.43 384.67C474.19 384.67 465.37 384.67 456.85 384.67C456.55 389.86 456.55 394.76 456.85 399.94Z" id="e4l2FWBW2L"></path><path d="M382.16 420.97C382.16 439.12 397.16 453.52 415.39 453.52C433.91 453.52 448.61 438.83 448.61 420.97C448.91 403.11 433.91 388.42 415.39 388.42C396.86 388.42 382.16 403.11 382.16 420.97ZM415.39 430.77C412.74 430.77 410.39 429.9 408.62 428.17C406.57 426.44 405.39 423.85 405.39 420.97C405.39 420.39 405.39 419.82 405.68 419.24C406.57 414.63 410.68 411.18 415.39 411.18C420.39 411.18 424.21 414.63 425.09 419.24C425.09 419.82 425.38 420.39 425.38 420.97C425.38 423.85 424.21 426.44 422.15 428.17C420.39 429.9 418.03 430.77 415.39 430.77Z" id="n6i98RJRv"></path><path d="M152.81 388.42C136.35 388.42 122.53 400.23 119.88 415.5C119.59 417.23 119.29 419.24 119.29 420.97C119.29 439.12 134.29 453.52 152.52 453.52C171.04 453.52 185.75 438.83 185.75 420.97C185.75 418.95 185.45 417.23 185.16 415.5C182.81 400.23 169.28 388.42 152.81 388.42C152.81 388.42 152.81 388.42 152.81 388.42ZM152.52 430.77C149.87 430.77 147.52 429.9 145.76 428.17C143.7 426.44 142.52 423.85 142.52 420.97C142.52 420.39 142.52 419.82 142.82 419.24C143.11 417.8 143.7 416.65 144.29 415.5C146.05 412.9 148.99 411.18 152.52 411.18C155.75 411.18 158.99 412.9 160.75 415.5C161.64 416.65 162.22 417.8 162.22 419.24C162.22 419.82 162.52 420.39 162.52 420.97C162.52 423.85 161.34 426.44 159.28 428.17C157.52 429.9 155.17 430.77 152.52 430.77Z" id="c34u1p2Uxs"></path><path d="M112.83 388.42L112.83 415.5C115.82 415.5 117.49 415.5 117.82 415.5C117.82 415.5 117.82 415.21 117.82 415.21C120.18 402.53 129 392.74 140.76 388.42C137.03 388.42 127.72 388.42 112.83 388.42Z" id="h8HCKnXDZ"></path><path d="M484.19 353.85C479.49 351.54 474.49 349.53 469.49 347.22C465.96 345.78 462.73 344.05 459.2 342.61C458.61 342.33 458.32 342.33 458.02 342.04C451.26 338.29 451.26 329.36 448.61 322.74C445.97 311.79 441.26 301.13 438.62 290.18C436.85 283.27 435.97 276.36 436.56 268.87C416.56 268.58 396.86 268.87 377.16 268.87C377.16 268.87 377.16 268.87 376.87 268.87C376.87 268.87 376.87 268.87 376.87 268.87C376.87 268.87 376.87 268.87 376.87 268.87L376.87 292.78C376.87 292.78 376.87 292.78 376.87 292.78C376.87 324.47 376.57 356.44 376.87 388.13C355.64 388.13 185.8 388.13 164.58 388.13C176.34 392.16 185.16 402.25 187.51 414.92C187.51 414.92 187.51 415.21 187.51 415.21C206.5 415.21 358.46 415.21 377.46 415.21C382.45 399.94 394.51 385.54 411.86 384.39C430.97 381.79 448.91 396.2 453.02 414.06C465.67 414.06 478.31 414.06 490.95 414.06C490.95 408.87 490.95 403.4 490.95 398.21C489.19 398.79 486.84 398.79 484.48 398.5C484.48 383.52 484.78 368.83 484.19 353.85ZM403.33 296.81C413.33 296.81 423.33 296.81 433.03 297.1C436.85 311.5 441.56 325.62 445.67 340.02C431.56 340.31 417.45 340.31 403.33 340.31C403.33 325.91 403.04 311.5 403.33 296.81ZM456.85 399.94C456.55 394.76 456.55 389.86 456.85 384.67C465.37 384.39 474.19 384.39 482.72 384.67C483.01 389.86 483.01 394.76 482.72 399.65C474.19 399.94 465.37 399.94 456.85 399.94Z" id="c51NVNNxN0"></path></defs><g><g><g><use xlink:href="#b1TD4VdKXa" opacity="1" fill="#1A7BB7" fill-opacity="1"></use><g><use xlink:href="#b1TD4VdKXa" opacity="1" fill-opacity="0" stroke="#000000" stroke-width="1" stroke-opacity="0"></use></g></g><g><use xlink:href="#a1oul7F61X" opacity="1" fill="#1A7BB7" fill-opacity="1"></use><g><use xlink:href="#a1oul7F61X" opacity="1" fill-opacity="0" stroke="#000000" stroke-width="1" stroke-opacity="0"></use></g></g><g><use xlink:href="#b1furV7OvW" opacity="1" fill="#ffffff" fill-opacity="1"></use><g><use xlink:href="#b1furV7OvW" opacity="1" fill-opacity="0" stroke="#000000" stroke-width="1" stroke-opacity="0"></use></g></g><g><use xlink:href="#c2UxT1Krtl" opacity="1" fill="#000000" fill-opacity="0"></use><g><use xlink:href="#c2UxT1Krtl" opacity="1" fill-opacity="0" stroke="#000000" stroke-width="1" stroke-opacity="0"></use></g></g><g><use xlink:href="#gVTwlBEMo" opacity="1" fill="#000000" fill-opacity="0"></use><g><use xlink:href="#gVTwlBEMo" opacity="1" fill-opacity="0" stroke="#000000" stroke-width="1" stroke-opacity="0"></use></g></g><g><use xlink:href="#drCvIFumy" opacity="1" fill="#000000" fill-opacity="0"></use><g><use xlink:href="#drCvIFumy" opacity="1" fill-opacity="0" stroke="#000000" stroke-width="1" stroke-opacity="0"></use></g></g><g><use xlink:href="#e4l2FWBW2L" opacity="1" fill="#000000" fill-opacity="0"></use><g><use xlink:href="#e4l2FWBW2L" opacity="1" fill-opacity="0" stroke="#000000" stroke-width="1" stroke-opacity="0"></use></g></g><g><use xlink:href="#n6i98RJRv" opacity="1" fill="#ffffff" fill-opacity="1"></use><g><use xlink:href="#n6i98RJRv" opacity="1" fill-opacity="0" stroke="#000000" stroke-width="1" stroke-opacity="0"></use></g></g><g><use xlink:href="#c34u1p2Uxs" opacity="1" fill="#ffffff" fill-opacity="1"></use><g><use xlink:href="#c34u1p2Uxs" opacity="1" fill-opacity="0" stroke="#000000" stroke-width="1" stroke-opacity="0"></use></g></g><g><use xlink:href="#h8HCKnXDZ" opacity="1" fill="#ffffff" fill-opacity="1"></use><g><use xlink:href="#h8HCKnXDZ" opacity="1" fill-opacity="0" stroke="#000000" stroke-width="1" stroke-opacity="0"></use></g></g><g><use xlink:href="#c51NVNNxN0" opacity="1" fill="#ffffff" fill-opacity="1"></use><g><use xlink:href="#c51NVNNxN0" opacity="1" fill-opacity="0" stroke="#000000" stroke-width="1" stroke-opacity="0"></use></g></g></g></g></svg>