<?xml version="1.0" encoding="UTF-8" standalone="no"?>
<!DOCTYPE svg PUBLIC "-//W3C//DTD SVG 1.1//EN" "http://www.w3.org/Graphics/SVG/1.1/DTD/svg11.dtd">
<svg version="1.1" xmlns="http://www.w3.org/2000/svg" xmlns:xlink="http://www.w3.org/1999/xlink" preserveAspectRatio="xMidYMid meet" viewBox="0 0 640 640" width="640" height="640"><defs><path d="M392.29 121.9C392.29 107.2 394.75 93.41 399.66 80.54C367.11 67.67 331.8 60.63 294.95 60.63C138.04 60.63 11.22 187.46 11.22 343.71C11.22 500.26 138.35 626.79 294.95 626.79C451.86 626.79 578.68 499.95 578.68 343.71C578.68 305.41 571 268.95 557.18 235.87C543.98 240.77 529.24 243.53 514.2 243.53C446.95 243.53 392.29 188.99 392.29 121.9Z" id="a1dekyRBIH"></path><path d="M411.02 118.22C411.02 177.05 458.62 224.53 517.57 224.53C576.53 224.53 624.13 177.05 624.13 118.22C624.13 59.71 576.53 11.92 517.57 11.92C458.62 11.92 411.02 59.4 411.02 118.22ZM523.41 124.05L523.41 179.5L512.05 179.5L512.05 124.05L456.47 124.05L456.47 113.02L512.05 113.02L512.05 57.56L523.1 57.56L523.1 113.02L578.68 113.02L578.68 124.05L523.41 124.05Z" id="boapTnmEo"></path><path d="M360.05 230.05L229.24 230.05L229.24 272.94L251.65 272.94L251.65 252.41L337.94 252.41L337.94 272.94L360.05 272.94L360.05 230.05Z" id="aAo6eQOo0"></path><path d="M430.06 424.28L430.06 311.54L360.05 311.54L229.24 311.54L159.53 311.54L159.53 424.28L430.06 424.28Z" id="e45nLk0zxf"></path><path d="M229.24 304.19L251.65 304.19L337.94 304.19L360.05 304.19L430.06 304.19L430.06 280.6L360.05 280.6L337.94 280.6L251.65 280.6L229.24 280.6L159.53 280.6L159.53 304.19L229.24 304.19Z" id="a5oHnhVTIe"></path><path d="M430.37 431.94C430.37 431.94 430.37 431.94 430.37 431.94C430.37 447.01 430.37 455.39 430.37 457.06C430.37 457.06 430.37 457.06 430.37 457.06C267.87 457.06 177.59 457.06 159.53 457.06C159.53 457.06 159.53 457.06 159.53 457.06C159.53 441.99 159.53 433.61 159.53 431.94C159.53 431.94 159.53 431.94 159.53 431.94C322.03 431.94 412.31 431.94 430.37 431.94Z" id="cGF9BJn"></path></defs><g><g><g><use xlink:href="#a1dekyRBIH" opacity="1" fill="#1A7BB7" fill-opacity="1"></use><g><use xlink:href="#a1dekyRBIH" opacity="1" fill-opacity="0" stroke="#000000" stroke-width="1" stroke-opacity="0"></use></g></g><g><use xlink:href="#boapTnmEo" opacity="1" fill="#1A7BB7" fill-opacity="1"></use><g><use xlink:href="#boapTnmEo" opacity="1" fill-opacity="0" stroke="#000000" stroke-width="1" stroke-opacity="0"></use></g></g><g><use xlink:href="#aAo6eQOo0" opacity="1" fill="#ffffff" fill-opacity="1"></use><g><use xlink:href="#aAo6eQOo0" opacity="1" fill-opacity="0" stroke="#000000" stroke-width="1" stroke-opacity="0"></use></g></g><g><use xlink:href="#e45nLk0zxf" opacity="1" fill="#ffffff" fill-opacity="1"></use><g><use xlink:href="#e45nLk0zxf" opacity="1" fill-opacity="0" stroke="#000000" stroke-width="1" stroke-opacity="0"></use></g></g><g><use xlink:href="#a5oHnhVTIe" opacity="1" fill="#ffffff" fill-opacity="1"></use><g><use xlink:href="#a5oHnhVTIe" opacity="1" fill-opacity="0" stroke="#000000" stroke-width="1" stroke-opacity="0"></use></g></g><g><use xlink:href="#cGF9BJn" opacity="1" fill="#ffffff" fill-opacity="1"></use><g><use xlink:href="#cGF9BJn" opacity="1" fill-opacity="0" stroke="#000000" stroke-width="1" stroke-opacity="0"></use></g></g></g></g></svg>